<?xml version="1.0" encoding="utf-8"?>
<!-- Generator: Adobe Illustrator 22.0.0, SVG Export Plug-In . SVG Version: 6.00 Build 0)  -->
<svg version="1.1" id="Capa_1" xmlns="http://www.w3.org/2000/svg" xmlns:xlink="http://www.w3.org/1999/xlink" x="0px" y="0px"
	 viewBox="0 0 24 24" style="enable-background:new 0 0 24 24;" xml:space="preserve">
<style type="text/css">
	.st0{fill:url(#SVGID_1_);}
	.st1{fill:#22263D;}
	.st2{fill:#FFFFFF;}
	.st3{fill:#3DE200;}
	.st4{fill:url(#SVGID_2_);}
	.st5{fill:none;stroke:#22263D;stroke-linecap:round;stroke-linejoin:round;stroke-miterlimit:10;}
</style>
<title>logo</title>
<desc>Created with Sketch.</desc>
<g>
	<g>
		<linearGradient id="SVGID_1_" gradientUnits="userSpaceOnUse" x1="10" y1="9.7" x2="20.4" y2="9.7">
			<stop  offset="0" style="stop-color:#63FF00"/>
			<stop  offset="0.2558" style="stop-color:#5CFF00;stop-opacity:0.7442"/>
			<stop  offset="1" style="stop-color:#4AFF00;stop-opacity:0"/>
		</linearGradient>
		<path class="st0" d="M20.4,17h-4v-2.4c0-0.3-0.2-0.5-0.5-0.5h-1.3C12,14,10,12,10,9.5V2.4h4v7.1c0,0.3,0.2,0.5,0.5,0.5h1.3
			c2.5,0,4.5,2,4.5,4.5V17H20.4z"/>
	</g>
</g>
<g>
	<path class="st1" d="M18.3,17.5c-0.3,0-0.5-0.2-0.5-0.5v-2.5c0-1.1-0.9-2-2-2h-1.3c-1.7,0-3-1.3-3-3V5.4c0-0.3,0.2-0.5,0.5-0.5
		s0.5,0.2,0.5,0.5v4.1c0,1.1,0.9,2,2,2h1.3c1.7,0,3,1.3,3,3V17C18.8,17.3,18.6,17.5,18.3,17.5z"/>
</g>
<g>
	<path class="st1" d="M5.6,17.5c-0.3,0-0.5-0.2-0.5-0.5v-2.5c0-1.7,1.3-3,3-3h1.4c1.1,0,2-0.9,2-2V5.4c0-0.3,0.2-0.5,0.5-0.5
		s0.5,0.2,0.5,0.5v4.1c0,1.7-1.3,3-3,3H8.1c-1.1,0-2,0.9-2,2V17C6.1,17.3,5.9,17.5,5.6,17.5z"/>
</g>
<g>
	<circle class="st2" cx="12" cy="3.5" r="1.9"/>
	<path class="st1" d="M12,5.9c-1.3,0-2.4-1.1-2.4-2.4s1.1-2.4,2.4-2.4s2.4,1.1,2.4,2.4S13.3,5.9,12,5.9z M12,2.1
		c-0.8,0-1.4,0.6-1.4,1.4s0.6,1.4,1.4,1.4s1.4-0.6,1.4-1.4S12.8,2.1,12,2.1z"/>
</g>
<g>
	<path class="st2" d="M22.3,23.5h-7.4c-0.6,0-1-0.5-1-1V18c0-0.6,0.5-1,1-1h7.4c0.6,0,1,0.5,1,1v4.5C23.3,23,22.8,23.5,22.3,23.5z"
		/>
	<path class="st3" d="M22.3,24h-7.4c-0.8,0-1.5-0.7-1.5-1.5V18c0-0.8,0.7-1.5,1.5-1.5h7.4c0.8,0,1.5,0.7,1.5,1.5v4.5
		C23.8,23.3,23.1,24,22.3,24z M14.9,17.5c-0.2,0-0.5,0.2-0.5,0.5v4.5c0,0.2,0.2,0.5,0.5,0.5h7.4c0.2,0,0.5-0.3,0.5-0.5V18
		c0-0.2-0.2-0.5-0.5-0.5H14.9z"/>
</g>
<linearGradient id="SVGID_2_" gradientUnits="userSpaceOnUse" x1="0.9" y1="20.25" x2="10.3" y2="20.25">
	<stop  offset="1.037677e-07" style="stop-color:#66FF00"/>
	<stop  offset="1" style="stop-color:#FFFFFF"/>
</linearGradient>
<path class="st4" d="M9.3,23.5H1.9c-0.6,0-1-0.4-1-1V18c0-0.6,0.4-1,1-1h7.4c0.6,0,1,0.4,1,1v4.5C10.3,23,9.8,23.5,9.3,23.5z"/>
<g>
	<path class="st3" d="M9.3,24H1.9c-0.9,0-1.5-0.6-1.5-1.5V18c0-0.9,0.6-1.5,1.5-1.5h7.4c0.9,0,1.5,0.6,1.5,1.5v4.5
		C10.8,23.3,10.1,24,9.3,24z M1.9,17.5c-0.3,0-0.5,0.2-0.5,0.5v4.5c0,0.3,0.2,0.5,0.5,0.5h7.4c0.2,0,0.5-0.3,0.5-0.5V18
		c0-0.3-0.2-0.5-0.5-0.5H1.9z"/>
</g>
<g>
	<g>
		<path class="st1" d="M8.8,6.8H7.3C7,6.8,6.8,6.6,6.8,6.3V0.5C6.8,0.2,7,0,7.3,0h1.5c0.3,0,0.5,0.2,0.5,0.5S9.1,1,8.8,1h-1v4.8h1
			c0.3,0,0.5,0.2,0.5,0.5S9.1,6.8,8.8,6.8z"/>
	</g>
	<g>
		<path class="st1" d="M16.8,6.8h-1.6c-0.3,0-0.5-0.2-0.5-0.5s0.2-0.5,0.5-0.5h1.1V1h-1.1c-0.3,0-0.5-0.2-0.5-0.5S14.9,0,15.2,0h1.6
			c0.3,0,0.5,0.2,0.5,0.5v5.8C17.3,6.6,17.1,6.8,16.8,6.8z"/>
	</g>
	<g>
		<path class="st5" d="M8.8,6.3"/>
	</g>
	<g>
		<path class="st5" d="M15.2,6.3"/>
	</g>
	<g>
		<path class="st5" d="M15.2,0.5"/>
	</g>
	<g>
		<path class="st5" d="M8.8,0.5"/>
	</g>
	<g>
		<path class="st5" d="M15.2,0.5"/>
	</g>
	<g>
		<path class="st5" d="M15.2,6.3"/>
	</g>
	<g>
		<path class="st5" d="M8.8,6.3"/>
	</g>
	<g>
		<path class="st5" d="M8.8,0.5"/>
	</g>
</g>
</svg>
