<?xml version="1.0" encoding="utf-8"?>
<!-- Generator: Adobe Illustrator 22.0.0, SVG Export Plug-In . SVG Version: 6.00 Build 0)  -->
<svg version="1.1" id="Capa_1" xmlns="http://www.w3.org/2000/svg" xmlns:xlink="http://www.w3.org/1999/xlink" x="0px" y="0px"
	 viewBox="0 0 24 24" style="enable-background:new 0 0 24 24;" xml:space="preserve">
<style type="text/css">
	.st0{fill:#3DE200;}
	.st1{fill:#22263D;}
</style>
<title>logo</title>
<desc>Created with Sketch.</desc>
<circle class="st0" cx="12" cy="21.5" r="2.5"/>
<circle class="st1" cx="12" cy="2.5" r="2.5"/>
<g>
	<path class="st1" d="M18.5,18.6h-13c-0.6,0-1.2-0.5-1.2-1.2v-1c0-0.3,0.2-0.5,0.5-0.5s0.5,0.2,0.5,0.5v1c0,0.1,0.1,0.2,0.2,0.2h13
		c0.1,0,0.2-0.1,0.2-0.2v-1c0-0.3,0.2-0.5,0.5-0.5s0.5,0.2,0.5,0.5v1C19.7,18.1,19.2,18.6,18.5,18.6z"/>
</g>
<g>
	<path class="st0" d="M19.2,7.9c-0.3,0-0.5-0.2-0.5-0.5V6.5c0-0.1-0.1-0.2-0.2-0.2h-13c-0.1,0-0.2,0.1-0.2,0.2v0.9
		c0,0.3-0.2,0.5-0.5,0.5S4.3,7.7,4.3,7.4V6.5c0-0.6,0.5-1.2,1.2-1.2h13c0.6,0,1.2,0.5,1.2,1.2v0.9C19.7,7.7,19.5,7.9,19.2,7.9z"/>
</g>
<g>
	<g>
		<path class="st1" d="M22.2,16.9h-6.1c-1,0-1.8-0.8-1.8-1.8V8.9c0-1,0.8-1.8,1.8-1.8h6.1c1,0,1.8,0.8,1.8,1.8v6.1
			C24,16.1,23.2,16.9,22.2,16.9z M16.1,8.1c-0.4,0-0.8,0.4-0.8,0.8v6.1c0,0.4,0.4,0.8,0.8,0.8h6.1c0.4,0,0.8-0.4,0.8-0.8V8.9
			c0-0.4-0.4-0.8-0.8-0.8H16.1z"/>
	</g>
	<g>
		<g>
			<rect x="16.8" y="10.2" class="st0" width="4.9" height="3.2"/>
			<path class="st1" d="M21.7,13.8h-4.9c-0.2,0-0.4-0.2-0.4-0.4v-3.2c0-0.2,0.2-0.4,0.4-0.4h4.9c0.2,0,0.4,0.2,0.4,0.4v3.2
				C22,13.6,21.9,13.8,21.7,13.8z M17.2,13h4.1v-2.4h-4.1V13z"/>
		</g>
		<g>
			<path class="st1" d="M22.3,13.3h-6.2c-0.2,0-0.4,0.2-0.4,0.4v0c0,0.2,0.2,0.4,0.4,0.4h6.2c0.2,0,0.4-0.2,0.4-0.4v0
				C22.7,13.5,22.5,13.3,22.3,13.3z"/>
		</g>
	</g>
</g>
<g>
	<g>
		<path class="st1" d="M7.9,16.9H1.8c-1,0-1.8-0.8-1.8-1.8V8.9c0-1,0.8-1.8,1.8-1.8h6.1c1,0,1.8,0.8,1.8,1.8v6.1
			C9.7,16.1,8.9,16.9,7.9,16.9z M1.8,8.1C1.4,8.1,1,8.5,1,8.9v6.1c0,0.4,0.4,0.8,0.8,0.8h6.1c0.4,0,0.8-0.4,0.8-0.8V8.9
			c0-0.4-0.4-0.8-0.8-0.8H1.8z"/>
	</g>
	<g>
		<g>
			<rect x="3.2" y="9" class="st0" width="3.3" height="5.9"/>
			<path class="st1" d="M6.5,15.3H3.2c-0.2,0-0.4-0.2-0.4-0.4V9c0-0.2,0.2-0.4,0.4-0.4h3.3c0.2,0,0.4,0.2,0.4,0.4V15
				C6.9,15.2,6.7,15.3,6.5,15.3z M3.6,14.6h2.5V9.4H3.6V14.6z"/>
		</g>
		<circle class="st1" cx="4.9" cy="14" r="0.2"/>
		<rect x="4.5" y="9.7" class="st1" width="0.8" height="0.2"/>
	</g>
</g>
</svg>
