<?xml version="1.0" encoding="utf-8"?>
<!-- Generator: Adobe Illustrator 22.0.0, SVG Export Plug-In . SVG Version: 6.00 Build 0)  -->
<svg version="1.1" id="Capa_1" xmlns="http://www.w3.org/2000/svg" xmlns:xlink="http://www.w3.org/1999/xlink" x="0px" y="0px"
	 viewBox="0 0 24 24" style="enable-background:new 0 0 24 24;" xml:space="preserve">
<style type="text/css">
	.st0{fill:none;stroke:#222221;stroke-width:20;stroke-miterlimit:10;}
	.st1{fill:#49F900;}
	.st2{fill:#222221;}
</style>
<title>logo</title>
<desc>Created with Sketch.</desc>
<g>
	<g>
		<path class="st0" d="M12,3"/>
	</g>
	<g>
		<g>
			<path class="st1" d="M3,11.4l-1-0.1c0.2-1.8,0.9-3.5,2-4.9L4.8,7C3.8,8.2,3.2,9.8,3,11.4z"/>
		</g>
		<g>
			<path class="st1" d="M4,18.7c-1.1-1.4-1.8-3.1-2-4.9l1-0.1c0.2,1.6,0.8,3.1,1.8,4.4L4,18.7z"/>
		</g>
		<g>
			<path class="st1" d="M10.8,22.6c-1.7-0.2-3.4-0.9-4.8-2l0.6-0.8c1.3,1,2.8,1.6,4.4,1.8L10.8,22.6z"/>
		</g>
		<g>
			<path class="st1" d="M13.2,22.6l-0.1-1c1.6-0.2,3.2-0.8,4.5-1.8l0.6,0.8C16.8,21.7,15,22.4,13.2,22.6z"/>
		</g>
		<g>
			<path class="st1" d="M20,18.7l-0.8-0.6c1-1.3,1.6-2.7,1.8-4.3l1,0.1C21.8,15.7,21.1,17.3,20,18.7z"/>
		</g>
		<g>
			<path class="st1" d="M21,11.4c-0.2-1.6-0.8-3-1.7-4.3l0.8-0.6c1.1,1.4,1.7,3,1.9,4.8L21,11.4z"/>
		</g>
		<g>
			<path class="st1" d="M17.6,5.3c-0.9-0.7-2-1.3-3.1-1.6l0.3-1c1.2,0.3,2.4,0.9,3.5,1.7L17.6,5.3z"/>
		</g>
		<g>
			<path class="st1" d="M6.5,5.3L5.9,4.5c1-0.8,2.2-1.3,3.4-1.7l0.3,1C8.5,4.1,7.4,4.6,6.5,5.3z"/>
		</g>
	</g>
	<g>
		<g>
			<path class="st2" d="M18.8,7.5c-1,0-1.8-0.8-1.8-1.8S17.8,4,18.8,4s1.8,0.8,1.8,1.8S19.8,7.5,18.8,7.5z M18.8,5
				C18.4,5,18,5.4,18,5.8s0.3,0.8,0.8,0.8s0.8-0.3,0.8-0.8S19.2,5,18.8,5z"/>
		</g>
		<g>
			<path class="st2" d="M21.6,14.3c-1,0-1.8-0.8-1.8-1.8c0-1,0.8-1.8,1.8-1.8s1.8,0.8,1.8,1.8C23.3,13.5,22.6,14.3,21.6,14.3z
				 M21.6,11.8c-0.4,0-0.8,0.3-0.8,0.8s0.3,0.8,0.8,0.8s0.8-0.3,0.8-0.8S22,11.8,21.6,11.8z"/>
		</g>
		<g>
			<path class="st2" d="M18.8,21.1c-1,0-1.8-0.8-1.8-1.8s0.8-1.8,1.8-1.8s1.8,0.8,1.8,1.8S19.8,21.1,18.8,21.1z M18.8,18.6
				c-0.4,0-0.8,0.3-0.8,0.8s0.3,0.8,0.8,0.8s0.8-0.3,0.8-0.8S19.2,18.6,18.8,18.6z"/>
		</g>
		<g>
			<path class="st2" d="M12,23.9c-1,0-1.8-0.8-1.8-1.8s0.8-1.8,1.8-1.8s1.8,0.8,1.8,1.8S13,23.9,12,23.9z M12,21.4
				c-0.4,0-0.8,0.3-0.8,0.8s0.3,0.8,0.8,0.8s0.8-0.3,0.8-0.8S12.4,21.4,12,21.4z"/>
		</g>
		<g>
			<path class="st2" d="M5.2,21.1c-1,0-1.8-0.8-1.8-1.8s0.8-1.8,1.8-1.8S7,18.4,7,19.3S6.2,21.1,5.2,21.1z M5.2,18.6
				c-0.4,0-0.8,0.3-0.8,0.8s0.3,0.8,0.8,0.8S6,19.8,6,19.3S5.6,18.6,5.2,18.6z"/>
		</g>
		<g>
			<path class="st2" d="M2.4,14.3c-1,0-1.8-0.8-1.8-1.8c0-1,0.8-1.8,1.8-1.8s1.8,0.8,1.8,1.8C4.2,13.5,3.4,14.3,2.4,14.3z M2.4,11.8
				c-0.4,0-0.8,0.3-0.8,0.8s0.3,0.8,0.8,0.8s0.8-0.3,0.8-0.8S2.8,11.8,2.4,11.8z"/>
		</g>
		<g>
			<path class="st2" d="M5.2,7.5c-1,0-1.8-0.8-1.8-1.8S4.2,4,5.2,4S7,4.8,7,5.8S6.2,7.5,5.2,7.5z M5.2,5C4.8,5,4.5,5.4,4.5,5.8
				s0.3,0.8,0.8,0.8S6,6.2,6,5.8S5.6,5,5.2,5z"/>
		</g>
	</g>
	<g>
		<ellipse class="st1" cx="12" cy="3" rx="2.9" ry="2.9"/>
	</g>
	<g>
		<g>
			<path class="st2" d="M12,4.4c-0.7,0-1.3-0.4-1.5-0.9c0-0.1,0-0.1,0.1-0.2c0.1,0,0.1,0,0.2,0.1C11,3.9,11.5,4.2,12,4.2
				c0.6,0,1.1-0.3,1.2-0.8c0-0.1,0.1-0.1,0.2-0.1c0.1,0,0.1,0.1,0.1,0.2C13.3,4.1,12.7,4.4,12,4.4z"/>
		</g>
	</g>
	<g>
		<g>
			<path class="st2" d="M11.3,2.8L11.3,2.8c-0.2,0-0.2-0.1-0.2-0.2V2.2c0-0.1,0.1-0.2,0.2-0.2h0c0.1,0,0.2,0.1,0.2,0.2v0.4
				C11.5,2.7,11.4,2.8,11.3,2.8z"/>
		</g>
		<g>
			<path class="st2" d="M12.8,2.8L12.8,2.8c-0.2,0-0.2-0.1-0.2-0.2V2.2c0-0.1,0.1-0.2,0.2-0.2h0C12.9,2,13,2.1,13,2.2v0.4
				C13,2.7,12.9,2.8,12.8,2.8z"/>
		</g>
	</g>
</g>
<g>
	<g>
		<path class="st2" d="M12,13.8c-0.3,0-0.5-0.2-0.5-0.5V7.5C11.5,7.2,11.7,7,12,7s0.5,0.2,0.5,0.5v5.8C12.5,13.6,12.3,13.8,12,13.8z
			"/>
	</g>
	<g>
		<path class="st1" d="M15.3,16.9c-0.1,0-0.2-0.1-0.2-0.1l-3.4-3c-0.2-0.2-0.2-0.5,0-0.7c0.2-0.2,0.5-0.2,0.7,0l3.4,3
			c0.2,0.2,0.2,0.5,0,0.7C15.7,16.9,15.5,16.9,15.3,16.9z"/>
	</g>
</g>
</svg>
