<?xml version="1.0" encoding="utf-8"?>
<!-- Generator: Adobe Illustrator 22.0.0, SVG Export Plug-In . SVG Version: 6.00 Build 0)  -->
<svg version="1.1" id="Capa_1" xmlns="http://www.w3.org/2000/svg" xmlns:xlink="http://www.w3.org/1999/xlink" x="0px" y="0px"
	 viewBox="0 0 24 24" style="enable-background:new 0 0 24 24;" xml:space="preserve">
<style type="text/css">
	.st0{fill:#22263D;}
	.st1{fill:#3DE200;}
	.st2{fill:#FFFFFF;}
</style>
<title>logo</title>
<desc>Created with Sketch.</desc>
<circle class="st0" cx="12" cy="12" r="11.7"/>
<g>
	<g>
		<g>
			<g>
				<path class="st1" d="M16.6,17.1H7.4c-2.7,0-5.1-2.3-5.1-5.1s2.3-5.1,5.1-5.1h9.2c2.8,0,5.1,2.3,5.1,5.1S19.3,17.1,16.6,17.1z
					 M7.4,7.8c-2.3,0-4.2,1.9-4.2,4.2s1.9,4.2,4.2,4.2h9.2c2.3,0,4.2-1.9,4.2-4.2s-1.9-4.2-4.2-4.2C16.6,7.8,7.4,7.8,7.4,7.8z"/>
			</g>
		</g>
		<circle class="st1" cx="7.5" cy="12" r="3.1"/>
		<circle class="st2" cx="16.5" cy="12" r="3.1"/>
	</g>
</g>
</svg>
