<?xml version="1.0" encoding="utf-8"?>
<!-- Generator: Adobe Illustrator 22.0.0, SVG Export Plug-In . SVG Version: 6.00 Build 0)  -->
<svg version="1.1" id="Capa_1" xmlns="http://www.w3.org/2000/svg" xmlns:xlink="http://www.w3.org/1999/xlink" x="0px" y="0px"
	 viewBox="0 0 1080 1080" style="enable-background:new 0 0 1080 1080;" xml:space="preserve">
<style type="text/css">
	.st0{fill:#F2F2F2;}
	.st1{fill:#727272;}
	.st2{opacity:0.25;}
	.st3{fill:#EDEDED;}
	.st4{fill:#FFE212;}
	.st5{fill:#333333;}
	.st6{fill:none;}
	.st7{opacity:0.19;}
	.st8{fill:#3DE200;}
	.st9{fill:#22263D;}
</style>
<path class="st0" d="M1046,1080H34c-18.8,0-34-15.2-34-34V34C0,15.2,15.2,0,34,0h1012c18.8,0,34,15.2,34,34v1012
	C1080,1064.8,1064.8,1080,1046,1080z"/>
<path class="st1" d="M372.9,419.5H115.4c-19.4,0-35.1-15.7-35.1-35.1V126.9c0-19.4,15.7-35.1,35.1-35.1h257.5
	c19.4,0,35.1,15.7,35.1,35.1v257.5C408,403.8,392.3,419.5,372.9,419.5z"/>
<g class="st2">
	<path class="st3" d="M244.1,305.6c-39,0-70.6-31.7-70.6-70.6v-26c0-39,31.7-70.6,70.6-70.6s70.6,31.7,70.6,70.6v26
		C314.8,273.9,283.1,305.6,244.1,305.6z M244.1,148.3c-33.4,0-60.6,27.2-60.6,60.6v26c0,33.4,27.2,60.6,60.6,60.6
		s60.6-27.2,60.6-60.6v-26C304.8,175.5,277.6,148.3,244.1,148.3z"/>
</g>
<g class="st2">
	<path class="st3" d="M357.9,378.1c-2.8,0-5-2.2-5-5v-6.8c0-20.3-16.5-36.9-36.9-36.9H172.3c-20.3,0-36.9,16.5-36.9,36.9v6.8
		c0,2.8-2.2,5-5,5s-5-2.2-5-5v-6.8c0-25.8,21-46.9,46.9-46.9H316c25.8,0,46.9,21,46.9,46.9v6.8C362.9,375.8,360.6,378.1,357.9,378.1
		z"/>
</g>
<g>
	<g>
		<polygon class="st4" points="522.2,373.9 529.5,388.8 545.8,391.1 534,402.7 536.8,419 522.2,411.3 507.5,419 510.3,402.7 
			498.5,391.1 514.8,388.8 		"/>
		<path class="st5" d="M536.8,420c-0.2,0-0.3,0-0.5-0.1l-14.2-7.4l-14.2,7.4c-0.3,0.2-0.7,0.1-1.1-0.1c-0.3-0.2-0.5-0.6-0.4-1
			l2.7-15.8l-11.5-11.2c-0.3-0.3-0.4-0.7-0.3-1c0.1-0.4,0.4-0.6,0.8-0.7l15.8-2.3l7.1-14.4c0.3-0.7,1.5-0.7,1.8,0l7.1,14.4l15.8,2.3
			c0.4,0.1,0.7,0.3,0.8,0.7c0.1,0.4,0,0.8-0.3,1L535.1,403l2.7,15.8c0.1,0.4-0.1,0.8-0.4,1C537.2,419.9,537,420,536.8,420z
			 M500.6,391.8L511,402c0.2,0.2,0.3,0.6,0.3,0.9l-2.5,14.3l12.8-6.8c0.3-0.2,0.6-0.2,0.9,0l12.8,6.8l-2.5-14.3
			c-0.1-0.3,0.1-0.7,0.3-0.9l10.4-10.1l-14.4-2.1c-0.3,0-0.6-0.3-0.8-0.5l-6.4-13l-6.4,13c-0.1,0.3-0.4,0.5-0.8,0.5L500.6,391.8z"/>
	</g>
	<g>
		<polygon class="st4" points="588.7,373.9 596.1,388.8 612.4,391.1 600.6,402.7 603.4,419 588.7,411.3 574.1,419 576.9,402.7 
			565.1,391.1 581.4,388.8 		"/>
		<path class="st5" d="M603.4,420c-0.2,0-0.3,0-0.5-0.1l-14.2-7.4l-14.2,7.4c-0.3,0.2-0.7,0.1-1.1-0.1c-0.3-0.2-0.5-0.6-0.4-1
			l2.7-15.8l-11.5-11.2c-0.3-0.3-0.4-0.7-0.3-1c0.1-0.4,0.4-0.6,0.8-0.7l15.8-2.3l7.1-14.4c0.3-0.7,1.5-0.7,1.8,0l7.1,14.4l15.8,2.3
			c0.4,0.1,0.7,0.3,0.8,0.7c0.1,0.4,0,0.8-0.3,1L601.7,403l2.7,15.8c0.1,0.4-0.1,0.8-0.4,1C603.8,419.9,603.6,420,603.4,420z
			 M588.7,410.3c0.2,0,0.3,0,0.5,0.1l12.8,6.8l-2.5-14.3c-0.1-0.3,0.1-0.7,0.3-0.9l10.4-10.1l-14.4-2.1c-0.3,0-0.6-0.3-0.8-0.5
			l-6.4-13l-6.4,13c-0.1,0.3-0.4,0.5-0.8,0.5l-14.4,2.1l10.4,10.1c0.2,0.2,0.3,0.6,0.3,0.9l-2.5,14.3l12.8-6.8
			C588.4,410.3,588.6,410.3,588.7,410.3z"/>
	</g>
	<g>
		<polygon class="st4" points="655.3,373.9 662.6,388.8 679,391.1 667.2,402.7 670,419 655.3,411.3 640.7,419 643.5,402.7 
			631.6,391.1 648,388.8 		"/>
		<path class="st5" d="M670,420c-0.2,0-0.3,0-0.5-0.1l-14.2-7.4l-14.2,7.4c-0.3,0.2-0.7,0.1-1.1-0.1c-0.3-0.2-0.5-0.6-0.4-1
			l2.7-15.8l-11.5-11.2c-0.3-0.3-0.4-0.7-0.3-1c0.1-0.4,0.4-0.6,0.8-0.7l15.8-2.3l7.1-14.4c0.3-0.7,1.5-0.7,1.8,0l7.1,14.4l15.8,2.3
			c0.4,0.1,0.7,0.3,0.8,0.7c0.1,0.4,0,0.8-0.3,1L668.2,403l2.7,15.8c0.1,0.4-0.1,0.8-0.4,1C670.4,419.9,670.2,420,670,420z
			 M655.3,410.3c0.2,0,0.3,0,0.5,0.1l12.8,6.8l-2.5-14.3c-0.1-0.3,0.1-0.7,0.3-0.9l10.4-10.1l-14.4-2.1c-0.3,0-0.6-0.3-0.8-0.5
			l-6.4-13l-6.4,13c-0.1,0.3-0.4,0.5-0.8,0.5l-14.4,2.1L644,402c0.2,0.2,0.3,0.6,0.3,0.9l-2.5,14.3l12.8-6.8
			C655,410.3,655.2,410.3,655.3,410.3z"/>
	</g>
	<g>
		<polygon class="st4" points="721.9,373.9 729.2,388.8 745.6,391.1 733.7,402.7 736.5,419 721.9,411.3 707.3,419 710.1,402.7 
			698.2,391.1 714.6,388.8 		"/>
		<path class="st5" d="M736.5,420c-0.2,0-0.3,0-0.5-0.1l-14.2-7.4l-14.2,7.4c-0.3,0.2-0.7,0.1-1.1-0.1c-0.3-0.2-0.5-0.6-0.4-1
			L709,403l-11.5-11.2c-0.3-0.3-0.4-0.7-0.3-1c0.1-0.4,0.4-0.6,0.8-0.7l15.8-2.3l7.1-14.4c0.3-0.7,1.5-0.7,1.8,0l7.1,14.4l15.8,2.3
			c0.4,0.1,0.7,0.3,0.8,0.7c0.1,0.4,0,0.8-0.3,1L734.8,403l2.7,15.8c0.1,0.4-0.1,0.8-0.4,1C737,419.9,736.8,420,736.5,420z
			 M721.9,410.3c0.2,0,0.3,0,0.5,0.1l12.8,6.8l-2.5-14.3c-0.1-0.3,0.1-0.7,0.3-0.9l10.4-10.1l-14.4-2.1c-0.3,0-0.6-0.3-0.8-0.5
			l-6.4-13l-6.4,13c-0.1,0.3-0.4,0.5-0.8,0.5l-14.4,2.1l10.4,10.1c0.2,0.2,0.3,0.6,0.3,0.9l-2.5,14.3l12.8-6.8
			C721.6,410.3,721.7,410.3,721.9,410.3z"/>
	</g>
	<g>
		<polygon class="st4" points="788.5,373.9 795.8,388.8 812.2,391.1 800.3,402.7 803.1,419 788.5,411.3 773.9,419 776.7,402.7 
			764.8,391.1 781.2,388.8 		"/>
		<path class="st5" d="M803.1,420c-0.2,0-0.3,0-0.5-0.1l-14.2-7.4l-14.2,7.4c-0.3,0.2-0.7,0.1-1.1-0.1c-0.3-0.2-0.5-0.6-0.4-1
			l2.7-15.8l-11.5-11.2c-0.3-0.3-0.4-0.7-0.3-1c0.1-0.4,0.4-0.6,0.8-0.7l15.8-2.3l7.1-14.4c0.3-0.7,1.5-0.7,1.8,0l7.1,14.4l15.8,2.3
			c0.4,0.1,0.7,0.3,0.8,0.7c0.1,0.4,0,0.8-0.3,1L801.4,403l2.7,15.8c0.1,0.4-0.1,0.8-0.4,1C803.5,419.9,803.3,420,803.1,420z
			 M788.5,410.3c0.2,0,0.3,0,0.5,0.1l12.8,6.8l-2.5-14.3c-0.1-0.3,0.1-0.7,0.3-0.9l10.4-10.1l-14.4-2.1c-0.3,0-0.6-0.3-0.8-0.5
			l-6.4-13l-6.4,13c-0.1,0.3-0.4,0.5-0.8,0.5l-14.4,2.1l10.4,10.1c0.2,0.2,0.3,0.6,0.3,0.9l-2.5,14.3l12.8-6.8
			C788.2,410.3,788.3,410.3,788.5,410.3z"/>
	</g>
</g>
<g>
	<path d="M104.9,596.6l-2.1,10.7h15.6l-0.5,2.7h-15.6l-2.2,11.2h18.1l-0.6,2.8H96.3l6-30.1h20.6l-0.6,2.8h-17.4V596.6z"/>
	<path d="M130.8,592.1h3.1l-6.4,31.9h-3.1L130.8,592.1z"/>
	<path d="M152.1,617.2c-0.1,0.7-0.2,1.2-0.2,1.4c0,2,1.1,3,3.3,3c1.3,0,2.5-0.4,3.5-1.2l0.7,2.3c-1.3,1-3,1.5-5,1.5
		c-1.7,0-3-0.5-4-1.4s-1.5-2.2-1.5-3.8c0-0.6,0.1-1.2,0.2-1.8l2.6-13.3h-4l0.5-2.6h4l1-4.9h3.1l-1,4.9h6.9l-0.5,2.6h-6.9
		L152.1,617.2z"/>
	<path d="M169.2,601.4h3.1l-4.5,22.6h-3.1L169.2,601.4z M170.5,595.8c-0.4-0.4-0.6-0.9-0.6-1.4c0-0.7,0.2-1.2,0.7-1.7
		c0.4-0.4,1-0.7,1.7-0.7c0.6,0,1.1,0.2,1.5,0.6c0.4,0.4,0.6,0.8,0.6,1.4c0,0.7-0.2,1.3-0.7,1.7c-0.5,0.5-1,0.7-1.7,0.7
		C171.4,596.4,170.9,596.2,170.5,595.8z"/>
	<path d="M179.1,613.5c0,0.2,0,0.5,0,0.9c0,2.3,0.7,4,2,5.2s3.2,1.8,5.8,1.8c1.5,0,2.9-0.3,4.2-0.8s2.4-1.2,3.2-2.1l1.4,2.2
		c-1.1,1.1-2.4,1.9-4,2.5s-3.3,0.9-5.1,0.9c-3.3,0-5.8-0.9-7.7-2.6c-1.9-1.7-2.8-4.1-2.8-7.1c0-2.5,0.5-4.8,1.6-6.8s2.6-3.6,4.5-4.8
		s4-1.7,6.4-1.7c3,0,5.4,0.9,7.2,2.6c1.8,1.7,2.7,4,2.7,7c0,0.8-0.1,1.7-0.3,2.8L179.1,613.5L179.1,613.5z M182.7,605.8
		c-1.6,1.3-2.7,3.2-3.3,5.5h16.1c0-0.2,0-0.5,0-0.8c0-2.1-0.6-3.8-1.9-4.9s-3-1.7-5.2-1.7C186.2,603.8,184.3,604.5,182.7,605.8z"/>
	<path d="M240.3,603.1c1.4,1.3,2.1,3.1,2.1,5.4c0,0.7-0.1,1.5-0.3,2.7l-2.6,12.9h-3.1l2.6-12.9c0.1-0.7,0.2-1.4,0.2-2.1
		c0-1.6-0.5-2.8-1.4-3.7s-2.3-1.3-4.2-1.3c-2.3,0-4.2,0.6-5.7,1.9c-1.5,1.3-2.5,3.2-3.1,5.7l-2.5,12.5h-3.1l2.6-12.9
		c0.1-0.8,0.2-1.5,0.2-2.1c0-1.6-0.5-2.9-1.4-3.8c-0.9-0.9-2.3-1.3-4.2-1.3c-2.3,0-4.2,0.7-5.8,2c-1.5,1.3-2.6,3.3-3.1,5.9
		l-2.4,12.1H202l4.5-22.6h2.9l-0.7,3.6c2.1-2.5,4.9-3.8,8.6-3.8c1.9,0,3.5,0.4,4.8,1.2s2.2,1.9,2.6,3.4c1.1-1.5,2.5-2.6,4.1-3.4
		c1.6-0.8,3.4-1.1,5.4-1.1C236.9,601.2,238.9,601.8,240.3,603.1z"/>
	<path d="M268.5,602.4c1.5,0.8,2.7,1.9,3.5,3.3c0.8,1.4,1.2,3.1,1.2,5.1c0,2.6-0.6,4.9-1.7,6.9s-2.6,3.7-4.6,4.8
		c-1.9,1.2-4.1,1.7-6.6,1.7c-2.2,0-4-0.4-5.4-1.3c-1.5-0.8-2.5-2.1-3.2-3.7l-2.6,13.1H246l6.1-31h2.9l-0.7,3.6
		c1.1-1.2,2.4-2.2,3.9-2.8s3.1-1,4.9-1C265.3,601.2,267,601.6,268.5,602.4z M265.4,620.1c1.5-0.9,2.6-2.2,3.5-3.8
		c0.8-1.6,1.3-3.4,1.3-5.5c0-2.2-0.7-3.9-2-5.2c-1.3-1.2-3.1-1.9-5.5-1.9c-1.9,0-3.5,0.5-5,1.4s-2.6,2.2-3.5,3.8
		c-0.8,1.6-1.3,3.4-1.3,5.5c0,2.2,0.7,3.9,2,5.2c1.3,1.2,3.1,1.8,5.5,1.8C262.2,621.5,263.9,621,265.4,620.1z"/>
	<path d="M281.6,623c-1.5-0.8-2.7-1.9-3.6-3.4c-0.8-1.4-1.3-3.1-1.3-5.1c0-2.6,0.6-4.8,1.7-6.9c1.1-2,2.7-3.6,4.7-4.8
		s4.2-1.7,6.7-1.7c3.2,0,5.7,0.9,7.5,2.6c1.8,1.7,2.8,4,2.8,7c0,2.6-0.6,4.9-1.7,6.9s-2.7,3.7-4.7,4.8c-2,1.2-4.2,1.7-6.7,1.7
		C285,624.2,283.2,623.8,281.6,623z M292.3,620.1c1.5-0.9,2.7-2.2,3.5-3.8s1.3-3.4,1.3-5.4c0-2.2-0.7-3.9-2-5.2
		c-1.3-1.2-3.1-1.9-5.5-1.9c-1.9,0-3.5,0.5-5,1.4s-2.7,2.2-3.5,3.8s-1.3,3.4-1.3,5.4c0,2.2,0.7,3.9,2,5.2c1.3,1.2,3.1,1.8,5.5,1.8
		C289.1,621.5,290.8,621,292.3,620.1z"/>
	<path d="M342.2,592.1l-6.4,31.9h-2.9l0.7-3.6c-1.1,1.2-2.4,2.1-3.9,2.8s-3.1,1-4.9,1c-1.9,0-3.6-0.4-5.1-1.2s-2.7-1.9-3.5-3.3
		c-0.8-1.4-1.2-3.1-1.2-5.1c0-2.6,0.6-4.8,1.7-6.9c1.1-2,2.6-3.6,4.6-4.8c1.9-1.2,4.1-1.7,6.5-1.7c2.1,0,3.9,0.4,5.4,1.3
		c1.5,0.8,2.5,2.1,3.2,3.6l2.8-14H342.2z M330.5,620.1c1.5-0.9,2.7-2.2,3.5-3.8s1.3-3.4,1.3-5.4c0-2.2-0.7-3.9-2-5.2
		c-1.3-1.2-3.1-1.9-5.5-1.9c-1.9,0-3.5,0.5-5,1.4s-2.7,2.2-3.5,3.8s-1.3,3.4-1.3,5.4c0,2.2,0.7,3.9,2,5.2c1.3,1.2,3.1,1.8,5.5,1.8
		C327.4,621.5,329,621,330.5,620.1z"/>
	<path d="M347.2,613.5c0,0.2,0,0.5,0,0.9c0,2.3,0.7,4,2,5.2s3.2,1.8,5.8,1.8c1.5,0,2.9-0.3,4.2-0.8c1.3-0.5,2.4-1.2,3.2-2.1l1.4,2.2
		c-1.1,1.1-2.4,1.9-4,2.5s-3.3,0.9-5.1,0.9c-3.3,0-5.8-0.9-7.7-2.6c-1.9-1.7-2.8-4.1-2.8-7.1c0-2.5,0.5-4.8,1.6-6.8s2.6-3.6,4.5-4.8
		s4-1.7,6.4-1.7c3,0,5.4,0.9,7.2,2.6c1.8,1.7,2.7,4,2.7,7c0,0.8-0.1,1.7-0.3,2.8L347.2,613.5L347.2,613.5z M350.8,605.8
		c-1.6,1.3-2.7,3.2-3.3,5.5h16.1c0-0.2,0-0.5,0-0.8c0-2.1-0.6-3.8-1.9-4.9s-3-1.7-5.2-1.7C354.3,603.8,352.4,604.5,350.8,605.8z"/>
	<path d="M392,602.3c1.5-0.7,3.4-1.1,5.5-1.1l-0.6,3H396c-2.4,0-4.4,0.7-6,2.1c-1.6,1.4-2.6,3.5-3.2,6.3l-2.3,11.5h-3.1l4.5-22.6
		h2.9l-0.8,4.1C389.2,604,390.5,603,392,602.3z"/>
	<path d="M401.1,613.5c0,0.2,0,0.5,0,0.9c0,2.3,0.7,4,2,5.2s3.2,1.8,5.8,1.8c1.5,0,2.9-0.3,4.2-0.8c1.3-0.5,2.4-1.2,3.2-2.1l1.4,2.2
		c-1.1,1.1-2.4,1.9-4,2.5s-3.3,0.9-5.1,0.9c-3.3,0-5.8-0.9-7.7-2.6c-1.9-1.7-2.8-4.1-2.8-7.1c0-2.5,0.5-4.8,1.6-6.8s2.6-3.6,4.5-4.8
		s4-1.7,6.4-1.7c3,0,5.4,0.9,7.2,2.6c1.8,1.7,2.7,4,2.7,7c0,0.8-0.1,1.7-0.3,2.8L401.1,613.5L401.1,613.5z M404.7,605.8
		c-1.6,1.3-2.7,3.2-3.3,5.5h16.1c0-0.2,0-0.5,0-0.8c0-2.1-0.6-3.8-1.9-4.9s-3-1.7-5.2-1.7C408.3,603.8,406.3,604.5,404.7,605.8z"/>
	<path d="M425.7,623.4c-1.6-0.5-2.9-1.2-3.8-2l1.5-2.4c0.9,0.7,2,1.3,3.4,1.8s2.9,0.7,4.4,0.7c2.1,0,3.8-0.4,5-1.1
		c1.2-0.7,1.7-1.7,1.7-3c0-0.7-0.2-1.3-0.7-1.7s-1.1-0.8-1.7-1c-0.7-0.2-1.7-0.5-3-0.8c-1.6-0.3-2.9-0.7-3.8-1s-1.8-0.9-2.5-1.6
		s-1-1.8-1-3.1c0-2.1,0.9-3.9,2.7-5.1c1.8-1.3,4.2-1.9,7.1-1.9c1.5,0,2.9,0.2,4.3,0.6c1.4,0.4,2.5,0.9,3.4,1.5l-1.3,2.5
		c-0.9-0.6-1.9-1.1-3-1.4c-1.2-0.3-2.4-0.5-3.6-0.5c-2.1,0-3.7,0.4-4.8,1.1c-1.1,0.7-1.7,1.7-1.7,3c0,0.7,0.2,1.3,0.7,1.8
		s1.1,0.8,1.8,1c0.7,0.2,1.7,0.5,3,0.7c1.5,0.3,2.8,0.7,3.8,1s1.8,0.9,2.5,1.6s1,1.7,1,3c0,2.2-0.9,3.9-2.7,5.2
		c-1.8,1.2-4.3,1.9-7.3,1.9C429.1,624.2,427.3,624,425.7,623.4z"/>
	<path d="M465.9,602.4c1.5,0.8,2.7,1.9,3.5,3.3c0.8,1.4,1.2,3.1,1.2,5.1c0,2.6-0.6,4.9-1.7,6.9s-2.6,3.7-4.6,4.8
		c-1.9,1.2-4.1,1.7-6.6,1.7c-2.2,0-4-0.4-5.4-1.3c-1.5-0.8-2.5-2.1-3.2-3.7l-2.6,13.1h-3.1l6.1-31h2.9L452,605
		c1.1-1.2,2.4-2.2,3.9-2.8s3.1-1,4.9-1C462.7,601.2,464.4,601.6,465.9,602.4z M462.8,620.1c1.5-0.9,2.6-2.2,3.5-3.8
		c0.8-1.6,1.3-3.4,1.3-5.5c0-2.2-0.7-3.9-2-5.2c-1.3-1.2-3.1-1.9-5.5-1.9c-1.9,0-3.5,0.5-5,1.4s-2.6,2.2-3.5,3.8
		c-0.8,1.6-1.3,3.4-1.3,5.5c0,2.2,0.7,3.9,2,5.2c1.3,1.2,3.1,1.8,5.5,1.8C459.7,621.5,461.4,621,462.8,620.1z"/>
	<path d="M499.4,601.4l-4.5,22.6H492l0.7-3.6c-2.1,2.6-5,3.8-8.7,3.8c-2.5,0-4.5-0.7-5.9-2s-2.1-3.1-2.1-5.4c0-0.8,0.1-1.6,0.3-2.5
		l2.6-12.9h3.1l-2.6,12.9c-0.1,0.8-0.2,1.5-0.2,2c0,1.7,0.5,2.9,1.4,3.8c1,0.9,2.4,1.3,4.3,1.3c2.4,0,4.4-0.7,6-2s2.6-3.3,3.2-5.9
		l2.4-12.2h2.9L499.4,601.4L499.4,601.4z"/>
	<path d="M506.2,613.5c0,0.2,0,0.5,0,0.9c0,2.3,0.7,4,2,5.2s3.2,1.8,5.8,1.8c1.5,0,2.9-0.3,4.2-0.8s2.4-1.2,3.2-2.1l1.4,2.2
		c-1.1,1.1-2.4,1.9-4,2.5s-3.3,0.9-5.1,0.9c-3.3,0-5.8-0.9-7.7-2.6c-1.9-1.7-2.8-4.1-2.8-7.1c0-2.5,0.5-4.8,1.6-6.8s2.6-3.6,4.5-4.8
		s4-1.7,6.4-1.7c3,0,5.4,0.9,7.2,2.6c1.8,1.7,2.7,4,2.7,7c0,0.8-0.1,1.7-0.3,2.8L506.2,613.5L506.2,613.5z M509.8,605.8
		c-1.6,1.3-2.7,3.2-3.3,5.5h16.1c0-0.2,0-0.5,0-0.8c0-2.1-0.6-3.8-1.9-4.9s-3-1.7-5.2-1.7C513.3,603.8,511.4,604.5,509.8,605.8z"/>
	<path d="M530.8,623.4c-1.6-0.5-2.9-1.2-3.8-2l1.5-2.4c0.9,0.7,2,1.3,3.4,1.8s2.9,0.7,4.4,0.7c2.1,0,3.8-0.4,5-1.1
		c1.2-0.7,1.7-1.7,1.7-3c0-0.7-0.2-1.3-0.7-1.7s-1.1-0.8-1.7-1c-0.7-0.2-1.7-0.5-3-0.8c-1.6-0.3-2.9-0.7-3.8-1s-1.8-0.9-2.5-1.6
		s-1-1.8-1-3.1c0-2.1,0.9-3.9,2.7-5.1c1.8-1.3,4.2-1.9,7.1-1.9c1.5,0,2.9,0.2,4.3,0.6c1.4,0.4,2.5,0.9,3.4,1.5l-1.3,2.5
		c-0.9-0.6-1.9-1.1-3-1.4c-1.2-0.3-2.4-0.5-3.6-0.5c-2.1,0-3.7,0.4-4.8,1.1c-1.1,0.7-1.7,1.7-1.7,3c0,0.7,0.2,1.3,0.7,1.8
		s1.1,0.8,1.8,1s1.7,0.5,3,0.7c1.5,0.3,2.8,0.7,3.8,1s1.8,0.9,2.5,1.6s1,1.7,1,3c0,2.2-0.9,3.9-2.7,5.2s-4.3,1.9-7.3,1.9
		C534.1,624.2,532.4,624,530.8,623.4z"/>
	<path d="M555.3,617.2c-0.1,0.7-0.2,1.2-0.2,1.4c0,2,1.1,3,3.3,3c1.3,0,2.5-0.4,3.5-1.2l0.7,2.3c-1.3,1-3,1.5-5,1.5
		c-1.7,0-3-0.5-4-1.4s-1.5-2.2-1.5-3.8c0-0.6,0.1-1.2,0.2-1.8l2.6-13.3h-4l0.5-2.6h4l1-4.9h3.1l-1,4.9h6.9l-0.5,2.6H558L555.3,617.2
		z"/>
	<path d="M592.2,601.4l-4.5,22.6h-2.9l0.7-3.6c-1.1,1.2-2.4,2.1-3.9,2.8s-3.1,1-4.9,1c-1.9,0-3.6-0.4-5.1-1.2s-2.7-1.9-3.5-3.3
		s-1.2-3.1-1.2-5.1c0-2.6,0.6-4.8,1.7-6.9c1.1-2,2.6-3.6,4.6-4.8c1.9-1.2,4.1-1.7,6.5-1.7c2.1,0,4,0.4,5.4,1.3s2.5,2.1,3.2,3.6
		l0.9-4.7L592.2,601.4L592.2,601.4z M582.3,620.1c1.5-0.9,2.7-2.2,3.5-3.8s1.3-3.4,1.3-5.4c0-2.2-0.7-3.9-2-5.2
		c-1.3-1.2-3.1-1.9-5.5-1.9c-1.9,0-3.5,0.5-5,1.4s-2.7,2.2-3.5,3.8s-1.3,3.4-1.3,5.4c0,2.2,0.7,3.9,2,5.2c1.3,1.2,3.1,1.8,5.5,1.8
		C579.2,621.5,580.9,621,582.3,620.1z"/>
	<path d="M610.3,613.5c0,0.2,0,0.5,0,0.9c0,2.3,0.7,4,2,5.2s3.2,1.8,5.8,1.8c1.5,0,2.9-0.3,4.2-0.8s2.4-1.2,3.2-2.1l1.4,2.2
		c-1.1,1.1-2.4,1.9-4,2.5s-3.3,0.9-5.1,0.9c-3.3,0-5.8-0.9-7.7-2.6c-1.9-1.7-2.8-4.1-2.8-7.1c0-2.5,0.5-4.8,1.6-6.8s2.6-3.6,4.5-4.8
		s4-1.7,6.4-1.7c3,0,5.4,0.9,7.2,2.6c1.8,1.7,2.7,4,2.7,7c0,0.8-0.1,1.7-0.3,2.8L610.3,613.5L610.3,613.5z M613.9,605.8
		c-1.6,1.3-2.7,3.2-3.3,5.5h16.1c0-0.2,0-0.5,0-0.8c0-2.1-0.6-3.8-1.9-4.9s-3-1.7-5.2-1.7C617.4,603.8,615.5,604.5,613.9,605.8z"/>
	<path d="M634.8,623.4c-1.6-0.5-2.9-1.2-3.8-2l1.5-2.4c0.9,0.7,2,1.3,3.4,1.8s2.9,0.7,4.4,0.7c2.1,0,3.8-0.4,5-1.1
		c1.2-0.7,1.7-1.7,1.7-3c0-0.7-0.2-1.3-0.7-1.7s-1.1-0.8-1.7-1c-0.7-0.2-1.7-0.5-3-0.8c-1.6-0.3-2.9-0.7-3.8-1
		c-1-0.3-1.8-0.9-2.5-1.6c-0.7-0.7-1-1.8-1-3.1c0-2.1,0.9-3.9,2.7-5.1c1.8-1.3,4.2-1.9,7.1-1.9c1.5,0,2.9,0.2,4.3,0.6
		c1.4,0.4,2.5,0.9,3.4,1.5l-1.3,2.5c-0.9-0.6-1.9-1.1-3-1.4c-1.2-0.3-2.4-0.5-3.6-0.5c-2.1,0-3.7,0.4-4.8,1.1
		c-1.1,0.7-1.7,1.7-1.7,3c0,0.7,0.2,1.3,0.7,1.8s1.1,0.8,1.8,1s1.7,0.5,3,0.7c1.5,0.3,2.8,0.7,3.8,1s1.8,0.9,2.5,1.6
		c0.7,0.7,1,1.7,1,3c0,2.2-0.9,3.9-2.7,5.2c-1.8,1.2-4.3,1.9-7.3,1.9C638.2,624.2,636.5,624,634.8,623.4z"/>
	<path d="M668.6,613.5c0,0.2,0,0.5,0,0.9c0,2.3,0.7,4,2,5.2s3.2,1.8,5.8,1.8c1.5,0,2.9-0.3,4.2-0.8s2.4-1.2,3.2-2.1l1.4,2.2
		c-1.1,1.1-2.4,1.9-4,2.5s-3.3,0.9-5.1,0.9c-3.3,0-5.8-0.9-7.7-2.6c-1.9-1.7-2.8-4.1-2.8-7.1c0-2.5,0.5-4.8,1.6-6.8s2.6-3.6,4.5-4.8
		s4-1.7,6.4-1.7c3,0,5.4,0.9,7.2,2.6c1.8,1.7,2.7,4,2.7,7c0,0.8-0.1,1.7-0.3,2.8L668.6,613.5L668.6,613.5z M672.1,605.8
		c-1.6,1.3-2.7,3.2-3.3,5.5H685c0-0.2,0-0.5,0-0.8c0-2.1-0.6-3.8-1.9-4.9s-3-1.7-5.2-1.7C675.7,603.8,673.7,604.5,672.1,605.8z"/>
	<path d="M702.2,612.5l6.7,11.5h-3.3l-5.4-9.4l-9.1,9.4h-3.6l11.4-11.7l-6.3-10.9h3.2l5.1,8.9l8.5-8.9h3.5L702.2,612.5z"/>
	<path d="M717.9,623c-1.6-0.8-2.8-1.9-3.6-3.4s-1.3-3.1-1.3-5.1c0-2.6,0.6-4.8,1.7-6.9c1.1-2,2.7-3.6,4.7-4.8s4.3-1.7,6.8-1.7
		c2.1,0,3.9,0.4,5.4,1.1s2.7,1.9,3.5,3.4l-2.6,1.5c-1.3-2.2-3.5-3.4-6.6-3.4c-1.9,0-3.5,0.5-5.1,1.4c-1.5,0.9-2.7,2.2-3.5,3.8
		s-1.3,3.4-1.3,5.5c0,2.2,0.7,3.9,2,5.2c1.3,1.2,3.2,1.8,5.6,1.8c1.5,0,2.8-0.3,4.1-0.8c1.2-0.6,2.3-1.4,3.1-2.4l2.2,1.7
		c-1,1.3-2.3,2.4-4,3.2s-3.5,1.1-5.4,1.1C721.3,624.2,719.5,623.8,717.9,623z"/>
	<path d="M739.9,613.5c0,0.2,0,0.5,0,0.9c0,2.3,0.7,4,2,5.2s3.2,1.8,5.8,1.8c1.5,0,2.9-0.3,4.2-0.8s2.4-1.2,3.2-2.1l1.4,2.2
		c-1.1,1.1-2.4,1.9-4,2.5s-3.3,0.9-5.1,0.9c-3.3,0-5.8-0.9-7.7-2.6c-1.9-1.7-2.8-4.1-2.8-7.1c0-2.5,0.5-4.8,1.6-6.8s2.6-3.6,4.5-4.8
		s4-1.7,6.4-1.7c3,0,5.4,0.9,7.2,2.6c1.8,1.7,2.7,4,2.7,7c0,0.8-0.1,1.7-0.3,2.8L739.9,613.5L739.9,613.5z M743.4,605.8
		c-1.6,1.3-2.7,3.2-3.3,5.5h16.1c0-0.2,0-0.5,0-0.8c0-2.1-0.6-3.8-1.9-4.9s-3-1.7-5.2-1.7C747,603.8,745,604.5,743.4,605.8z"/>
	<path d="M783.6,602.4c1.5,0.8,2.7,1.9,3.5,3.3c0.8,1.4,1.2,3.1,1.2,5.1c0,2.6-0.6,4.9-1.7,6.9c-1.1,2-2.6,3.7-4.6,4.8
		c-2,1.2-4.1,1.7-6.6,1.7c-2.2,0-4-0.4-5.4-1.3c-1.5-0.8-2.5-2.1-3.2-3.7l-2.6,13.1h-3.1l6.1-31h2.9l-0.7,3.6
		c1.1-1.2,2.4-2.2,3.9-2.8s3.1-1,4.9-1C780.4,601.2,782.1,601.6,783.6,602.4z M780.5,620.1c1.5-0.9,2.6-2.2,3.5-3.8
		c0.8-1.6,1.3-3.4,1.3-5.5c0-2.2-0.7-3.9-2-5.2c-1.3-1.2-3.1-1.9-5.5-1.9c-1.9,0-3.5,0.5-5,1.4s-2.6,2.2-3.5,3.8
		c-0.8,1.6-1.3,3.4-1.3,5.5c0,2.2,0.7,3.9,2,5.2c1.3,1.2,3.1,1.8,5.5,1.8C777.4,621.5,779,621,780.5,620.1z"/>
	<path d="M796.8,623c-1.6-0.8-2.8-1.9-3.6-3.4s-1.3-3.1-1.3-5.1c0-2.6,0.6-4.8,1.7-6.9c1.1-2,2.7-3.6,4.7-4.8s4.3-1.7,6.8-1.7
		c2.1,0,3.9,0.4,5.4,1.1s2.7,1.9,3.5,3.4l-2.6,1.5c-1.3-2.2-3.5-3.4-6.6-3.4c-1.9,0-3.5,0.5-5.1,1.4c-1.5,0.9-2.7,2.2-3.5,3.8
		s-1.3,3.4-1.3,5.5c0,2.2,0.7,3.9,2,5.2c1.3,1.2,3.2,1.8,5.6,1.8c1.5,0,2.8-0.3,4.1-0.8c1.2-0.6,2.3-1.4,3.1-2.4l2.2,1.7
		c-1,1.3-2.3,2.4-4,3.2s-3.5,1.1-5.4,1.1C800.3,624.2,798.4,623.8,796.8,623z"/>
	<path d="M820.8,601.4h3.1l-4.5,22.6h-3.1L820.8,601.4z M822.2,595.8c-0.4-0.4-0.6-0.9-0.6-1.4c0-0.7,0.2-1.2,0.7-1.7
		c0.4-0.4,1-0.7,1.7-0.7c0.6,0,1.1,0.2,1.5,0.6c0.4,0.4,0.6,0.8,0.6,1.4c0,0.7-0.2,1.3-0.7,1.7c-0.5,0.5-1,0.7-1.7,0.7
		C823.1,596.4,822.6,596.2,822.2,595.8z"/>
	<path d="M832.6,623c-1.5-0.8-2.7-1.9-3.6-3.4s-1.3-3.1-1.3-5.1c0-2.6,0.6-4.8,1.7-6.9c1.1-2,2.7-3.6,4.7-4.8s4.2-1.7,6.7-1.7
		c3.2,0,5.7,0.9,7.5,2.6c1.8,1.7,2.8,4,2.8,7c0,2.6-0.6,4.9-1.7,6.9c-1.1,2-2.7,3.7-4.7,4.8c-2,1.2-4.2,1.7-6.7,1.7
		C835.9,624.2,834.1,623.8,832.6,623z M843.2,620.1c1.5-0.9,2.7-2.2,3.5-3.8s1.3-3.4,1.3-5.4c0-2.2-0.7-3.9-2-5.2
		c-1.3-1.2-3.1-1.9-5.5-1.9c-1.9,0-3.5,0.5-5,1.4s-2.7,2.2-3.5,3.8s-1.3,3.4-1.3,5.4c0,2.2,0.7,3.9,2,5.2c1.3,1.2,3.1,1.8,5.5,1.8
		C840.1,621.5,841.7,621,843.2,620.1z"/>
	<path d="M876.4,603.2c1.4,1.3,2.1,3.1,2.1,5.4c0,0.8-0.1,1.7-0.3,2.6l-2.6,12.9h-3.1l2.6-12.9c0.1-0.8,0.2-1.5,0.2-2.1
		c0-1.6-0.5-2.9-1.5-3.8c-1-0.9-2.4-1.3-4.4-1.3c-2.4,0-4.4,0.7-6,2s-2.6,3.3-3.2,5.9l-2.4,12.1h-3.1l4.5-22.6h2.9l-0.7,3.6
		c2.2-2.5,5.1-3.8,8.9-3.8C872.9,601.2,874.9,601.9,876.4,603.2z"/>
	<path d="M909.2,601.4l-4.5,22.6h-2.9l0.7-3.6c-1.1,1.2-2.4,2.1-3.9,2.8s-3.1,1-4.9,1c-1.9,0-3.6-0.4-5.1-1.2s-2.7-1.9-3.5-3.3
		s-1.2-3.1-1.2-5.1c0-2.6,0.6-4.8,1.7-6.9c1.1-2,2.6-3.6,4.6-4.8c1.9-1.2,4.1-1.7,6.5-1.7c2.1,0,4,0.4,5.4,1.3s2.5,2.1,3.2,3.6
		l0.9-4.7L909.2,601.4L909.2,601.4z M899.4,620.1c1.5-0.9,2.7-2.2,3.5-3.8s1.3-3.4,1.3-5.4c0-2.2-0.7-3.9-2-5.2
		c-1.3-1.2-3.1-1.9-5.5-1.9c-1.9,0-3.5,0.5-5,1.4s-2.7,2.2-3.5,3.8s-1.3,3.4-1.3,5.4c0,2.2,0.7,3.9,2,5.2c1.3,1.2,3.1,1.8,5.5,1.8
		C896.2,621.5,897.9,621,899.4,620.1z"/>
	<path d="M919.6,592.1h3.1l-6.4,31.9h-3.1L919.6,592.1z"/>
	<path d="M927.2,620.2c0.4,0.4,0.6,1,0.6,1.6c0,0.4-0.1,0.7-0.2,1s-0.3,0.7-0.6,1.2l-3.3,6.2h-2.1l2.8-6.3c-0.4-0.2-0.7-0.4-0.9-0.8
		c-0.2-0.4-0.3-0.8-0.3-1.2c0-0.7,0.2-1.3,0.7-1.7c0.5-0.5,1-0.7,1.7-0.7C926.2,619.5,926.8,619.7,927.2,620.2z"/>
	<path d="M122.6,643.7l-6.4,31.9h-2.9l0.7-3.6c-1.1,1.2-2.4,2.1-3.9,2.8s-3.1,1-4.9,1c-1.9,0-3.6-0.4-5.1-1.2s-2.7-1.9-3.5-3.3
		c-0.8-1.4-1.2-3.1-1.2-5.1c0-2.6,0.6-4.8,1.7-6.9c1.1-2,2.6-3.6,4.6-4.8c1.9-1.2,4.1-1.7,6.5-1.7c2.1,0,3.9,0.4,5.4,1.3
		c1.5,0.8,2.5,2.1,3.2,3.6l2.8-14H122.6z M110.9,671.7c1.5-0.9,2.7-2.2,3.5-3.8s1.3-3.4,1.3-5.4c0-2.2-0.7-3.9-2-5.2
		c-1.3-1.2-3.1-1.9-5.5-1.9c-1.9,0-3.5,0.5-5,1.4s-2.7,2.2-3.5,3.8s-1.3,3.4-1.3,5.4c0,2.2,0.7,3.9,2,5.2c1.3,1.2,3.1,1.8,5.5,1.8
		C107.8,673.1,109.5,672.6,110.9,671.7z"/>
	<path d="M127.6,665.1c0,0.2,0,0.5,0,0.9c0,2.3,0.7,4,2,5.2s3.2,1.8,5.8,1.8c1.5,0,2.9-0.3,4.2-0.8s2.4-1.2,3.2-2.1l1.4,2.2
		c-1.1,1.1-2.4,1.9-4,2.5s-3.3,0.9-5.1,0.9c-3.3,0-5.8-0.9-7.7-2.6c-1.9-1.7-2.8-4.1-2.8-7.1c0-2.5,0.5-4.8,1.6-6.8s2.6-3.6,4.5-4.8
		s4-1.7,6.4-1.7c3,0,5.4,0.9,7.2,2.6c1.8,1.7,2.7,4,2.7,7c0,0.8-0.1,1.7-0.3,2.8L127.6,665.1L127.6,665.1z M131.2,657.4
		c-1.6,1.3-2.7,3.2-3.3,5.5H144c0-0.2,0-0.5,0-0.8c0-2.1-0.6-3.8-1.9-4.9s-3-1.7-5.2-1.7C134.7,655.4,132.8,656.1,131.2,657.4z"/>
	<path d="M200.1,654.7c1.4,1.3,2.1,3.1,2.1,5.4c0,0.7-0.1,1.5-0.3,2.7l-2.6,12.9h-3.1l2.6-12.9c0.1-0.7,0.2-1.4,0.2-2.1
		c0-1.6-0.5-2.8-1.4-3.7s-2.3-1.3-4.2-1.3c-2.3,0-4.2,0.6-5.7,1.9c-1.5,1.3-2.5,3.2-3.1,5.7l-2.5,12.5H179l2.6-12.9
		c0.1-0.8,0.2-1.5,0.2-2.1c0-1.6-0.5-2.9-1.4-3.8c-0.9-0.9-2.3-1.3-4.2-1.3c-2.3,0-4.2,0.7-5.8,2c-1.5,1.3-2.6,3.3-3.1,5.9
		l-2.4,12.1H162l4.5-22.6h2.9l-0.7,3.6c2.1-2.5,4.9-3.8,8.6-3.8c1.9,0,3.5,0.4,4.8,1.2s2.2,1.9,2.6,3.4c1.1-1.5,2.5-2.6,4.1-3.4
		c1.6-0.8,3.4-1.1,5.4-1.1C196.7,652.8,198.7,653.4,200.1,654.7z"/>
	<path d="M210.6,665.1c0,0.2,0,0.5,0,0.9c0,2.3,0.7,4,2,5.2s3.2,1.8,5.8,1.8c1.5,0,2.9-0.3,4.2-0.8s2.4-1.2,3.2-2.1l1.4,2.2
		c-1.1,1.1-2.4,1.9-4,2.5s-3.3,0.9-5.1,0.9c-3.3,0-5.8-0.9-7.7-2.6c-1.9-1.7-2.8-4.1-2.8-7.1c0-2.5,0.5-4.8,1.6-6.8s2.6-3.6,4.5-4.8
		s4-1.7,6.4-1.7c3,0,5.4,0.9,7.2,2.6c1.8,1.7,2.7,4,2.7,7c0,0.8-0.1,1.7-0.3,2.8L210.6,665.1L210.6,665.1z M214.1,657.4
		c-1.6,1.3-2.7,3.2-3.3,5.5H227c0-0.2,0-0.5,0-0.8c0-2.1-0.6-3.8-1.9-4.9s-3-1.7-5.2-1.7C217.7,655.4,215.7,656.1,214.1,657.4z"/>
	<path d="M255.2,654.8c1.4,1.3,2.1,3.1,2.1,5.4c0,0.8-0.1,1.7-0.3,2.6l-2.6,12.9h-3.1l2.6-12.9c0.1-0.8,0.2-1.5,0.2-2.1
		c0-1.6-0.5-2.9-1.5-3.8c-1-0.9-2.4-1.3-4.4-1.3c-2.4,0-4.4,0.7-6,2s-2.6,3.3-3.2,5.9l-2.4,12.1h-3.1L238,653h2.9l-0.7,3.6
		c2.1-2.5,5.1-3.8,8.9-3.8C251.8,652.8,253.8,653.5,255.2,654.8z"/>
	<path d="M267.5,674.6c-1.5-0.8-2.7-1.9-3.6-3.4c-0.8-1.4-1.3-3.1-1.3-5.1c0-2.6,0.6-4.8,1.7-6.9c1.1-2,2.7-3.6,4.7-4.8
		s4.2-1.7,6.7-1.7c3.2,0,5.7,0.9,7.5,2.6c1.8,1.7,2.8,4,2.8,7c0,2.6-0.6,4.9-1.7,6.9s-2.7,3.7-4.7,4.8c-2,1.2-4.2,1.7-6.7,1.7
		C270.9,675.8,269.1,675.4,267.5,674.6z M278.2,671.7c1.5-0.9,2.7-2.2,3.5-3.8s1.3-3.4,1.3-5.4c0-2.2-0.7-3.9-2-5.2
		c-1.3-1.2-3.1-1.9-5.5-1.9c-1.9,0-3.5,0.5-5,1.4s-2.7,2.2-3.5,3.8s-1.3,3.4-1.3,5.4c0,2.2,0.7,3.9,2,5.2c1.3,1.2,3.1,1.8,5.5,1.8
		C275,673.1,276.7,672.6,278.2,671.7z"/>
	<path d="M291.3,675c-1.6-0.5-2.9-1.2-3.8-2l1.5-2.4c0.9,0.7,2,1.3,3.4,1.8s2.9,0.7,4.4,0.7c2.1,0,3.8-0.4,5-1.1
		c1.2-0.7,1.7-1.7,1.7-3c0-0.7-0.2-1.3-0.7-1.7s-1.1-0.8-1.7-1c-0.7-0.2-1.7-0.5-3-0.8c-1.6-0.3-2.9-0.7-3.8-1s-1.8-0.9-2.5-1.6
		s-1-1.8-1-3.1c0-2.1,0.9-3.9,2.7-5.1c1.8-1.3,4.2-1.9,7.1-1.9c1.5,0,2.9,0.2,4.3,0.6c1.4,0.4,2.5,0.9,3.4,1.5l-1.3,2.5
		c-0.9-0.6-1.9-1.1-3-1.4c-1.2-0.3-2.4-0.5-3.6-0.5c-2.1,0-3.7,0.4-4.8,1.1c-1.1,0.7-1.7,1.7-1.7,3c0,0.7,0.2,1.3,0.7,1.8
		s1.1,0.8,1.8,1c0.7,0.2,1.7,0.5,3,0.7c1.5,0.3,2.8,0.7,3.8,1s1.8,0.9,2.5,1.6s1,1.7,1,3c0,2.2-0.9,3.9-2.7,5.2
		c-1.8,1.2-4.3,1.9-7.3,1.9C294.6,675.8,292.9,675.6,291.3,675z"/>
	<path d="M349.2,643.7l-6.4,31.9h-2.9l0.7-3.6c-1.1,1.2-2.4,2.1-3.9,2.8s-3.1,1-4.9,1c-1.9,0-3.6-0.4-5.1-1.2s-2.7-1.9-3.5-3.3
		c-0.8-1.4-1.2-3.1-1.2-5.1c0-2.6,0.6-4.8,1.7-6.9c1.1-2,2.6-3.6,4.6-4.8c1.9-1.2,4.1-1.7,6.5-1.7c2.1,0,3.9,0.4,5.4,1.3
		c1.5,0.8,2.5,2.1,3.2,3.6l2.8-14H349.2z M337.5,671.7c1.5-0.9,2.7-2.2,3.5-3.8s1.3-3.4,1.3-5.4c0-2.2-0.7-3.9-2-5.2
		c-1.3-1.2-3.1-1.9-5.5-1.9c-1.9,0-3.5,0.5-5,1.4s-2.7,2.2-3.5,3.8S325,664,325,666c0,2.2,0.7,3.9,2,5.2c1.3,1.2,3.1,1.8,5.5,1.8
		C334.3,673.1,336,672.6,337.5,671.7z"/>
	<path d="M354.1,665.1c0,0.2,0,0.5,0,0.9c0,2.3,0.7,4,2,5.2s3.2,1.8,5.8,1.8c1.5,0,2.9-0.3,4.2-0.8c1.3-0.5,2.4-1.2,3.2-2.1l1.4,2.2
		c-1.1,1.1-2.4,1.9-4,2.5s-3.3,0.9-5.1,0.9c-3.3,0-5.8-0.9-7.7-2.6c-1.9-1.7-2.8-4.1-2.8-7.1c0-2.5,0.5-4.8,1.6-6.8s2.6-3.6,4.5-4.8
		s4-1.7,6.4-1.7c3,0,5.4,0.9,7.2,2.6c1.8,1.7,2.7,4,2.7,7c0,0.8-0.1,1.7-0.3,2.8L354.1,665.1L354.1,665.1z M357.7,657.4
		c-1.6,1.3-2.7,3.2-3.3,5.5h16.1c0-0.2,0-0.5,0-0.8c0-2.1-0.6-3.8-1.9-4.9s-3-1.7-5.2-1.7C361.3,655.4,359.3,656.1,357.7,657.4z"/>
	<path d="M398.4,649.9c-1.9,1.3-3.3,3.1-4.3,5.2c-1,2.1-1.5,4.4-1.7,6.8c1-1.5,2.2-2.5,3.8-3.2c1.6-0.7,3.3-1.1,5.1-1.1
		c1.8,0,3.4,0.3,4.9,1s2.6,1.6,3.5,2.9c0.8,1.3,1.3,2.8,1.3,4.5c0,2-0.5,3.7-1.4,5.2s-2.2,2.6-3.9,3.4c-1.6,0.8-3.5,1.2-5.6,1.2
		c-3.4,0-6-1-8-3.1c-2-2-3-5-3-8.8c0-3.1,0.6-6,1.7-8.9s3-5.2,5.4-7.1c2.5-1.8,5.6-2.8,9.4-2.8c3.1,0,5.5,0.6,7.2,1.7l-1.5,2.5
		c-1.5-1-3.5-1.5-5.9-1.5C402.7,647.9,400.3,648.6,398.4,649.9z M396.5,661.1c-1.2,0.6-2.2,1.4-2.9,2.5c-0.7,1-1,2.2-1,3.5
		c0,1.1,0.3,2.1,0.9,3s1.4,1.7,2.6,2.3c1.1,0.6,2.5,0.9,4.1,0.9c2.4,0,4.2-0.6,5.7-1.9s2.1-2.9,2.1-5.1c0-1.9-0.7-3.4-2-4.5
		s-3.1-1.6-5.2-1.6C399.1,660.2,397.7,660.5,396.5,661.1z"/>
	<path d="M464.1,654.7c1.4,1.3,2.1,3.1,2.1,5.4c0,0.7-0.1,1.5-0.3,2.7l-2.6,12.9h-3.1l2.6-12.9c0.1-0.7,0.2-1.4,0.2-2.1
		c0-1.6-0.5-2.8-1.4-3.7s-2.3-1.3-4.2-1.3c-2.3,0-4.2,0.6-5.7,1.9c-1.5,1.3-2.5,3.2-3.1,5.7l-2.5,12.5H443l2.6-12.9
		c0.1-0.8,0.2-1.5,0.2-2.1c0-1.6-0.5-2.9-1.4-3.8c-0.9-0.9-2.3-1.3-4.2-1.3c-2.3,0-4.2,0.7-5.8,2c-1.5,1.3-2.6,3.3-3.1,5.9
		l-2.4,12.1H426l4.5-22.6h2.9l-0.7,3.6c2.1-2.5,4.9-3.8,8.6-3.8c1.9,0,3.5,0.4,4.8,1.2s2.2,1.9,2.6,3.4c1.1-1.5,2.5-2.6,4.1-3.4
		c1.6-0.8,3.4-1.1,5.4-1.1C460.7,652.8,462.7,653.4,464.1,654.7z"/>
	<path d="M476.1,653h3.1l-4.5,22.6h-3.1L476.1,653z M477.4,647.4c-0.4-0.4-0.6-0.9-0.6-1.4c0-0.7,0.2-1.2,0.7-1.7
		c0.4-0.4,1-0.7,1.7-0.7c0.6,0,1.1,0.2,1.5,0.6c0.4,0.4,0.6,0.8,0.6,1.4c0,0.7-0.2,1.3-0.7,1.7c-0.5,0.5-1,0.7-1.7,0.7
		C478.3,648,477.8,647.8,477.4,647.4z"/>
	<path d="M504.7,654.8c1.4,1.3,2.1,3.1,2.1,5.4c0,0.8-0.1,1.7-0.3,2.6l-2.6,12.9h-3.1l2.6-12.9c0.1-0.8,0.2-1.5,0.2-2.1
		c0-1.6-0.5-2.9-1.5-3.8c-1-0.9-2.4-1.3-4.4-1.3c-2.4,0-4.4,0.7-6,2s-2.6,3.3-3.2,5.9l-2.4,12.1H483l4.5-22.6h2.9l-0.7,3.6
		c2.1-2.5,5.1-3.8,8.9-3.8C501.3,652.8,503.2,653.5,504.7,654.8z"/>
	<path d="M537.2,653l-4.5,22.6h-2.9l0.7-3.6c-2.1,2.6-5,3.8-8.7,3.8c-2.5,0-4.5-0.7-5.9-2s-2.1-3.1-2.1-5.4c0-0.8,0.1-1.6,0.3-2.5
		l2.6-12.9h3.1l-2.6,12.9c-0.1,0.8-0.2,1.5-0.2,2c0,1.7,0.5,2.9,1.4,3.8c1,0.9,2.4,1.3,4.3,1.3c2.4,0,4.4-0.7,6-2s2.6-3.3,3.2-5.9
		l2.4-12.2h2.9V653z"/>
	<path d="M546.1,668.8c-0.1,0.7-0.2,1.2-0.2,1.4c0,2,1.1,3,3.3,3c1.3,0,2.5-0.4,3.5-1.2l0.7,2.3c-1.3,1-3,1.5-5,1.5
		c-1.7,0-3-0.5-4-1.4s-1.5-2.2-1.5-3.8c0-0.6,0.1-1.2,0.2-1.8l2.6-13.3h-4l0.5-2.6h4l1-4.9h3.1l-1,4.9h6.9l-0.5,2.6h-6.9
		L546.1,668.8z"/>
	<path d="M562.5,674.6c-1.5-0.8-2.7-1.9-3.6-3.4s-1.3-3.1-1.3-5.1c0-2.6,0.6-4.8,1.7-6.9c1.1-2,2.7-3.6,4.7-4.8s4.2-1.7,6.7-1.7
		c3.2,0,5.7,0.9,7.5,2.6c1.8,1.7,2.8,4,2.8,7c0,2.6-0.6,4.9-1.7,6.9c-1.1,2-2.7,3.7-4.7,4.8c-2,1.2-4.2,1.7-6.7,1.7
		C565.9,675.8,564.1,675.4,562.5,674.6z M573.2,671.7c1.5-0.9,2.7-2.2,3.5-3.8s1.3-3.4,1.3-5.4c0-2.2-0.7-3.9-2-5.2
		c-1.3-1.2-3.1-1.9-5.5-1.9c-1.9,0-3.5,0.5-5,1.4s-2.7,2.2-3.5,3.8s-1.3,3.4-1.3,5.4c0,2.2,0.7,3.9,2,5.2c1.3,1.2,3.1,1.8,5.5,1.8
		C570,673.1,571.7,672.6,573.2,671.7z"/>
	<path d="M586.2,675c-1.6-0.5-2.9-1.2-3.8-2l1.5-2.4c0.9,0.7,2,1.3,3.4,1.8s2.9,0.7,4.4,0.7c2.1,0,3.8-0.4,5-1.1
		c1.2-0.7,1.7-1.7,1.7-3c0-0.7-0.2-1.3-0.7-1.7s-1.1-0.8-1.7-1c-0.7-0.2-1.7-0.5-3-0.8c-1.6-0.3-2.9-0.7-3.8-1
		c-1-0.3-1.8-0.9-2.5-1.6c-0.7-0.7-1-1.8-1-3.1c0-2.1,0.9-3.9,2.7-5.1c1.8-1.3,4.2-1.9,7.1-1.9c1.5,0,2.9,0.2,4.3,0.6
		c1.4,0.4,2.5,0.9,3.4,1.5l-1.3,2.5c-0.9-0.6-1.9-1.1-3-1.4c-1.2-0.3-2.4-0.5-3.6-0.5c-2.1,0-3.7,0.4-4.8,1.1
		c-1.1,0.7-1.7,1.7-1.7,3c0,0.7,0.2,1.3,0.7,1.8s1.1,0.8,1.8,1s1.7,0.5,3,0.7c1.5,0.3,2.8,0.7,3.8,1s1.8,0.9,2.5,1.6
		c0.7,0.7,1,1.7,1,3c0,2.2-0.9,3.9-2.7,5.2c-1.8,1.2-4.3,1.9-7.3,1.9C589.6,675.8,587.9,675.6,586.2,675z"/>
	<path d="M604.9,675.2c-0.4-0.4-0.6-1-0.6-1.6c0-0.7,0.2-1.3,0.7-1.7c0.5-0.5,1-0.7,1.7-0.7c0.6,0,1.2,0.2,1.6,0.6
		c0.4,0.4,0.6,1,0.6,1.6c0,0.7-0.2,1.3-0.7,1.7c-0.5,0.5-1,0.7-1.7,0.7C605.9,675.8,605.3,675.6,604.9,675.2z"/>
	<path d="M632.9,645.5h3.1l-5.5,27.3h16.9l-0.6,2.8h-20L632.9,645.5z"/>
	<path d="M676.4,653l-4.5,22.6H669l0.7-3.6c-1.1,1.2-2.4,2.1-3.9,2.8s-3.1,1-4.9,1c-1.9,0-3.6-0.4-5.1-1.2s-2.7-1.9-3.5-3.3
		s-1.2-3.1-1.2-5.1c0-2.6,0.6-4.8,1.7-6.9c1.1-2,2.6-3.6,4.6-4.8c1.9-1.2,4.1-1.7,6.5-1.7c2.1,0,4,0.4,5.4,1.3s2.5,2.1,3.2,3.6
		l0.9-4.7L676.4,653L676.4,653z M666.5,671.7c1.5-0.9,2.7-2.2,3.5-3.8s1.3-3.4,1.3-5.4c0-2.2-0.7-3.9-2-5.2
		c-1.3-1.2-3.1-1.9-5.5-1.9c-1.9,0-3.5,0.5-5,1.4s-2.7,2.2-3.5,3.8S654,664,654,666c0,2.2,0.7,3.9,2,5.2c1.3,1.2,3.1,1.8,5.5,1.8
		C663.4,673.1,665,672.6,666.5,671.7z"/>
	<path d="M712.3,654c1.5,0.8,2.7,1.9,3.5,3.3c0.8,1.4,1.2,3.1,1.2,5.1c0,2.6-0.6,4.9-1.7,6.9c-1.1,2-2.6,3.7-4.6,4.8
		c-2,1.2-4.1,1.7-6.6,1.7c-2.2,0-4-0.4-5.4-1.3c-1.5-0.8-2.5-2.1-3.2-3.7l-2.6,13.1H690l6.1-31h2.9l-0.7,3.6
		c1.1-1.2,2.4-2.2,3.9-2.8s3.1-1,4.9-1C709,652.8,710.8,653.2,712.3,654z M709.2,671.7c1.5-0.9,2.6-2.2,3.5-3.8
		c0.8-1.6,1.3-3.4,1.3-5.5c0-2.2-0.7-3.9-2-5.2c-1.3-1.2-3.1-1.9-5.5-1.9c-1.9,0-3.5,0.5-5,1.4s-2.6,2.2-3.5,3.8
		c-0.8,1.6-1.3,3.4-1.3,5.5c0,2.2,0.7,3.9,2,5.2c1.3,1.2,3.1,1.8,5.5,1.8C706,673.1,707.7,672.6,709.2,671.7z"/>
	<path d="M731.2,653.9c1.5-0.7,3.4-1.1,5.5-1.1l-0.6,3h-0.9c-2.4,0-4.4,0.7-6,2.1c-1.6,1.4-2.6,3.5-3.2,6.3l-2.3,11.5h-3.1l4.5-22.6
		h2.9l-0.8,4.1C728.4,655.6,729.7,654.6,731.2,653.9z"/>
	<path d="M740.3,665.1c0,0.2,0,0.5,0,0.9c0,2.3,0.7,4,2,5.2s3.2,1.8,5.8,1.8c1.5,0,2.9-0.3,4.2-0.8s2.4-1.2,3.2-2.1l1.4,2.2
		c-1.1,1.1-2.4,1.9-4,2.5s-3.3,0.9-5.1,0.9c-3.3,0-5.8-0.9-7.7-2.6c-1.9-1.7-2.8-4.1-2.8-7.1c0-2.5,0.5-4.8,1.6-6.8s2.6-3.6,4.5-4.8
		s4-1.7,6.4-1.7c3,0,5.4,0.9,7.2,2.6c1.8,1.7,2.7,4,2.7,7c0,0.8-0.1,1.7-0.3,2.8L740.3,665.1L740.3,665.1z M743.9,657.4
		c-1.6,1.3-2.7,3.2-3.3,5.5h16.1c0-0.2,0-0.5,0-0.8c0-2.1-0.6-3.8-1.9-4.9s-3-1.7-5.2-1.7C747.4,655.4,745.5,656.1,743.9,657.4z"/>
	<path d="M788.9,653l-4,19.9c-0.8,4-2.2,6.8-4.4,8.6s-5.1,2.7-8.8,2.7c-2.1,0-4-0.3-5.7-0.9c-1.7-0.6-3.1-1.4-4.3-2.5l1.8-2.3
		c0.9,0.9,2.1,1.7,3.6,2.2s3.1,0.8,4.9,0.8c2.8,0,5-0.7,6.6-2s2.6-3.4,3.2-6.1l0.5-2.5c-1.1,1.2-2.4,2.2-3.9,2.9s-3.2,1-5.1,1
		c-3,0-5.4-0.8-7.2-2.5c-1.8-1.6-2.7-3.9-2.7-6.7c0-2.4,0.6-4.6,1.7-6.5c1.1-1.9,2.6-3.5,4.6-4.6s4.2-1.7,6.6-1.7
		c2.2,0,4,0.4,5.5,1.3c1.5,0.9,2.6,2.2,3.3,3.8l0.9-5L788.9,653L788.9,653z M779,670.7c1.5-0.9,2.7-2,3.5-3.6
		c0.8-1.5,1.3-3.2,1.3-5.1c0-2.1-0.7-3.7-2-4.8s-3.2-1.7-5.5-1.7c-1.9,0-3.6,0.4-5.1,1.3s-2.7,2-3.5,3.6c-0.8,1.5-1.3,3.2-1.3,5.1
		c0,2.1,0.7,3.7,2,4.8s3.2,1.7,5.5,1.7C775.8,672,777.5,671.6,779,670.7z"/>
	<path d="M817.9,653l-4.5,22.6h-2.9l0.7-3.6c-2.1,2.6-5,3.8-8.7,3.8c-2.5,0-4.5-0.7-5.9-2s-2.1-3.1-2.1-5.4c0-0.8,0.1-1.6,0.3-2.5
		l2.6-12.9h3.1l-2.6,12.9c-0.1,0.8-0.2,1.5-0.2,2c0,1.7,0.5,2.9,1.4,3.8c1,0.9,2.4,1.3,4.3,1.3c2.4,0,4.4-0.7,6-2s2.6-3.3,3.2-5.9
		l2.4-12.2h2.9V653z"/>
	<path d="M843.4,654.8c1.4,1.3,2.1,3.1,2.1,5.4c0,0.8-0.1,1.7-0.3,2.6l-2.6,12.9h-3.1l2.6-12.9c0.1-0.8,0.2-1.5,0.2-2.1
		c0-1.6-0.5-2.9-1.5-3.8c-1-0.9-2.4-1.3-4.4-1.3c-2.4,0-4.4,0.7-6,2s-2.6,3.3-3.2,5.9l-2.4,12.1h-3.1l4.5-22.6h2.9l-0.7,3.6
		c2.2-2.5,5.1-3.8,8.9-3.8C840,652.8,842,653.5,843.4,654.8z"/>
	<path d="M855.9,668.8c-0.1,0.7-0.2,1.2-0.2,1.4c0,2,1.1,3,3.3,3c1.3,0,2.5-0.4,3.5-1.2l0.7,2.3c-1.3,1-3,1.5-5,1.5
		c-1.7,0-3-0.5-4-1.4s-1.5-2.2-1.5-3.8c0-0.6,0.1-1.2,0.2-1.8l2.6-13.3h-4l0.5-2.6h4l1-4.9h3.1l-1,4.9h6.9l-0.5,2.6h-6.9
		L855.9,668.8z"/>
	<path d="M892.8,653l-4.5,22.6h-2.9l0.7-3.6c-1.1,1.2-2.4,2.1-3.9,2.8s-3.1,1-4.9,1c-1.9,0-3.6-0.4-5.1-1.2s-2.7-1.9-3.5-3.3
		s-1.2-3.1-1.2-5.1c0-2.6,0.6-4.8,1.7-6.9c1.1-2,2.6-3.6,4.6-4.8c1.9-1.2,4.1-1.7,6.5-1.7c2.1,0,4,0.4,5.4,1.3s2.5,2.1,3.2,3.6
		l0.9-4.7L892.8,653L892.8,653z M883,671.7c1.5-0.9,2.7-2.2,3.5-3.8s1.3-3.4,1.3-5.4c0-2.2-0.7-3.9-2-5.2c-1.3-1.2-3.1-1.9-5.5-1.9
		c-1.9,0-3.5,0.5-5,1.4s-2.7,2.2-3.5,3.8s-1.3,3.4-1.3,5.4c0,2.2,0.7,3.9,2,5.2c1.3,1.2,3.1,1.8,5.5,1.8
		C879.8,673.1,881.5,672.6,883,671.7z"/>
	<path d="M909.5,675c-1.6-0.5-2.9-1.2-3.8-2l1.5-2.4c0.9,0.7,2,1.3,3.4,1.8s2.9,0.7,4.4,0.7c2.1,0,3.8-0.4,5-1.1
		c1.2-0.7,1.7-1.7,1.7-3c0-0.7-0.2-1.3-0.7-1.7s-1.1-0.8-1.7-1c-0.7-0.2-1.7-0.5-3-0.8c-1.6-0.3-2.9-0.7-3.8-1
		c-1-0.3-1.8-0.9-2.5-1.6c-0.7-0.7-1-1.8-1-3.1c0-2.1,0.9-3.9,2.7-5.1c1.8-1.3,4.2-1.9,7.1-1.9c1.5,0,2.9,0.2,4.3,0.6
		c1.4,0.4,2.5,0.9,3.4,1.5l-1.3,2.5c-0.9-0.6-1.9-1.1-3-1.4c-1.2-0.3-2.4-0.5-3.6-0.5c-2.1,0-3.7,0.4-4.8,1.1
		c-1.1,0.7-1.7,1.7-1.7,3c0,0.7,0.2,1.3,0.7,1.8s1.1,0.8,1.8,1s1.7,0.5,3,0.7c1.5,0.3,2.8,0.7,3.8,1s1.8,0.9,2.5,1.6
		c0.7,0.7,1,1.7,1,3c0,2.2-0.9,3.9-2.7,5.2c-1.8,1.2-4.3,1.9-7.3,1.9C912.8,675.8,911.1,675.6,909.5,675z"/>
	<path d="M931.9,665.1c0,0.2,0,0.5,0,0.9c0,2.3,0.7,4,2,5.2s3.2,1.8,5.8,1.8c1.5,0,2.9-0.3,4.2-0.8s2.4-1.2,3.2-2.1l1.4,2.2
		c-1.1,1.1-2.4,1.9-4,2.5s-3.3,0.9-5.1,0.9c-3.3,0-5.8-0.9-7.7-2.6c-1.9-1.7-2.8-4.1-2.8-7.1c0-2.5,0.5-4.8,1.6-6.8s2.6-3.6,4.5-4.8
		s4-1.7,6.4-1.7c3,0,5.4,0.9,7.2,2.6c1.8,1.7,2.7,4,2.7,7c0,0.8-0.1,1.7-0.3,2.8L931.9,665.1L931.9,665.1z M935.5,657.4
		c-1.6,1.3-2.7,3.2-3.3,5.5h16.1c0-0.2,0-0.5,0-0.8c0-2.1-0.6-3.8-1.9-4.9s-3-1.7-5.2-1.7C939,655.4,937.1,656.1,935.5,657.4z"/>
	<path d="M106,705.5c1.5-0.7,3.4-1.1,5.5-1.1l-0.6,3H110c-2.4,0-4.4,0.7-6,2.1c-1.6,1.4-2.6,3.5-3.2,6.3l-2.3,11.5h-3.1l4.5-22.6
		h2.9l-0.8,4.1C103.3,707.2,104.5,706.2,106,705.5z"/>
	<path d="M115.2,716.7c0,0.2,0,0.5,0,0.9c0,2.3,0.7,4,2,5.2s3.2,1.8,5.8,1.8c1.5,0,2.9-0.3,4.2-0.8c1.3-0.5,2.4-1.2,3.2-2.1l1.4,2.2
		c-1.1,1.1-2.4,1.9-4,2.5s-3.3,0.9-5.1,0.9c-3.3,0-5.8-0.9-7.7-2.6c-1.9-1.7-2.8-4.1-2.8-7.1c0-2.5,0.5-4.8,1.6-6.8s2.6-3.6,4.5-4.8
		s4-1.7,6.4-1.7c3,0,5.4,0.9,7.2,2.6c1.8,1.7,2.7,4,2.7,7c0,0.8-0.1,1.7-0.3,2.8L115.2,716.7L115.2,716.7z M118.7,709
		c-1.6,1.3-2.7,3.2-3.3,5.5h16.1c0-0.2,0-0.5,0-0.8c0-2.1-0.6-3.8-1.9-4.9s-3-1.7-5.2-1.7C122.3,707,120.3,707.7,118.7,709z"/>
	<path d="M139.7,726.6c-1.6-0.5-2.9-1.2-3.8-2l1.5-2.4c0.9,0.7,2,1.3,3.4,1.8s2.9,0.7,4.4,0.7c2.1,0,3.8-0.4,5-1.1
		c1.2-0.7,1.7-1.7,1.7-3c0-0.7-0.2-1.3-0.7-1.7s-1.1-0.8-1.7-1c-0.7-0.2-1.7-0.5-3-0.8c-1.6-0.3-2.9-0.7-3.8-1s-1.8-0.9-2.5-1.6
		s-1-1.8-1-3.1c0-2.1,0.9-3.9,2.7-5.1c1.8-1.3,4.2-1.9,7.1-1.9c1.5,0,2.9,0.2,4.3,0.6c1.4,0.4,2.5,0.9,3.4,1.5l-1.3,2.5
		c-0.9-0.6-1.9-1.1-3-1.4c-1.2-0.3-2.4-0.5-3.6-0.5c-2.1,0-3.7,0.4-4.8,1.1c-1.1,0.7-1.7,1.7-1.7,3c0,0.7,0.2,1.3,0.7,1.8
		s1.1,0.8,1.8,1s1.7,0.5,3,0.7c1.5,0.3,2.8,0.7,3.8,1s1.8,0.9,2.5,1.6s1,1.7,1,3c0,2.2-0.9,3.9-2.7,5.2c-1.8,1.2-4.3,1.9-7.3,1.9
		C143.1,727.4,141.3,727.2,139.7,726.6z"/>
	<path d="M179.9,705.6c1.5,0.8,2.7,1.9,3.5,3.3c0.8,1.4,1.2,3.1,1.2,5.1c0,2.6-0.6,4.9-1.7,6.9c-1.1,2-2.6,3.7-4.6,4.8
		c-1.9,1.2-4.1,1.7-6.6,1.7c-2.2,0-4-0.4-5.4-1.3c-1.5-0.8-2.5-2.1-3.2-3.7l-2.6,13.1h-3.1l6.1-31h2.9l-0.7,3.6
		c1.1-1.2,2.4-2.2,3.9-2.8s3.1-1,4.9-1C176.7,704.4,178.4,704.8,179.9,705.6z M176.8,723.3c1.5-0.9,2.6-2.2,3.5-3.8
		c0.8-1.6,1.3-3.4,1.3-5.5c0-2.2-0.7-3.9-2-5.2c-1.3-1.2-3.1-1.9-5.5-1.9c-1.9,0-3.5,0.5-5,1.4s-2.6,2.2-3.5,3.8
		c-0.8,1.6-1.3,3.4-1.3,5.5c0,2.2,0.7,3.9,2,5.2c1.3,1.2,3.1,1.8,5.5,1.8C173.7,724.7,175.4,724.2,176.8,723.3z"/>
	<path d="M193.1,726.2c-1.5-0.8-2.7-1.9-3.6-3.4c-0.8-1.4-1.3-3.1-1.3-5.1c0-2.6,0.6-4.8,1.7-6.9c1.1-2,2.7-3.6,4.7-4.8
		s4.2-1.7,6.7-1.7c3.2,0,5.7,0.9,7.5,2.6c1.8,1.7,2.8,4,2.8,7c0,2.6-0.6,4.9-1.7,6.9c-1.1,2-2.7,3.7-4.7,4.8c-2,1.2-4.2,1.7-6.7,1.7
		C196.5,727.4,194.7,727,193.1,726.2z M203.8,723.3c1.5-0.9,2.7-2.2,3.5-3.8s1.3-3.4,1.3-5.4c0-2.2-0.7-3.9-2-5.2
		c-1.3-1.2-3.1-1.9-5.5-1.9c-1.9,0-3.5,0.5-5,1.4s-2.7,2.2-3.5,3.8s-1.3,3.4-1.3,5.4c0,2.2,0.7,3.9,2,5.2c1.3,1.2,3.1,1.8,5.5,1.8
		C200.6,724.7,202.3,724.2,203.8,723.3z"/>
	<path d="M236.9,706.4c1.4,1.3,2.1,3.1,2.1,5.4c0,0.8-0.1,1.7-0.3,2.6l-2.6,12.9H233l2.6-12.9c0.1-0.8,0.2-1.5,0.2-2.1
		c0-1.6-0.5-2.9-1.5-3.8c-1-0.9-2.4-1.3-4.4-1.3c-2.4,0-4.4,0.7-6,2s-2.6,3.3-3.2,5.9l-2.4,12.1h-3.1l4.5-22.6h2.9l-0.7,3.6
		c2.1-2.5,5.1-3.8,8.9-3.8C233.5,704.4,235.5,705.1,236.9,706.4z"/>
	<path d="M271.6,695.3l-6.4,31.9h-2.9l0.7-3.6c-1.1,1.2-2.4,2.1-3.9,2.8s-3.1,1-4.9,1c-1.9,0-3.6-0.4-5.1-1.2s-2.7-1.9-3.5-3.3
		c-0.8-1.4-1.2-3.1-1.2-5.1c0-2.6,0.6-4.8,1.7-6.9c1.1-2,2.6-3.6,4.6-4.8c1.9-1.2,4.1-1.7,6.5-1.7c2.1,0,3.9,0.4,5.4,1.3
		c1.5,0.8,2.5,2.1,3.2,3.6l2.8-14H271.6z M259.9,723.3c1.5-0.9,2.7-2.2,3.5-3.8s1.3-3.4,1.3-5.4c0-2.2-0.7-3.9-2-5.2
		c-1.3-1.2-3.1-1.9-5.5-1.9c-1.9,0-3.5,0.5-5,1.4s-2.7,2.2-3.5,3.8s-1.3,3.4-1.3,5.4c0,2.2,0.7,3.9,2,5.2c1.3,1.2,3.1,1.8,5.5,1.8
		C256.8,724.7,258.4,724.2,259.9,723.3z"/>
	<path d="M278.3,704.6h3.1l-4.5,22.6h-3.1L278.3,704.6z M279.6,699c-0.4-0.4-0.6-0.9-0.6-1.4c0-0.7,0.2-1.2,0.7-1.7
		c0.4-0.4,1-0.7,1.7-0.7c0.6,0,1.1,0.2,1.5,0.6c0.4,0.4,0.6,0.8,0.6,1.4c0,0.7-0.2,1.3-0.7,1.7c-0.5,0.5-1,0.7-1.7,0.7
		C280.5,699.6,280,699.4,279.6,699z"/>
	<path d="M290,726.2c-1.5-0.8-2.7-1.9-3.6-3.4c-0.8-1.4-1.3-3.1-1.3-5.1c0-2.6,0.6-4.8,1.7-6.9c1.1-2,2.7-3.6,4.7-4.8
		s4.2-1.7,6.7-1.7c3.2,0,5.7,0.9,7.5,2.6c1.8,1.7,2.8,4,2.8,7c0,2.6-0.6,4.9-1.7,6.9s-2.7,3.7-4.7,4.8c-2,1.2-4.2,1.7-6.7,1.7
		C293.3,727.4,291.5,727,290,726.2z M300.7,723.3c1.5-0.9,2.7-2.2,3.5-3.8s1.3-3.4,1.3-5.4c0-2.2-0.7-3.9-2-5.2
		c-1.3-1.2-3.1-1.9-5.5-1.9c-1.9,0-3.5,0.5-5,1.4s-2.7,2.2-3.5,3.8s-1.3,3.4-1.3,5.4c0,2.2,0.7,3.9,2,5.2c1.3,1.2,3.1,1.8,5.5,1.8
		C297.5,724.7,299.2,724.2,300.7,723.3z M303.3,695.7h4.2L300,701h-3.2L303.3,695.7z"/>
	<path d="M328.3,726.2c-1.6-0.8-2.8-1.9-3.6-3.4c-0.8-1.4-1.3-3.1-1.3-5.1c0-2.6,0.6-4.8,1.7-6.9c1.1-2,2.7-3.6,4.7-4.8
		s4.3-1.7,6.8-1.7c2.1,0,3.9,0.4,5.4,1.1c1.5,0.8,2.7,1.9,3.5,3.4l-2.6,1.5c-1.3-2.2-3.5-3.4-6.6-3.4c-1.9,0-3.5,0.5-5.1,1.4
		c-1.5,0.9-2.7,2.2-3.5,3.8s-1.3,3.4-1.3,5.5c0,2.2,0.7,3.9,2,5.2c1.3,1.2,3.2,1.8,5.6,1.8c1.5,0,2.8-0.3,4.1-0.8
		c1.2-0.6,2.3-1.4,3.1-2.4l2.2,1.7c-1,1.3-2.3,2.4-4,3.2s-3.5,1.1-5.4,1.1C331.7,727.4,329.8,727,328.3,726.2z"/>
	<path d="M352,726.2c-1.5-0.8-2.7-1.9-3.6-3.4c-0.8-1.4-1.3-3.1-1.3-5.1c0-2.6,0.6-4.8,1.7-6.9c1.1-2,2.7-3.6,4.7-4.8
		s4.2-1.7,6.7-1.7c3.2,0,5.7,0.9,7.5,2.6c1.8,1.7,2.8,4,2.8,7c0,2.6-0.6,4.9-1.7,6.9s-2.7,3.7-4.7,4.8c-2,1.2-4.2,1.7-6.7,1.7
		C355.4,727.4,353.6,727,352,726.2z M362.7,723.3c1.5-0.9,2.7-2.2,3.5-3.8s1.3-3.4,1.3-5.4c0-2.2-0.7-3.9-2-5.2
		c-1.3-1.2-3.1-1.9-5.5-1.9c-1.9,0-3.5,0.5-5,1.4s-2.7,2.2-3.5,3.8s-1.3,3.4-1.3,5.4c0,2.2,0.7,3.9,2,5.2c1.3,1.2,3.1,1.8,5.5,1.8
		C359.5,724.7,361.2,724.2,362.7,723.3z"/>
	<path d="M395.8,706.4c1.4,1.3,2.1,3.1,2.1,5.4c0,0.8-0.1,1.7-0.3,2.6l-2.6,12.9h-3.1l2.6-12.9c0.1-0.8,0.2-1.5,0.2-2.1
		c0-1.6-0.5-2.9-1.5-3.8c-1-0.9-2.4-1.3-4.4-1.3c-2.4,0-4.4,0.7-6,2s-2.6,3.3-3.2,5.9l-2.4,12.1h-3.1l4.5-22.6h2.9l-0.7,3.6
		c2.1-2.5,5.1-3.8,8.9-3.8C392.4,704.4,394.4,705.1,395.8,706.4z"/>
	<path d="M435.4,705.6c1.5,0.8,2.7,1.9,3.5,3.3c0.8,1.4,1.2,3.1,1.2,5.1c0,2.6-0.6,4.9-1.7,6.9s-2.6,3.7-4.6,4.8
		c-1.9,1.2-4.1,1.7-6.6,1.7c-2.2,0-4-0.4-5.4-1.3c-1.5-0.8-2.5-2.1-3.2-3.7l-2.6,13.1h-3.1l6.1-31h2.9l-0.7,3.6
		c1.1-1.2,2.4-2.2,3.9-2.8s3.1-1,4.9-1C432.1,704.4,433.8,704.8,435.4,705.6z M432.3,723.3c1.5-0.9,2.6-2.2,3.5-3.8
		c0.8-1.6,1.3-3.4,1.3-5.5c0-2.2-0.7-3.9-2-5.2c-1.3-1.2-3.1-1.9-5.5-1.9c-1.9,0-3.5,0.5-5,1.4s-2.6,2.2-3.5,3.8
		c-0.8,1.6-1.3,3.4-1.3,5.5c0,2.2,0.7,3.9,2,5.2c1.3,1.2,3.1,1.8,5.5,1.8C429.1,724.7,430.8,724.2,432.3,723.3z"/>
	<path d="M454.3,705.5c1.5-0.7,3.4-1.1,5.5-1.1l-0.6,3h-0.9c-2.4,0-4.4,0.7-6,2.1c-1.6,1.4-2.6,3.5-3.2,6.3l-2.3,11.5h-3.1l4.5-22.6
		h2.9l-0.8,4.1C451.5,707.2,452.8,706.2,454.3,705.5z"/>
	<path d="M465.2,726.2c-1.5-0.8-2.7-1.9-3.6-3.4c-0.8-1.4-1.3-3.1-1.3-5.1c0-2.6,0.6-4.8,1.7-6.9c1.1-2,2.7-3.6,4.7-4.8
		s4.2-1.7,6.7-1.7c3.2,0,5.7,0.9,7.5,2.6c1.8,1.7,2.8,4,2.8,7c0,2.6-0.6,4.9-1.7,6.9s-2.7,3.7-4.7,4.8c-2,1.2-4.2,1.7-6.7,1.7
		C468.6,727.4,466.8,727,465.2,726.2z M475.9,723.3c1.5-0.9,2.7-2.2,3.5-3.8s1.3-3.4,1.3-5.4c0-2.2-0.7-3.9-2-5.2
		c-1.3-1.2-3.1-1.9-5.5-1.9c-1.9,0-3.5,0.5-5,1.4s-2.7,2.2-3.5,3.8s-1.3,3.4-1.3,5.4c0,2.2,0.7,3.9,2,5.2c1.3,1.2,3.1,1.8,5.5,1.8
		C472.7,724.7,474.4,724.2,475.9,723.3z"/>
	<path d="M497.7,698.7c-0.8,0.7-1.3,1.8-1.6,3.4l-0.5,2.5h6.9l-0.5,2.6h-6.8l-4,20H488l4-20h-4l0.5-2.6h4.1l0.6-2.8
		c0.4-2.2,1.3-3.8,2.6-4.9c1.3-1.1,3-1.7,5.1-1.7c0.9,0,1.8,0.1,2.6,0.4c0.8,0.3,1.5,0.6,2,1.1l-1.3,2.2c-0.8-0.7-1.9-1.1-3.2-1.1
		C499.5,697.7,498.5,698,497.7,698.7z"/>
	<path d="M504.6,716.7c0,0.2,0,0.5,0,0.9c0,2.3,0.7,4,2,5.2s3.2,1.8,5.8,1.8c1.5,0,2.9-0.3,4.2-0.8s2.4-1.2,3.2-2.1l1.4,2.2
		c-1.1,1.1-2.4,1.9-4,2.5s-3.3,0.9-5.1,0.9c-3.3,0-5.8-0.9-7.7-2.6c-1.9-1.7-2.8-4.1-2.8-7.1c0-2.5,0.5-4.8,1.6-6.8s2.6-3.6,4.5-4.8
		s4-1.7,6.4-1.7c3,0,5.4,0.9,7.2,2.6c1.8,1.7,2.7,4,2.7,7c0,0.8-0.1,1.7-0.3,2.8L504.6,716.7L504.6,716.7z M508.1,709
		c-1.6,1.3-2.7,3.2-3.3,5.5H521c0-0.2,0-0.5,0-0.8c0-2.1-0.6-3.8-1.9-4.9s-3-1.7-5.2-1.7C511.7,707,509.7,707.7,508.1,709z"/>
	<path d="M529.1,726.6c-1.6-0.5-2.9-1.2-3.8-2l1.5-2.4c0.9,0.7,2,1.3,3.4,1.8s2.9,0.7,4.4,0.7c2.1,0,3.8-0.4,5-1.1
		c1.2-0.7,1.7-1.7,1.7-3c0-0.7-0.2-1.3-0.7-1.7s-1.1-0.8-1.7-1c-0.7-0.2-1.7-0.5-3-0.8c-1.6-0.3-2.9-0.7-3.8-1s-1.8-0.9-2.5-1.6
		s-1-1.8-1-3.1c0-2.1,0.9-3.9,2.7-5.1c1.8-1.3,4.2-1.9,7.1-1.9c1.5,0,2.9,0.2,4.3,0.6c1.4,0.4,2.5,0.9,3.4,1.5l-1.3,2.5
		c-0.9-0.6-1.9-1.1-3-1.4c-1.2-0.3-2.4-0.5-3.6-0.5c-2.1,0-3.7,0.4-4.8,1.1c-1.1,0.7-1.7,1.7-1.7,3c0,0.7,0.2,1.3,0.7,1.8
		s1.1,0.8,1.8,1s1.7,0.5,3,0.7c1.5,0.3,2.8,0.7,3.8,1s1.8,0.9,2.5,1.6c0.7,0.7,1,1.7,1,3c0,2.2-0.9,3.9-2.7,5.2
		c-1.8,1.2-4.3,1.9-7.3,1.9C532.5,727.4,530.7,727.2,529.1,726.6z"/>
	<path d="M553.2,704.6h3.1l-4.5,22.6h-3.1L553.2,704.6z M554.5,699c-0.4-0.4-0.6-0.9-0.6-1.4c0-0.7,0.2-1.2,0.7-1.7
		c0.4-0.4,1-0.7,1.7-0.7c0.6,0,1.1,0.2,1.5,0.6c0.4,0.4,0.6,0.8,0.6,1.4c0,0.7-0.2,1.3-0.7,1.7c-0.5,0.5-1,0.7-1.7,0.7
		C555.4,699.6,554.9,699.4,554.5,699z"/>
	<path d="M564.9,726.2c-1.5-0.8-2.7-1.9-3.6-3.4s-1.3-3.1-1.3-5.1c0-2.6,0.6-4.8,1.7-6.9c1.1-2,2.7-3.6,4.7-4.8s4.2-1.7,6.7-1.7
		c3.2,0,5.7,0.9,7.5,2.6c1.8,1.7,2.8,4,2.8,7c0,2.6-0.6,4.9-1.7,6.9c-1.1,2-2.7,3.7-4.7,4.8c-2,1.2-4.2,1.7-6.7,1.7
		C568.3,727.4,566.5,727,564.9,726.2z M575.6,723.3c1.5-0.9,2.7-2.2,3.5-3.8s1.3-3.4,1.3-5.4c0-2.2-0.7-3.9-2-5.2
		c-1.3-1.2-3.1-1.9-5.5-1.9c-1.9,0-3.5,0.5-5,1.4s-2.7,2.2-3.5,3.8s-1.3,3.4-1.3,5.4c0,2.2,0.7,3.9,2,5.2c1.3,1.2,3.1,1.8,5.5,1.8
		C572.4,724.7,574.1,724.2,575.6,723.3z"/>
	<path d="M608.7,706.4c1.4,1.3,2.1,3.1,2.1,5.4c0,0.8-0.1,1.7-0.3,2.6l-2.6,12.9H605l2.6-12.9c0.1-0.8,0.2-1.5,0.2-2.1
		c0-1.6-0.5-2.9-1.5-3.8c-1-0.9-2.4-1.3-4.4-1.3c-2.4,0-4.4,0.7-6,2s-2.6,3.3-3.2,5.9l-2.4,12.1h-3.1l4.5-22.6h2.9l-0.7,3.6
		c2.2-2.5,5.1-3.8,8.9-3.8C605.3,704.4,607.3,705.1,608.7,706.4z"/>
	<path d="M641.6,704.6l-4.5,22.6h-2.9l0.7-3.6c-1.1,1.2-2.4,2.1-3.9,2.8s-3.1,1-4.9,1c-1.9,0-3.6-0.4-5.1-1.2s-2.7-1.9-3.5-3.3
		s-1.2-3.1-1.2-5.1c0-2.6,0.6-4.8,1.7-6.9c1.1-2,2.6-3.6,4.6-4.8c1.9-1.2,4.1-1.7,6.5-1.7c2.1,0,4,0.4,5.4,1.3s2.5,2.1,3.2,3.6
		l0.9-4.7L641.6,704.6L641.6,704.6z M631.8,723.3c1.5-0.9,2.7-2.2,3.5-3.8s1.3-3.4,1.3-5.4c0-2.2-0.7-3.9-2-5.2
		c-1.3-1.2-3.1-1.9-5.5-1.9c-1.9,0-3.5,0.5-5,1.4s-2.7,2.2-3.5,3.8s-1.3,3.4-1.3,5.4c0,2.2,0.7,3.9,2,5.2c1.3,1.2,3.1,1.8,5.5,1.8
		C628.6,724.7,630.3,724.2,631.8,723.3z"/>
	<path d="M652,695.3h3.1l-6.4,31.9h-3.1L652,695.3z"/>
	<path d="M661.6,704.6h3.1l-4.5,22.6h-3.1L661.6,704.6z M663,699c-0.4-0.4-0.6-0.9-0.6-1.4c0-0.7,0.2-1.2,0.7-1.7
		c0.4-0.4,1-0.7,1.7-0.7c0.6,0,1.1,0.2,1.5,0.6c0.4,0.4,0.6,0.8,0.6,1.4c0,0.7-0.2,1.3-0.7,1.7c-0.5,0.5-1,0.7-1.7,0.7
		C663.9,699.6,663.4,699.4,663,699z"/>
	<path d="M695.7,695.3l-6.4,31.9h-2.9l0.7-3.6c-1.1,1.2-2.4,2.1-3.9,2.8s-3.1,1-4.9,1c-1.9,0-3.6-0.4-5.1-1.2s-2.7-1.9-3.5-3.3
		s-1.2-3.1-1.2-5.1c0-2.6,0.6-4.8,1.7-6.9c1.1-2,2.6-3.6,4.6-4.8c1.9-1.2,4.1-1.7,6.5-1.7c2.1,0,3.9,0.4,5.4,1.3
		c1.5,0.8,2.5,2.1,3.2,3.6l2.8-14H695.7z M684,723.3c1.5-0.9,2.7-2.2,3.5-3.8s1.3-3.4,1.3-5.4c0-2.2-0.7-3.9-2-5.2
		c-1.3-1.2-3.1-1.9-5.5-1.9c-1.9,0-3.5,0.5-5,1.4s-2.7,2.2-3.5,3.8s-1.3,3.4-1.3,5.4c0,2.2,0.7,3.9,2,5.2c1.3,1.2,3.1,1.8,5.5,1.8
		C680.9,724.7,682.5,724.2,684,723.3z"/>
	<path d="M723,704.6l-4.5,22.6h-2.9l0.7-3.6c-1.1,1.2-2.4,2.1-3.9,2.8s-3.1,1-4.9,1c-1.9,0-3.6-0.4-5.1-1.2s-2.7-1.9-3.5-3.3
		s-1.2-3.1-1.2-5.1c0-2.6,0.6-4.8,1.7-6.9c1.1-2,2.6-3.6,4.6-4.8c1.9-1.2,4.1-1.7,6.5-1.7c2.1,0,4,0.4,5.4,1.3s2.5,2.1,3.2,3.6
		l0.9-4.7L723,704.6L723,704.6z M713.2,723.3c1.5-0.9,2.7-2.2,3.5-3.8s1.3-3.4,1.3-5.4c0-2.2-0.7-3.9-2-5.2
		c-1.3-1.2-3.1-1.9-5.5-1.9c-1.9,0-3.5,0.5-5,1.4s-2.7,2.2-3.5,3.8s-1.3,3.4-1.3,5.4c0,2.2,0.7,3.9,2,5.2c1.3,1.2,3.1,1.8,5.5,1.8
		C710,724.7,711.7,724.2,713.2,723.3z"/>
	<path d="M754,695.3l-6.4,31.9h-2.9l0.7-3.6c-1.1,1.2-2.4,2.1-3.9,2.8s-3.1,1-4.9,1c-1.9,0-3.6-0.4-5.1-1.2s-2.7-1.9-3.5-3.3
		s-1.2-3.1-1.2-5.1c0-2.6,0.6-4.8,1.7-6.9c1.1-2,2.6-3.6,4.6-4.8c1.9-1.2,4.1-1.7,6.5-1.7c2.1,0,3.9,0.4,5.4,1.3
		c1.5,0.8,2.5,2.1,3.2,3.6l2.8-14H754z M742.3,723.3c1.5-0.9,2.7-2.2,3.5-3.8s1.3-3.4,1.3-5.4c0-2.2-0.7-3.9-2-5.2
		c-1.3-1.2-3.1-1.9-5.5-1.9c-1.9,0-3.5,0.5-5,1.4s-2.7,2.2-3.5,3.8s-1.3,3.4-1.3,5.4c0,2.2,0.7,3.9,2,5.2c1.3,1.2,3.1,1.8,5.5,1.8
		C739.2,724.7,740.9,724.2,742.3,723.3z"/>
	<path d="M791,704.6l-16.5,25.5c-1.4,2.1-2.7,3.6-3.9,4.4c-1.2,0.8-2.6,1.2-4.3,1.2c-1.1,0-2.1-0.2-3.1-0.5c-1-0.4-1.7-0.9-2.3-1.5
		l1.6-2.2c1,1.1,2.4,1.6,4,1.6c1,0,1.9-0.3,2.7-0.8s1.6-1.5,2.5-2.8l1.6-2.4l-5.6-22.5h3.1l4.7,19.3l12.3-19.3H791z"/>
	<path d="M806.7,726.2c-1.6-0.8-2.8-1.9-3.6-3.4s-1.3-3.1-1.3-5.1c0-2.6,0.6-4.8,1.7-6.9c1.1-2,2.7-3.6,4.7-4.8s4.3-1.7,6.8-1.7
		c2.1,0,3.9,0.4,5.4,1.1s2.7,1.9,3.5,3.4l-2.6,1.5c-1.3-2.2-3.5-3.4-6.6-3.4c-1.9,0-3.5,0.5-5.1,1.4c-1.5,0.9-2.7,2.2-3.5,3.8
		s-1.3,3.4-1.3,5.5c0,2.2,0.7,3.9,2,5.2c1.3,1.2,3.2,1.8,5.6,1.8c1.5,0,2.8-0.3,4.1-0.8c1.2-0.6,2.3-1.4,3.1-2.4l2.2,1.7
		c-1,1.3-2.3,2.4-4,3.2s-3.5,1.1-5.4,1.1C810.1,727.4,808.3,727,806.7,726.2z"/>
	<path d="M830.5,726.2c-1.5-0.8-2.7-1.9-3.6-3.4s-1.3-3.1-1.3-5.1c0-2.6,0.6-4.8,1.7-6.9c1.1-2,2.7-3.6,4.7-4.8s4.2-1.7,6.7-1.7
		c3.2,0,5.7,0.9,7.5,2.6c1.8,1.7,2.8,4,2.8,7c0,2.6-0.6,4.9-1.7,6.9c-1.1,2-2.7,3.7-4.7,4.8c-2,1.2-4.2,1.7-6.7,1.7
		C833.8,727.4,832,727,830.5,726.2z M841.2,723.3c1.5-0.9,2.7-2.2,3.5-3.8s1.3-3.4,1.3-5.4c0-2.2-0.7-3.9-2-5.2
		c-1.3-1.2-3.1-1.9-5.5-1.9c-1.9,0-3.5,0.5-5,1.4s-2.7,2.2-3.5,3.8s-1.3,3.4-1.3,5.4c0,2.2,0.7,3.9,2,5.2c1.3,1.2,3.1,1.8,5.5,1.8
		C838,724.7,839.7,724.2,841.2,723.3z"/>
	<path d="M874.3,706.4c1.4,1.3,2.1,3.1,2.1,5.4c0,0.8-0.1,1.7-0.3,2.6l-2.6,12.9h-3.1l2.6-12.9c0.1-0.8,0.2-1.5,0.2-2.1
		c0-1.6-0.5-2.9-1.5-3.8c-1-0.9-2.4-1.3-4.4-1.3c-2.4,0-4.4,0.7-6,2s-2.6,3.3-3.2,5.9l-2.4,12.1h-3.1l4.5-22.6h2.9l-0.7,3.6
		c2.2-2.5,5.1-3.8,8.9-3.8C870.9,704.4,872.9,705.1,874.3,706.4z"/>
	<path d="M918.1,704.6l-4.5,22.6h-2.9l0.7-3.6c-2.1,2.6-5,3.8-8.7,3.8c-2.5,0-4.5-0.7-5.9-2s-2.1-3.1-2.1-5.4c0-0.8,0.1-1.6,0.3-2.5
		l2.6-12.9h3.1l-2.6,12.9c-0.1,0.8-0.2,1.5-0.2,2c0,1.7,0.5,2.9,1.4,3.8c1,0.9,2.4,1.3,4.3,1.3c2.4,0,4.4-0.7,6-2s2.6-3.3,3.2-5.9
		l2.4-12.2h2.9V704.6z"/>
	<path d="M943.6,706.4c1.4,1.3,2.1,3.1,2.1,5.4c0,0.8-0.1,1.7-0.3,2.6l-2.6,12.9h-3.1l2.6-12.9c0.1-0.8,0.2-1.5,0.2-2.1
		c0-1.6-0.5-2.9-1.5-3.8c-1-0.9-2.4-1.3-4.4-1.3c-2.4,0-4.4,0.7-6,2s-2.6,3.3-3.2,5.9l-2.4,12.1h-3.1l4.5-22.6h2.9l-0.7,3.6
		c2.2-2.5,5.1-3.8,8.9-3.8C940.2,704.4,942.2,705.1,943.6,706.4z"/>
	<path d="M120.8,756.2l-4.5,22.6h-2.9l0.7-3.6c-1.1,1.2-2.4,2.1-3.9,2.8s-3.1,1-4.9,1c-1.9,0-3.6-0.4-5.1-1.2s-2.7-1.9-3.5-3.3
		c-0.8-1.4-1.2-3.1-1.2-5.1c0-2.6,0.6-4.8,1.7-6.9c1.1-2,2.6-3.6,4.6-4.8c1.9-1.2,4.1-1.7,6.5-1.7c2.1,0,4,0.4,5.4,1.3
		s2.5,2.1,3.2,3.6l0.9-4.7L120.8,756.2L120.8,756.2z M110.9,774.9c1.5-0.9,2.7-2.2,3.5-3.8s1.3-3.4,1.3-5.4c0-2.2-0.7-3.9-2-5.2
		c-1.3-1.2-3.1-1.9-5.5-1.9c-1.9,0-3.5,0.5-5,1.4s-2.7,2.2-3.5,3.8s-1.3,3.4-1.3,5.4c0,2.2,0.7,3.9,2,5.2c1.3,1.2,3.1,1.8,5.5,1.8
		C107.8,776.3,109.5,775.8,110.9,774.9z"/>
	<path d="M131.2,746.9h3.1l-6.4,31.9h-3.1L131.2,746.9z"/>
	<path d="M141.3,772c-0.1,0.7-0.2,1.2-0.2,1.4c0,2,1.1,3,3.3,3c1.3,0,2.5-0.4,3.5-1.2l0.7,2.3c-1.3,1-3,1.5-5,1.5
		c-1.7,0-3-0.5-4-1.4s-1.5-2.2-1.5-3.8c0-0.6,0.1-1.2,0.2-1.8l2.6-13.3h-4l0.5-2.6h4l1-4.9h3.1l-1,4.9h6.9l-0.5,2.6H144L141.3,772z"
		/>
	<path d="M157.7,777.8c-1.5-0.8-2.7-1.9-3.6-3.4c-0.8-1.4-1.3-3.1-1.3-5.1c0-2.6,0.6-4.8,1.7-6.9c1.1-2,2.7-3.6,4.7-4.8
		s4.2-1.7,6.7-1.7c3.2,0,5.7,0.9,7.5,2.6c1.8,1.7,2.8,4,2.8,7c0,2.6-0.6,4.9-1.7,6.9c-1.1,2-2.7,3.7-4.7,4.8c-2,1.2-4.2,1.7-6.7,1.7
		C161.1,779,159.3,778.6,157.7,777.8z M168.4,774.9c1.5-0.9,2.7-2.2,3.5-3.8s1.3-3.4,1.3-5.4c0-2.2-0.7-3.9-2-5.2
		c-1.3-1.2-3.1-1.9-5.5-1.9c-1.9,0-3.5,0.5-5,1.4s-2.7,2.2-3.5,3.8s-1.3,3.4-1.3,5.4c0,2.2,0.7,3.9,2,5.2c1.3,1.2,3.1,1.8,5.5,1.8
		C165.2,776.3,166.9,775.8,168.4,774.9z"/>
	<path d="M216.8,756.2l-4,19.9c-0.8,4-2.2,6.8-4.4,8.6c-2.1,1.8-5.1,2.7-8.8,2.7c-2.1,0-4-0.3-5.7-0.9c-1.7-0.6-3.1-1.4-4.3-2.5
		l1.8-2.3c0.9,0.9,2.1,1.7,3.6,2.2s3.1,0.8,4.9,0.8c2.8,0,5-0.7,6.6-2s2.6-3.4,3.2-6.1l0.5-2.5c-1.1,1.2-2.4,2.2-3.9,2.9
		s-3.2,1-5.1,1c-3,0-5.4-0.8-7.2-2.5c-1.8-1.6-2.7-3.9-2.7-6.7c0-2.4,0.6-4.6,1.7-6.5s2.6-3.5,4.6-4.6s4.2-1.7,6.6-1.7
		c2.1,0,4,0.4,5.5,1.3c1.5,0.9,2.6,2.2,3.3,3.8l0.9-5L216.8,756.2L216.8,756.2z M206.8,773.9c1.5-0.9,2.7-2,3.5-3.6
		c0.8-1.5,1.3-3.2,1.3-5.1c0-2.1-0.7-3.7-2-4.8c-1.3-1.2-3.2-1.7-5.5-1.7c-1.9,0-3.6,0.4-5.1,1.3c-1.5,0.9-2.7,2-3.5,3.6
		c-0.8,1.5-1.3,3.2-1.3,5.1c0,2.1,0.7,3.7,2,4.8c1.3,1.2,3.2,1.7,5.5,1.7C203.6,775.2,205.3,774.8,206.8,773.9z"/>
	<path d="M231.2,757.1c1.5-0.7,3.4-1.1,5.5-1.1l-0.6,3h-0.9c-2.4,0-4.4,0.7-6,2.1c-1.6,1.4-2.6,3.5-3.2,6.3l-2.3,11.5h-3.1l4.5-22.6
		h2.9l-0.8,4.1C228.4,758.8,229.7,757.8,231.2,757.1z"/>
	<path d="M262.6,756.2l-4.5,22.6h-2.9l0.7-3.6c-1.1,1.2-2.4,2.1-3.9,2.8s-3.1,1-4.9,1c-1.9,0-3.6-0.4-5.1-1.2s-2.7-1.9-3.5-3.3
		c-0.8-1.4-1.2-3.1-1.2-5.1c0-2.6,0.6-4.8,1.7-6.9c1.1-2,2.6-3.6,4.6-4.8c1.9-1.2,4.1-1.7,6.5-1.7c2.1,0,4,0.4,5.4,1.3
		c1.4,0.9,2.5,2.1,3.2,3.6l0.9-4.7L262.6,756.2L262.6,756.2z M252.8,774.9c1.5-0.9,2.7-2.2,3.5-3.8s1.3-3.4,1.3-5.4
		c0-2.2-0.7-3.9-2-5.2c-1.3-1.2-3.1-1.9-5.5-1.9c-1.9,0-3.5,0.5-5,1.4s-2.7,2.2-3.5,3.8s-1.3,3.4-1.3,5.4c0,2.2,0.7,3.9,2,5.2
		c1.3,1.2,3.1,1.8,5.5,1.8C249.6,776.3,251.3,775.8,252.8,774.9z"/>
	<path d="M293.6,746.9l-6.4,31.9h-2.9l0.7-3.6c-1.1,1.2-2.4,2.1-3.9,2.8s-3.1,1-4.9,1c-1.9,0-3.6-0.4-5.1-1.2s-2.7-1.9-3.5-3.3
		c-0.8-1.4-1.2-3.1-1.2-5.1c0-2.6,0.6-4.8,1.7-6.9c1.1-2,2.6-3.6,4.6-4.8c1.9-1.2,4.1-1.7,6.5-1.7c2.1,0,3.9,0.4,5.4,1.3
		c1.5,0.8,2.5,2.1,3.2,3.6l2.8-14H293.6z M282,774.9c1.5-0.9,2.7-2.2,3.5-3.8s1.3-3.4,1.3-5.4c0-2.2-0.7-3.9-2-5.2
		c-1.3-1.2-3.1-1.9-5.5-1.9c-1.9,0-3.5,0.5-5,1.4s-2.7,2.2-3.5,3.8s-1.3,3.4-1.3,5.4c0,2.2,0.7,3.9,2,5.2c1.3,1.2,3.1,1.8,5.5,1.8
		C278.8,776.3,280.5,775.8,282,774.9z"/>
	<path d="M300.4,777.8c-1.5-0.8-2.7-1.9-3.6-3.4c-0.8-1.4-1.3-3.1-1.3-5.1c0-2.6,0.6-4.8,1.7-6.9c1.1-2,2.7-3.6,4.7-4.8
		s4.2-1.7,6.7-1.7c3.2,0,5.7,0.9,7.5,2.6c1.8,1.7,2.8,4,2.8,7c0,2.6-0.6,4.9-1.7,6.9s-2.7,3.7-4.7,4.8c-2,1.2-4.2,1.7-6.7,1.7
		C303.8,779,302,778.6,300.4,777.8z M311.1,774.9c1.5-0.9,2.7-2.2,3.5-3.8s1.3-3.4,1.3-5.4c0-2.2-0.7-3.9-2-5.2
		c-1.3-1.2-3.1-1.9-5.5-1.9c-1.9,0-3.5,0.5-5,1.4s-2.7,2.2-3.5,3.8s-1.3,3.4-1.3,5.4c0,2.2,0.7,3.9,2,5.2c1.3,1.2,3.1,1.8,5.5,1.8
		C307.9,776.3,309.6,775.8,311.1,774.9z"/>
	<path d="M361,746.9l-6.4,31.9h-2.9l0.7-3.6c-1.1,1.2-2.4,2.1-3.9,2.8s-3.1,1-4.9,1c-1.9,0-3.6-0.4-5.1-1.2s-2.7-1.9-3.5-3.3
		c-0.8-1.4-1.2-3.1-1.2-5.1c0-2.6,0.6-4.8,1.7-6.9c1.1-2,2.6-3.6,4.6-4.8c1.9-1.2,4.1-1.7,6.5-1.7c2.1,0,3.9,0.4,5.4,1.3
		c1.5,0.8,2.5,2.1,3.2,3.6l2.8-14H361z M349.3,774.9c1.5-0.9,2.7-2.2,3.5-3.8s1.3-3.4,1.3-5.4c0-2.2-0.7-3.9-2-5.2
		c-1.3-1.2-3.1-1.9-5.5-1.9c-1.9,0-3.5,0.5-5,1.4s-2.7,2.2-3.5,3.8s-1.3,3.4-1.3,5.4c0,2.2,0.7,3.9,2,5.2c1.3,1.2,3.1,1.8,5.5,1.8
		C346.2,776.3,347.8,775.8,349.3,774.9z"/>
	<path d="M366,768.3c0,0.2,0,0.5,0,0.9c0,2.3,0.7,4,2,5.2s3.2,1.8,5.8,1.8c1.5,0,2.9-0.3,4.2-0.8c1.3-0.5,2.4-1.2,3.2-2.1l1.4,2.2
		c-1.1,1.1-2.4,1.9-4,2.5s-3.3,0.9-5.1,0.9c-3.3,0-5.8-0.9-7.7-2.6c-1.9-1.7-2.8-4.1-2.8-7.1c0-2.5,0.5-4.8,1.6-6.8s2.6-3.6,4.5-4.8
		s4-1.7,6.4-1.7c3,0,5.4,0.9,7.2,2.6c1.8,1.7,2.7,4,2.7,7c0,0.8-0.1,1.7-0.3,2.8L366,768.3L366,768.3z M369.6,760.6
		c-1.6,1.3-2.7,3.2-3.3,5.5h16.1c0-0.2,0-0.5,0-0.8c0-2.1-0.6-3.8-1.9-4.9s-3-1.7-5.2-1.7C373.1,758.6,371.2,759.3,369.6,760.6z"/>
	<path d="M405.1,777.8c-1.6-0.8-2.8-1.9-3.6-3.4c-0.8-1.4-1.3-3.1-1.3-5.1c0-2.6,0.6-4.8,1.7-6.9c1.1-2,2.7-3.6,4.7-4.8
		s4.3-1.7,6.8-1.7c2.1,0,3.9,0.4,5.4,1.1c1.5,0.8,2.7,1.9,3.5,3.4l-2.6,1.5c-1.3-2.2-3.5-3.4-6.6-3.4c-1.9,0-3.5,0.5-5.1,1.4
		c-1.5,0.9-2.7,2.2-3.5,3.8s-1.3,3.4-1.3,5.5c0,2.2,0.7,3.9,2,5.2c1.3,1.2,3.2,1.8,5.6,1.8c1.5,0,2.8-0.3,4.1-0.8
		c1.2-0.6,2.3-1.4,3.1-2.4l2.2,1.7c-1,1.3-2.3,2.4-4,3.2s-3.5,1.1-5.4,1.1C408.5,779,406.7,778.6,405.1,777.8z"/>
	<path d="M428.9,777.8c-1.5-0.8-2.7-1.9-3.6-3.4c-0.8-1.4-1.3-3.1-1.3-5.1c0-2.6,0.6-4.8,1.7-6.9c1.1-2,2.7-3.6,4.7-4.8
		s4.2-1.7,6.7-1.7c3.2,0,5.7,0.9,7.5,2.6c1.8,1.7,2.8,4,2.8,7c0,2.6-0.6,4.9-1.7,6.9s-2.7,3.7-4.7,4.8c-2,1.2-4.2,1.7-6.7,1.7
		C432.2,779,430.4,778.6,428.9,777.8z M439.5,774.9c1.5-0.9,2.7-2.2,3.5-3.8s1.3-3.4,1.3-5.4c0-2.2-0.7-3.9-2-5.2
		c-1.3-1.2-3.1-1.9-5.5-1.9c-1.9,0-3.5,0.5-5,1.4s-2.7,2.2-3.5,3.8s-1.3,3.4-1.3,5.4c0,2.2,0.7,3.9,2,5.2c1.3,1.2,3.1,1.8,5.5,1.8
		C436.4,776.3,438.1,775.8,439.5,774.9z"/>
	<path d="M489.3,757.9c1.4,1.3,2.1,3.1,2.1,5.4c0,0.7-0.1,1.5-0.3,2.7l-2.6,12.9h-3.1L488,766c0.1-0.7,0.2-1.4,0.2-2.1
		c0-1.6-0.5-2.8-1.4-3.7s-2.3-1.3-4.2-1.3c-2.3,0-4.2,0.6-5.7,1.9c-1.5,1.3-2.5,3.2-3.1,5.7l-2.5,12.5h-3.1l2.6-12.9
		c0.1-0.8,0.2-1.5,0.2-2.1c0-1.6-0.5-2.9-1.4-3.8c-0.9-0.9-2.3-1.3-4.2-1.3c-2.3,0-4.2,0.7-5.8,2c-1.5,1.3-2.6,3.3-3.1,5.9
		l-2.4,12.1H451l4.5-22.6h2.9l-0.7,3.6c2.1-2.5,4.9-3.8,8.6-3.8c1.9,0,3.5,0.4,4.8,1.2s2.2,1.9,2.6,3.4c1.1-1.5,2.5-2.6,4.1-3.4
		c1.6-0.8,3.4-1.1,5.4-1.1C485.9,756,487.9,756.6,489.3,757.9z"/>
	<path d="M517.4,757.2c1.5,0.8,2.7,1.9,3.5,3.3c0.8,1.4,1.2,3.1,1.2,5.1c0,2.6-0.6,4.9-1.7,6.9c-1.1,2-2.6,3.7-4.6,4.8
		c-1.9,1.2-4.1,1.7-6.6,1.7c-2.2,0-4-0.4-5.4-1.3c-1.5-0.8-2.5-2.1-3.2-3.7l-2.6,13.1h-3.1l6.1-31h2.9l-0.7,3.6
		c1.1-1.2,2.4-2.2,3.9-2.8s3.1-1,4.9-1C514.2,756,515.9,756.4,517.4,757.2z M514.3,774.9c1.5-0.9,2.6-2.2,3.5-3.8
		c0.8-1.6,1.3-3.4,1.3-5.5c0-2.2-0.7-3.9-2-5.2c-1.3-1.2-3.1-1.9-5.5-1.9c-1.9,0-3.5,0.5-5,1.4s-2.6,2.2-3.5,3.8
		c-0.8,1.6-1.3,3.4-1.3,5.5c0,2.2,0.7,3.9,2,5.2c1.3,1.2,3.1,1.8,5.5,1.8C511.2,776.3,512.9,775.8,514.3,774.9z"/>
	<path d="M551.1,756.2l-4.5,22.6h-2.9l0.7-3.6c-1.1,1.2-2.4,2.1-3.9,2.8s-3.1,1-4.9,1c-1.9,0-3.6-0.4-5.1-1.2s-2.7-1.9-3.5-3.3
		c-0.8-1.4-1.2-3.1-1.2-5.1c0-2.6,0.6-4.8,1.7-6.9c1.1-2,2.6-3.6,4.6-4.8c1.9-1.2,4.1-1.7,6.5-1.7c2.1,0,4,0.4,5.4,1.3
		c1.5,0.8,2.5,2.1,3.2,3.6l0.9-4.7L551.1,756.2L551.1,756.2z M541.3,774.9c1.5-0.9,2.7-2.2,3.5-3.8s1.3-3.4,1.3-5.4
		c0-2.2-0.7-3.9-2-5.2s-3.1-1.9-5.5-1.9c-1.9,0-3.5,0.5-5,1.4s-2.7,2.2-3.5,3.8s-1.3,3.4-1.3,5.4c0,2.2,0.7,3.9,2,5.2
		c1.3,1.2,3.1,1.8,5.5,1.8C538.1,776.3,539.8,775.8,541.3,774.9z"/>
	<path d="M556.5,778.2c-1.6-0.5-2.9-1.2-3.8-2l1.5-2.4c0.9,0.7,2,1.3,3.4,1.8s2.9,0.7,4.4,0.7c2.1,0,3.8-0.4,5-1.1
		c1.2-0.7,1.7-1.7,1.7-3c0-0.7-0.2-1.3-0.7-1.7s-1.1-0.8-1.7-1c-0.7-0.2-1.7-0.5-3-0.8c-1.6-0.3-2.9-0.7-3.8-1
		c-1-0.3-1.8-0.9-2.5-1.6c-0.7-0.7-1-1.8-1-3.1c0-2.1,0.9-3.9,2.7-5.1c1.8-1.3,4.2-1.9,7.1-1.9c1.5,0,2.9,0.2,4.3,0.6
		c1.4,0.4,2.5,0.9,3.4,1.5l-1.3,2.5c-0.9-0.6-1.9-1.1-3-1.4c-1.2-0.3-2.4-0.5-3.6-0.5c-2.1,0-3.7,0.4-4.8,1.1
		c-1.1,0.7-1.7,1.7-1.7,3c0,0.7,0.2,1.3,0.7,1.8s1.1,0.8,1.8,1s1.7,0.5,3,0.7c1.5,0.3,2.8,0.7,3.8,1s1.8,0.9,2.5,1.6
		c0.7,0.7,1,1.7,1,3c0,2.2-0.9,3.9-2.7,5.2c-1.8,1.2-4.3,1.9-7.3,1.9C559.9,779,558.2,778.8,556.5,778.2z"/>
	<path d="M580.6,756.2h3.1l-4.5,22.6h-3.1L580.6,756.2z M582,750.6c-0.4-0.4-0.6-0.9-0.6-1.4c0-0.7,0.2-1.2,0.7-1.7
		c0.4-0.4,1-0.7,1.7-0.7c0.6,0,1.1,0.2,1.5,0.6c0.4,0.4,0.6,0.8,0.6,1.4c0,0.7-0.2,1.3-0.7,1.7c-0.5,0.5-1,0.7-1.7,0.7
		C582.9,751.2,582.4,751,582,750.6z"/>
	<path d="M592.4,777.8c-1.5-0.8-2.7-1.9-3.6-3.4s-1.3-3.1-1.3-5.1c0-2.6,0.6-4.8,1.7-6.9c1.1-2,2.7-3.6,4.7-4.8s4.2-1.7,6.7-1.7
		c3.2,0,5.7,0.9,7.5,2.6c1.8,1.7,2.8,4,2.8,7c0,2.6-0.6,4.9-1.7,6.9c-1.1,2-2.7,3.7-4.7,4.8c-2,1.2-4.2,1.7-6.7,1.7
		C595.7,779,593.9,778.6,592.4,777.8z M603,774.9c1.5-0.9,2.7-2.2,3.5-3.8s1.3-3.4,1.3-5.4c0-2.2-0.7-3.9-2-5.2
		c-1.3-1.2-3.1-1.9-5.5-1.9c-1.9,0-3.5,0.5-5,1.4s-2.7,2.2-3.5,3.8s-1.3,3.4-1.3,5.4c0,2.2,0.7,3.9,2,5.2c1.3,1.2,3.1,1.8,5.5,1.8
		C599.9,776.3,601.5,775.8,603,774.9z M605.7,747.3h4.2l-7.5,5.3h-3.2L605.7,747.3z"/>
	<path d="M636.2,758c1.4,1.3,2.1,3.1,2.1,5.4c0,0.8-0.1,1.7-0.3,2.6l-2.6,12.9h-3.1l2.6-12.9c0.1-0.8,0.2-1.5,0.2-2.1
		c0-1.6-0.5-2.9-1.5-3.8c-1-0.9-2.4-1.3-4.4-1.3c-2.4,0-4.4,0.7-6,2s-2.6,3.3-3.2,5.9l-2.4,12.1h-3.1l4.5-22.6h2.9l-0.7,3.6
		c2.2-2.5,5.1-3.8,8.9-3.8C632.8,756,634.7,756.7,636.2,758z"/>
	<path d="M642.8,778.4c-0.4-0.4-0.6-1-0.6-1.6c0-0.7,0.2-1.3,0.7-1.7c0.5-0.5,1-0.7,1.7-0.7c0.6,0,1.2,0.2,1.6,0.6
		c0.4,0.4,0.6,1,0.6,1.6c0,0.7-0.2,1.3-0.7,1.7c-0.5,0.5-1,0.7-1.7,0.7C643.8,779,643.3,778.8,642.8,778.4z"/>
</g>
<rect x="93.6" y="592.1" class="st6" width="900" height="291"/>
<g class="st7">
	<path d="M124.3,568c2.3,3.9,3.5,8.5,3.5,13.8c0,7.9-2.5,14.2-7.5,19s-11.5,7.1-19.4,7.1s-14.3-2.4-19.4-7.1c-5-4.8-7.5-11.1-7.5-19
		c0-3.5,0.5-7.1,1.4-10.6s3.1-8.9,6.5-16.1l14.3-30.4h28.5l-10.2,34.4C118.7,561.2,122,564.1,124.3,568z M183.4,568
		c2.3,3.9,3.5,8.5,3.5,13.8c0,7.9-2.5,14.2-7.5,19s-11.5,7.1-19.4,7.1s-14.3-2.4-19.4-7.1c-5-4.8-7.5-11.1-7.5-19
		c0-3.5,0.5-7.1,1.4-10.6s3.1-8.9,6.5-16.1l14.3-30.4h28.5l-10.2,34.4C177.8,561.2,181.1,564.1,183.4,568z"/>
</g>
<g>
	<rect x="506.9" y="324.8" width="200.3" height="9"/>
</g>
<g>
	<path d="M525.7,198.8c-6.6-3.5-11.7-8.4-15.5-14.7s-5.6-13.4-5.6-21.3c0-7.9,1.9-15,5.6-21.3c3.8-6.3,8.9-11.2,15.5-14.7
		s14-5.3,22.2-5.3c6.9,0,13.2,1.2,18.8,3.6s10.3,5.9,14.1,10.5l-11.9,10.9c-5.4-6.2-12.1-9.3-20.1-9.3c-4.9,0-9.3,1.1-13.2,3.2
		s-6.9,5.2-9.1,9.1s-3.2,8.3-3.2,13.2s1.1,9.3,3.2,13.2s5.2,6.9,9.1,9.1s8.3,3.2,13.2,3.2c8,0,14.7-3.2,20.1-9.5l11.9,10.9
		c-3.8,4.6-8.5,8.2-14.1,10.6c-5.6,2.4-11.9,3.6-18.8,3.6C539.6,204.1,532.3,202.3,525.7,198.8z"/>
	<path d="M638,147.2c5.1,4.5,7.6,11.3,7.6,20.5v35H629v-7.6c-3.3,5.7-9.6,8.6-18.7,8.6c-4.7,0-8.8-0.8-12.3-2.4
		c-3.5-1.6-6.1-3.8-7.9-6.6c-1.8-2.8-2.7-6-2.7-9.6c0-5.7,2.1-10.2,6.4-13.5c4.3-3.3,10.9-4.9,19.9-4.9h14.1c0-3.9-1.2-6.9-3.5-8.9
		c-2.4-2.1-5.9-3.1-10.6-3.1c-3.3,0-6.5,0.5-9.6,1.5c-3.2,1-5.8,2.4-8,4.2l-6.4-12.4c3.3-2.4,7.4-4.2,12-5.5
		c4.7-1.3,9.5-1.9,14.4-1.9C625.6,140.5,632.9,142.7,638,147.2z M622.9,189.5c2.4-1.4,4-3.5,5-6.2V177h-12.2
		c-7.3,0-10.9,2.4-10.9,7.2c0,2.3,0.9,4.1,2.7,5.4c1.8,1.3,4.2,2,7.4,2C617.8,191.6,620.5,190.9,622.9,189.5z"/>
	<path d="M687.3,142.7c3.6-1.5,7.8-2.3,12.5-2.3v16.4c-2-0.2-3.3-0.2-4-0.2c-5.1,0-9.1,1.4-12,4.3c-2.9,2.8-4.3,7.1-4.3,12.8v29
		h-17.8v-61.3h17v8.1C680.9,146.5,683.7,144.3,687.3,142.7z"/>
	<path d="M721.6,199.6c-5.1-2.7-9.1-6.4-12-11.2s-4.3-10.2-4.3-16.3s1.4-11.5,4.3-16.3c2.9-4.8,6.9-8.5,12-11.2s10.9-4,17.4-4
		s12.2,1.4,17.3,4c5.1,2.7,9.1,6.4,12,11.2s4.3,10.2,4.3,16.3s-1.4,11.5-4.3,16.3c-2.9,4.8-6.9,8.5-12,11.2s-10.9,4-17.3,4
		C732.6,203.6,726.8,202.3,721.6,199.6z M750.3,184.4c2.9-3.1,4.4-7.2,4.4-12.4s-1.5-9.3-4.4-12.4c-2.9-3.1-6.7-4.6-11.2-4.6
		c-4.6,0-8.3,1.5-11.3,4.6s-4.4,7.2-4.4,12.4s1.5,9.3,4.4,12.4c3,3.1,6.7,4.6,11.3,4.6C743.6,189,747.3,187.5,750.3,184.4z"/>
	<path d="M784.5,118.1h17.8v84.6h-17.8V118.1z"/>
	<path d="M819.7,130c-2.1-1.9-3.1-4.3-3.1-7.1c0-2.8,1-5.2,3.1-7.1s4.7-2.8,8-2.8s5.9,0.9,8,2.7c2.1,1.8,3.1,4.1,3.1,6.8
		c0,3-1,5.4-3.1,7.4c-2.1,2-4.7,2.9-8,2.9C824.5,132.8,821.8,131.9,819.7,130z M818.8,141.4h17.8v61.3h-17.8V141.4z"/>
	<path d="M908.8,147.3c4.7,4.6,7,11.3,7,20.3v35.1H898v-32.4c0-4.9-1.1-8.5-3.2-10.9c-2.1-2.4-5.2-3.6-9.2-3.6
		c-4.5,0-8.1,1.4-10.7,4.2c-2.7,2.8-4,6.9-4,12.4v30.3h-17.8v-61.3h17v7.2c2.4-2.6,5.3-4.6,8.8-6s7.3-2.1,11.5-2.1
		C898,140.5,904.2,142.7,908.8,147.3z"/>
	<path d="M978.5,147.2c5.1,4.5,7.6,11.3,7.6,20.5v35h-16.6v-7.6c-3.3,5.7-9.6,8.6-18.7,8.6c-4.7,0-8.8-0.8-12.3-2.4
		c-3.5-1.6-6.1-3.8-7.9-6.6c-1.8-2.8-2.7-6-2.7-9.6c0-5.7,2.1-10.2,6.4-13.5c4.3-3.3,10.9-4.9,19.9-4.9h14.1c0-3.9-1.2-6.9-3.5-8.9
		c-2.4-2.1-5.9-3.1-10.6-3.1c-3.3,0-6.5,0.5-9.6,1.5c-3.2,1-5.8,2.4-8,4.2l-6.4-12.4c3.3-2.4,7.4-4.2,12-5.5
		c4.7-1.3,9.5-1.9,14.4-1.9C966.2,140.5,973.5,142.7,978.5,147.2z M963.4,189.5c2.4-1.4,4-3.5,5-6.2V177h-12.2
		c-7.3,0-10.9,2.4-10.9,7.2c0,2.3,0.9,4.1,2.7,5.4c1.8,1.3,4.2,2,7.4,2C958.3,191.6,961,190.9,963.4,189.5z"/>
</g>
<g>
	<path d="M527.9,265.8c1.5,1.6,2.3,3.7,2.3,6.1c0,1.9-0.5,3.6-1.5,5.2s-2.5,2.8-4.5,3.8s-4.5,1.4-7.4,1.4c-2.3,0-4.5-0.3-6.7-0.9
		s-4.1-1.4-5.6-2.6l2.9-5.7c1.2,0.9,2.6,1.6,4.3,2.1c1.6,0.5,3.3,0.8,4.9,0.8c1.9,0,3.3-0.4,4.4-1.1c1.1-0.7,1.6-1.7,1.6-3.1
		c0-2.6-2-4-6-4h-3.4V263l6.6-7.5h-13.7v-6h22.5v4.8l-7.3,8.3C524.2,263.1,526.4,264.2,527.9,265.8z"/>
	<path d="M557.4,275.7v6.1h-24.3V277l12.4-11.7c1.3-1.3,2.2-2.3,2.7-3.2c0.5-0.9,0.7-1.8,0.7-2.7c0-1.3-0.4-2.3-1.3-3
		c-0.9-0.7-2.2-1-3.8-1c-1.4,0-2.7,0.3-3.8,0.8c-1.1,0.5-2.1,1.3-2.9,2.4l-5.4-3.5c1.3-1.9,3-3.3,5.2-4.4c2.2-1.1,4.7-1.6,7.6-1.6
		c2.4,0,4.5,0.4,6.3,1.2s3.2,1.9,4.2,3.3c1,1.4,1.5,3.1,1.5,5c0,1.7-0.4,3.4-1.1,4.9c-0.7,1.5-2.2,3.3-4.3,5.2l-7.4,7L557.4,275.7
		L557.4,275.7z"/>
	<path d="M593.9,259.4c2.1,1.8,3.1,4.6,3.1,8.3v14.1h-6.7v-3.1c-1.3,2.3-3.9,3.5-7.5,3.5c-1.9,0-3.5-0.3-4.9-1s-2.5-1.5-3.2-2.7
		c-0.7-1.1-1.1-2.4-1.1-3.9c0-2.3,0.9-4.1,2.6-5.4c1.7-1.3,4.4-2,8-2h5.7c0-1.6-0.5-2.8-1.4-3.6c-1-0.8-2.4-1.3-4.3-1.3
		c-1.3,0-2.6,0.2-3.9,0.6c-1.3,0.4-2.4,1-3.2,1.7l-2.6-5c1.3-1,3-1.7,4.9-2.2s3.8-0.8,5.8-0.8C588.9,256.6,591.8,257.5,593.9,259.4z
		 M587.8,276.4c1-0.6,1.6-1.4,2-2.5v-2.5h-4.9c-2.9,0-4.4,1-4.4,2.9c0,0.9,0.4,1.6,1.1,2.2c0.7,0.5,1.7,0.8,3,0.8
		C585.7,277.3,586.8,277,587.8,276.4z"/>
	<path d="M625.9,259.4c1.9,1.8,2.8,4.6,2.8,8.2v14.2h-7.2v-13.1c0-2-0.4-3.4-1.3-4.4c-0.9-1-2.1-1.4-3.7-1.4c-1.8,0-3.3,0.6-4.3,1.7
		c-1.1,1.1-1.6,2.8-1.6,5v12.2h-7.2V257h6.9v2.9c1-1,2.1-1.8,3.5-2.4s3-0.9,4.6-0.9C621.6,256.6,624,257.5,625.9,259.4z
		 M617.4,253.5c-0.6-0.3-1.3-0.8-2.1-1.3c-0.5-0.4-0.9-0.6-1.2-0.8s-0.6-0.3-0.9-0.3c-0.6,0-1.2,0.2-1.6,0.7
		c-0.4,0.4-0.6,1.1-0.6,1.9h-3.6c0.1-2.1,0.6-3.7,1.5-4.9c1-1.2,2.2-1.8,3.8-1.8c0.8,0,1.5,0.2,2.1,0.5s1.3,0.8,2.1,1.4
		c0.5,0.4,0.9,0.6,1.2,0.8s0.6,0.3,0.9,0.3c0.6,0,1.1-0.2,1.5-0.7c0.4-0.4,0.6-1.1,0.7-1.8h3.6c-0.1,2-0.6,3.6-1.5,4.8
		c-1,1.2-2.2,1.8-3.8,1.8C618.8,254,618,253.8,617.4,253.5z"/>
	<path d="M640.3,280.5c-2.1-1.1-3.7-2.6-4.9-4.5s-1.7-4.1-1.7-6.6s0.6-4.6,1.7-6.6c1.2-1.9,2.8-3.4,4.9-4.5c2.1-1.1,4.4-1.6,7-1.6
		s4.9,0.5,7,1.6s3.7,2.6,4.8,4.5c1.2,1.9,1.7,4.1,1.7,6.6s-0.6,4.6-1.7,6.6c-1.2,1.9-2.8,3.4-4.8,4.5c-2.1,1.1-4.4,1.6-7,1.6
		S642.3,281.6,640.3,280.5z M651.8,274.4c1.2-1.2,1.8-2.9,1.8-5s-0.6-3.7-1.8-5c-1.2-1.2-2.7-1.9-4.5-1.9s-3.4,0.6-4.6,1.9
		c-1.2,1.2-1.8,2.9-1.8,5s0.6,3.7,1.8,5c1.2,1.2,2.7,1.9,4.6,1.9S650.6,275.6,651.8,274.4z"/>
	<path d="M667.9,281.3c-2-0.5-3.5-1.1-4.7-1.9l2.4-5.2c1.1,0.7,2.4,1.3,4,1.7c1.6,0.4,3.1,0.7,4.6,0.7c3,0,4.6-0.8,4.6-2.3
		c0-0.7-0.4-1.2-1.2-1.5s-2.1-0.6-3.8-0.8c-2-0.3-3.7-0.7-5-1.1s-2.5-1.1-3.4-2.1c-1-1-1.4-2.5-1.4-4.3c0-1.6,0.5-3,1.4-4.2
		s2.2-2.2,4-2.8c1.7-0.7,3.8-1,6.1-1c1.7,0,3.5,0.2,5.2,0.6s3.2,0.9,4.3,1.6l-2.4,5.1c-2.2-1.2-4.6-1.8-7.1-1.8
		c-1.5,0-2.7,0.2-3.4,0.6c-0.8,0.4-1.2,1-1.2,1.7c0,0.8,0.4,1.3,1.2,1.6c0.8,0.3,2.1,0.6,4,0.9c2,0.3,3.7,0.7,5,1.1s2.4,1.1,3.4,2.1
		c0.9,1,1.4,2.4,1.4,4.2c0,1.5-0.5,2.9-1.4,4.1s-2.3,2.1-4,2.8c-1.8,0.7-3.9,1-6.3,1C671.9,282.1,669.9,281.9,667.9,281.3z"/>
</g>
<g>
	<g>
		<g>
			<g>
				<g>
					<path class="st8" d="M582.1,1019.2h-84.3c-24.7,0-46.7-21.1-46.7-46.7s21.1-46.7,46.7-46.7h84.3c25.6,0,46.7,21.1,46.7,46.7
						S606.9,1019.2,582.1,1019.2z M497.9,934c-21.1,0-38.5,17.4-38.5,38.5s17.4,38.5,38.5,38.5h84.3c21.1,0,38.5-17.4,38.5-38.5
						S603.2,934,582.1,934H497.9z"/>
				</g>
			</g>
			
				<ellipse transform="matrix(0.9239 -0.3827 0.3827 0.9239 -334.1907 264.9096)" class="st8" cx="498.8" cy="972.5" rx="28.4" ry="28.4"/>
			<circle class="st9" cx="581.2" cy="972.5" r="28.4"/>
		</g>
	</g>
</g>
</svg>
