<?xml version="1.0" encoding="utf-8"?>
<!-- Generator: Adobe Illustrator 22.0.0, SVG Export Plug-In . SVG Version: 6.00 Build 0)  -->
<svg version="1.1" id="Capa_1" xmlns="http://www.w3.org/2000/svg" xmlns:xlink="http://www.w3.org/1999/xlink" x="0px" y="0px"
	 viewBox="0 0 1080 1080" style="enable-background:new 0 0 1080 1080;" xml:space="preserve">
<style type="text/css">
	.st0{fill:#F2F2F2;}
	.st1{fill:#727272;}
	.st2{opacity:0.25;}
	.st3{fill:#EDEDED;}
	.st4{fill:#FFE212;}
	.st5{fill:#333333;}
	.st6{fill:#636363;}
	.st7{opacity:0.19;}
	.st8{fill:#3DE200;}
	.st9{fill:#22263D;}
</style>
<path class="st0" d="M1046,1080H34c-18.8,0-34-15.2-34-34V34C0,15.2,15.2,0,34,0h1012c18.8,0,34,15.2,34,34v1012
	C1080,1064.8,1064.8,1080,1046,1080z"/>
<path class="st1" d="M372.9,419.5H115.4c-19.4,0-35.1-15.7-35.1-35.1V126.9c0-19.4,15.7-35.1,35.1-35.1h257.5
	c19.4,0,35.1,15.7,35.1,35.1v257.5C408,403.8,392.3,419.5,372.9,419.5z"/>
<g class="st2">
	<path class="st3" d="M244.1,305.6c-39,0-70.6-31.7-70.6-70.6v-26c0-39,31.7-70.6,70.6-70.6s70.6,31.7,70.6,70.6v26
		C314.8,273.9,283.1,305.6,244.1,305.6z M244.1,148.3c-33.4,0-60.6,27.2-60.6,60.6v26c0,33.4,27.2,60.6,60.6,60.6
		s60.6-27.2,60.6-60.6v-26C304.8,175.5,277.6,148.3,244.1,148.3z"/>
</g>
<g class="st2">
	<path class="st3" d="M357.9,378.1c-2.8,0-5-2.2-5-5v-6.8c0-20.3-16.5-36.9-36.9-36.9H172.3c-20.3,0-36.9,16.5-36.9,36.9v6.8
		c0,2.8-2.2,5-5,5s-5-2.2-5-5v-6.8c0-25.8,21-46.9,46.9-46.9H316c25.8,0,46.9,21,46.9,46.9v6.8C362.9,375.8,360.6,378.1,357.9,378.1
		z"/>
</g>
<g>
	<g>
		<polygon class="st4" points="522.2,373.9 529.5,388.8 545.8,391.1 534,402.7 536.8,419 522.2,411.3 507.5,419 510.3,402.7 
			498.5,391.1 514.8,388.8 		"/>
		<path class="st5" d="M536.8,420c-0.2,0-0.3,0-0.5-0.1l-14.2-7.4l-14.2,7.4c-0.3,0.2-0.7,0.1-1.1-0.1c-0.3-0.2-0.5-0.6-0.4-1
			l2.7-15.8l-11.5-11.2c-0.3-0.3-0.4-0.7-0.3-1c0.1-0.4,0.4-0.6,0.8-0.7l15.8-2.3l7.1-14.4c0.3-0.7,1.5-0.7,1.8,0l7.1,14.4l15.8,2.3
			c0.4,0.1,0.7,0.3,0.8,0.7c0.1,0.4,0,0.8-0.3,1L535.1,403l2.7,15.8c0.1,0.4-0.1,0.8-0.4,1C537.2,419.9,537,420,536.8,420z
			 M500.6,391.8L511,402c0.2,0.2,0.3,0.6,0.3,0.9l-2.5,14.3l12.8-6.8c0.3-0.2,0.6-0.2,0.9,0l12.8,6.8l-2.5-14.3
			c-0.1-0.3,0.1-0.7,0.3-0.9l10.4-10.1l-14.4-2.1c-0.3,0-0.6-0.3-0.8-0.5l-6.4-13l-6.4,13c-0.1,0.3-0.4,0.5-0.8,0.5L500.6,391.8z"/>
	</g>
	<g>
		<polygon class="st4" points="588.7,373.9 596.1,388.8 612.4,391.1 600.6,402.7 603.4,419 588.7,411.3 574.1,419 576.9,402.7 
			565.1,391.1 581.4,388.8 		"/>
		<path class="st5" d="M603.4,420c-0.2,0-0.3,0-0.5-0.1l-14.2-7.4l-14.2,7.4c-0.3,0.2-0.7,0.1-1.1-0.1c-0.3-0.2-0.5-0.6-0.4-1
			l2.7-15.8l-11.5-11.2c-0.3-0.3-0.4-0.7-0.3-1c0.1-0.4,0.4-0.6,0.8-0.7l15.8-2.3l7.1-14.4c0.3-0.7,1.5-0.7,1.8,0l7.1,14.4l15.8,2.3
			c0.4,0.1,0.7,0.3,0.8,0.7c0.1,0.4,0,0.8-0.3,1L601.7,403l2.7,15.8c0.1,0.4-0.1,0.8-0.4,1C603.8,419.9,603.6,420,603.4,420z
			 M588.7,410.3c0.2,0,0.3,0,0.5,0.1l12.8,6.8l-2.5-14.3c-0.1-0.3,0.1-0.7,0.3-0.9l10.4-10.1l-14.4-2.1c-0.3,0-0.6-0.3-0.8-0.5
			l-6.4-13l-6.4,13c-0.1,0.3-0.4,0.5-0.8,0.5l-14.4,2.1l10.4,10.1c0.2,0.2,0.3,0.6,0.3,0.9l-2.5,14.3l12.8-6.8
			C588.4,410.3,588.6,410.3,588.7,410.3z"/>
	</g>
	<g>
		<polygon class="st4" points="655.3,373.9 662.6,388.8 679,391.1 667.2,402.7 670,419 655.3,411.3 640.7,419 643.5,402.7 
			631.6,391.1 648,388.8 		"/>
		<path class="st5" d="M670,420c-0.2,0-0.3,0-0.5-0.1l-14.2-7.4l-14.2,7.4c-0.3,0.2-0.7,0.1-1.1-0.1c-0.3-0.2-0.5-0.6-0.4-1
			l2.7-15.8l-11.5-11.2c-0.3-0.3-0.4-0.7-0.3-1c0.1-0.4,0.4-0.6,0.8-0.7l15.8-2.3l7.1-14.4c0.3-0.7,1.5-0.7,1.8,0l7.1,14.4l15.8,2.3
			c0.4,0.1,0.7,0.3,0.8,0.7c0.1,0.4,0,0.8-0.3,1L668.2,403l2.7,15.8c0.1,0.4-0.1,0.8-0.4,1C670.4,419.9,670.2,420,670,420z
			 M655.3,410.3c0.2,0,0.3,0,0.5,0.1l12.8,6.8l-2.5-14.3c-0.1-0.3,0.1-0.7,0.3-0.9l10.4-10.1l-14.4-2.1c-0.3,0-0.6-0.3-0.8-0.5
			l-6.4-13l-6.4,13c-0.1,0.3-0.4,0.5-0.8,0.5l-14.4,2.1L644,402c0.2,0.2,0.3,0.6,0.3,0.9l-2.5,14.3l12.8-6.8
			C655,410.3,655.2,410.3,655.3,410.3z"/>
	</g>
	<g>
		<polygon class="st4" points="721.9,373.9 729.2,388.8 745.6,391.1 733.7,402.7 736.5,419 721.9,411.3 707.3,419 710.1,402.7 
			698.2,391.1 714.6,388.8 		"/>
		<path class="st5" d="M736.5,420c-0.2,0-0.3,0-0.5-0.1l-14.2-7.4l-14.2,7.4c-0.3,0.2-0.7,0.1-1.1-0.1c-0.3-0.2-0.5-0.6-0.4-1
			L709,403l-11.5-11.2c-0.3-0.3-0.4-0.7-0.3-1c0.1-0.4,0.4-0.6,0.8-0.7l15.8-2.3l7.1-14.4c0.3-0.7,1.5-0.7,1.8,0l7.1,14.4l15.8,2.3
			c0.4,0.1,0.7,0.3,0.8,0.7c0.1,0.4,0,0.8-0.3,1L734.8,403l2.7,15.8c0.1,0.4-0.1,0.8-0.4,1C737,419.9,736.8,420,736.5,420z
			 M721.9,410.3c0.2,0,0.3,0,0.5,0.1l12.8,6.8l-2.5-14.3c-0.1-0.3,0.1-0.7,0.3-0.9l10.4-10.1l-14.4-2.1c-0.3,0-0.6-0.3-0.8-0.5
			l-6.4-13l-6.4,13c-0.1,0.3-0.4,0.5-0.8,0.5l-14.4,2.1l10.4,10.1c0.2,0.2,0.3,0.6,0.3,0.9l-2.5,14.3l12.8-6.8
			C721.6,410.3,721.7,410.3,721.9,410.3z"/>
	</g>
	<g>
		<polygon class="st6" points="788.5,373.9 795.8,388.8 812.2,391.1 800.3,402.7 803.1,419 788.5,411.3 773.9,419 776.7,402.7 
			764.8,391.1 781.2,388.8 		"/>
		<path class="st5" d="M803.1,420c-0.2,0-0.3,0-0.5-0.1l-14.2-7.4l-14.2,7.4c-0.3,0.2-0.7,0.1-1.1-0.1c-0.3-0.2-0.5-0.6-0.4-1
			l2.7-15.8l-11.5-11.2c-0.3-0.3-0.4-0.7-0.3-1c0.1-0.4,0.4-0.6,0.8-0.7l15.8-2.3l7.1-14.4c0.3-0.7,1.5-0.7,1.8,0l7.1,14.4l15.8,2.3
			c0.4,0.1,0.7,0.3,0.8,0.7c0.1,0.4,0,0.8-0.3,1L801.4,403l2.7,15.8c0.1,0.4-0.1,0.8-0.4,1C803.5,419.9,803.3,420,803.1,420z
			 M788.5,410.3c0.2,0,0.3,0,0.5,0.1l12.8,6.8l-2.5-14.3c-0.1-0.3,0.1-0.7,0.3-0.9l10.4-10.1l-14.4-2.1c-0.3,0-0.6-0.3-0.8-0.5
			l-6.4-13l-6.4,13c-0.1,0.3-0.4,0.5-0.8,0.5l-14.4,2.1l10.4,10.1c0.2,0.2,0.3,0.6,0.3,0.9l-2.5,14.3l12.8-6.8
			C788.2,410.3,788.3,410.3,788.5,410.3z"/>
	</g>
</g>
<g>
	<path d="M122.2,626.8c1-0.4,1.9-1.1,2.6-2l1.4,1.9c-0.9,1.1-2,1.9-3.2,2.4c-1.3,0.5-2.6,0.8-4,0.8c-3.9,0-7.2-1.9-9.9-5.8
		c-2.6-0.1-4.9-0.8-6.8-1.8c-1.9-1.1-3.3-2.5-4.3-4.4c-1-1.8-1.5-3.9-1.5-6.3c0-3.3,0.7-6.3,2.2-9.1s3.6-5,6.4-6.6s5.9-2.4,9.5-2.4
		c2.9,0,5.4,0.5,7.5,1.6c2.1,1,3.7,2.5,4.8,4.4c1.1,1.9,1.7,4.1,1.7,6.6c0,3-0.6,5.8-1.9,8.4c-1.3,2.6-3.1,4.7-5.4,6.4
		c-2.4,1.7-5.1,2.7-8.2,3.1c1.6,2.2,3.6,3.4,6.1,3.4C120.1,627.4,121.2,627.2,122.2,626.8z M102.4,618.7c1.9,1.8,4.7,2.7,8.2,2.7
		c2.9,0,5.5-0.7,7.7-2c2.2-1.4,4-3.2,5.2-5.5s1.8-4.8,1.8-7.6c0-3-1-5.4-2.9-7.1c-1.9-1.8-4.7-2.7-8.2-2.7c-2.9,0-5.5,0.7-7.7,2
		c-2.2,1.4-4,3.2-5.2,5.5s-1.8,4.8-1.8,7.5C99.5,614.6,100.5,617,102.4,618.7z"/>
	<path d="M156.6,601.4l-4.5,22.6h-2.9l0.7-3.6c-2.1,2.6-5,3.8-8.7,3.8c-2.5,0-4.5-0.7-5.9-2s-2.1-3.1-2.1-5.4c0-0.8,0.1-1.6,0.3-2.5
		l2.6-12.9h3.1l-2.6,12.9c-0.1,0.8-0.2,1.5-0.2,2c0,1.7,0.5,2.9,1.4,3.8c1,0.9,2.4,1.3,4.3,1.3c2.4,0,4.4-0.7,6-2s2.6-3.3,3.2-5.9
		l2.4-12.2h2.9V601.4z"/>
	<path d="M163.5,613.5c0,0.2,0,0.5,0,0.9c0,2.3,0.7,4,2,5.2s3.2,1.8,5.8,1.8c1.5,0,2.9-0.3,4.2-0.8s2.4-1.2,3.2-2.1l1.4,2.2
		c-1.1,1.1-2.4,1.9-4,2.5s-3.3,0.9-5.1,0.9c-3.3,0-5.8-0.9-7.7-2.6c-1.9-1.7-2.8-4.1-2.8-7.1c0-2.5,0.5-4.8,1.6-6.8s2.6-3.6,4.5-4.8
		s4-1.7,6.4-1.7c3,0,5.4,0.9,7.2,2.6c1.8,1.7,2.7,4,2.7,7c0,0.8-0.1,1.7-0.3,2.8L163.5,613.5L163.5,613.5z M167.1,605.8
		c-1.6,1.3-2.7,3.2-3.3,5.5h16.1c0-0.2,0-0.5,0-0.8c0-2.1-0.6-3.8-1.9-4.9s-3-1.7-5.2-1.7C170.6,603.8,168.7,604.5,167.1,605.8z"/>
	<path d="M213.6,592.1l-6.4,31.9h-2.9l0.7-3.6c-1.1,1.2-2.4,2.1-3.9,2.8s-3.1,1-4.9,1c-1.9,0-3.6-0.4-5.1-1.2s-2.7-1.9-3.5-3.3
		c-0.8-1.4-1.2-3.1-1.2-5.1c0-2.6,0.6-4.8,1.7-6.9c1.1-2,2.6-3.6,4.6-4.8c1.9-1.2,4.1-1.7,6.5-1.7c2.1,0,3.9,0.4,5.4,1.3
		c1.5,0.8,2.5,2.1,3.2,3.6l2.8-14H213.6z M201.9,620.1c1.5-0.9,2.7-2.2,3.5-3.8s1.3-3.4,1.3-5.4c0-2.2-0.7-3.9-2-5.2
		c-1.3-1.2-3.1-1.9-5.5-1.9c-1.9,0-3.5,0.5-5,1.4s-2.7,2.2-3.5,3.8s-1.3,3.4-1.3,5.4c0,2.2,0.7,3.9,2,5.2c1.3,1.2,3.1,1.8,5.5,1.8
		C198.8,621.5,200.4,621,201.9,620.1z"/>
	<path d="M218.6,613.5c0,0.2,0,0.5,0,0.9c0,2.3,0.7,4,2,5.2s3.2,1.8,5.8,1.8c1.5,0,2.9-0.3,4.2-0.8s2.4-1.2,3.2-2.1l1.4,2.2
		c-1.1,1.1-2.4,1.9-4,2.5s-3.3,0.9-5.1,0.9c-3.3,0-5.8-0.9-7.7-2.6c-1.9-1.7-2.8-4.1-2.8-7.1c0-2.5,0.5-4.8,1.6-6.8s2.6-3.6,4.5-4.8
		s4-1.7,6.4-1.7c3,0,5.4,0.9,7.2,2.6c1.8,1.7,2.7,4,2.7,7c0,0.8-0.1,1.7-0.3,2.8L218.6,613.5L218.6,613.5z M222.2,605.8
		c-1.6,1.3-2.7,3.2-3.3,5.5H235c0-0.2,0-0.5,0-0.8c0-2.1-0.6-3.8-1.9-4.9s-3-1.7-5.2-1.7C225.7,603.8,223.8,604.5,222.2,605.8z
		 M233.1,592.6h4.2l-7.5,5.3h-3.2L233.1,592.6z"/>
	<path d="M291.1,603.1c1.4,1.3,2.1,3.1,2.1,5.4c0,0.7-0.1,1.5-0.3,2.7l-2.6,12.9h-3.1l2.6-12.9c0.1-0.7,0.2-1.4,0.2-2.1
		c0-1.6-0.5-2.8-1.4-3.7s-2.3-1.3-4.2-1.3c-2.3,0-4.2,0.6-5.7,1.9c-1.5,1.3-2.5,3.2-3.1,5.7l-2.5,12.5H270l2.6-12.9
		c0.1-0.8,0.2-1.5,0.2-2.1c0-1.6-0.5-2.9-1.4-3.8c-0.9-0.9-2.3-1.3-4.2-1.3c-2.3,0-4.2,0.7-5.8,2c-1.5,1.3-2.6,3.3-3.1,5.9
		l-2.4,12.1H253l4.5-22.6h2.9l-0.7,3.6c2.1-2.5,4.9-3.8,8.6-3.8c1.9,0,3.5,0.4,4.8,1.2s2.2,1.9,2.6,3.4c1.1-1.5,2.5-2.6,4.1-3.4
		c1.6-0.8,3.4-1.1,5.4-1.1C287.7,601.2,289.7,601.8,291.1,603.1z"/>
	<path d="M323.5,601.4L319,624h-2.9l0.7-3.6c-2.1,2.6-5,3.8-8.7,3.8c-2.5,0-4.5-0.7-5.9-2s-2.1-3.1-2.1-5.4c0-0.8,0.1-1.6,0.3-2.5
		l2.6-12.9h3.1l-2.6,12.9c-0.1,0.8-0.2,1.5-0.2,2c0,1.7,0.5,2.9,1.4,3.8c1,0.9,2.4,1.3,4.3,1.3c2.4,0,4.4-0.7,6-2s2.6-3.3,3.2-5.9
		l2.4-12.2h2.9L323.5,601.4L323.5,601.4z"/>
	<path d="M351.1,601.4l-16.5,25.5c-1.4,2.1-2.7,3.6-3.9,4.4c-1.2,0.8-2.6,1.2-4.3,1.2c-1.1,0-2.1-0.2-3.1-0.5s-1.7-0.9-2.3-1.5
		l1.6-2.2c1,1.1,2.4,1.6,4,1.6c1,0,1.9-0.3,2.7-0.8c0.8-0.5,1.6-1.5,2.5-2.8l1.6-2.4l-5.6-22.5h3.1l4.7,19.3l12.3-19.3H351.1z"/>
	<path d="M363.5,623.4c-1.6-0.5-2.9-1.2-3.8-2l1.5-2.4c0.9,0.7,2,1.3,3.4,1.8s2.9,0.7,4.4,0.7c2.1,0,3.8-0.4,5-1.1
		c1.2-0.7,1.7-1.7,1.7-3c0-0.7-0.2-1.3-0.7-1.7s-1.1-0.8-1.7-1c-0.7-0.2-1.7-0.5-3-0.8c-1.6-0.3-2.9-0.7-3.8-1s-1.8-0.9-2.5-1.6
		s-1-1.8-1-3.1c0-2.1,0.9-3.9,2.7-5.1c1.8-1.3,4.2-1.9,7.1-1.9c1.5,0,2.9,0.2,4.3,0.6c1.4,0.4,2.5,0.9,3.4,1.5l-1.3,2.5
		c-0.9-0.6-1.9-1.1-3-1.4c-1.2-0.3-2.4-0.5-3.6-0.5c-2.1,0-3.7,0.4-4.8,1.1c-1.1,0.7-1.7,1.7-1.7,3c0,0.7,0.2,1.3,0.7,1.8
		s1.1,0.8,1.8,1c0.7,0.2,1.7,0.5,3,0.7c1.5,0.3,2.8,0.7,3.8,1s1.8,0.9,2.5,1.6s1,1.7,1,3c0,2.2-0.9,3.9-2.7,5.2
		c-1.8,1.2-4.3,1.9-7.3,1.9C366.9,624.2,365.2,624,363.5,623.4z"/>
	<path d="M408.3,601.4l-4.5,22.6h-2.9l0.7-3.6c-1.1,1.2-2.4,2.1-3.9,2.8s-3.1,1-4.9,1c-1.9,0-3.6-0.4-5.1-1.2s-2.7-1.9-3.5-3.3
		c-0.8-1.4-1.2-3.1-1.2-5.1c0-2.6,0.6-4.8,1.7-6.9c1.1-2,2.6-3.6,4.6-4.8c1.9-1.2,4.1-1.7,6.5-1.7c2.1,0,4,0.4,5.4,1.3
		s2.5,2.1,3.2,3.6l0.9-4.7L408.3,601.4L408.3,601.4z M398.5,620.1c1.5-0.9,2.7-2.2,3.5-3.8s1.3-3.4,1.3-5.4c0-2.2-0.7-3.9-2-5.2
		c-1.3-1.2-3.1-1.9-5.5-1.9c-1.9,0-3.5,0.5-5,1.4s-2.7,2.2-3.5,3.8s-1.3,3.4-1.3,5.4c0,2.2,0.7,3.9,2,5.2c1.3,1.2,3.1,1.8,5.5,1.8
		C395.3,621.5,397,621,398.5,620.1z"/>
	<path d="M417.2,617.2c-0.1,0.7-0.2,1.2-0.2,1.4c0,2,1.1,3,3.3,3c1.3,0,2.5-0.4,3.5-1.2l0.7,2.3c-1.3,1-3,1.5-5,1.5
		c-1.7,0-3-0.5-4-1.4s-1.5-2.2-1.5-3.8c0-0.6,0.1-1.2,0.2-1.8l2.6-13.3h-4l0.5-2.6h4l1-4.9h3.1l-1,4.9h6.9l-0.5,2.6h-6.9
		L417.2,617.2z"/>
	<path d="M434.3,601.4h3.1l-4.5,22.6h-3.1L434.3,601.4z M435.6,595.8c-0.4-0.4-0.6-0.9-0.6-1.4c0-0.7,0.2-1.2,0.7-1.7
		c0.4-0.4,1-0.7,1.7-0.7c0.6,0,1.1,0.2,1.5,0.6c0.4,0.4,0.6,0.8,0.6,1.4c0,0.7-0.2,1.3-0.7,1.7c-0.5,0.5-1,0.7-1.7,0.7
		C436.5,596.4,436,596.2,435.6,595.8z"/>
	<path d="M442.7,623.4c-1.6-0.5-2.9-1.2-3.8-2l1.5-2.4c0.9,0.7,2,1.3,3.4,1.8s2.9,0.7,4.4,0.7c2.1,0,3.8-0.4,5-1.1
		c1.2-0.7,1.7-1.7,1.7-3c0-0.7-0.2-1.3-0.7-1.7s-1.1-0.8-1.7-1c-0.7-0.2-1.7-0.5-3-0.8c-1.6-0.3-2.9-0.7-3.8-1s-1.8-0.9-2.5-1.6
		s-1-1.8-1-3.1c0-2.1,0.9-3.9,2.7-5.1c1.8-1.3,4.2-1.9,7.1-1.9c1.5,0,2.9,0.2,4.3,0.6c1.4,0.4,2.5,0.9,3.4,1.5l-1.3,2.5
		c-0.9-0.6-1.9-1.1-3-1.4c-1.2-0.3-2.4-0.5-3.6-0.5c-2.1,0-3.7,0.4-4.8,1.1c-1.1,0.7-1.7,1.7-1.7,3c0,0.7,0.2,1.3,0.7,1.8
		s1.1,0.8,1.8,1c0.7,0.2,1.7,0.5,3,0.7c1.5,0.3,2.8,0.7,3.8,1s1.8,0.9,2.5,1.6s1,1.7,1,3c0,2.2-0.9,3.9-2.7,5.2
		c-1.8,1.2-4.3,1.9-7.3,1.9C446.1,624.2,444.4,624,442.7,623.4z"/>
	<path d="M472.5,595.5c-0.8,0.7-1.3,1.8-1.6,3.4l-0.5,2.5h6.9l-0.5,2.6H470l-4,20h-3.1l4-20h-4l0.5-2.6h4.1l0.6-2.8
		c0.4-2.2,1.3-3.8,2.6-4.9c1.3-1.1,3-1.7,5.1-1.7c0.9,0,1.8,0.1,2.6,0.4c0.8,0.3,1.5,0.6,2,1.1l-1.3,2.2c-0.8-0.7-1.9-1.1-3.2-1.1
		C474.4,594.5,473.3,594.8,472.5,595.5z"/>
	<path d="M479.4,613.5c0,0.2,0,0.5,0,0.9c0,2.3,0.7,4,2,5.2s3.2,1.8,5.8,1.8c1.5,0,2.9-0.3,4.2-0.8c1.3-0.5,2.4-1.2,3.2-2.1l1.4,2.2
		c-1.1,1.1-2.4,1.9-4,2.5s-3.3,0.9-5.1,0.9c-3.3,0-5.8-0.9-7.7-2.6c-1.9-1.7-2.8-4.1-2.8-7.1c0-2.5,0.5-4.8,1.6-6.8s2.6-3.6,4.5-4.8
		s4-1.7,6.4-1.7c3,0,5.4,0.9,7.2,2.6c1.8,1.7,2.7,4,2.7,7c0,0.8-0.1,1.7-0.3,2.8L479.4,613.5L479.4,613.5z M483,605.8
		c-1.6,1.3-2.7,3.2-3.3,5.5h16.1c0-0.2,0-0.5,0-0.8c0-2.1-0.6-3.8-1.9-4.9s-3-1.7-5.2-1.7C486.5,603.8,484.6,604.5,483,605.8z"/>
	<path d="M507.2,623c-1.6-0.8-2.8-1.9-3.6-3.4c-0.8-1.4-1.3-3.1-1.3-5.1c0-2.6,0.6-4.8,1.7-6.9c1.1-2,2.7-3.6,4.7-4.8
		s4.3-1.7,6.8-1.7c2.1,0,3.9,0.4,5.4,1.1c1.5,0.8,2.7,1.9,3.5,3.4l-2.6,1.5c-1.3-2.2-3.5-3.4-6.6-3.4c-1.9,0-3.5,0.5-5.1,1.4
		c-1.5,0.9-2.7,2.2-3.5,3.8s-1.3,3.4-1.3,5.5c0,2.2,0.7,3.9,2,5.2c1.3,1.2,3.2,1.8,5.6,1.8c1.5,0,2.8-0.3,4.1-0.8
		c1.2-0.6,2.3-1.4,3.1-2.4l2.2,1.7c-1,1.3-2.3,2.4-4,3.2s-3.5,1.1-5.4,1.1C510.7,624.2,508.8,623.8,507.2,623z"/>
	<path d="M547.9,603.2c1.4,1.3,2.1,3.1,2.1,5.4c0,0.8-0.1,1.7-0.3,2.6l-2.6,12.9H544l2.6-12.9c0.1-0.8,0.2-1.5,0.2-2.1
		c0-1.6-0.5-2.9-1.5-3.8c-1-0.9-2.4-1.3-4.4-1.3c-2.4,0-4.4,0.7-6,2s-2.6,3.3-3.2,5.9l-2.4,12.1h-3.1l6.4-31.9h3.1l-2.5,12.7
		c2.1-2.4,5-3.6,8.6-3.6C544.5,601.2,546.5,601.9,547.9,603.2z"/>
	<path d="M580.8,601.4l-4.5,22.6h-2.9l0.7-3.6c-1.1,1.2-2.4,2.1-3.9,2.8s-3.1,1-4.9,1c-1.9,0-3.6-0.4-5.1-1.2s-2.7-1.9-3.5-3.3
		s-1.2-3.1-1.2-5.1c0-2.6,0.6-4.8,1.7-6.9c1.1-2,2.6-3.6,4.6-4.8c1.9-1.2,4.1-1.7,6.5-1.7c2.1,0,4,0.4,5.4,1.3s2.5,2.1,3.2,3.6
		l0.9-4.7L580.8,601.4L580.8,601.4z M570.9,620.1c1.5-0.9,2.7-2.2,3.5-3.8s1.3-3.4,1.3-5.4c0-2.2-0.7-3.9-2-5.2
		c-1.3-1.2-3.1-1.9-5.5-1.9c-1.9,0-3.5,0.5-5,1.4s-2.7,2.2-3.5,3.8s-1.3,3.4-1.3,5.4c0,2.2,0.7,3.9,2,5.2c1.3,1.2,3.1,1.8,5.5,1.8
		C567.7,621.5,569.4,621,570.9,620.1z"/>
	<path d="M600.7,623c-1.6-0.8-2.8-1.9-3.6-3.4s-1.3-3.1-1.3-5.1c0-2.6,0.6-4.8,1.7-6.9c1.1-2,2.7-3.6,4.7-4.8s4.3-1.7,6.8-1.7
		c2.1,0,3.9,0.4,5.4,1.1s2.7,1.9,3.5,3.4l-2.6,1.5c-1.3-2.2-3.5-3.4-6.6-3.4c-1.9,0-3.5,0.5-5.1,1.4c-1.5,0.9-2.7,2.2-3.5,3.8
		s-1.3,3.4-1.3,5.5c0,2.2,0.7,3.9,2,5.2c1.3,1.2,3.2,1.8,5.6,1.8c1.5,0,2.8-0.3,4.1-0.8c1.2-0.6,2.3-1.4,3.1-2.4l2.2,1.7
		c-1,1.3-2.3,2.4-4,3.2s-3.5,1.1-5.4,1.1C604.1,624.2,602.3,623.8,600.7,623z"/>
	<path d="M624.5,623c-1.5-0.8-2.7-1.9-3.6-3.4s-1.3-3.1-1.3-5.1c0-2.6,0.6-4.8,1.7-6.9c1.1-2,2.7-3.6,4.7-4.8s4.2-1.7,6.7-1.7
		c3.2,0,5.7,0.9,7.5,2.6c1.8,1.7,2.8,4,2.8,7c0,2.6-0.6,4.9-1.7,6.9c-1.1,2-2.7,3.7-4.7,4.8c-2,1.2-4.2,1.7-6.7,1.7
		C627.8,624.2,626,623.8,624.5,623z M635.1,620.1c1.5-0.9,2.7-2.2,3.5-3.8s1.3-3.4,1.3-5.4c0-2.2-0.7-3.9-2-5.2
		c-1.3-1.2-3.1-1.9-5.5-1.9c-1.9,0-3.5,0.5-5,1.4s-2.7,2.2-3.5,3.8s-1.3,3.4-1.3,5.4c0,2.2,0.7,3.9,2,5.2c1.3,1.2,3.1,1.8,5.5,1.8
		C632,621.5,633.7,621,635.1,620.1z"/>
	<path d="M668.3,603.2c1.4,1.3,2.1,3.1,2.1,5.4c0,0.8-0.1,1.7-0.3,2.6l-2.6,12.9h-3.1l2.6-12.9c0.1-0.8,0.2-1.5,0.2-2.1
		c0-1.6-0.5-2.9-1.5-3.8c-1-0.9-2.4-1.3-4.4-1.3c-2.4,0-4.4,0.7-6,2s-2.6,3.3-3.2,5.9l-2.4,12.1h-3.1l4.5-22.6h2.9l-0.7,3.6
		c2.2-2.5,5.1-3.8,8.9-3.8C664.9,601.2,666.9,601.9,668.3,603.2z"/>
	<path d="M693.5,592.1h3.1l-6.4,31.9h-3.1L693.5,592.1z"/>
	<path d="M723.9,601.4l-4.5,22.6h-2.9l0.7-3.6c-1.1,1.2-2.4,2.1-3.9,2.8s-3.1,1-4.9,1c-1.9,0-3.6-0.4-5.1-1.2s-2.7-1.9-3.5-3.3
		s-1.2-3.1-1.2-5.1c0-2.6,0.6-4.8,1.7-6.9c1.1-2,2.6-3.6,4.6-4.8c1.9-1.2,4.1-1.7,6.5-1.7c2.1,0,4,0.4,5.4,1.3s2.5,2.1,3.2,3.6
		l0.9-4.7L723.9,601.4L723.9,601.4z M714.1,620.1c1.5-0.9,2.7-2.2,3.5-3.8s1.3-3.4,1.3-5.4c0-2.2-0.7-3.9-2-5.2
		c-1.3-1.2-3.1-1.9-5.5-1.9c-1.9,0-3.5,0.5-5,1.4s-2.7,2.2-3.5,3.8s-1.3,3.4-1.3,5.4c0,2.2,0.7,3.9,2,5.2c1.3,1.2,3.1,1.8,5.5,1.8
		C710.9,621.5,712.6,621,714.1,620.1z"/>
	<path d="M749.6,602.3c1.5-0.7,3.4-1.1,5.5-1.1l-0.6,3h-0.9c-2.4,0-4.4,0.7-6,2.1c-1.6,1.4-2.6,3.5-3.2,6.3l-2.3,11.5H739l4.5-22.6
		h2.9l-0.8,4.1C746.8,604,748,603,749.6,602.3z"/>
	<path d="M781,601.4l-4.5,22.6h-2.9l0.7-3.6c-1.1,1.2-2.4,2.1-3.9,2.8s-3.1,1-4.9,1c-1.9,0-3.6-0.4-5.1-1.2s-2.7-1.9-3.5-3.3
		s-1.2-3.1-1.2-5.1c0-2.6,0.6-4.8,1.7-6.9c1.1-2,2.6-3.6,4.6-4.8c1.9-1.2,4.1-1.7,6.5-1.7c2.1,0,4,0.4,5.4,1.3s2.5,2.1,3.2,3.6
		l0.9-4.7L781,601.4L781,601.4z M771.2,620.1c1.5-0.9,2.7-2.2,3.5-3.8s1.3-3.4,1.3-5.4c0-2.2-0.7-3.9-2-5.2
		c-1.3-1.2-3.1-1.9-5.5-1.9c-1.9,0-3.5,0.5-5,1.4s-2.7,2.2-3.5,3.8s-1.3,3.4-1.3,5.4c0,2.2,0.7,3.9,2,5.2c1.3,1.2,3.1,1.8,5.5,1.8
		C768,621.5,769.7,621,771.2,620.1z"/>
	<path d="M805.6,602.4c1.5,0.8,2.7,1.9,3.5,3.3c0.8,1.4,1.2,3.1,1.2,5.1c0,2.6-0.6,4.9-1.7,6.9c-1.1,2-2.6,3.7-4.6,4.8
		c-2,1.2-4.1,1.7-6.6,1.7c-2.2,0-4-0.4-5.4-1.3c-1.5-0.8-2.5-2.1-3.2-3.7l-2.6,13.1h-3.1l6.1-31h2.9l-0.7,3.6
		c1.1-1.2,2.4-2.2,3.9-2.8s3.1-1,4.9-1C802.4,601.2,804.1,601.6,805.6,602.4z M802.5,620.1c1.5-0.9,2.6-2.2,3.5-3.8
		c0.8-1.6,1.3-3.4,1.3-5.5c0-2.2-0.7-3.9-2-5.2c-1.3-1.2-3.1-1.9-5.5-1.9c-1.9,0-3.5,0.5-5,1.4s-2.6,2.2-3.5,3.8
		c-0.8,1.6-1.3,3.4-1.3,5.5c0,2.2,0.7,3.9,2,5.2c1.3,1.2,3.1,1.8,5.5,1.8C799.4,621.5,801,621,802.5,620.1z"/>
	<path d="M818.6,601.4h3.1l-4.5,22.6h-3.1L818.6,601.4z M820,595.8c-0.4-0.4-0.6-0.9-0.6-1.4c0-0.7,0.2-1.2,0.7-1.7
		c0.4-0.4,1-0.7,1.7-0.7c0.6,0,1.1,0.2,1.5,0.6c0.4,0.4,0.6,0.8,0.6,1.4c0,0.7-0.2,1.3-0.7,1.7c-0.5,0.5-1,0.7-1.7,0.7
		C820.9,596.4,820.4,596.2,820,595.8z"/>
	<path d="M852.7,592.1l-6.4,31.9h-2.9l0.7-3.6c-1.1,1.2-2.4,2.1-3.9,2.8s-3.1,1-4.9,1c-1.9,0-3.6-0.4-5.1-1.2s-2.7-1.9-3.5-3.3
		s-1.2-3.1-1.2-5.1c0-2.6,0.6-4.8,1.7-6.9c1.1-2,2.6-3.6,4.6-4.8c1.9-1.2,4.1-1.7,6.5-1.7c2.1,0,3.9,0.4,5.4,1.3
		c1.5,0.8,2.5,2.1,3.2,3.6l2.8-14H852.7z M841,620.1c1.5-0.9,2.7-2.2,3.5-3.8s1.3-3.4,1.3-5.4c0-2.2-0.7-3.9-2-5.2
		c-1.3-1.2-3.1-1.9-5.5-1.9c-1.9,0-3.5,0.5-5,1.4s-2.7,2.2-3.5,3.8s-1.3,3.4-1.3,5.4c0,2.2,0.7,3.9,2,5.2c1.3,1.2,3.1,1.8,5.5,1.8
		C837.9,621.5,839.5,621,841,620.1z"/>
	<path d="M857.7,613.5c0,0.2,0,0.5,0,0.9c0,2.3,0.7,4,2,5.2s3.2,1.8,5.8,1.8c1.5,0,2.9-0.3,4.2-0.8s2.4-1.2,3.2-2.1l1.4,2.2
		c-1.1,1.1-2.4,1.9-4,2.5s-3.3,0.9-5.1,0.9c-3.3,0-5.8-0.9-7.7-2.6c-1.9-1.7-2.8-4.1-2.8-7.1c0-2.5,0.5-4.8,1.6-6.8s2.6-3.6,4.5-4.8
		s4-1.7,6.4-1.7c3,0,5.4,0.9,7.2,2.6c1.8,1.7,2.7,4,2.7,7c0,0.8-0.1,1.7-0.3,2.8L857.7,613.5L857.7,613.5z M861.3,605.8
		c-1.6,1.3-2.7,3.2-3.3,5.5h16.1c0-0.2,0-0.5,0-0.8c0-2.1-0.6-3.8-1.9-4.9s-3-1.7-5.2-1.7C864.8,603.8,862.9,604.5,861.3,605.8z"/>
	<path d="M900.4,603.4l-17.6,18.1h14.3l-0.5,2.5h-18.4l0.4-2l17.6-18h-13.7l0.5-2.6h17.8L900.4,603.4z"/>
	<path d="M937.4,601.4l-16.5,25.5c-1.4,2.1-2.7,3.6-3.9,4.4c-1.2,0.8-2.6,1.2-4.3,1.2c-1.1,0-2.1-0.2-3.1-0.5
		c-1-0.4-1.7-0.9-2.3-1.5l1.6-2.2c1,1.1,2.4,1.6,4,1.6c1,0,1.9-0.3,2.7-0.8s1.6-1.5,2.5-2.8l1.6-2.4l-5.6-22.5h3.1l4.7,19.3
		l12.3-19.3H937.4z"/>
	<path d="M954.8,592.1h3.1l-6.4,31.9h-3.1L954.8,592.1z"/>
	<path d="M985.2,601.4l-4.5,22.6h-2.9l0.7-3.6c-1.1,1.2-2.4,2.1-3.9,2.8s-3.1,1-4.9,1c-1.9,0-3.6-0.4-5.1-1.2s-2.7-1.9-3.5-3.3
		s-1.2-3.1-1.2-5.1c0-2.6,0.6-4.8,1.7-6.9c1.1-2,2.6-3.6,4.6-4.8c1.9-1.2,4.1-1.7,6.5-1.7c2.1,0,4,0.4,5.4,1.3s2.5,2.1,3.2,3.6
		l0.9-4.7L985.2,601.4L985.2,601.4z M975.3,620.1c1.5-0.9,2.7-2.2,3.5-3.8s1.3-3.4,1.3-5.4c0-2.2-0.7-3.9-2-5.2
		c-1.3-1.2-3.1-1.9-5.5-1.9c-1.9,0-3.5,0.5-5,1.4s-2.7,2.2-3.5,3.8s-1.3,3.4-1.3,5.4c0,2.2,0.7,3.9,2,5.2c1.3,1.2,3.1,1.8,5.5,1.8
		C972.1,621.5,973.8,621,975.3,620.1z"/>
	<path d="M100.3,674.6c-1.6-0.8-2.8-1.9-3.6-3.4c-0.8-1.4-1.3-3.1-1.3-5.1c0-2.6,0.6-4.8,1.7-6.9c1.1-2,2.7-3.6,4.7-4.8
		s4.3-1.7,6.8-1.7c2.1,0,3.9,0.4,5.4,1.1c1.5,0.8,2.7,1.9,3.5,3.4l-2.6,1.5c-1.3-2.2-3.5-3.4-6.6-3.4c-1.9,0-3.5,0.5-5.1,1.4
		c-1.5,0.9-2.7,2.2-3.5,3.8s-1.3,3.4-1.3,5.5c0,2.2,0.7,3.9,2,5.2c1.3,1.2,3.2,1.8,5.6,1.8c1.5,0,2.8-0.3,4.1-0.8
		c1.2-0.6,2.3-1.4,3.1-2.4l2.2,1.7c-1,1.3-2.3,2.4-4,3.2s-3.5,1.1-5.4,1.1C103.7,675.8,101.9,675.4,100.3,674.6z"/>
	<path d="M144.6,653l-4.5,22.6h-2.9l0.7-3.6c-1.1,1.2-2.4,2.1-3.9,2.8s-3.1,1-4.9,1c-1.9,0-3.6-0.4-5.1-1.2s-2.7-1.9-3.5-3.3
		c-0.8-1.4-1.2-3.1-1.2-5.1c0-2.6,0.6-4.8,1.7-6.9c1.1-2,2.6-3.6,4.6-4.8c1.9-1.2,4.1-1.7,6.5-1.7c2.1,0,4,0.4,5.4,1.3
		s2.5,2.1,3.2,3.6l0.9-4.7L144.6,653L144.6,653z M134.8,671.7c1.5-0.9,2.7-2.2,3.5-3.8s1.3-3.4,1.3-5.4c0-2.2-0.7-3.9-2-5.2
		c-1.3-1.2-3.1-1.9-5.5-1.9c-1.9,0-3.5,0.5-5,1.4s-2.7,2.2-3.5,3.8s-1.3,3.4-1.3,5.4c0,2.2,0.7,3.9,2,5.2c1.3,1.2,3.1,1.8,5.5,1.8
		C131.6,673.1,133.3,672.6,134.8,671.7z"/>
	<path d="M155,643.7h3.1l-6.4,31.9h-3.1L155,643.7z"/>
	<path d="M164.6,653h3.1l-4.5,22.6h-3.1L164.6,653z M166,647.4c-0.4-0.4-0.6-0.9-0.6-1.4c0-0.7,0.2-1.2,0.7-1.7
		c0.4-0.4,1-0.7,1.7-0.7c0.6,0,1.1,0.2,1.5,0.6c0.4,0.4,0.6,0.8,0.6,1.4c0,0.7-0.2,1.3-0.7,1.7c-0.5,0.5-1,0.7-1.7,0.7
		C166.9,648,166.4,647.8,166,647.4z"/>
	<path d="M198.7,643.7l-6.4,31.9h-2.9l0.7-3.6c-1.1,1.2-2.4,2.1-3.9,2.8s-3.1,1-4.9,1c-1.9,0-3.6-0.4-5.1-1.2s-2.7-1.9-3.5-3.3
		c-0.8-1.4-1.2-3.1-1.2-5.1c0-2.6,0.6-4.8,1.7-6.9c1.1-2,2.6-3.6,4.6-4.8c1.9-1.2,4.1-1.7,6.5-1.7c2.1,0,3.9,0.4,5.4,1.3
		c1.5,0.8,2.5,2.1,3.2,3.6l2.8-14H198.7z M187.1,671.7c1.5-0.9,2.7-2.2,3.5-3.8s1.3-3.4,1.3-5.4c0-2.2-0.7-3.9-2-5.2
		c-1.3-1.2-3.1-1.9-5.5-1.9c-1.9,0-3.5,0.5-5,1.4s-2.7,2.2-3.5,3.8s-1.3,3.4-1.3,5.4c0,2.2,0.7,3.9,2,5.2c1.3,1.2,3.1,1.8,5.5,1.8
		C183.9,673.1,185.6,672.6,187.1,671.7z"/>
	<path d="M226.1,653l-4.5,22.6h-2.9l0.7-3.6c-1.1,1.2-2.4,2.1-3.9,2.8s-3.1,1-4.9,1c-1.9,0-3.6-0.4-5.1-1.2s-2.7-1.9-3.5-3.3
		c-0.8-1.4-1.2-3.1-1.2-5.1c0-2.6,0.6-4.8,1.7-6.9c1.1-2,2.6-3.6,4.6-4.8c1.9-1.2,4.1-1.7,6.5-1.7c2.1,0,4,0.4,5.4,1.3
		s2.5,2.1,3.2,3.6l0.9-4.7L226.1,653L226.1,653z M216.2,671.7c1.5-0.9,2.7-2.2,3.5-3.8s1.3-3.4,1.3-5.4c0-2.2-0.7-3.9-2-5.2
		c-1.3-1.2-3.1-1.9-5.5-1.9c-1.9,0-3.5,0.5-5,1.4s-2.7,2.2-3.5,3.8s-1.3,3.4-1.3,5.4c0,2.2,0.7,3.9,2,5.2c1.3,1.2,3.1,1.8,5.5,1.8
		C213,673.1,214.7,672.6,216.2,671.7z"/>
	<path d="M257.1,643.7l-6.4,31.9h-2.9l0.7-3.6c-1.1,1.2-2.4,2.1-3.9,2.8s-3.1,1-4.9,1c-1.9,0-3.6-0.4-5.1-1.2s-2.7-1.9-3.5-3.3
		c-0.8-1.4-1.2-3.1-1.2-5.1c0-2.6,0.6-4.8,1.7-6.9c1.1-2,2.6-3.6,4.6-4.8c1.9-1.2,4.1-1.7,6.5-1.7c2.1,0,3.9,0.4,5.4,1.3
		c1.5,0.8,2.5,2.1,3.2,3.6l2.8-14H257.1z M245.4,671.7c1.5-0.9,2.7-2.2,3.5-3.8s1.3-3.4,1.3-5.4c0-2.2-0.7-3.9-2-5.2
		c-1.3-1.2-3.1-1.9-5.5-1.9c-1.9,0-3.5,0.5-5,1.4s-2.7,2.2-3.5,3.8s-1.3,3.4-1.3,5.4c0,2.2,0.7,3.9,2,5.2c1.3,1.2,3.1,1.8,5.5,1.8
		C242.2,673.1,243.9,672.6,245.4,671.7z"/>
	<path d="M297.5,643.7l-6.4,31.9h-2.9l0.7-3.6c-1.1,1.2-2.4,2.1-3.9,2.8s-3.1,1-4.9,1c-1.9,0-3.6-0.4-5.1-1.2s-2.7-1.9-3.5-3.3
		c-0.8-1.4-1.2-3.1-1.2-5.1c0-2.6,0.6-4.8,1.7-6.9c1.1-2,2.6-3.6,4.6-4.8c1.9-1.2,4.1-1.7,6.5-1.7c2.1,0,3.9,0.4,5.4,1.3
		c1.5,0.8,2.5,2.1,3.2,3.6l2.8-14H297.5z M285.8,671.7c1.5-0.9,2.7-2.2,3.5-3.8s1.3-3.4,1.3-5.4c0-2.2-0.7-3.9-2-5.2
		c-1.3-1.2-3.1-1.9-5.5-1.9c-1.9,0-3.5,0.5-5,1.4s-2.7,2.2-3.5,3.8s-1.3,3.4-1.3,5.4c0,2.2,0.7,3.9,2,5.2c1.3,1.2,3.1,1.8,5.5,1.8
		C282.6,673.1,284.3,672.6,285.8,671.7z"/>
	<path d="M302.5,665.1c0,0.2,0,0.5,0,0.9c0,2.3,0.7,4,2,5.2s3.2,1.8,5.8,1.8c1.5,0,2.9-0.3,4.2-0.8c1.3-0.5,2.4-1.2,3.2-2.1l1.4,2.2
		c-1.1,1.1-2.4,1.9-4,2.5s-3.3,0.9-5.1,0.9c-3.3,0-5.8-0.9-7.7-2.6c-1.9-1.7-2.8-4.1-2.8-7.1c0-2.5,0.5-4.8,1.6-6.8s2.6-3.6,4.5-4.8
		s4-1.7,6.4-1.7c3,0,5.4,0.9,7.2,2.6c1.8,1.7,2.7,4,2.7,7c0,0.8-0.1,1.7-0.3,2.8L302.5,665.1L302.5,665.1z M306,657.4
		c-1.6,1.3-2.7,3.2-3.3,5.5h16.1c0-0.2,0-0.5,0-0.8c0-2.1-0.6-3.8-1.9-4.9s-3-1.7-5.2-1.7C309.6,655.4,307.6,656.1,306,657.4z"/>
	<path d="M343.2,643.7h3.1l-6.4,31.9h-3.1L343.2,643.7z"/>
	<path d="M353.1,674.6c-1.5-0.8-2.7-1.9-3.6-3.4c-0.8-1.4-1.3-3.1-1.3-5.1c0-2.6,0.6-4.8,1.7-6.9c1.1-2,2.7-3.6,4.7-4.8
		s4.2-1.7,6.7-1.7c3.2,0,5.7,0.9,7.5,2.6c1.8,1.7,2.8,4,2.8,7c0,2.6-0.6,4.9-1.7,6.9s-2.7,3.7-4.7,4.8c-2,1.2-4.2,1.7-6.7,1.7
		C356.4,675.8,354.6,675.4,353.1,674.6z M363.7,671.7c1.5-0.9,2.7-2.2,3.5-3.8s1.3-3.4,1.3-5.4c0-2.2-0.7-3.9-2-5.2
		c-1.3-1.2-3.1-1.9-5.5-1.9c-1.9,0-3.5,0.5-5,1.4s-2.7,2.2-3.5,3.8s-1.3,3.4-1.3,5.4c0,2.2,0.7,3.9,2,5.2c1.3,1.2,3.1,1.8,5.5,1.8
		C360.6,673.1,362.2,672.6,363.7,671.7z"/>
	<path d="M376.8,675c-1.6-0.5-2.9-1.2-3.8-2l1.5-2.4c0.9,0.7,2,1.3,3.4,1.8s2.9,0.7,4.4,0.7c2.1,0,3.8-0.4,5-1.1
		c1.2-0.7,1.7-1.7,1.7-3c0-0.7-0.2-1.3-0.7-1.7s-1.1-0.8-1.7-1c-0.7-0.2-1.7-0.5-3-0.8c-1.6-0.3-2.9-0.7-3.8-1s-1.8-0.9-2.5-1.6
		s-1-1.8-1-3.1c0-2.1,0.9-3.9,2.7-5.1c1.8-1.3,4.2-1.9,7.1-1.9c1.5,0,2.9,0.2,4.3,0.6c1.4,0.4,2.5,0.9,3.4,1.5l-1.3,2.5
		c-0.9-0.6-1.9-1.1-3-1.4c-1.2-0.3-2.4-0.5-3.6-0.5c-2.1,0-3.7,0.4-4.8,1.1c-1.1,0.7-1.7,1.7-1.7,3c0,0.7,0.2,1.3,0.7,1.8
		s1.1,0.8,1.8,1c0.7,0.2,1.7,0.5,3,0.7c1.5,0.3,2.8,0.7,3.8,1s1.8,0.9,2.5,1.6s1,1.7,1,3c0,2.2-0.9,3.9-2.7,5.2
		c-1.8,1.2-4.3,1.9-7.3,1.9C380.2,675.8,378.4,675.6,376.8,675z"/>
	<path d="M412.4,674.6c-1.6-0.8-2.8-1.9-3.6-3.4c-0.8-1.4-1.3-3.1-1.3-5.1c0-2.6,0.6-4.8,1.7-6.9c1.1-2,2.7-3.6,4.7-4.8
		s4.3-1.7,6.8-1.7c2.1,0,3.9,0.4,5.4,1.1c1.5,0.8,2.7,1.9,3.5,3.4l-2.6,1.5c-1.3-2.2-3.5-3.4-6.6-3.4c-1.9,0-3.5,0.5-5.1,1.4
		c-1.5,0.9-2.7,2.2-3.5,3.8s-1.3,3.4-1.3,5.5c0,2.2,0.7,3.9,2,5.2c1.3,1.2,3.2,1.8,5.6,1.8c1.5,0,2.8-0.3,4.1-0.8
		c1.2-0.6,2.3-1.4,3.1-2.4l2.2,1.7c-1,1.3-2.3,2.4-4,3.2s-3.5,1.1-5.4,1.1C415.8,675.8,413.9,675.4,412.4,674.6z"/>
	<path d="M436.1,674.6c-1.5-0.8-2.7-1.9-3.6-3.4c-0.8-1.4-1.3-3.1-1.3-5.1c0-2.6,0.6-4.8,1.7-6.9c1.1-2,2.7-3.6,4.7-4.8
		s4.2-1.7,6.7-1.7c3.2,0,5.7,0.9,7.5,2.6c1.8,1.7,2.8,4,2.8,7c0,2.6-0.6,4.9-1.7,6.9s-2.7,3.7-4.7,4.8c-2,1.2-4.2,1.7-6.7,1.7
		C439.5,675.8,437.7,675.4,436.1,674.6z M446.8,671.7c1.5-0.9,2.7-2.2,3.5-3.8s1.3-3.4,1.3-5.4c0-2.2-0.7-3.9-2-5.2
		c-1.3-1.2-3.1-1.9-5.5-1.9c-1.9,0-3.5,0.5-5,1.4s-2.7,2.2-3.5,3.8s-1.3,3.4-1.3,5.4c0,2.2,0.7,3.9,2,5.2c1.3,1.2,3.1,1.8,5.5,1.8
		C443.6,673.1,445.3,672.6,446.8,671.7z"/>
	<path d="M479.9,654.8c1.4,1.3,2.1,3.1,2.1,5.4c0,0.8-0.1,1.7-0.3,2.6l-2.6,12.9H476l2.6-12.9c0.1-0.8,0.2-1.5,0.2-2.1
		c0-1.6-0.5-2.9-1.5-3.8c-1-0.9-2.4-1.3-4.4-1.3c-2.4,0-4.4,0.7-6,2s-2.6,3.3-3.2,5.9l-2.4,12.1h-3.1l4.5-22.6h2.9l-0.7,3.6
		c2.1-2.5,5.1-3.8,8.9-3.8C476.5,652.8,478.5,653.5,479.9,654.8z"/>
	<path d="M489,675c-1.6-0.5-2.9-1.2-3.8-2l1.5-2.4c0.9,0.7,2,1.3,3.4,1.8s2.9,0.7,4.4,0.7c2.1,0,3.8-0.4,5-1.1
		c1.2-0.7,1.7-1.7,1.7-3c0-0.7-0.2-1.3-0.7-1.7s-1.1-0.8-1.7-1c-0.7-0.2-1.7-0.5-3-0.8c-1.6-0.3-2.9-0.7-3.8-1s-1.8-0.9-2.5-1.6
		s-1-1.8-1-3.1c0-2.1,0.9-3.9,2.7-5.1c1.8-1.3,4.2-1.9,7.1-1.9c1.5,0,2.9,0.2,4.3,0.6c1.4,0.4,2.5,0.9,3.4,1.5l-1.3,2.5
		c-0.9-0.6-1.9-1.1-3-1.4c-1.2-0.3-2.4-0.5-3.6-0.5c-2.1,0-3.7,0.4-4.8,1.1c-1.1,0.7-1.7,1.7-1.7,3c0,0.7,0.2,1.3,0.7,1.8
		s1.1,0.8,1.8,1c0.7,0.2,1.7,0.5,3,0.7c1.5,0.3,2.8,0.7,3.8,1s1.8,0.9,2.5,1.6s1,1.7,1,3c0,2.2-0.9,3.9-2.7,5.2
		c-1.8,1.2-4.3,1.9-7.3,1.9C492.3,675.8,490.6,675.6,489,675z"/>
	<path d="M511.4,665.1c0,0.2,0,0.5,0,0.9c0,2.3,0.7,4,2,5.2c1.3,1.2,3.2,1.8,5.8,1.8c1.5,0,2.9-0.3,4.2-0.8s2.4-1.2,3.2-2.1l1.4,2.2
		c-1.1,1.1-2.4,1.9-4,2.5s-3.3,0.9-5.1,0.9c-3.3,0-5.8-0.9-7.7-2.6c-1.9-1.7-2.8-4.1-2.8-7.1c0-2.5,0.5-4.8,1.6-6.8s2.6-3.6,4.5-4.8
		s4-1.7,6.4-1.7c3,0,5.4,0.9,7.2,2.6c1.8,1.7,2.7,4,2.7,7c0,0.8-0.1,1.7-0.3,2.8L511.4,665.1L511.4,665.1z M515,657.4
		c-1.6,1.3-2.7,3.2-3.3,5.5h16.1c0-0.2,0-0.5,0-0.8c0-2.1-0.6-3.8-1.9-4.9s-3-1.7-5.2-1.7C518.5,655.4,516.6,656.1,515,657.4z"/>
	<path d="M527.2,683.8c-0.8-0.2-1.5-0.6-2.1-1.1l1.4-2.4c0.9,0.8,2,1.2,3.4,1.2c1.2,0,2.2-0.3,3-1c0.7-0.7,1.3-1.8,1.5-3.3l4.9-24.3
		h3.1l-4.9,24.3c-0.9,4.6-3.5,6.8-7.6,6.8C528.9,684.2,528,684,527.2,683.8z M540.6,647.4c-0.4-0.4-0.6-0.9-0.6-1.4
		c0-0.7,0.2-1.2,0.7-1.7c0.4-0.4,1-0.7,1.7-0.7c0.6,0,1.1,0.2,1.5,0.6c0.4,0.4,0.6,0.8,0.6,1.4c0,0.7-0.2,1.3-0.7,1.7
		c-0.5,0.5-1,0.7-1.7,0.7C541.5,648,541,647.8,540.6,647.4z"/>
	<path d="M551,674.6c-1.5-0.8-2.7-1.9-3.6-3.4s-1.3-3.1-1.3-5.1c0-2.6,0.6-4.8,1.7-6.9c1.1-2,2.7-3.6,4.7-4.8s4.2-1.7,6.7-1.7
		c3.2,0,5.7,0.9,7.5,2.6c1.8,1.7,2.8,4,2.8,7c0,2.6-0.6,4.9-1.7,6.9c-1.1,2-2.7,3.7-4.7,4.8c-2,1.2-4.2,1.7-6.7,1.7
		C554.4,675.8,552.5,675.4,551,674.6z M561.7,671.7c1.5-0.9,2.7-2.2,3.5-3.8s1.3-3.4,1.3-5.4c0-2.2-0.7-3.9-2-5.2
		c-1.3-1.2-3.1-1.9-5.5-1.9c-1.9,0-3.5,0.5-5,1.4s-2.7,2.2-3.5,3.8s-1.3,3.4-1.3,5.4c0,2.2,0.7,3.9,2,5.2c1.3,1.2,3.1,1.8,5.5,1.8
		C558.5,673.1,560.2,672.6,561.7,671.7z"/>
	<path d="M574.7,675c-1.6-0.5-2.9-1.2-3.8-2l1.5-2.4c0.9,0.7,2,1.3,3.4,1.8s2.9,0.7,4.4,0.7c2.1,0,3.8-0.4,5-1.1
		c1.2-0.7,1.7-1.7,1.7-3c0-0.7-0.2-1.3-0.7-1.7s-1.1-0.8-1.7-1c-0.7-0.2-1.7-0.5-3-0.8c-1.6-0.3-2.9-0.7-3.8-1
		c-1-0.3-1.8-0.9-2.5-1.6c-0.7-0.7-1-1.8-1-3.1c0-2.1,0.9-3.9,2.7-5.1c1.8-1.3,4.2-1.9,7.1-1.9c1.5,0,2.9,0.2,4.3,0.6
		c1.4,0.4,2.5,0.9,3.4,1.5l-1.3,2.5c-0.9-0.6-1.9-1.1-3-1.4c-1.2-0.3-2.4-0.5-3.6-0.5c-2.1,0-3.7,0.4-4.8,1.1
		c-1.1,0.7-1.7,1.7-1.7,3c0,0.7,0.2,1.3,0.7,1.8s1.1,0.8,1.8,1s1.7,0.5,3,0.7c1.5,0.3,2.8,0.7,3.8,1s1.8,0.9,2.5,1.6
		c0.7,0.7,1,1.7,1,3c0,2.2-0.9,3.9-2.7,5.2c-1.8,1.2-4.3,1.9-7.3,1.9C578.1,675.8,576.4,675.6,574.7,675z"/>
	<path d="M632.6,643.7l-6.4,31.9h-2.9l0.7-3.6c-1.1,1.2-2.4,2.1-3.9,2.8s-3.1,1-4.9,1c-1.9,0-3.6-0.4-5.1-1.2s-2.7-1.9-3.5-3.3
		s-1.2-3.1-1.2-5.1c0-2.6,0.6-4.8,1.7-6.9c1.1-2,2.6-3.6,4.6-4.8c1.9-1.2,4.1-1.7,6.5-1.7c2.1,0,3.9,0.4,5.4,1.3
		c1.5,0.8,2.5,2.1,3.2,3.6l2.8-14H632.6z M620.9,671.7c1.5-0.9,2.7-2.2,3.5-3.8s1.3-3.4,1.3-5.4c0-2.2-0.7-3.9-2-5.2
		c-1.3-1.2-3.1-1.9-5.5-1.9c-1.9,0-3.5,0.5-5,1.4s-2.7,2.2-3.5,3.8s-1.3,3.4-1.3,5.4c0,2.2,0.7,3.9,2,5.2c1.3,1.2,3.1,1.8,5.5,1.8
		C617.8,673.1,619.4,672.6,620.9,671.7z"/>
	<path d="M637.6,665.1c0,0.2,0,0.5,0,0.9c0,2.3,0.7,4,2,5.2s3.2,1.8,5.8,1.8c1.5,0,2.9-0.3,4.2-0.8s2.4-1.2,3.2-2.1l1.4,2.2
		c-1.1,1.1-2.4,1.9-4,2.5s-3.3,0.9-5.1,0.9c-3.3,0-5.8-0.9-7.7-2.6c-1.9-1.7-2.8-4.1-2.8-7.1c0-2.5,0.5-4.8,1.6-6.8s2.6-3.6,4.5-4.8
		s4-1.7,6.4-1.7c3,0,5.4,0.9,7.2,2.6c1.8,1.7,2.7,4,2.7,7c0,0.8-0.1,1.7-0.3,2.8L637.6,665.1L637.6,665.1z M641.2,657.4
		c-1.6,1.3-2.7,3.2-3.3,5.5H654c0-0.2,0-0.5,0-0.8c0-2.1-0.6-3.8-1.9-4.9s-3-1.7-5.2-1.7C644.7,655.4,642.8,656.1,641.2,657.4z"/>
	<path d="M710.1,654.7c1.4,1.3,2.1,3.1,2.1,5.4c0,0.7-0.1,1.5-0.3,2.7l-2.6,12.9h-3.1l2.6-12.9c0.1-0.7,0.2-1.4,0.2-2.1
		c0-1.6-0.5-2.8-1.4-3.7s-2.3-1.3-4.2-1.3c-2.3,0-4.2,0.6-5.7,1.9c-1.5,1.3-2.5,3.2-3.1,5.7l-2.5,12.5H689l2.6-12.9
		c0.1-0.8,0.2-1.5,0.2-2.1c0-1.6-0.5-2.9-1.4-3.8c-0.9-0.9-2.3-1.3-4.2-1.3c-2.3,0-4.2,0.7-5.8,2c-1.5,1.3-2.6,3.3-3.1,5.9
		l-2.4,12.1H672l4.5-22.6h2.9l-0.7,3.6c2.1-2.5,4.9-3.8,8.6-3.8c1.9,0,3.5,0.4,4.8,1.2s2.2,1.9,2.6,3.4c1.1-1.5,2.5-2.6,4.1-3.4
		s3.4-1.1,5.4-1.1C706.7,652.8,708.7,653.4,710.1,654.7z"/>
	<path d="M722.1,653h3.1l-4.5,22.6h-3.1L722.1,653z M723.4,647.4c-0.4-0.4-0.6-0.9-0.6-1.4c0-0.7,0.2-1.2,0.7-1.7
		c0.4-0.4,1-0.7,1.7-0.7c0.6,0,1.1,0.2,1.5,0.6c0.4,0.4,0.6,0.8,0.6,1.4c0,0.7-0.2,1.3-0.7,1.7c-0.5,0.5-1,0.7-1.7,0.7
		C724.3,648,723.8,647.8,723.4,647.4z"/>
	<path d="M772.2,645.5l-6,30.1h-3.1l2.8-13.8H747l-2.8,13.8h-3.1l6-30.1h3.1l-2.7,13.4h18.8l2.7-13.4H772.2z"/>
	<path d="M778.3,665.1c0,0.2,0,0.5,0,0.9c0,2.3,0.7,4,2,5.2s3.2,1.8,5.8,1.8c1.5,0,2.9-0.3,4.2-0.8s2.4-1.2,3.2-2.1l1.4,2.2
		c-1.1,1.1-2.4,1.9-4,2.5s-3.3,0.9-5.1,0.9c-3.3,0-5.8-0.9-7.7-2.6c-1.9-1.7-2.8-4.1-2.8-7.1c0-2.5,0.5-4.8,1.6-6.8s2.6-3.6,4.5-4.8
		s4-1.7,6.4-1.7c3,0,5.4,0.9,7.2,2.6c1.8,1.7,2.7,4,2.7,7c0,0.8-0.1,1.7-0.3,2.8L778.3,665.1L778.3,665.1z M781.8,657.4
		c-1.6,1.3-2.7,3.2-3.3,5.5h16.1c0-0.2,0-0.5,0-0.8c0-2.1-0.6-3.8-1.9-4.9s-3-1.7-5.2-1.7C785.4,655.4,783.4,656.1,781.8,657.4z"/>
	<path d="M807.7,643.7h3.1l-6.4,31.9h-3.1L807.7,643.7z"/>
	<path d="M833.6,654c1.5,0.8,2.7,1.9,3.5,3.3c0.8,1.4,1.2,3.1,1.2,5.1c0,2.6-0.6,4.9-1.7,6.9c-1.1,2-2.6,3.7-4.6,4.8
		c-2,1.2-4.1,1.7-6.6,1.7c-2.2,0-4-0.4-5.4-1.3c-1.5-0.8-2.5-2.1-3.2-3.7l-2.6,13.1h-3.1l6.1-31h2.9l-0.7,3.6
		c1.1-1.2,2.4-2.2,3.9-2.8s3.1-1,4.9-1C830.4,652.8,832.1,653.2,833.6,654z M830.5,671.7c1.5-0.9,2.6-2.2,3.5-3.8
		c0.8-1.6,1.3-3.4,1.3-5.5c0-2.2-0.7-3.9-2-5.2c-1.3-1.2-3.1-1.9-5.5-1.9c-1.9,0-3.5,0.5-5,1.4s-2.6,2.2-3.5,3.8
		c-0.8,1.6-1.3,3.4-1.3,5.5c0,2.2,0.7,3.9,2,5.2c1.3,1.2,3.1,1.8,5.5,1.8C827.3,673.1,829,672.6,830.5,671.7z"/>
	<path d="M844.9,665.1c0,0.2,0,0.5,0,0.9c0,2.3,0.7,4,2,5.2s3.2,1.8,5.8,1.8c1.5,0,2.9-0.3,4.2-0.8s2.4-1.2,3.2-2.1l1.4,2.2
		c-1.1,1.1-2.4,1.9-4,2.5s-3.3,0.9-5.1,0.9c-3.3,0-5.8-0.9-7.7-2.6c-1.9-1.7-2.8-4.1-2.8-7.1c0-2.5,0.5-4.8,1.6-6.8s2.6-3.6,4.5-4.8
		s4-1.7,6.4-1.7c3,0,5.4,0.9,7.2,2.6c1.8,1.7,2.7,4,2.7,7c0,0.8-0.1,1.7-0.3,2.8L844.9,665.1L844.9,665.1z M848.5,657.4
		c-1.6,1.3-2.7,3.2-3.3,5.5h16.1c0-0.2,0-0.5,0-0.8c0-2.1-0.6-3.8-1.9-4.9s-3-1.7-5.2-1.7C852.1,655.4,850.1,656.1,848.5,657.4z"/>
	<path d="M878.5,653.9c1.5-0.7,3.4-1.1,5.5-1.1l-0.6,3h-0.9c-2.4,0-4.4,0.7-6,2.1c-1.6,1.4-2.6,3.5-3.2,6.3l-2.3,11.5h-3.1l4.5-22.6
		h2.9l-0.8,4.1C875.7,655.6,877,654.6,878.5,653.9z"/>
	<path d="M883.9,675.2c-0.4-0.4-0.6-1-0.6-1.6c0-0.7,0.2-1.3,0.7-1.7c0.5-0.5,1-0.7,1.7-0.7c0.6,0,1.2,0.2,1.6,0.6
		c0.4,0.4,0.6,1,0.6,1.6c0,0.7-0.2,1.3-0.7,1.7c-0.5,0.5-1,0.7-1.7,0.7C884.9,675.8,884.4,675.6,883.9,675.2z"/>
	<path d="M943.2,645.5l-6,30.1h-3.1l4.8-23.9l-15.6,20h-1.5l-8-20.4l-4.8,24.3h-3.1l6-30.1h2.6l8.7,22.4l17.2-22.4L943.2,645.5
		L943.2,645.5z"/>
	<path d="M949.2,665.1c0,0.2,0,0.5,0,0.9c0,2.3,0.7,4,2,5.2s3.2,1.8,5.8,1.8c1.5,0,2.9-0.3,4.2-0.8s2.4-1.2,3.2-2.1l1.4,2.2
		c-1.1,1.1-2.4,1.9-4,2.5s-3.3,0.9-5.1,0.9c-3.3,0-5.8-0.9-7.7-2.6c-1.9-1.7-2.8-4.1-2.8-7.1c0-2.5,0.5-4.8,1.6-6.8s2.6-3.6,4.5-4.8
		s4-1.7,6.4-1.7c3,0,5.4,0.9,7.2,2.6c1.8,1.7,2.7,4,2.7,7c0,0.8-0.1,1.7-0.3,2.8L949.2,665.1L949.2,665.1z M952.7,657.4
		c-1.6,1.3-2.7,3.2-3.3,5.5h16.1c0-0.2,0-0.5,0-0.8c0-2.1-0.6-3.8-1.9-4.9s-3-1.7-5.2-1.7C956.3,655.4,954.3,656.1,952.7,657.4z"/>
	<path d="M121.1,704.6l-4,19.9c-0.8,4-2.2,6.8-4.4,8.6c-2.1,1.8-5.1,2.7-8.8,2.7c-2.1,0-4-0.3-5.7-0.9c-1.7-0.6-3.1-1.4-4.3-2.5
		l1.8-2.3c0.9,0.9,2.1,1.7,3.6,2.2s3.1,0.8,4.9,0.8c2.8,0,5-0.7,6.6-2s2.6-3.4,3.2-6.1l0.5-2.5c-1.1,1.2-2.4,2.2-3.9,2.9
		s-3.2,1-5.1,1c-3,0-5.4-0.8-7.2-2.5c-1.8-1.6-2.7-3.9-2.7-6.7c0-2.4,0.6-4.6,1.7-6.5s2.6-3.5,4.6-4.6s4.2-1.7,6.6-1.7
		c2.1,0,4,0.4,5.5,1.3c1.5,0.9,2.6,2.2,3.3,3.8l0.9-5L121.1,704.6L121.1,704.6z M111.1,722.3c1.5-0.9,2.7-2,3.5-3.6
		c0.8-1.5,1.3-3.2,1.3-5.1c0-2.1-0.7-3.7-2-4.8c-1.3-1.2-3.2-1.7-5.5-1.7c-1.9,0-3.6,0.4-5.1,1.3c-1.5,0.9-2.7,2-3.5,3.6
		c-0.8,1.5-1.3,3.2-1.3,5.1c0,2.1,0.7,3.7,2,4.8c1.3,1.2,3.2,1.7,5.5,1.7C107.9,723.6,109.6,723.2,111.1,722.3z"/>
	<path d="M150,704.6l-4.5,22.6h-2.9l0.7-3.6c-2.1,2.6-5,3.8-8.7,3.8c-2.5,0-4.5-0.7-5.9-2s-2.1-3.1-2.1-5.4c0-0.8,0.1-1.6,0.3-2.5
		l2.6-12.9h3.1l-2.6,12.9c-0.1,0.8-0.2,1.5-0.2,2c0,1.7,0.5,2.9,1.4,3.8c1,0.9,2.4,1.3,4.3,1.3c2.4,0,4.4-0.7,6-2s2.6-3.3,3.2-5.9
		l2.4-12.2h2.9V704.6z"/>
	<path d="M155.5,726.6c-1.6-0.5-2.9-1.2-3.8-2l1.5-2.4c0.9,0.7,2,1.3,3.4,1.8s2.9,0.7,4.4,0.7c2.1,0,3.8-0.4,5-1.1
		c1.2-0.7,1.7-1.7,1.7-3c0-0.7-0.2-1.3-0.7-1.7s-1.1-0.8-1.7-1c-0.7-0.2-1.7-0.5-3-0.8c-1.6-0.3-2.9-0.7-3.8-1s-1.8-0.9-2.5-1.6
		s-1-1.8-1-3.1c0-2.1,0.9-3.9,2.7-5.1c1.8-1.3,4.2-1.9,7.1-1.9c1.5,0,2.9,0.2,4.3,0.6c1.4,0.4,2.5,0.9,3.4,1.5L171,709
		c-0.9-0.6-1.9-1.1-3-1.4c-1.2-0.3-2.4-0.5-3.6-0.5c-2.1,0-3.7,0.4-4.8,1.1c-1.1,0.7-1.7,1.7-1.7,3c0,0.7,0.2,1.3,0.7,1.8
		s1.1,0.8,1.8,1s1.7,0.5,3,0.7c1.5,0.3,2.8,0.7,3.8,1s1.8,0.9,2.5,1.6s1,1.7,1,3c0,2.2-0.9,3.9-2.7,5.2c-1.8,1.2-4.3,1.9-7.3,1.9
		C158.8,727.4,157.1,727.2,155.5,726.6z"/>
	<path d="M180,720.4c-0.1,0.7-0.2,1.2-0.2,1.4c0,2,1.1,3,3.3,3c1.3,0,2.5-0.4,3.5-1.2l0.7,2.3c-1.3,1-3,1.5-5,1.5
		c-1.7,0-3-0.5-4-1.4s-1.5-2.2-1.5-3.8c0-0.6,0.1-1.2,0.2-1.8l2.6-13.3h-4l0.5-2.6h4l1-4.9h3.1l-1,4.9h6.9l-0.5,2.6h-6.9L180,720.4z
		"/>
	<path d="M216.9,704.6l-4.5,22.6h-2.9l0.7-3.6c-1.1,1.2-2.4,2.1-3.9,2.8s-3.1,1-4.9,1c-1.9,0-3.6-0.4-5.1-1.2s-2.7-1.9-3.5-3.3
		c-0.8-1.4-1.2-3.1-1.2-5.1c0-2.6,0.6-4.8,1.7-6.9c1.1-2,2.6-3.6,4.6-4.8c1.9-1.2,4.1-1.7,6.5-1.7c2.1,0,4,0.4,5.4,1.3
		s2.5,2.1,3.2,3.6l0.9-4.7L216.9,704.6L216.9,704.6z M207,723.3c1.5-0.9,2.7-2.2,3.5-3.8s1.3-3.4,1.3-5.4c0-2.2-0.7-3.9-2-5.2
		c-1.3-1.2-3.1-1.9-5.5-1.9c-1.9,0-3.5,0.5-5,1.4s-2.7,2.2-3.5,3.8s-1.3,3.4-1.3,5.4c0,2.2,0.7,3.9,2,5.2c1.3,1.2,3.1,1.8,5.5,1.8
		C203.9,724.7,205.6,724.2,207,723.3z"/>
	<path d="M231.3,705.5c1.5-0.7,3.4-1.1,5.5-1.1l-0.6,3h-0.9c-2.4,0-4.4,0.7-6,2.1c-1.6,1.4-2.6,3.5-3.2,6.3l-2.3,11.5h-3.1l4.5-22.6
		h2.9l-0.8,4.1C228.5,707.2,229.8,706.2,231.3,705.5z"/>
	<path d="M242.3,704.6h3.1l-4.5,22.6h-3.1L242.3,704.6z M248.2,695.7h4.2l-7.5,5.3h-3.2L248.2,695.7z"/>
	<path d="M274.5,704.6l-4.5,22.6h-2.9l0.7-3.6c-1.1,1.2-2.4,2.1-3.9,2.8s-3.1,1-4.9,1c-1.9,0-3.6-0.4-5.1-1.2s-2.7-1.9-3.5-3.3
		c-0.8-1.4-1.2-3.1-1.2-5.1c0-2.6,0.6-4.8,1.7-6.9c1.1-2,2.6-3.6,4.6-4.8c1.9-1.2,4.1-1.7,6.5-1.7c2.1,0,4,0.4,5.4,1.3
		s2.5,2.1,3.2,3.6l0.9-4.7L274.5,704.6L274.5,704.6z M264.7,723.3c1.5-0.9,2.7-2.2,3.5-3.8s1.3-3.4,1.3-5.4c0-2.2-0.7-3.9-2-5.2
		c-1.3-1.2-3.1-1.9-5.5-1.9c-1.9,0-3.5,0.5-5,1.4s-2.7,2.2-3.5,3.8s-1.3,3.4-1.3,5.4c0,2.2,0.7,3.9,2,5.2c1.3,1.2,3.1,1.8,5.5,1.8
		C261.5,724.7,263.2,724.2,264.7,723.3z"/>
	<path d="M314.9,704.6l-4.5,22.6h-2.9l0.7-3.6c-1.1,1.2-2.4,2.1-3.9,2.8s-3.1,1-4.9,1c-1.9,0-3.6-0.4-5.1-1.2s-2.7-1.9-3.5-3.3
		c-0.8-1.4-1.2-3.1-1.2-5.1c0-2.6,0.6-4.8,1.7-6.9c1.1-2,2.6-3.6,4.6-4.8c1.9-1.2,4.1-1.7,6.5-1.7c2.1,0,4,0.4,5.4,1.3
		s2.5,2.1,3.2,3.6l0.9-4.7L314.9,704.6L314.9,704.6z M305.1,723.3c1.5-0.9,2.7-2.2,3.5-3.8s1.3-3.4,1.3-5.4c0-2.2-0.7-3.9-2-5.2
		c-1.3-1.2-3.1-1.9-5.5-1.9c-1.9,0-3.5,0.5-5,1.4s-2.7,2.2-3.5,3.8s-1.3,3.4-1.3,5.4c0,2.2,0.7,3.9,2,5.2c1.3,1.2,3.1,1.8,5.5,1.8
		C301.9,724.7,303.6,724.2,305.1,723.3z"/>
	<path d="M340.4,706.4c1.4,1.3,2.1,3.1,2.1,5.4c0,0.8-0.1,1.7-0.3,2.6l-2.6,12.9h-3.1l2.6-12.9c0.1-0.8,0.2-1.5,0.2-2.1
		c0-1.6-0.5-2.9-1.5-3.8c-1-0.9-2.4-1.3-4.4-1.3c-2.4,0-4.4,0.7-6,2s-2.6,3.3-3.2,5.9l-2.4,12.1h-3.1l4.5-22.6h2.9l-0.7,3.6
		c2.1-2.5,5.1-3.8,8.9-3.8C337,704.4,339,705.1,340.4,706.4z M336.1,700.4c-0.5-0.3-1-0.7-1.6-1.2c-0.5-0.4-0.9-0.8-1.2-1
		c-0.3-0.2-0.7-0.3-1.1-0.3c-0.6,0-1.2,0.3-1.6,0.8s-0.7,1.2-0.9,2h-1.8c0.2-1.5,0.7-2.7,1.5-3.5s1.7-1.2,2.8-1.2
		c0.6,0,1.2,0.1,1.7,0.4c0.5,0.3,1,0.7,1.7,1.2c0.5,0.4,0.9,0.8,1.2,1c0.3,0.2,0.7,0.3,1.1,0.3c0.6,0,1.2-0.2,1.6-0.7
		s0.7-1.1,0.9-1.9h1.8c-0.2,1.5-0.7,2.6-1.5,3.4c-0.8,0.8-1.7,1.2-2.9,1.2C337.2,700.8,336.6,700.6,336.1,700.4z"/>
	<path d="M373.3,704.6l-4.5,22.6h-2.9l0.7-3.6c-1.1,1.2-2.4,2.1-3.9,2.8s-3.1,1-4.9,1c-1.9,0-3.6-0.4-5.1-1.2s-2.7-1.9-3.5-3.3
		c-0.8-1.4-1.2-3.1-1.2-5.1c0-2.6,0.6-4.8,1.7-6.9c1.1-2,2.6-3.6,4.6-4.8c1.9-1.2,4.1-1.7,6.5-1.7c2.1,0,4,0.4,5.4,1.3
		s2.5,2.1,3.2,3.6l0.9-4.7L373.3,704.6L373.3,704.6z M363.4,723.3c1.5-0.9,2.7-2.2,3.5-3.8s1.3-3.4,1.3-5.4c0-2.2-0.7-3.9-2-5.2
		c-1.3-1.2-3.1-1.9-5.5-1.9c-1.9,0-3.5,0.5-5,1.4s-2.7,2.2-3.5,3.8s-1.3,3.4-1.3,5.4c0,2.2,0.7,3.9,2,5.2c1.3,1.2,3.1,1.8,5.5,1.8
		C360.3,724.7,361.9,724.2,363.4,723.3z"/>
	<path d="M404.3,695.3l-6.4,31.9H395l0.7-3.6c-1.1,1.2-2.4,2.1-3.9,2.8s-3.1,1-4.9,1c-1.9,0-3.6-0.4-5.1-1.2s-2.7-1.9-3.5-3.3
		c-0.8-1.4-1.2-3.1-1.2-5.1c0-2.6,0.6-4.8,1.7-6.9c1.1-2,2.6-3.6,4.6-4.8c1.9-1.2,4.1-1.7,6.5-1.7c2.1,0,3.9,0.4,5.4,1.3
		c1.5,0.8,2.5,2.1,3.2,3.6l2.8-14H404.3z M392.6,723.3c1.5-0.9,2.7-2.2,3.5-3.8s1.3-3.4,1.3-5.4c0-2.2-0.7-3.9-2-5.2
		c-1.3-1.2-3.1-1.9-5.5-1.9c-1.9,0-3.5,0.5-5,1.4s-2.7,2.2-3.5,3.8s-1.3,3.4-1.3,5.4c0,2.2,0.7,3.9,2,5.2c1.3,1.2,3.1,1.8,5.5,1.8
		C389.4,724.7,391.1,724.2,392.6,723.3z"/>
	<path d="M410.9,704.6h3.1l-4.5,22.6h-3.1L410.9,704.6z M412.3,699c-0.4-0.4-0.6-0.9-0.6-1.4c0-0.7,0.2-1.2,0.7-1.7
		c0.4-0.4,1-0.7,1.7-0.7c0.6,0,1.1,0.2,1.5,0.6c0.4,0.4,0.6,0.8,0.6,1.4c0,0.7-0.2,1.3-0.7,1.7c-0.5,0.5-1,0.7-1.7,0.7
		C413.1,699.6,412.6,699.4,412.3,699z"/>
	<path d="M428.4,705.5c1.5-0.7,3.4-1.1,5.5-1.1l-0.6,3h-0.9c-2.4,0-4.4,0.7-6,2.1c-1.6,1.4-2.6,3.5-3.2,6.3l-2.3,11.5H418l4.5-22.6
		h2.9l-0.8,4.1C425.6,707.2,426.9,706.2,428.4,705.5z"/>
	<path d="M471.7,704.6l-6.2,31h-3.1l2.3-11.7c-1.1,1.2-2.3,2.1-3.8,2.7c-1.5,0.6-3.1,0.9-4.8,0.9c-1.9,0-3.6-0.4-5.1-1.2
		s-2.7-1.9-3.5-3.3c-0.8-1.4-1.2-3.1-1.2-5.1c0-2.6,0.6-4.8,1.7-6.9c1.1-2,2.6-3.6,4.6-4.8c1.9-1.2,4.1-1.7,6.5-1.7
		c2.2,0,4,0.4,5.5,1.3c1.5,0.9,2.5,2.2,3.2,3.8l1-4.9L471.7,704.6L471.7,704.6z M461.8,723.3c1.5-0.9,2.7-2.2,3.5-3.8
		s1.3-3.4,1.3-5.4c0-2.2-0.7-3.9-2-5.2c-1.3-1.2-3.1-1.9-5.5-1.9c-1.9,0-3.5,0.5-5,1.4s-2.7,2.2-3.5,3.8s-1.3,3.4-1.3,5.4
		c0,2.2,0.7,3.9,2,5.2c1.3,1.2,3.1,1.8,5.5,1.8C458.6,724.7,460.3,724.2,461.8,723.3z"/>
	<path d="M500.6,704.6l-4.5,22.6h-2.9l0.7-3.6c-2.1,2.6-5,3.8-8.7,3.8c-2.5,0-4.5-0.7-5.9-2s-2.1-3.1-2.1-5.4c0-0.8,0.1-1.6,0.3-2.5
		l2.6-12.9h3.1l-2.6,12.9c-0.1,0.8-0.2,1.5-0.2,2c0,1.7,0.5,2.9,1.4,3.8c1,0.9,2.4,1.3,4.3,1.3c2.4,0,4.4-0.7,6-2s2.6-3.3,3.2-5.9
		l2.4-12.2h2.9L500.6,704.6L500.6,704.6z"/>
	<path d="M507.4,716.7c0,0.2,0,0.5,0,0.9c0,2.3,0.7,4,2,5.2s3.2,1.8,5.8,1.8c1.5,0,2.9-0.3,4.2-0.8s2.4-1.2,3.2-2.1l1.4,2.2
		c-1.1,1.1-2.4,1.9-4,2.5s-3.3,0.9-5.1,0.9c-3.3,0-5.8-0.9-7.7-2.6c-1.9-1.7-2.8-4.1-2.8-7.1c0-2.5,0.5-4.8,1.6-6.8s2.6-3.6,4.5-4.8
		s4-1.7,6.4-1.7c3,0,5.4,0.9,7.2,2.6c1.8,1.7,2.7,4,2.7,7c0,0.8-0.1,1.7-0.3,2.8L507.4,716.7L507.4,716.7z M511,709
		c-1.6,1.3-2.7,3.2-3.3,5.5h16.1c0-0.2,0-0.5,0-0.8c0-2.1-0.6-3.8-1.9-4.9s-3-1.7-5.2-1.7C514.5,707,512.6,707.7,511,709z"/>
	<path d="M562.5,705.6c1.5,0.8,2.7,1.9,3.5,3.3c0.8,1.4,1.2,3.1,1.2,5.1c0,2.6-0.6,4.9-1.7,6.9c-1.1,2-2.6,3.7-4.6,4.8
		s-4.1,1.7-6.6,1.7c-2.2,0-4-0.4-5.4-1.3c-1.5-0.8-2.5-2.1-3.2-3.7l-2.6,13.1H540l6.1-31h2.9l-0.7,3.6c1.1-1.2,2.4-2.2,3.9-2.8
		s3.1-1,4.9-1C559.2,704.4,561,704.8,562.5,705.6z M559.4,723.3c1.5-0.9,2.6-2.2,3.5-3.8c0.8-1.6,1.3-3.4,1.3-5.5
		c0-2.2-0.7-3.9-2-5.2c-1.3-1.2-3.1-1.9-5.5-1.9c-1.9,0-3.5,0.5-5,1.4s-2.6,2.2-3.5,3.8c-0.8,1.6-1.3,3.4-1.3,5.5
		c0,2.2,0.7,3.9,2,5.2c1.3,1.2,3.1,1.8,5.5,1.8C556.2,724.7,557.9,724.2,559.4,723.3z"/>
	<path d="M595.9,704.6l-4.5,22.6h-2.9l0.7-3.6c-2.1,2.6-5,3.8-8.7,3.8c-2.5,0-4.5-0.7-5.9-2s-2.1-3.1-2.1-5.4c0-0.8,0.1-1.6,0.3-2.5
		l2.6-12.9h3.1l-2.6,12.9c-0.1,0.8-0.2,1.5-0.2,2c0,1.7,0.5,2.9,1.4,3.8c1,0.9,2.4,1.3,4.3,1.3c2.4,0,4.4-0.7,6-2s2.6-3.3,3.2-5.9
		l2.4-12.2h2.9V704.6z"/>
	<path d="M601.3,726.6c-1.6-0.5-2.9-1.2-3.8-2l1.5-2.4c0.9,0.7,2,1.3,3.4,1.8s2.9,0.7,4.4,0.7c2.1,0,3.8-0.4,5-1.1
		c1.2-0.7,1.7-1.7,1.7-3c0-0.7-0.2-1.3-0.7-1.7s-1.1-0.8-1.7-1c-0.7-0.2-1.7-0.5-3-0.8c-1.6-0.3-2.9-0.7-3.8-1
		c-1-0.3-1.8-0.9-2.5-1.6c-0.7-0.7-1-1.8-1-3.1c0-2.1,0.9-3.9,2.7-5.1c1.8-1.3,4.2-1.9,7.1-1.9c1.5,0,2.9,0.2,4.3,0.6
		c1.4,0.4,2.5,0.9,3.4,1.5L617,709c-0.9-0.6-1.9-1.1-3-1.4c-1.2-0.3-2.4-0.5-3.6-0.5c-2.1,0-3.7,0.4-4.8,1.1c-1.1,0.7-1.7,1.7-1.7,3
		c0,0.7,0.2,1.3,0.7,1.8s1.1,0.8,1.8,1s1.7,0.5,3,0.7c1.5,0.3,2.8,0.7,3.8,1s1.8,0.9,2.5,1.6c0.7,0.7,1,1.7,1,3
		c0,2.2-0.9,3.9-2.7,5.2c-1.8,1.2-4.3,1.9-7.3,1.9C604.7,727.4,603,727.2,601.3,726.6z"/>
	<path d="M623.8,716.7c0,0.2,0,0.5,0,0.9c0,2.3,0.7,4,2,5.2s3.2,1.8,5.8,1.8c1.5,0,2.9-0.3,4.2-0.8s2.4-1.2,3.2-2.1l1.4,2.2
		c-1.1,1.1-2.4,1.9-4,2.5s-3.3,0.9-5.1,0.9c-3.3,0-5.8-0.9-7.7-2.6c-1.9-1.7-2.8-4.1-2.8-7.1c0-2.5,0.5-4.8,1.6-6.8s2.6-3.6,4.5-4.8
		s4-1.7,6.4-1.7c3,0,5.4,0.9,7.2,2.6c1.8,1.7,2.7,4,2.7,7c0,0.8-0.1,1.7-0.3,2.8L623.8,716.7L623.8,716.7z M627.4,709
		c-1.6,1.3-2.7,3.2-3.3,5.5h16.1c0-0.2,0-0.5,0-0.8c0-2.1-0.6-3.8-1.9-4.9s-3-1.7-5.2-1.7C630.9,707,629,707.7,627.4,709z"/>
	<path d="M661,716.7c0,0.2,0,0.5,0,0.9c0,2.3,0.7,4,2,5.2s3.2,1.8,5.8,1.8c1.5,0,2.9-0.3,4.2-0.8s2.4-1.2,3.2-2.1l1.4,2.2
		c-1.1,1.1-2.4,1.9-4,2.5s-3.3,0.9-5.1,0.9c-3.3,0-5.8-0.9-7.7-2.6c-1.9-1.7-2.8-4.1-2.8-7.1c0-2.5,0.5-4.8,1.6-6.8s2.6-3.6,4.5-4.8
		s4-1.7,6.4-1.7c3,0,5.4,0.9,7.2,2.6c1.8,1.7,2.7,4,2.7,7c0,0.8-0.1,1.7-0.3,2.8L661,716.7L661,716.7z M664.6,709
		c-1.6,1.3-2.7,3.2-3.3,5.5h16.1c0-0.2,0-0.5,0-0.8c0-2.1-0.6-3.8-1.9-4.9s-3-1.7-5.2-1.7C668.1,707,666.2,707.7,664.6,709z"/>
	<path d="M705.6,706.4c1.4,1.3,2.1,3.1,2.1,5.4c0,0.8-0.1,1.7-0.3,2.6l-2.6,12.9h-3.1l2.6-12.9c0.1-0.8,0.2-1.5,0.2-2.1
		c0-1.6-0.5-2.9-1.5-3.8c-1-0.9-2.4-1.3-4.4-1.3c-2.4,0-4.4,0.7-6,2s-2.6,3.3-3.2,5.9l-2.4,12.1h-3.1l4.5-22.6h2.9l-0.7,3.6
		c2.2-2.5,5.1-3.8,8.9-3.8C702.2,704.4,704.2,705.1,705.6,706.4z"/>
	<path d="M745.2,705.6c1.5,0.8,2.7,1.9,3.5,3.3c0.8,1.4,1.2,3.1,1.2,5.1c0,2.6-0.6,4.9-1.7,6.9c-1.1,2-2.6,3.7-4.6,4.8
		c-2,1.2-4.1,1.7-6.6,1.7c-2.2,0-4-0.4-5.4-1.3c-1.5-0.8-2.5-2.1-3.2-3.7l-2.6,13.1h-3.1l6.1-31h2.9l-0.7,3.6
		c1.1-1.2,2.4-2.2,3.9-2.8s3.1-1,4.9-1C741.9,704.4,743.7,704.8,745.2,705.6z M742.1,723.3c1.5-0.9,2.6-2.2,3.5-3.8
		c0.8-1.6,1.3-3.4,1.3-5.5c0-2.2-0.7-3.9-2-5.2c-1.3-1.2-3.1-1.9-5.5-1.9c-1.9,0-3.5,0.5-5,1.4s-2.6,2.2-3.5,3.8
		c-0.8,1.6-1.3,3.4-1.3,5.5c0,2.2,0.7,3.9,2,5.2c1.3,1.2,3.1,1.8,5.5,1.8C738.9,724.7,740.6,724.2,742.1,723.3z"/>
	<path d="M764.1,705.5c1.5-0.7,3.4-1.1,5.5-1.1l-0.6,3h-0.9c-2.4,0-4.4,0.7-6,2.1c-1.6,1.4-2.6,3.5-3.2,6.3l-2.3,11.5h-3.1l4.5-22.6
		h2.9l-0.8,4.1C761.3,707.2,762.6,706.2,764.1,705.5z"/>
	<path d="M795.5,704.6l-4.5,22.6h-2.9l0.7-3.6c-1.1,1.2-2.4,2.1-3.9,2.8s-3.1,1-4.9,1c-1.9,0-3.6-0.4-5.1-1.2s-2.7-1.9-3.5-3.3
		s-1.2-3.1-1.2-5.1c0-2.6,0.6-4.8,1.7-6.9c1.1-2,2.6-3.6,4.6-4.8c1.9-1.2,4.1-1.7,6.5-1.7c2.1,0,4,0.4,5.4,1.3s2.5,2.1,3.2,3.6
		l0.9-4.7L795.5,704.6L795.5,704.6z M785.7,723.3c1.5-0.9,2.7-2.2,3.5-3.8s1.3-3.4,1.3-5.4c0-2.2-0.7-3.9-2-5.2
		c-1.3-1.2-3.1-1.9-5.5-1.9c-1.9,0-3.5,0.5-5,1.4s-2.7,2.2-3.5,3.8s-1.3,3.4-1.3,5.4c0,2.2,0.7,3.9,2,5.2c1.3,1.2,3.1,1.8,5.5,1.8
		C782.5,724.7,784.2,724.2,785.7,723.3z M789.1,695.7h4.2l-7.5,5.3h-3.2L789.1,695.7z"/>
	<path d="M804.2,726.2c-1.6-0.8-2.8-1.9-3.6-3.4s-1.3-3.1-1.3-5.1c0-2.6,0.6-4.8,1.7-6.9c1.1-2,2.7-3.6,4.7-4.8s4.3-1.7,6.8-1.7
		c2.1,0,3.9,0.4,5.4,1.1s2.7,1.9,3.5,3.4l-2.6,1.5c-1.3-2.2-3.5-3.4-6.6-3.4c-1.9,0-3.5,0.5-5.1,1.4c-1.5,0.9-2.7,2.2-3.5,3.8
		s-1.3,3.4-1.3,5.5c0,2.2,0.7,3.9,2,5.2c1.3,1.2,3.2,1.8,5.6,1.8c1.5,0,2.8-0.3,4.1-0.8c1.2-0.6,2.3-1.4,3.1-2.4l2.2,1.7
		c-1,1.3-2.3,2.4-4,3.2s-3.5,1.1-5.4,1.1C807.6,727.4,805.8,727,804.2,726.2z"/>
	<path d="M828.9,720.4c-0.1,0.7-0.2,1.2-0.2,1.4c0,2,1.1,3,3.3,3c1.3,0,2.5-0.4,3.5-1.2l0.7,2.3c-1.3,1-3,1.5-5,1.5
		c-1.7,0-3-0.5-4-1.4s-1.5-2.2-1.5-3.8c0-0.6,0.1-1.2,0.2-1.8l2.6-13.3h-4l0.5-2.6h4l1-4.9h3.1l-1,4.9h6.9l-0.5,2.6h-6.9
		L828.9,720.4z"/>
	<path d="M845.9,704.6h3.1l-4.5,22.6h-3.1L845.9,704.6z M847.3,699c-0.4-0.4-0.6-0.9-0.6-1.4c0-0.7,0.2-1.2,0.7-1.7
		c0.4-0.4,1-0.7,1.7-0.7c0.6,0,1.1,0.2,1.5,0.6c0.4,0.4,0.6,0.8,0.6,1.4c0,0.7-0.2,1.3-0.7,1.7c-0.5,0.5-1,0.7-1.7,0.7
		C848.2,699.6,847.7,699.4,847.3,699z"/>
	<path d="M857.7,726.2c-1.6-0.8-2.8-1.9-3.6-3.4s-1.3-3.1-1.3-5.1c0-2.6,0.6-4.8,1.7-6.9c1.1-2,2.7-3.6,4.7-4.8s4.3-1.7,6.8-1.7
		c2.1,0,3.9,0.4,5.4,1.1s2.7,1.9,3.5,3.4l-2.6,1.5c-1.3-2.2-3.5-3.4-6.6-3.4c-1.9,0-3.5,0.5-5.1,1.4c-1.5,0.9-2.7,2.2-3.5,3.8
		s-1.3,3.4-1.3,5.5c0,2.2,0.7,3.9,2,5.2c1.3,1.2,3.2,1.8,5.6,1.8c1.5,0,2.8-0.3,4.1-0.8c1.2-0.6,2.3-1.4,3.1-2.4l2.2,1.7
		c-1,1.3-2.3,2.4-4,3.2s-3.5,1.1-5.4,1.1C861.1,727.4,859.3,727,857.7,726.2z"/>
	<path d="M902,704.6l-4.5,22.6h-2.9l0.7-3.6c-1.1,1.2-2.4,2.1-3.9,2.8s-3.1,1-4.9,1c-1.9,0-3.6-0.4-5.1-1.2s-2.7-1.9-3.5-3.3
		s-1.2-3.1-1.2-5.1c0-2.6,0.6-4.8,1.7-6.9c1.1-2,2.6-3.6,4.6-4.8c1.9-1.2,4.1-1.7,6.5-1.7c2.1,0,4,0.4,5.4,1.3s2.5,2.1,3.2,3.6
		l0.9-4.7L902,704.6L902,704.6z M892.2,723.3c1.5-0.9,2.7-2.2,3.5-3.8s1.3-3.4,1.3-5.4c0-2.2-0.7-3.9-2-5.2
		c-1.3-1.2-3.1-1.9-5.5-1.9c-1.9,0-3.5,0.5-5,1.4s-2.7,2.2-3.5,3.8s-1.3,3.4-1.3,5.4c0,2.2,0.7,3.9,2,5.2c1.3,1.2,3.1,1.8,5.5,1.8
		C889,724.7,890.7,724.2,892.2,723.3z"/>
	<path d="M923.6,695.3h3.1l-6.4,31.9h-3.1L923.6,695.3z"/>
	<path d="M933.5,726.2c-1.5-0.8-2.7-1.9-3.6-3.4s-1.3-3.1-1.3-5.1c0-2.6,0.6-4.8,1.7-6.9c1.1-2,2.7-3.6,4.7-4.8s4.2-1.7,6.7-1.7
		c3.2,0,5.7,0.9,7.5,2.6c1.8,1.7,2.8,4,2.8,7c0,2.6-0.6,4.9-1.7,6.9c-1.1,2-2.7,3.7-4.7,4.8c-2,1.2-4.2,1.7-6.7,1.7
		C936.8,727.4,935,727,933.5,726.2z M944.1,723.3c1.5-0.9,2.7-2.2,3.5-3.8s1.3-3.4,1.3-5.4c0-2.2-0.7-3.9-2-5.2
		c-1.3-1.2-3.1-1.9-5.5-1.9c-1.9,0-3.5,0.5-5,1.4s-2.7,2.2-3.5,3.8s-1.3,3.4-1.3,5.4c0,2.2,0.7,3.9,2,5.2c1.3,1.2,3.1,1.8,5.5,1.8
		C941,724.7,942.6,724.2,944.1,723.3z"/>
	<path d="M957.2,726.6c-1.6-0.5-2.9-1.2-3.8-2l1.5-2.4c0.9,0.7,2,1.3,3.4,1.8s2.9,0.7,4.4,0.7c2.1,0,3.8-0.4,5-1.1
		c1.2-0.7,1.7-1.7,1.7-3c0-0.7-0.2-1.3-0.7-1.7s-1.1-0.8-1.7-1c-0.7-0.2-1.7-0.5-3-0.8c-1.6-0.3-2.9-0.7-3.8-1
		c-1-0.3-1.8-0.9-2.5-1.6c-0.7-0.7-1-1.8-1-3.1c0-2.1,0.9-3.9,2.7-5.1c1.8-1.3,4.2-1.9,7.1-1.9c1.5,0,2.9,0.2,4.3,0.6
		c1.4,0.4,2.5,0.9,3.4,1.5l-1.3,2.5c-0.9-0.6-1.9-1.1-3-1.4c-1.2-0.3-2.4-0.5-3.6-0.5c-2.1,0-3.7,0.4-4.8,1.1
		c-1.1,0.7-1.7,1.7-1.7,3c0,0.7,0.2,1.3,0.7,1.8s1.1,0.8,1.8,1s1.7,0.5,3,0.7c1.5,0.3,2.8,0.7,3.8,1s1.8,0.9,2.5,1.6
		c0.7,0.7,1,1.7,1,3c0,2.2-0.9,3.9-2.7,5.2c-1.8,1.2-4.3,1.9-7.3,1.9C960.6,727.4,958.8,727.2,957.2,726.6z"/>
	<path d="M100.3,777.8c-1.6-0.8-2.8-1.9-3.6-3.4c-0.8-1.4-1.3-3.1-1.3-5.1c0-2.6,0.6-4.8,1.7-6.9c1.1-2,2.7-3.6,4.7-4.8
		s4.3-1.7,6.8-1.7c2.1,0,3.9,0.4,5.4,1.1c1.5,0.8,2.7,1.9,3.5,3.4l-2.6,1.5c-1.3-2.2-3.5-3.4-6.6-3.4c-1.9,0-3.5,0.5-5.1,1.4
		c-1.5,0.9-2.7,2.2-3.5,3.8s-1.3,3.4-1.3,5.5c0,2.2,0.7,3.9,2,5.2c1.3,1.2,3.2,1.8,5.6,1.8c1.5,0,2.8-0.3,4.1-0.8
		c1.2-0.6,2.3-1.4,3.1-2.4l2.2,1.7c-1,1.3-2.3,2.4-4,3.2s-3.5,1.1-5.4,1.1C103.7,779,101.9,778.6,100.3,777.8z"/>
	<path d="M124.1,777.8c-1.5-0.8-2.7-1.9-3.6-3.4c-0.8-1.4-1.3-3.1-1.3-5.1c0-2.6,0.6-4.8,1.7-6.9c1.1-2,2.7-3.6,4.7-4.8
		s4.2-1.7,6.7-1.7c3.2,0,5.7,0.9,7.5,2.6c1.8,1.7,2.8,4,2.8,7c0,2.6-0.6,4.9-1.7,6.9c-1.1,2-2.7,3.7-4.7,4.8c-2,1.2-4.2,1.7-6.7,1.7
		C127.5,779,125.6,778.6,124.1,777.8z M134.8,774.9c1.5-0.9,2.7-2.2,3.5-3.8s1.3-3.4,1.3-5.4c0-2.2-0.7-3.9-2-5.2
		c-1.3-1.2-3.1-1.9-5.5-1.9c-1.9,0-3.5,0.5-5,1.4s-2.7,2.2-3.5,3.8s-1.3,3.4-1.3,5.4c0,2.2,0.7,3.9,2,5.2c1.3,1.2,3.1,1.8,5.5,1.8
		C131.6,776.3,133.3,775.8,134.8,774.9z"/>
	<path d="M167.9,758c1.4,1.3,2.1,3.1,2.1,5.4c0,0.8-0.1,1.7-0.3,2.6l-2.6,12.9H164l2.6-12.9c0.1-0.8,0.2-1.5,0.2-2.1
		c0-1.6-0.5-2.9-1.5-3.8c-1-0.9-2.4-1.3-4.4-1.3c-2.4,0-4.4,0.7-6,2s-2.6,3.3-3.2,5.9l-2.4,12.1h-3.1l4.5-22.6h2.9l-0.7,3.6
		c2.1-2.5,5.1-3.8,8.9-3.8C164.5,756,166.5,756.7,167.9,758z"/>
	<path d="M176.9,778.2c-1.6-0.5-2.9-1.2-3.8-2l1.5-2.4c0.9,0.7,2,1.3,3.4,1.8s2.9,0.7,4.4,0.7c2.1,0,3.8-0.4,5-1.1
		c1.2-0.7,1.7-1.7,1.7-3c0-0.7-0.2-1.3-0.7-1.7s-1.1-0.8-1.7-1c-0.7-0.2-1.7-0.5-3-0.8c-1.6-0.3-2.9-0.7-3.8-1s-1.8-0.9-2.5-1.6
		s-1-1.8-1-3.1c0-2.1,0.9-3.9,2.7-5.1c1.8-1.3,4.2-1.9,7.1-1.9c1.5,0,2.9,0.2,4.3,0.6c1.4,0.4,2.5,0.9,3.4,1.5l-1.3,2.5
		c-0.9-0.6-1.9-1.1-3-1.4c-1.2-0.3-2.4-0.5-3.6-0.5c-2.1,0-3.7,0.4-4.8,1.1c-1.1,0.7-1.7,1.7-1.7,3c0,0.7,0.2,1.3,0.7,1.8
		s1.1,0.8,1.8,1s1.7,0.5,3,0.7c1.5,0.3,2.8,0.7,3.8,1s1.8,0.9,2.5,1.6s1,1.7,1,3c0,2.2-0.9,3.9-2.7,5.2c-1.8,1.2-4.3,1.9-7.3,1.9
		C180.3,779,178.6,778.8,176.9,778.2z"/>
	<path d="M199.4,768.3c0,0.2,0,0.5,0,0.9c0,2.3,0.7,4,2,5.2s3.2,1.8,5.8,1.8c1.5,0,2.9-0.3,4.2-0.8s2.4-1.2,3.2-2.1l1.4,2.2
		c-1.1,1.1-2.4,1.9-4,2.5s-3.3,0.9-5.1,0.9c-3.3,0-5.8-0.9-7.7-2.6c-1.9-1.7-2.8-4.1-2.8-7.1c0-2.5,0.5-4.8,1.6-6.8s2.6-3.6,4.5-4.8
		s4-1.7,6.4-1.7c3,0,5.4,0.9,7.2,2.6c1.8,1.7,2.7,4,2.7,7c0,0.8-0.1,1.7-0.3,2.8L199.4,768.3L199.4,768.3z M203,760.6
		c-1.6,1.3-2.7,3.2-3.3,5.5h16.1c0-0.2,0-0.5,0-0.8c0-2.1-0.6-3.8-1.9-4.9s-3-1.7-5.2-1.7C206.5,758.6,204.6,759.3,203,760.6z"/>
	<path d="M215.1,787c-0.8-0.2-1.5-0.6-2.1-1.1l1.4-2.4c0.9,0.8,2,1.2,3.4,1.2c1.2,0,2.2-0.3,3-1c0.7-0.7,1.3-1.8,1.5-3.3l4.9-24.3
		h3.1l-4.9,24.3c-0.9,4.6-3.5,6.8-7.6,6.8C216.8,787.3,215.9,787.2,215.1,787z M228.5,750.6c-0.4-0.4-0.6-0.9-0.6-1.4
		c0-0.7,0.2-1.2,0.7-1.7c0.4-0.4,1-0.7,1.7-0.7c0.6,0,1.1,0.2,1.5,0.6c0.4,0.4,0.6,0.8,0.6,1.4c0,0.7-0.2,1.3-0.7,1.7
		c-0.5,0.5-1,0.7-1.7,0.7C229.4,751.2,228.9,751,228.5,750.6z"/>
	<path d="M239,777.8c-1.5-0.8-2.7-1.9-3.6-3.4c-0.8-1.4-1.3-3.1-1.3-5.1c0-2.6,0.6-4.8,1.7-6.9c1.1-2,2.7-3.6,4.7-4.8
		s4.2-1.7,6.7-1.7c3.2,0,5.7,0.9,7.5,2.6c1.8,1.7,2.8,4,2.8,7c0,2.6-0.6,4.9-1.7,6.9c-1.1,2-2.7,3.7-4.7,4.8c-2,1.2-4.2,1.7-6.7,1.7
		C242.3,779,240.5,778.6,239,777.8z M249.6,774.9c1.5-0.9,2.7-2.2,3.5-3.8s1.3-3.4,1.3-5.4c0-2.2-0.7-3.9-2-5.2
		c-1.3-1.2-3.1-1.9-5.5-1.9c-1.9,0-3.5,0.5-5,1.4s-2.7,2.2-3.5,3.8s-1.3,3.4-1.3,5.4c0,2.2,0.7,3.9,2,5.2c1.3,1.2,3.1,1.8,5.5,1.8
		C246.4,776.3,248.1,775.8,249.6,774.9z"/>
	<path d="M262.7,778.2c-1.6-0.5-2.9-1.2-3.8-2l1.5-2.4c0.9,0.7,2,1.3,3.4,1.8s2.9,0.7,4.4,0.7c2.1,0,3.8-0.4,5-1.1
		c1.2-0.7,1.7-1.7,1.7-3c0-0.7-0.2-1.3-0.7-1.7s-1.1-0.8-1.7-1c-0.7-0.2-1.7-0.5-3-0.8c-1.6-0.3-2.9-0.7-3.8-1s-1.8-0.9-2.5-1.6
		s-1-1.8-1-3.1c0-2.1,0.9-3.9,2.7-5.1c1.8-1.3,4.2-1.9,7.1-1.9c1.5,0,2.9,0.2,4.3,0.6c1.4,0.4,2.5,0.9,3.4,1.5l-1.3,2.5
		c-0.9-0.6-1.9-1.1-3-1.4c-1.2-0.3-2.4-0.5-3.6-0.5c-2.1,0-3.7,0.4-4.8,1.1c-1.1,0.7-1.7,1.7-1.7,3c0,0.7,0.2,1.3,0.7,1.8
		s1.1,0.8,1.8,1c0.7,0.2,1.7,0.5,3,0.7c1.5,0.3,2.8,0.7,3.8,1s1.8,0.9,2.5,1.6s1,1.7,1,3c0,2.2-0.9,3.9-2.7,5.2
		c-1.8,1.2-4.3,1.9-7.3,1.9C266,779,264.3,778.8,262.7,778.2z"/>
	<path d="M317.1,756.2l-16.5,25.5c-1.4,2.1-2.7,3.6-3.9,4.4c-1.2,0.8-2.6,1.2-4.3,1.2c-1.1,0-2.1-0.2-3.1-0.5s-1.7-0.9-2.3-1.5
		l1.6-2.2c1,1.1,2.4,1.6,4,1.6c1,0,1.9-0.3,2.7-0.8c0.8-0.5,1.6-1.5,2.5-2.8l1.6-2.4l-5.6-22.5h3.1l4.7,19.3l12.3-19.3H317.1z"/>
	<path d="M353.3,756.2l-6.2,31H344l2.3-11.7c-1.1,1.2-2.3,2.1-3.8,2.7c-1.5,0.6-3.1,0.9-4.8,0.9c-1.9,0-3.6-0.4-5.1-1.2
		s-2.7-1.9-3.5-3.3c-0.8-1.4-1.2-3.1-1.2-5.1c0-2.6,0.6-4.8,1.7-6.9c1.1-2,2.6-3.6,4.6-4.8c1.9-1.2,4.1-1.7,6.5-1.7
		c2.2,0,4,0.4,5.5,1.3c1.5,0.9,2.5,2.2,3.2,3.8l1-4.9L353.3,756.2L353.3,756.2z M343.4,774.9c1.5-0.9,2.7-2.2,3.5-3.8
		s1.3-3.4,1.3-5.4c0-2.2-0.7-3.9-2-5.2c-1.3-1.2-3.1-1.9-5.5-1.9c-1.9,0-3.5,0.5-5,1.4s-2.7,2.2-3.5,3.8s-1.3,3.4-1.3,5.4
		c0,2.2,0.7,3.9,2,5.2c1.3,1.2,3.1,1.8,5.5,1.8C340.3,776.3,341.9,775.8,343.4,774.9z"/>
	<path d="M382.2,756.2l-4.5,22.6h-2.9l0.7-3.6c-2.1,2.6-5,3.8-8.7,3.8c-2.5,0-4.5-0.7-5.9-2s-2.1-3.1-2.1-5.4c0-0.8,0.1-1.6,0.3-2.5
		l2.6-12.9h3.1l-2.6,12.9c-0.1,0.8-0.2,1.5-0.2,2c0,1.7,0.5,2.9,1.4,3.8c1,0.9,2.4,1.3,4.3,1.3c2.4,0,4.4-0.7,6-2s2.6-3.3,3.2-5.9
		l2.4-12.2h2.9L382.2,756.2L382.2,756.2z"/>
	<path d="M389.1,768.3c0,0.2,0,0.5,0,0.9c0,2.3,0.7,4,2,5.2s3.2,1.8,5.8,1.8c1.5,0,2.9-0.3,4.2-0.8c1.3-0.5,2.4-1.2,3.2-2.1l1.4,2.2
		c-1.1,1.1-2.4,1.9-4,2.5s-3.3,0.9-5.1,0.9c-3.3,0-5.8-0.9-7.7-2.6c-1.9-1.7-2.8-4.1-2.8-7.1c0-2.5,0.5-4.8,1.6-6.8s2.6-3.6,4.5-4.8
		s4-1.7,6.4-1.7c3,0,5.4,0.9,7.2,2.6c1.8,1.7,2.7,4,2.7,7c0,0.8-0.1,1.7-0.3,2.8L389.1,768.3L389.1,768.3z M392.6,760.6
		c-1.6,1.3-2.7,3.2-3.3,5.5h16.1c0-0.2,0-0.5,0-0.8c0-2.1-0.6-3.8-1.9-4.9s-3-1.7-5.2-1.7C396.2,758.6,394.2,759.3,392.6,760.6z"/>
	<path d="M433.6,750.3c-0.8,0.7-1.3,1.8-1.6,3.4l-0.5,2.5h6.9l-0.5,2.6H431l-4,20h-3l4-20h-4l0.5-2.6h4.1l0.6-2.8
		c0.4-2.2,1.3-3.8,2.6-4.9c1.3-1.1,3-1.7,5.1-1.7c0.9,0,1.8,0.1,2.6,0.4c0.8,0.3,1.5,0.6,2,1.1l-1.3,2.2c-0.8-0.7-1.9-1.1-3.2-1.1
		C435.4,749.3,434.4,749.6,433.6,750.3z"/>
	<path d="M462.9,756.2l-4.5,22.6h-2.9l0.7-3.6c-2.1,2.6-5,3.8-8.7,3.8c-2.5,0-4.5-0.7-5.9-2s-2.1-3.1-2.1-5.4c0-0.8,0.1-1.6,0.3-2.5
		l2.6-12.9h3.1l-2.6,12.9c-0.1,0.8-0.2,1.5-0.2,2c0,1.7,0.5,2.9,1.4,3.8c1,0.9,2.4,1.3,4.3,1.3c2.4,0,4.4-0.7,6-2s2.6-3.3,3.2-5.9
		l2.4-12.2h2.9L462.9,756.2L462.9,756.2z"/>
	<path d="M488.5,758c1.4,1.3,2.1,3.1,2.1,5.4c0,0.8-0.1,1.7-0.3,2.6l-2.6,12.9h-3.1l2.6-12.9c0.1-0.8,0.2-1.5,0.2-2.1
		c0-1.6-0.5-2.9-1.5-3.8c-1-0.9-2.4-1.3-4.4-1.3c-2.4,0-4.4,0.7-6,2s-2.6,3.3-3.2,5.9l-2.4,12.1H467l4.5-22.6h2.9l-0.7,3.6
		c2.1-2.5,5.1-3.8,8.9-3.8C485.1,756,487,756.7,488.5,758z"/>
	<path d="M500.9,777.8c-1.6-0.8-2.8-1.9-3.6-3.4c-0.8-1.4-1.3-3.1-1.3-5.1c0-2.6,0.6-4.8,1.7-6.9c1.1-2,2.7-3.6,4.7-4.8
		s4.3-1.7,6.8-1.7c2.1,0,3.9,0.4,5.4,1.1c1.5,0.8,2.7,1.9,3.5,3.4l-2.6,1.5c-1.3-2.2-3.5-3.4-6.6-3.4c-1.9,0-3.5,0.5-5.1,1.4
		c-1.5,0.9-2.7,2.2-3.5,3.8s-1.3,3.4-1.3,5.5c0,2.2,0.7,3.9,2,5.2c1.3,1.2,3.2,1.8,5.6,1.8c1.5,0,2.8-0.3,4.1-0.8
		c1.2-0.6,2.3-1.4,3.1-2.4l2.2,1.7c-1,1.3-2.3,2.4-4,3.2s-3.5,1.1-5.4,1.1C504.3,779,502.4,778.6,500.9,777.8z"/>
	<path d="M524.9,756.2h3.1l-4.5,22.6h-3.1L524.9,756.2z M526.2,750.6c-0.4-0.4-0.6-0.9-0.6-1.4c0-0.7,0.2-1.2,0.7-1.7
		c0.4-0.4,1-0.7,1.7-0.7c0.6,0,1.1,0.2,1.5,0.6c0.4,0.4,0.6,0.8,0.6,1.4c0,0.7-0.2,1.3-0.7,1.7c-0.5,0.5-1,0.7-1.7,0.7
		C527.1,751.2,526.6,751,526.2,750.6z"/>
	<path d="M536.6,777.8c-1.5-0.8-2.7-1.9-3.6-3.4c-0.8-1.4-1.3-3.1-1.3-5.1c0-2.6,0.6-4.8,1.7-6.9c1.1-2,2.7-3.6,4.7-4.8
		s4.2-1.7,6.7-1.7c3.2,0,5.7,0.9,7.5,2.6s2.8,4,2.8,7c0,2.6-0.6,4.9-1.7,6.9c-1.1,2-2.7,3.7-4.7,4.8c-2,1.2-4.2,1.7-6.7,1.7
		C539.9,779,538.1,778.6,536.6,777.8z M547.3,774.9c1.5-0.9,2.7-2.2,3.5-3.8s1.3-3.4,1.3-5.4c0-2.2-0.7-3.9-2-5.2s-3.1-1.9-5.5-1.9
		c-1.9,0-3.5,0.5-5,1.4s-2.7,2.2-3.5,3.8s-1.3,3.4-1.3,5.4c0,2.2,0.7,3.9,2,5.2c1.3,1.2,3.1,1.8,5.5,1.8
		C544.1,776.3,545.8,775.8,547.3,774.9z"/>
	<path d="M580.4,758c1.4,1.3,2.1,3.1,2.1,5.4c0,0.8-0.1,1.7-0.3,2.6l-2.6,12.9h-3.1l2.6-12.9c0.1-0.8,0.2-1.5,0.2-2.1
		c0-1.6-0.5-2.9-1.5-3.8c-1-0.9-2.4-1.3-4.4-1.3c-2.4,0-4.4,0.7-6,2s-2.6,3.3-3.2,5.9l-2.4,12.1h-3.1l4.5-22.6h2.9l-0.7,3.6
		c2.2-2.5,5.1-3.8,8.9-3.8C577,756,579,756.7,580.4,758z"/>
	<path d="M613.3,756.2l-4.5,22.6h-2.9l0.7-3.6c-1.1,1.2-2.4,2.1-3.9,2.8s-3.1,1-4.9,1c-1.9,0-3.6-0.4-5.1-1.2s-2.7-1.9-3.5-3.3
		s-1.2-3.1-1.2-5.1c0-2.6,0.6-4.8,1.7-6.9c1.1-2,2.6-3.6,4.6-4.8c1.9-1.2,4.1-1.7,6.5-1.7c2.1,0,4,0.4,5.4,1.3s2.5,2.1,3.2,3.6
		l0.9-4.7L613.3,756.2L613.3,756.2z M603.4,774.9c1.5-0.9,2.7-2.2,3.5-3.8s1.3-3.4,1.3-5.4c0-2.2-0.7-3.9-2-5.2
		c-1.3-1.2-3.1-1.9-5.5-1.9c-1.9,0-3.5,0.5-5,1.4s-2.7,2.2-3.5,3.8s-1.3,3.4-1.3,5.4c0,2.2,0.7,3.9,2,5.2c1.3,1.2,3.1,1.8,5.5,1.8
		C600.2,776.3,601.9,775.8,603.4,774.9z"/>
	<path d="M627.7,757.1c1.5-0.7,3.4-1.1,5.5-1.1l-0.6,3h-0.9c-2.4,0-4.4,0.7-6,2.1c-1.6,1.4-2.6,3.5-3.2,6.3l-2.3,11.5h-3.1l4.5-22.6
		h2.9l-0.8,4.1C624.9,758.8,626.1,757.8,627.7,757.1z"/>
	<path d="M638.6,777.8c-1.5-0.8-2.7-1.9-3.6-3.4s-1.3-3.1-1.3-5.1c0-2.6,0.6-4.8,1.7-6.9c1.1-2,2.7-3.6,4.7-4.8s4.2-1.7,6.7-1.7
		c3.2,0,5.7,0.9,7.5,2.6c1.8,1.7,2.8,4,2.8,7c0,2.6-0.6,4.9-1.7,6.9c-1.1,2-2.7,3.7-4.7,4.8c-2,1.2-4.2,1.7-6.7,1.7
		C641.9,779,640.1,778.6,638.6,777.8z M649.3,774.9c1.5-0.9,2.7-2.2,3.5-3.8s1.3-3.4,1.3-5.4c0-2.2-0.7-3.9-2-5.2
		c-1.3-1.2-3.1-1.9-5.5-1.9c-1.9,0-3.5,0.5-5,1.4s-2.7,2.2-3.5,3.8s-1.3,3.4-1.3,5.4c0,2.2,0.7,3.9,2,5.2c1.3,1.2,3.1,1.8,5.5,1.8
		C646.1,776.3,647.8,775.8,649.3,774.9z"/>
	<path d="M682.4,758c1.4,1.3,2.1,3.1,2.1,5.4c0,0.8-0.1,1.7-0.3,2.6l-2.6,12.9h-3.1l2.6-12.9c0.1-0.8,0.2-1.5,0.2-2.1
		c0-1.6-0.5-2.9-1.5-3.8c-1-0.9-2.4-1.3-4.4-1.3c-2.4,0-4.4,0.7-6,2s-2.6,3.3-3.2,5.9l-2.4,12.1h-3.1l4.5-22.6h2.9l-0.7,3.6
		c2.2-2.5,5.1-3.8,8.9-3.8C679,756,681,756.7,682.4,758z"/>
	<path d="M707.6,746.9h3.1l-6.4,31.9h-3.1L707.6,746.9z"/>
	<path d="M738,756.2l-4.5,22.6h-2.9l0.7-3.6c-1.1,1.2-2.4,2.1-3.9,2.8s-3.1,1-4.9,1c-1.9,0-3.6-0.4-5.1-1.2s-2.7-1.9-3.5-3.3
		s-1.2-3.1-1.2-5.1c0-2.6,0.6-4.8,1.7-6.9c1.1-2,2.6-3.6,4.6-4.8c1.9-1.2,4.1-1.7,6.5-1.7c2.1,0,4,0.4,5.4,1.3s2.5,2.1,3.2,3.6
		l0.9-4.7L738,756.2L738,756.2z M728.2,774.9c1.5-0.9,2.7-2.2,3.5-3.8s1.3-3.4,1.3-5.4c0-2.2-0.7-3.9-2-5.2
		c-1.3-1.2-3.1-1.9-5.5-1.9c-1.9,0-3.5,0.5-5,1.4s-2.7,2.2-3.5,3.8s-1.3,3.4-1.3,5.4c0,2.2,0.7,3.9,2,5.2c1.3,1.2,3.1,1.8,5.5,1.8
		C725,776.3,726.7,775.8,728.2,774.9z"/>
	<path d="M773.9,757.2c1.5,0.8,2.7,1.9,3.5,3.3c0.8,1.4,1.2,3.1,1.2,5.1c0,2.6-0.6,4.9-1.7,6.9c-1.1,2-2.6,3.7-4.6,4.8
		c-2,1.2-4.1,1.7-6.6,1.7c-2.2,0-4-0.4-5.4-1.3c-1.5-0.8-2.5-2.1-3.2-3.7l-2.6,13.1h-3.1l6.1-31h2.9l-0.7,3.6
		c1.1-1.2,2.4-2.2,3.9-2.8s3.1-1,4.9-1C770.7,756,772.4,756.4,773.9,757.2z M770.8,774.9c1.5-0.9,2.6-2.2,3.5-3.8
		c0.8-1.6,1.3-3.4,1.3-5.5c0-2.2-0.7-3.9-2-5.2c-1.3-1.2-3.1-1.9-5.5-1.9c-1.9,0-3.5,0.5-5,1.4s-2.6,2.2-3.5,3.8
		c-0.8,1.6-1.3,3.4-1.3,5.5c0,2.2,0.7,3.9,2,5.2c1.3,1.2,3.1,1.8,5.5,1.8C767.6,776.3,769.3,775.8,770.8,774.9z"/>
	<path d="M792.8,757.1c1.5-0.7,3.4-1.1,5.5-1.1l-0.6,3h-0.9c-2.4,0-4.4,0.7-6,2.1c-1.6,1.4-2.6,3.5-3.2,6.3l-2.3,11.5h-3.1l4.5-22.6
		h2.9l-0.8,4.1C790,758.8,791.3,757.8,792.8,757.1z"/>
	<path d="M803.8,756.2h3.1l-4.5,22.6h-3.1L803.8,756.2z M805.1,750.6c-0.4-0.4-0.6-0.9-0.6-1.4c0-0.7,0.2-1.2,0.7-1.7
		c0.4-0.4,1-0.7,1.7-0.7c0.6,0,1.1,0.2,1.5,0.6c0.4,0.4,0.6,0.8,0.6,1.4c0,0.7-0.2,1.3-0.7,1.7c-0.5,0.5-1,0.7-1.7,0.7
		C806,751.2,805.5,751,805.1,750.6z"/>
	<path d="M849,757.9c1.4,1.3,2.1,3.1,2.1,5.4c0,0.7-0.1,1.5-0.3,2.7l-2.6,12.9h-3.1l2.6-12.9c0.1-0.7,0.2-1.4,0.2-2.1
		c0-1.6-0.5-2.8-1.4-3.7s-2.3-1.3-4.2-1.3c-2.3,0-4.2,0.6-5.7,1.9c-1.5,1.3-2.5,3.2-3.1,5.7L831,779h-3l2.6-12.9
		c0.1-0.8,0.2-1.5,0.2-2.1c0-1.6-0.5-2.9-1.4-3.8c-0.9-0.9-2.3-1.3-4.2-1.3c-2.3,0-4.2,0.7-5.8,2c-1.5,1.3-2.6,3.3-3.1,5.9
		l-2.4,12.1h-3.1l4.5-22.6h2.9l-0.7,3.6c2.1-2.5,4.9-3.8,8.6-3.8c1.9,0,3.5,0.4,4.8,1.2s2.2,1.9,2.6,3.4c1.1-1.5,2.5-2.6,4.1-3.4
		s3.4-1.1,5.4-1.1C845.6,756,847.6,756.6,849,757.9z"/>
	<path d="M859.4,768.3c0,0.2,0,0.5,0,0.9c0,2.3,0.7,4,2,5.2s3.2,1.8,5.8,1.8c1.5,0,2.9-0.3,4.2-0.8s2.4-1.2,3.2-2.1l1.4,2.2
		c-1.1,1.1-2.4,1.9-4,2.5s-3.3,0.9-5.1,0.9c-3.3,0-5.8-0.9-7.7-2.6c-1.9-1.7-2.8-4.1-2.8-7.1c0-2.5,0.5-4.8,1.6-6.8s2.6-3.6,4.5-4.8
		s4-1.7,6.4-1.7c3,0,5.4,0.9,7.2,2.6c1.8,1.7,2.7,4,2.7,7c0,0.8-0.1,1.7-0.3,2.8L859.4,768.3L859.4,768.3z M863,760.6
		c-1.6,1.3-2.7,3.2-3.3,5.5h16.1c0-0.2,0-0.5,0-0.8c0-2.1-0.6-3.8-1.9-4.9s-3-1.7-5.2-1.7C866.5,758.6,864.6,759.3,863,760.6z"/>
	<path d="M893,757.1c1.5-0.7,3.4-1.1,5.5-1.1l-0.6,3H897c-2.4,0-4.4,0.7-6,2.1c-1.6,1.4-2.6,3.5-3.2,6.3l-2.3,11.5h-3.1l4.5-22.6
		h2.9l-0.8,4.1C890.2,758.8,891.4,757.8,893,757.1z"/>
	<path d="M924.4,756.2l-4.5,22.6H917l0.7-3.6c-1.1,1.2-2.4,2.1-3.9,2.8s-3.1,1-4.9,1c-1.9,0-3.6-0.4-5.1-1.2s-2.7-1.9-3.5-3.3
		s-1.2-3.1-1.2-5.1c0-2.6,0.6-4.8,1.7-6.9c1.1-2,2.6-3.6,4.6-4.8c1.9-1.2,4.1-1.7,6.5-1.7c2.1,0,4,0.4,5.4,1.3s2.5,2.1,3.2,3.6
		l0.9-4.7L924.4,756.2L924.4,756.2z M914.6,774.9c1.5-0.9,2.7-2.2,3.5-3.8s1.3-3.4,1.3-5.4c0-2.2-0.7-3.9-2-5.2
		c-1.3-1.2-3.1-1.9-5.5-1.9c-1.9,0-3.5,0.5-5,1.4s-2.7,2.2-3.5,3.8s-1.3,3.4-1.3,5.4c0,2.2,0.7,3.9,2,5.2c1.3,1.2,3.1,1.8,5.5,1.8
		C911.4,776.3,913.1,775.8,914.6,774.9z"/>
	<path d="M119.2,807.8l-14.5,22.6h-3.1L96,807.8h3.1l4.7,19.3l12.3-19.3H119.2z"/>
	<path d="M121.1,819.9c0,0.2,0,0.5,0,0.9c0,2.3,0.7,4,2,5.2s3.2,1.8,5.8,1.8c1.5,0,2.9-0.3,4.2-0.8s2.4-1.2,3.2-2.1l1.4,2.2
		c-1.1,1.1-2.4,1.9-4,2.5s-3.3,0.9-5.1,0.9c-3.3,0-5.8-0.9-7.7-2.6c-1.9-1.7-2.8-4.1-2.8-7.1c0-2.5,0.5-4.8,1.6-6.8s2.6-3.6,4.5-4.8
		s4-1.7,6.4-1.7c3,0,5.4,0.9,7.2,2.6c1.8,1.7,2.7,4,2.7,7c0,0.8-0.1,1.7-0.3,2.8L121.1,819.9L121.1,819.9z M124.7,812.2
		c-1.6,1.3-2.7,3.2-3.3,5.5h16.1c0-0.2,0-0.5,0-0.8c0-2.1-0.6-3.8-1.9-4.9s-3-1.7-5.2-1.7C128.2,810.2,126.3,810.9,124.7,812.2z"/>
	<path d="M163.8,809.8l-17.6,18.1h14.3l-0.5,2.5h-18.4l0.4-2l17.6-18h-13.7l0.5-2.6h17.8L163.8,809.8z"/>
	<path d="M200.8,807.8l-16.5,25.5c-1.4,2.1-2.7,3.6-3.9,4.4c-1.2,0.8-2.6,1.2-4.3,1.2c-1.1,0-2.1-0.2-3.1-0.5s-1.7-0.9-2.3-1.5
		l1.6-2.2c1,1.1,2.4,1.6,4,1.6c1,0,1.9-0.3,2.7-0.8s1.6-1.5,2.5-2.8l1.6-2.4l-5.6-22.5h3.1l4.7,19.3l12.3-19.3H200.8z"/>
	<path d="M213.3,829.8c-1.6-0.5-2.9-1.2-3.8-2l1.5-2.4c0.9,0.7,2,1.3,3.4,1.8s2.9,0.7,4.4,0.7c2.1,0,3.8-0.4,5-1.1
		c1.2-0.7,1.7-1.7,1.7-3c0-0.7-0.2-1.3-0.7-1.7s-1.1-0.8-1.7-1c-0.7-0.2-1.7-0.5-3-0.8c-1.6-0.3-2.9-0.7-3.8-1s-1.8-0.9-2.5-1.6
		s-1-1.8-1-3.1c0-2.1,0.9-3.9,2.7-5.1c1.8-1.3,4.2-1.9,7.1-1.9c1.5,0,2.9,0.2,4.3,0.6c1.4,0.4,2.5,0.9,3.4,1.5l-1.3,2.5
		c-0.9-0.6-1.9-1.1-3-1.4c-1.2-0.3-2.4-0.5-3.6-0.5c-2.1,0-3.7,0.4-4.8,1.1c-1.1,0.7-1.7,1.7-1.7,3c0,0.7,0.2,1.3,0.7,1.8
		s1.1,0.8,1.8,1s1.7,0.5,3,0.7c1.5,0.3,2.8,0.7,3.8,1s1.8,0.9,2.5,1.6s1,1.7,1,3c0,2.2-0.9,3.9-2.7,5.2c-1.8,1.2-4.3,1.9-7.3,1.9
		C216.6,830.6,214.9,830.4,213.3,829.8z"/>
	<path d="M237.4,807.8h3.1l-4.5,22.6h-3.1L237.4,807.8z M238.7,802.2c-0.4-0.4-0.6-0.9-0.6-1.4c0-0.7,0.2-1.2,0.7-1.7
		c0.4-0.4,1-0.7,1.7-0.7c0.6,0,1.1,0.2,1.5,0.6c0.4,0.4,0.6,0.8,0.6,1.4c0,0.7-0.2,1.3-0.7,1.7c-0.5,0.5-1,0.7-1.7,0.7
		C239.6,802.8,239.1,802.6,238.7,802.2z"/>
	<path d="M269.9,807.8l-4,19.9c-0.8,4-2.2,6.8-4.4,8.6c-2.1,1.8-5.1,2.7-8.8,2.7c-2.1,0-4-0.3-5.7-0.9c-1.7-0.6-3.1-1.4-4.3-2.5
		l1.8-2.3c0.9,0.9,2.1,1.7,3.6,2.2s3.1,0.8,4.9,0.8c2.8,0,5-0.7,6.6-2s2.6-3.4,3.2-6.1l0.5-2.5c-1.1,1.2-2.4,2.2-3.9,2.9
		s-3.2,1-5.1,1c-3,0-5.4-0.8-7.2-2.5c-1.8-1.6-2.7-3.9-2.7-6.7c0-2.4,0.6-4.6,1.7-6.5s2.6-3.5,4.6-4.6s4.2-1.7,6.6-1.7
		c2.1,0,4,0.4,5.5,1.3c1.5,0.9,2.6,2.2,3.3,3.8l0.9-5L269.9,807.8L269.9,807.8z M260,825.5c1.5-0.9,2.7-2,3.5-3.6
		c0.8-1.5,1.3-3.2,1.3-5.1c0-2.1-0.7-3.7-2-4.8c-1.3-1.2-3.2-1.7-5.5-1.7c-1.9,0-3.6,0.4-5.1,1.3c-1.5,0.9-2.7,2-3.5,3.6
		c-0.8,1.5-1.3,3.2-1.3,5.1c0,2.1,0.7,3.7,2,4.8c1.3,1.2,3.2,1.7,5.5,1.7C256.8,826.8,258.5,826.4,260,825.5z"/>
	<path d="M298.8,807.8l-4.5,22.6h-2.9l0.7-3.6c-2.1,2.6-5,3.8-8.7,3.8c-2.5,0-4.5-0.7-5.9-2s-2.1-3.1-2.1-5.4c0-0.8,0.1-1.6,0.3-2.5
		l2.6-12.9h3.1l-2.6,12.9c-0.1,0.8-0.2,1.5-0.2,2c0,1.7,0.5,2.9,1.4,3.8c1,0.9,2.4,1.3,4.3,1.3c2.4,0,4.4-0.7,6-2s2.6-3.3,3.2-5.9
		l2.4-12.2h2.9L298.8,807.8L298.8,807.8z"/>
	<path d="M305.7,819.9c0,0.2,0,0.5,0,0.9c0,2.3,0.7,4,2,5.2s3.2,1.8,5.8,1.8c1.5,0,2.9-0.3,4.2-0.8c1.3-0.5,2.4-1.2,3.2-2.1l1.4,2.2
		c-1.1,1.1-2.4,1.9-4,2.5s-3.3,0.9-5.1,0.9c-3.3,0-5.8-0.9-7.7-2.6c-1.9-1.7-2.8-4.1-2.8-7.1c0-2.5,0.5-4.8,1.6-6.8s2.6-3.6,4.5-4.8
		s4-1.7,6.4-1.7c3,0,5.4,0.9,7.2,2.6c1.8,1.7,2.7,4,2.7,7c0,0.8-0.1,1.7-0.3,2.8L305.7,819.9L305.7,819.9z M309.3,812.2
		c-1.6,1.3-2.7,3.2-3.3,5.5h16.1c0-0.2,0-0.5,0-0.8c0-2.1-0.6-3.8-1.9-4.9s-3-1.7-5.2-1.7C312.8,810.2,310.9,810.9,309.3,812.2z"/>
	<path d="M350.3,809.6c1.4,1.3,2.1,3.1,2.1,5.4c0,0.8-0.1,1.7-0.3,2.6l-2.6,12.9h-3.1l2.6-12.9c0.1-0.8,0.2-1.5,0.2-2.1
		c0-1.6-0.5-2.9-1.5-3.8c-1-0.9-2.4-1.3-4.4-1.3c-2.4,0-4.4,0.7-6,2s-2.6,3.3-3.2,5.9l-2.4,12.1h-3.1l4.5-22.6h2.9l-0.7,3.6
		c2.1-2.5,5.1-3.8,8.9-3.8C346.9,807.6,348.9,808.3,350.3,809.6z"/>
	<path d="M390.7,809.6c1.4,1.3,2.1,3.1,2.1,5.4c0,0.8-0.1,1.7-0.3,2.6l-2.6,12.9H387l2.6-12.9c0.1-0.8,0.2-1.5,0.2-2.1
		c0-1.6-0.5-2.9-1.5-3.8c-1-0.9-2.4-1.3-4.4-1.3c-2.4,0-4.4,0.7-6,2s-2.6,3.3-3.2,5.9l-2.4,12.1h-3.1l6.4-31.9h3.1l-2.5,12.7
		c2.1-2.4,5-3.6,8.6-3.6C387.3,807.6,389.3,808.3,390.7,809.6z"/>
	<path d="M423.6,807.8l-4.5,22.6h-2.9l0.7-3.6c-1.1,1.2-2.4,2.1-3.9,2.8s-3.1,1-4.9,1c-1.9,0-3.6-0.4-5.1-1.2s-2.7-1.9-3.5-3.3
		c-0.8-1.4-1.2-3.1-1.2-5.1c0-2.6,0.6-4.8,1.7-6.9c1.1-2,2.6-3.6,4.6-4.8c1.9-1.2,4.1-1.7,6.5-1.7c2.1,0,4,0.4,5.4,1.3
		s2.5,2.1,3.2,3.6l0.9-4.7L423.6,807.8L423.6,807.8z M413.7,826.5c1.5-0.9,2.7-2.2,3.5-3.8s1.3-3.4,1.3-5.4c0-2.2-0.7-3.9-2-5.2
		c-1.3-1.2-3.1-1.9-5.5-1.9c-1.9,0-3.5,0.5-5,1.4s-2.7,2.2-3.5,3.8s-1.3,3.4-1.3,5.4c0,2.2,0.7,3.9,2,5.2c1.3,1.2,3.1,1.8,5.5,1.8
		C410.6,827.9,412.3,827.4,413.7,826.5z"/>
	<path d="M432.3,829.4c-1.6-0.8-2.8-1.9-3.6-3.4c-0.8-1.4-1.3-3.1-1.3-5.1c0-2.6,0.6-4.8,1.7-6.9c1.1-2,2.7-3.6,4.7-4.8
		s4.3-1.7,6.8-1.7c2.1,0,3.9,0.4,5.4,1.1c1.5,0.8,2.7,1.9,3.5,3.4l-2.6,1.5c-1.3-2.2-3.5-3.4-6.6-3.4c-1.9,0-3.5,0.5-5.1,1.4
		c-1.5,0.9-2.7,2.2-3.5,3.8s-1.3,3.4-1.3,5.5c0,2.2,0.7,3.9,2,5.2c1.3,1.2,3.2,1.8,5.6,1.8c1.5,0,2.8-0.3,4.1-0.8
		c1.2-0.6,2.3-1.4,3.1-2.4l2.2,1.7c-1,1.3-2.3,2.4-4,3.2s-3.5,1.1-5.4,1.1C435.7,830.6,433.9,830.2,432.3,829.4z"/>
	<path d="M456.3,807.8h3.1l-4.5,22.6h-3.1L456.3,807.8z M457.6,802.2c-0.4-0.4-0.6-0.9-0.6-1.4c0-0.7,0.2-1.2,0.7-1.7
		c0.4-0.4,1-0.7,1.7-0.7c0.6,0,1.1,0.2,1.5,0.6c0.4,0.4,0.6,0.8,0.6,1.4c0,0.7-0.2,1.3-0.7,1.7c-0.5,0.5-1,0.7-1.7,0.7
		C458.5,802.8,458,802.6,457.6,802.2z"/>
	<path d="M466.2,819.9c0,0.2,0,0.5,0,0.9c0,2.3,0.7,4,2,5.2s3.2,1.8,5.8,1.8c1.5,0,2.9-0.3,4.2-0.8c1.3-0.5,2.4-1.2,3.2-2.1l1.4,2.2
		c-1.1,1.1-2.4,1.9-4,2.5s-3.3,0.9-5.1,0.9c-3.3,0-5.8-0.9-7.7-2.6c-1.9-1.7-2.8-4.1-2.8-7.1c0-2.5,0.5-4.8,1.6-6.8s2.6-3.6,4.5-4.8
		s4-1.7,6.4-1.7c3,0,5.4,0.9,7.2,2.6c1.8,1.7,2.7,4,2.7,7c0,0.8-0.1,1.7-0.3,2.8L466.2,819.9L466.2,819.9z M469.8,812.2
		c-1.6,1.3-2.7,3.2-3.3,5.5h16.1c0-0.2,0-0.5,0-0.8c0-2.1-0.6-3.8-1.9-4.9s-3-1.7-5.2-1.7C473.3,810.2,471.4,810.9,469.8,812.2z
		 M480.7,799h4.2l-7.5,5.3h-3.2L480.7,799z"/>
	<path d="M510.8,809.6c1.4,1.3,2.1,3.1,2.1,5.4c0,0.8-0.1,1.7-0.3,2.6l-2.6,12.9h-3.1l2.6-12.9c0.1-0.8,0.2-1.5,0.2-2.1
		c0-1.6-0.5-2.9-1.5-3.8c-1-0.9-2.4-1.3-4.4-1.3c-2.4,0-4.4,0.7-6,2s-2.6,3.3-3.2,5.9l-2.4,12.1h-3.1l4.5-22.6h2.9l-0.7,3.6
		c2.1-2.5,5.1-3.8,8.9-3.8C507.4,807.6,509.4,808.3,510.8,809.6z"/>
	<path d="M545.5,798.5l-6.4,31.9h-2.9l0.7-3.6c-1.1,1.2-2.4,2.1-3.9,2.8s-3.1,1-4.9,1c-1.9,0-3.6-0.4-5.1-1.2s-2.7-1.9-3.5-3.3
		c-0.8-1.4-1.2-3.1-1.2-5.1c0-2.6,0.6-4.8,1.7-6.9c1.1-2,2.6-3.6,4.6-4.8c1.9-1.2,4.1-1.7,6.5-1.7c2.1,0,3.9,0.4,5.4,1.3
		c1.5,0.8,2.5,2.1,3.2,3.6l2.8-14H545.5z M533.8,826.5c1.5-0.9,2.7-2.2,3.5-3.8s1.3-3.4,1.3-5.4c0-2.2-0.7-3.9-2-5.2
		c-1.3-1.2-3.1-1.9-5.5-1.9c-1.9,0-3.5,0.5-5,1.4s-2.7,2.2-3.5,3.8s-1.3,3.4-1.3,5.4c0,2.2,0.7,3.9,2,5.2c1.3,1.2,3.1,1.8,5.5,1.8
		C530.7,827.9,532.3,827.4,533.8,826.5z"/>
	<path d="M552.3,829.4c-1.5-0.8-2.7-1.9-3.6-3.4s-1.3-3.1-1.3-5.1c0-2.6,0.6-4.8,1.7-6.9c1.1-2,2.7-3.6,4.7-4.8s4.2-1.7,6.7-1.7
		c3.2,0,5.7,0.9,7.5,2.6c1.8,1.7,2.8,4,2.8,7c0,2.6-0.6,4.9-1.7,6.9c-1.1,2-2.7,3.7-4.7,4.8c-2,1.2-4.2,1.7-6.7,1.7
		C555.7,830.6,553.9,830.2,552.3,829.4z M563,826.5c1.5-0.9,2.7-2.2,3.5-3.8s1.3-3.4,1.3-5.4c0-2.2-0.7-3.9-2-5.2
		c-1.3-1.2-3.1-1.9-5.5-1.9c-1.9,0-3.5,0.5-5,1.4s-2.7,2.2-3.5,3.8s-1.3,3.4-1.3,5.4c0,2.2,0.7,3.9,2,5.2c1.3,1.2,3.1,1.8,5.5,1.8
		C559.8,827.9,561.5,827.4,563,826.5z"/>
	<path d="M581,798.5h3.1l-6.4,31.9h-3.1L581,798.5z"/>
	<path d="M590.9,829.4c-1.5-0.8-2.7-1.9-3.6-3.4s-1.3-3.1-1.3-5.1c0-2.6,0.6-4.8,1.7-6.9c1.1-2,2.7-3.6,4.7-4.8s4.2-1.7,6.7-1.7
		c3.2,0,5.7,0.9,7.5,2.6c1.8,1.7,2.8,4,2.8,7c0,2.6-0.6,4.9-1.7,6.9c-1.1,2-2.7,3.7-4.7,4.8c-2,1.2-4.2,1.7-6.7,1.7
		C594.2,830.6,592.4,830.2,590.9,829.4z M601.5,826.5c1.5-0.9,2.7-2.2,3.5-3.8s1.3-3.4,1.3-5.4c0-2.2-0.7-3.9-2-5.2
		c-1.3-1.2-3.1-1.9-5.5-1.9c-1.9,0-3.5,0.5-5,1.4s-2.7,2.2-3.5,3.8s-1.3,3.4-1.3,5.4c0,2.2,0.7,3.9,2,5.2c1.3,1.2,3.1,1.8,5.5,1.8
		C598.4,827.9,600,827.4,601.5,826.5z"/>
	<path d="M611.6,830c-0.4-0.4-0.6-1-0.6-1.6c0-0.7,0.2-1.3,0.7-1.7c0.5-0.5,1-0.7,1.7-0.7c0.6,0,1.2,0.2,1.6,0.6
		c0.4,0.4,0.6,1,0.6,1.6c0,0.7-0.2,1.3-0.7,1.7c-0.5,0.5-1,0.7-1.7,0.7C612.5,830.6,612,830.4,611.6,830z"/>
</g>
<g class="st7">
	<path d="M124.3,568c2.3,3.9,3.5,8.5,3.5,13.8c0,7.9-2.5,14.2-7.5,19s-11.5,7.1-19.4,7.1s-14.3-2.4-19.4-7.1c-5-4.8-7.5-11.1-7.5-19
		c0-3.5,0.5-7.1,1.4-10.6s3.1-8.9,6.5-16.1l14.3-30.4h28.5l-10.2,34.4C118.7,561.2,122,564.1,124.3,568z M183.4,568
		c2.3,3.9,3.5,8.5,3.5,13.8c0,7.9-2.5,14.2-7.5,19s-11.5,7.1-19.4,7.1s-14.3-2.4-19.4-7.1c-5-4.8-7.5-11.1-7.5-19
		c0-3.5,0.5-7.1,1.4-10.6s3.1-8.9,6.5-16.1l14.3-30.4h28.5l-10.2,34.4C177.8,561.2,181.1,564.1,183.4,568z"/>
</g>
<g>
	<rect x="506.9" y="324.8" width="200.3" height="9"/>
</g>
<g>
	<path d="M510.6,122.9h36.3c8.7,0,16.3,1.7,23,5c6.6,3.3,11.8,8,15.5,14s5.5,13,5.5,21s-1.8,15-5.5,21s-8.9,10.7-15.5,14
		c-6.7,3.3-14.3,5-23,5h-36.3L510.6,122.9L510.6,122.9z M545.9,187.5c8,0,14.3-2.2,19.1-6.7c4.7-4.4,7.1-10.5,7.1-18.1
		s-2.4-13.6-7.1-18.1c-4.8-4.4-11.1-6.7-19.1-6.7H529v49.5h16.9V187.5z"/>
	<path d="M604.4,130c-2.1-1.9-3.1-4.3-3.1-7.1c0-2.8,1-5.2,3.1-7.1s4.7-2.8,8-2.8s5.9,0.9,8,2.7c2.1,1.8,3.1,4.1,3.1,6.8
		c0,3-1,5.4-3.1,7.4c-2.1,2-4.7,2.9-8,2.9C609.1,132.8,606.4,131.9,604.4,130z M603.5,141.4h17.8v61.3h-17.8V141.4z"/>
	<path d="M684.4,147.2c5.1,4.5,7.6,11.3,7.6,20.5v35h-16.6v-7.6c-3.3,5.7-9.6,8.6-18.7,8.6c-4.7,0-8.8-0.8-12.3-2.4
		c-3.5-1.6-6.1-3.8-7.9-6.6c-1.8-2.8-2.7-6-2.7-9.6c0-5.7,2.1-10.2,6.4-13.5c4.3-3.3,10.9-4.9,19.9-4.9h14.1c0-3.9-1.2-6.9-3.5-8.9
		c-2.4-2.1-5.9-3.1-10.6-3.1c-3.3,0-6.5,0.5-9.6,1.5c-3.2,1-5.8,2.4-8,4.2l-6.4-12.4c3.3-2.4,7.4-4.2,12-5.5
		c4.7-1.3,9.5-1.9,14.4-1.9C672,140.5,679.3,142.7,684.4,147.2z M669.2,189.5c2.4-1.4,4-3.5,5-6.2V177H662c-7.3,0-10.9,2.4-10.9,7.2
		c0,2.3,0.9,4.1,2.7,5.4c1.8,1.3,4.2,2,7.4,2C664.2,191.6,666.9,190.9,669.2,189.5z"/>
	<path d="M763.8,147.3c4.7,4.6,7,11.3,7,20.3v35.1H753v-32.4c0-4.9-1.1-8.5-3.2-10.9c-2.1-2.4-5.2-3.6-9.2-3.6
		c-4.5,0-8.1,1.4-10.7,4.2c-2.7,2.8-4,6.9-4,12.4v30.3h-17.8v-61.3h17v7.2c2.4-2.6,5.3-4.6,8.8-6s7.3-2.1,11.5-2.1
		C753,140.5,759.1,142.7,763.8,147.3z"/>
	<path d="M833.5,147.2c5.1,4.5,7.6,11.3,7.6,20.5v35h-16.6v-7.6c-3.3,5.7-9.6,8.6-18.7,8.6c-4.7,0-8.8-0.8-12.3-2.4
		c-3.5-1.6-6.1-3.8-7.9-6.6c-1.8-2.8-2.7-6-2.7-9.6c0-5.7,2.1-10.2,6.4-13.5c4.3-3.3,10.9-4.9,19.9-4.9h14.1c0-3.9-1.2-6.9-3.5-8.9
		c-2.4-2.1-5.9-3.1-10.6-3.1c-3.3,0-6.5,0.5-9.6,1.5c-3.2,1-5.8,2.4-8,4.2l-6.4-12.4c3.3-2.4,7.4-4.2,12-5.5
		c4.7-1.3,9.5-1.9,14.4-1.9C821.1,140.5,828.4,142.7,833.5,147.2z M818.4,189.5c2.4-1.4,4-3.5,5-6.2V177h-12.2
		c-7.3,0-10.9,2.4-10.9,7.2c0,2.3,0.9,4.1,2.7,5.4c1.8,1.3,4.2,2,7.4,2C813.3,191.6,816,190.9,818.4,189.5z"/>
</g>
<g>
	<path d="M530.4,275.7v6.1h-24.3V277l12.4-11.7c1.3-1.3,2.2-2.3,2.7-3.2c0.5-0.9,0.7-1.8,0.7-2.7c0-1.3-0.4-2.3-1.3-3s-2.2-1-3.8-1
		c-1.4,0-2.7,0.3-3.8,0.8c-1.1,0.5-2.1,1.3-2.9,2.4l-5.4-3.5c1.3-1.9,3-3.3,5.2-4.4s4.7-1.6,7.6-1.6c2.4,0,4.5,0.4,6.3,1.2
		s3.2,1.9,4.2,3.3c1,1.4,1.5,3.1,1.5,5c0,1.7-0.4,3.4-1.1,4.9c-0.7,1.5-2.2,3.3-4.3,5.2l-7.4,7L530.4,275.7L530.4,275.7z"/>
	<path d="M559.2,267.9c0.8,1.3,1.3,2.8,1.3,4.5c0,2-0.6,3.7-1.7,5.2c-1.1,1.5-2.7,2.6-4.8,3.5s-4.4,1.2-7.1,1.2s-5.1-0.4-7.1-1.2
		c-2-0.8-3.6-2-4.7-3.5c-1.1-1.5-1.7-3.2-1.7-5.2c0-1.7,0.4-3.2,1.3-4.5c0.8-1.3,2-2.3,3.6-3.1c-1.2-0.7-2.1-1.7-2.8-2.8
		c-0.6-1.1-1-2.4-1-3.8c0-1.9,0.5-3.5,1.6-4.9c1-1.4,2.5-2.4,4.4-3.2s4-1.1,6.4-1.1c2.5,0,4.6,0.4,6.5,1.1c1.9,0.8,3.4,1.8,4.4,3.2
		s1.6,3,1.6,4.9c0,1.4-0.3,2.7-1,3.8c-0.6,1.1-1.6,2-2.8,2.8C557.2,265.6,558.4,266.6,559.2,267.9z M551.3,275.5
		c1.1-0.8,1.6-2,1.6-3.4s-0.5-2.5-1.6-3.4c-1.1-0.8-2.6-1.2-4.4-1.2c-1.8,0-3.3,0.4-4.4,1.2c-1.1,0.8-1.6,1.9-1.6,3.4
		c0,1.4,0.5,2.6,1.6,3.4s2.5,1.2,4.4,1.2C548.7,276.8,550.2,276.4,551.3,275.5z M543.3,255.5c-0.9,0.7-1.4,1.7-1.4,3
		c0,1.2,0.4,2.2,1.3,2.9c0.9,0.7,2.1,1.1,3.6,1.1s2.8-0.4,3.7-1.1s1.4-1.7,1.4-2.9c0-1.3-0.5-2.2-1.4-3c-0.9-0.7-2.1-1.1-3.7-1.1
		C545.4,254.5,544.2,254.8,543.3,255.5z"/>
	<path d="M597.2,259.4c2.1,1.8,3.1,4.6,3.1,8.3v14.1h-6.7v-3.1c-1.3,2.3-3.9,3.5-7.5,3.5c-1.9,0-3.5-0.3-4.9-1s-2.5-1.5-3.2-2.7
		c-0.7-1.1-1.1-2.4-1.1-3.9c0-2.3,0.9-4.1,2.6-5.4c1.7-1.3,4.4-2,8-2h5.7c0-1.6-0.5-2.8-1.4-3.6c-1-0.8-2.4-1.3-4.3-1.3
		c-1.3,0-2.6,0.2-3.9,0.6c-1.3,0.4-2.4,1-3.2,1.7l-2.6-5c1.3-1,3-1.7,4.9-2.2s3.8-0.8,5.8-0.8C592.2,256.6,595.2,257.5,597.2,259.4z
		 M591.1,276.4c1-0.6,1.6-1.4,2-2.5v-2.5h-4.9c-2.9,0-4.4,1-4.4,2.9c0,0.9,0.4,1.6,1.1,2.2c0.7,0.5,1.7,0.8,3,0.8
		C589.1,277.3,590.2,277,591.1,276.4z"/>
	<path d="M629.3,259.4c1.9,1.8,2.8,4.6,2.8,8.2v14.2h-7.2v-13.1c0-2-0.4-3.4-1.3-4.4c-0.9-1-2.1-1.4-3.7-1.4c-1.8,0-3.3,0.6-4.3,1.7
		c-1.1,1.1-1.6,2.8-1.6,5v12.2h-7.2V257h6.9v2.9c1-1,2.1-1.8,3.5-2.4s3-0.9,4.6-0.9C624.9,256.6,627.4,257.5,629.3,259.4z
		 M620.8,253.5c-0.6-0.3-1.3-0.8-2.1-1.3c-0.5-0.4-0.9-0.6-1.2-0.8s-0.6-0.3-0.9-0.3c-0.6,0-1.2,0.2-1.6,0.7
		c-0.4,0.4-0.6,1.1-0.6,1.9h-3.6c0.1-2.1,0.6-3.7,1.5-4.9c1-1.2,2.2-1.8,3.8-1.8c0.8,0,1.5,0.2,2.1,0.5s1.3,0.8,2.1,1.4
		c0.5,0.4,0.9,0.6,1.2,0.8s0.6,0.3,0.9,0.3c0.6,0,1.1-0.2,1.5-0.7c0.4-0.4,0.6-1.1,0.7-1.8h3.6c-0.1,2-0.6,3.6-1.5,4.8
		c-1,1.2-2.2,1.8-3.8,1.8C622.1,254,621.4,253.8,620.8,253.5z"/>
	<path d="M643.6,280.5c-2.1-1.1-3.7-2.6-4.9-4.5s-1.7-4.1-1.7-6.6s0.6-4.6,1.7-6.6c1.2-1.9,2.8-3.4,4.9-4.5c2.1-1.1,4.4-1.6,7-1.6
		s4.9,0.5,7,1.6s3.7,2.6,4.8,4.5c1.2,1.9,1.7,4.1,1.7,6.6s-0.6,4.6-1.7,6.6c-1.2,1.9-2.8,3.4-4.8,4.5c-2.1,1.1-4.4,1.6-7,1.6
		S645.7,281.6,643.6,280.5z M655.2,274.4c1.2-1.2,1.8-2.9,1.8-5s-0.6-3.7-1.8-5c-1.2-1.2-2.7-1.9-4.5-1.9s-3.4,0.6-4.6,1.9
		c-1.2,1.2-1.8,2.9-1.8,5s0.6,3.7,1.8,5c1.2,1.2,2.7,1.9,4.6,1.9S654,275.6,655.2,274.4z"/>
	<path d="M671.3,281.3c-2-0.5-3.5-1.1-4.7-1.9l2.4-5.2c1.1,0.7,2.4,1.3,4,1.7c1.6,0.4,3.1,0.7,4.6,0.7c3,0,4.6-0.8,4.6-2.3
		c0-0.7-0.4-1.2-1.2-1.5s-2.1-0.6-3.8-0.8c-2-0.3-3.7-0.7-5-1.1s-2.5-1.1-3.4-2.1c-1-1-1.4-2.5-1.4-4.3c0-1.6,0.5-3,1.4-4.2
		s2.2-2.2,4-2.8c1.7-0.7,3.8-1,6.1-1c1.7,0,3.5,0.2,5.2,0.6s3.2,0.9,4.3,1.6l-2.4,5.1c-2.2-1.2-4.6-1.8-7.1-1.8
		c-1.5,0-2.7,0.2-3.4,0.6c-0.8,0.4-1.2,1-1.2,1.7c0,0.8,0.4,1.3,1.2,1.6c0.8,0.3,2.1,0.6,4,0.9c2,0.3,3.7,0.7,5,1.1s2.4,1.1,3.4,2.1
		c0.9,1,1.4,2.4,1.4,4.2c0,1.5-0.5,2.9-1.4,4.1s-2.3,2.1-4,2.8c-1.8,0.7-3.9,1-6.3,1C675.3,282.1,673.3,281.9,671.3,281.3z"/>
</g>
<g>
	<g>
		<g>
			<g>
				<g>
					<path class="st8" d="M582.1,1019.2h-84.3c-24.7,0-46.7-21.1-46.7-46.7s21.1-46.7,46.7-46.7h84.3c25.6,0,46.7,21.1,46.7,46.7
						S606.9,1019.2,582.1,1019.2z M497.9,934c-21.1,0-38.5,17.4-38.5,38.5s17.4,38.5,38.5,38.5h84.3c21.1,0,38.5-17.4,38.5-38.5
						S603.2,934,582.1,934H497.9z"/>
				</g>
			</g>
			
				<ellipse transform="matrix(0.9239 -0.3827 0.3827 0.9239 -334.1907 264.9096)" class="st8" cx="498.8" cy="972.5" rx="28.4" ry="28.4"/>
			<circle class="st9" cx="581.2" cy="972.5" r="28.4"/>
		</g>
	</g>
</g>
</svg>
