<?xml version="1.0" encoding="utf-8"?>
<!-- Generator: Adobe Illustrator 22.0.0, SVG Export Plug-In . SVG Version: 6.00 Build 0)  -->
<svg version="1.1" id="Capa_1" xmlns="http://www.w3.org/2000/svg" xmlns:xlink="http://www.w3.org/1999/xlink" x="0px" y="0px"
	 viewBox="0 0 1080 1080" style="enable-background:new 0 0 1080 1080;" xml:space="preserve">
<style type="text/css">
	.st0{fill:#F2F2F2;}
	.st1{fill:#727272;}
	.st2{opacity:0.25;}
	.st3{fill:#EDEDED;}
	.st4{fill:#FFE212;}
	.st5{fill:#333333;}
	.st6{opacity:0.19;}
	.st7{fill:#3DE200;}
	.st8{fill:#22263D;}
</style>
<path class="st0" d="M1046,1080H34c-18.8,0-34-15.2-34-34V34C0,15.2,15.2,0,34,0h1012c18.8,0,34,15.2,34,34v1012
	C1080,1064.8,1064.8,1080,1046,1080z"/>
<path class="st1" d="M372.9,419.5H115.4c-19.4,0-35.1-15.7-35.1-35.1V126.9c0-19.4,15.7-35.1,35.1-35.1h257.5
	c19.4,0,35.1,15.7,35.1,35.1v257.5C408,403.8,392.3,419.5,372.9,419.5z"/>
<g class="st2">
	<path class="st3" d="M244.1,305.6c-39,0-70.6-31.7-70.6-70.6v-26c0-39,31.7-70.6,70.6-70.6s70.6,31.7,70.6,70.6v26
		C314.8,273.9,283.1,305.6,244.1,305.6z M244.1,148.3c-33.4,0-60.6,27.2-60.6,60.6v26c0,33.4,27.2,60.6,60.6,60.6
		s60.6-27.2,60.6-60.6v-26C304.8,175.5,277.6,148.3,244.1,148.3z"/>
</g>
<g class="st2">
	<path class="st3" d="M357.9,378.1c-2.8,0-5-2.2-5-5v-6.8c0-20.3-16.5-36.9-36.9-36.9H172.3c-20.3,0-36.9,16.5-36.9,36.9v6.8
		c0,2.8-2.2,5-5,5s-5-2.2-5-5v-6.8c0-25.8,21-46.9,46.9-46.9H316c25.8,0,46.9,21,46.9,46.9v6.8C362.9,375.8,360.6,378.1,357.9,378.1
		z"/>
</g>
<g>
	<g>
		<polygon class="st4" points="522.2,373.9 529.5,388.8 545.8,391.1 534,402.7 536.8,419 522.2,411.3 507.5,419 510.3,402.7 
			498.5,391.1 514.8,388.8 		"/>
		<path class="st5" d="M536.8,420c-0.2,0-0.3,0-0.5-0.1l-14.2-7.4l-14.2,7.4c-0.3,0.2-0.7,0.1-1.1-0.1c-0.3-0.2-0.5-0.6-0.4-1
			l2.7-15.8l-11.5-11.2c-0.3-0.3-0.4-0.7-0.3-1c0.1-0.4,0.4-0.6,0.8-0.7l15.8-2.3l7.1-14.4c0.3-0.7,1.5-0.7,1.8,0l7.1,14.4l15.8,2.3
			c0.4,0.1,0.7,0.3,0.8,0.7c0.1,0.4,0,0.8-0.3,1L535.1,403l2.7,15.8c0.1,0.4-0.1,0.8-0.4,1C537.2,419.9,537,420,536.8,420z
			 M500.6,391.8L511,402c0.2,0.2,0.3,0.6,0.3,0.9l-2.5,14.3l12.8-6.8c0.3-0.2,0.6-0.2,0.9,0l12.8,6.8l-2.5-14.3
			c-0.1-0.3,0.1-0.7,0.3-0.9l10.4-10.1l-14.4-2.1c-0.3,0-0.6-0.3-0.8-0.5l-6.4-13l-6.4,13c-0.1,0.3-0.4,0.5-0.8,0.5L500.6,391.8z"/>
	</g>
	<g>
		<polygon class="st4" points="588.7,373.9 596.1,388.8 612.4,391.1 600.6,402.7 603.4,419 588.7,411.3 574.1,419 576.9,402.7 
			565.1,391.1 581.4,388.8 		"/>
		<path class="st5" d="M603.4,420c-0.2,0-0.3,0-0.5-0.1l-14.2-7.4l-14.2,7.4c-0.3,0.2-0.7,0.1-1.1-0.1c-0.3-0.2-0.5-0.6-0.4-1
			l2.7-15.8l-11.5-11.2c-0.3-0.3-0.4-0.7-0.3-1c0.1-0.4,0.4-0.6,0.8-0.7l15.8-2.3l7.1-14.4c0.3-0.7,1.5-0.7,1.8,0l7.1,14.4l15.8,2.3
			c0.4,0.1,0.7,0.3,0.8,0.7c0.1,0.4,0,0.8-0.3,1L601.7,403l2.7,15.8c0.1,0.4-0.1,0.8-0.4,1C603.8,419.9,603.6,420,603.4,420z
			 M588.7,410.3c0.2,0,0.3,0,0.5,0.1l12.8,6.8l-2.5-14.3c-0.1-0.3,0.1-0.7,0.3-0.9l10.4-10.1l-14.4-2.1c-0.3,0-0.6-0.3-0.8-0.5
			l-6.4-13l-6.4,13c-0.1,0.3-0.4,0.5-0.8,0.5l-14.4,2.1l10.4,10.1c0.2,0.2,0.3,0.6,0.3,0.9l-2.5,14.3l12.8-6.8
			C588.4,410.3,588.6,410.3,588.7,410.3z"/>
	</g>
	<g>
		<polygon class="st4" points="655.3,373.9 662.6,388.8 679,391.1 667.2,402.7 670,419 655.3,411.3 640.7,419 643.5,402.7 
			631.6,391.1 648,388.8 		"/>
		<path class="st5" d="M670,420c-0.2,0-0.3,0-0.5-0.1l-14.2-7.4l-14.2,7.4c-0.3,0.2-0.7,0.1-1.1-0.1c-0.3-0.2-0.5-0.6-0.4-1
			l2.7-15.8l-11.5-11.2c-0.3-0.3-0.4-0.7-0.3-1c0.1-0.4,0.4-0.6,0.8-0.7l15.8-2.3l7.1-14.4c0.3-0.7,1.5-0.7,1.8,0l7.1,14.4l15.8,2.3
			c0.4,0.1,0.7,0.3,0.8,0.7c0.1,0.4,0,0.8-0.3,1L668.2,403l2.7,15.8c0.1,0.4-0.1,0.8-0.4,1C670.4,419.9,670.2,420,670,420z
			 M655.3,410.3c0.2,0,0.3,0,0.5,0.1l12.8,6.8l-2.5-14.3c-0.1-0.3,0.1-0.7,0.3-0.9l10.4-10.1l-14.4-2.1c-0.3,0-0.6-0.3-0.8-0.5
			l-6.4-13l-6.4,13c-0.1,0.3-0.4,0.5-0.8,0.5l-14.4,2.1L644,402c0.2,0.2,0.3,0.6,0.3,0.9l-2.5,14.3l12.8-6.8
			C655,410.3,655.2,410.3,655.3,410.3z"/>
	</g>
	<g>
		<polygon class="st4" points="721.9,373.9 729.2,388.8 745.6,391.1 733.7,402.7 736.5,419 721.9,411.3 707.3,419 710.1,402.7 
			698.2,391.1 714.6,388.8 		"/>
		<path class="st5" d="M736.5,420c-0.2,0-0.3,0-0.5-0.1l-14.2-7.4l-14.2,7.4c-0.3,0.2-0.7,0.1-1.1-0.1c-0.3-0.2-0.5-0.6-0.4-1
			L709,403l-11.5-11.2c-0.3-0.3-0.4-0.7-0.3-1c0.1-0.4,0.4-0.6,0.8-0.7l15.8-2.3l7.1-14.4c0.3-0.7,1.5-0.7,1.8,0l7.1,14.4l15.8,2.3
			c0.4,0.1,0.7,0.3,0.8,0.7c0.1,0.4,0,0.8-0.3,1L734.8,403l2.7,15.8c0.1,0.4-0.1,0.8-0.4,1C737,419.9,736.8,420,736.5,420z
			 M721.9,410.3c0.2,0,0.3,0,0.5,0.1l12.8,6.8l-2.5-14.3c-0.1-0.3,0.1-0.7,0.3-0.9l10.4-10.1l-14.4-2.1c-0.3,0-0.6-0.3-0.8-0.5
			l-6.4-13l-6.4,13c-0.1,0.3-0.4,0.5-0.8,0.5l-14.4,2.1l10.4,10.1c0.2,0.2,0.3,0.6,0.3,0.9l-2.5,14.3l12.8-6.8
			C721.6,410.3,721.7,410.3,721.9,410.3z"/>
	</g>
	<g>
		<polygon class="st4" points="788.5,373.9 795.8,388.8 812.2,391.1 800.3,402.7 803.1,419 788.5,411.3 773.9,419 776.7,402.7 
			764.8,391.1 781.2,388.8 		"/>
		<path class="st5" d="M803.1,420c-0.2,0-0.3,0-0.5-0.1l-14.2-7.4l-14.2,7.4c-0.3,0.2-0.7,0.1-1.1-0.1c-0.3-0.2-0.5-0.6-0.4-1
			l2.7-15.8l-11.5-11.2c-0.3-0.3-0.4-0.7-0.3-1c0.1-0.4,0.4-0.6,0.8-0.7l15.8-2.3l7.1-14.4c0.3-0.7,1.5-0.7,1.8,0l7.1,14.4l15.8,2.3
			c0.4,0.1,0.7,0.3,0.8,0.7c0.1,0.4,0,0.8-0.3,1L801.4,403l2.7,15.8c0.1,0.4-0.1,0.8-0.4,1C803.5,419.9,803.3,420,803.1,420z
			 M788.5,410.3c0.2,0,0.3,0,0.5,0.1l12.8,6.8l-2.5-14.3c-0.1-0.3,0.1-0.7,0.3-0.9l10.4-10.1l-14.4-2.1c-0.3,0-0.6-0.3-0.8-0.5
			l-6.4-13l-6.4,13c-0.1,0.3-0.4,0.5-0.8,0.5l-14.4,2.1l10.4,10.1c0.2,0.2,0.3,0.6,0.3,0.9l-2.5,14.3l12.8-6.8
			C788.2,410.3,788.3,410.3,788.5,410.3z"/>
	</g>
</g>
<g>
	<path d="M102.3,593.9h3.1l-5.5,27.3h16.9l-0.6,2.8h-20L102.3,593.9z"/>
	<path d="M145.8,601.4l-4.5,22.6h-2.9l0.7-3.6c-1.1,1.2-2.4,2.1-3.9,2.8s-3.1,1-4.9,1c-1.9,0-3.6-0.4-5.1-1.2s-2.7-1.9-3.5-3.3
		c-0.8-1.4-1.2-3.1-1.2-5.1c0-2.6,0.6-4.8,1.7-6.9c1.1-2,2.6-3.6,4.6-4.8c1.9-1.2,4.1-1.7,6.5-1.7c2.1,0,4,0.4,5.4,1.3
		s2.5,2.1,3.2,3.6l0.9-4.7L145.8,601.4L145.8,601.4z M135.9,620.1c1.5-0.9,2.7-2.2,3.5-3.8s1.3-3.4,1.3-5.4c0-2.2-0.7-3.9-2-5.2
		c-1.3-1.2-3.1-1.9-5.5-1.9c-1.9,0-3.5,0.5-5,1.4s-2.7,2.2-3.5,3.8s-1.3,3.4-1.3,5.4c0,2.2,0.7,3.9,2,5.2c1.3,1.2,3.1,1.8,5.5,1.8
		C132.8,621.5,134.4,621,135.9,620.1z"/>
	<path d="M165.7,623c-1.6-0.8-2.8-1.9-3.6-3.4c-0.8-1.4-1.3-3.1-1.3-5.1c0-2.6,0.6-4.8,1.7-6.9c1.1-2,2.7-3.6,4.7-4.8
		s4.3-1.7,6.8-1.7c2.1,0,3.9,0.4,5.4,1.1c1.5,0.8,2.7,1.9,3.5,3.4l-2.6,1.5c-1.3-2.2-3.5-3.4-6.6-3.4c-1.9,0-3.5,0.5-5.1,1.4
		c-1.5,0.9-2.7,2.2-3.5,3.8s-1.3,3.4-1.3,5.5c0,2.2,0.7,3.9,2,5.2c1.3,1.2,3.2,1.8,5.6,1.8c1.5,0,2.8-0.3,4.1-0.8
		c1.2-0.6,2.3-1.4,3.1-2.4l2.2,1.7c-1,1.3-2.3,2.4-4,3.2s-3.5,1.1-5.4,1.1C169.1,624.2,167.3,623.8,165.7,623z"/>
	<path d="M210,601.4l-4.5,22.6h-2.9l0.7-3.6c-1.1,1.2-2.4,2.1-3.9,2.8s-3.1,1-4.9,1c-1.9,0-3.6-0.4-5.1-1.2s-2.7-1.9-3.5-3.3
		c-0.8-1.4-1.2-3.1-1.2-5.1c0-2.6,0.6-4.8,1.7-6.9c1.1-2,2.6-3.6,4.6-4.8c1.9-1.2,4.1-1.7,6.5-1.7c2.1,0,4,0.4,5.4,1.3
		s2.5,2.1,3.2,3.6l0.9-4.7L210,601.4L210,601.4z M200.2,620.1c1.5-0.9,2.7-2.2,3.5-3.8s1.3-3.4,1.3-5.4c0-2.2-0.7-3.9-2-5.2
		c-1.3-1.2-3.1-1.9-5.5-1.9c-1.9,0-3.5,0.5-5,1.4s-2.7,2.2-3.5,3.8s-1.3,3.4-1.3,5.4c0,2.2,0.7,3.9,2,5.2c1.3,1.2,3.1,1.8,5.5,1.8
		C197,621.5,198.7,621,200.2,620.1z"/>
	<path d="M220.4,592.1h3.1l-6.4,31.9H214L220.4,592.1z"/>
	<path d="M230.1,601.4h3.1l-4.5,22.6h-3.1L230.1,601.4z M231.4,595.8c-0.4-0.4-0.6-0.9-0.6-1.4c0-0.7,0.2-1.2,0.7-1.7
		c0.4-0.4,1-0.7,1.7-0.7c0.6,0,1.1,0.2,1.5,0.6c0.4,0.4,0.6,0.8,0.6,1.4c0,0.7-0.2,1.3-0.7,1.7c-0.5,0.5-1,0.7-1.7,0.7
		C232.3,596.4,231.8,596.2,231.4,595.8z"/>
	<path d="M264.1,592.1l-6.4,31.9h-2.9l0.7-3.6c-1.1,1.2-2.4,2.1-3.9,2.8s-3.1,1-4.9,1c-1.9,0-3.6-0.4-5.1-1.2s-2.7-1.9-3.5-3.3
		c-0.8-1.4-1.2-3.1-1.2-5.1c0-2.6,0.6-4.8,1.7-6.9c1.1-2,2.6-3.6,4.6-4.8c1.9-1.2,4.1-1.7,6.5-1.7c2.1,0,3.9,0.4,5.4,1.3
		c1.5,0.8,2.5,2.1,3.2,3.6l2.8-14H264.1z M252.5,620.1c1.5-0.9,2.7-2.2,3.5-3.8c0.8-1.6,1.3-3.4,1.3-5.4c0-2.2-0.7-3.9-2-5.2
		c-1.3-1.2-3.1-1.9-5.5-1.9c-1.9,0-3.5,0.5-5,1.4s-2.7,2.2-3.5,3.8s-1.3,3.4-1.3,5.4c0,2.2,0.7,3.9,2,5.2c1.3,1.2,3.1,1.8,5.5,1.8
		C249.3,621.5,251,621,252.5,620.1z"/>
	<path d="M291.5,601.4L287,624h-3l0.7-3.6c-1.1,1.2-2.4,2.1-3.9,2.8s-3.1,1-4.9,1c-1.9,0-3.6-0.4-5.1-1.2s-2.7-1.9-3.5-3.3
		c-0.8-1.4-1.2-3.1-1.2-5.1c0-2.6,0.6-4.8,1.7-6.9c1.1-2,2.6-3.6,4.6-4.8c1.9-1.2,4.1-1.7,6.5-1.7c2.1,0,4,0.4,5.4,1.3
		s2.5,2.1,3.2,3.6l0.9-4.7L291.5,601.4L291.5,601.4z M281.6,620.1c1.5-0.9,2.7-2.2,3.5-3.8s1.3-3.4,1.3-5.4c0-2.2-0.7-3.9-2-5.2
		c-1.3-1.2-3.1-1.9-5.5-1.9c-1.9,0-3.5,0.5-5,1.4s-2.7,2.2-3.5,3.8s-1.3,3.4-1.3,5.4c0,2.2,0.7,3.9,2,5.2c1.3,1.2,3.1,1.8,5.5,1.8
		C278.4,621.5,280.1,621,281.6,620.1z"/>
	<path d="M322.5,592.1l-6.4,31.9h-2.9l0.7-3.6c-1.1,1.2-2.4,2.1-3.9,2.8s-3.1,1-4.9,1c-1.9,0-3.6-0.4-5.1-1.2s-2.7-1.9-3.5-3.3
		c-0.8-1.4-1.2-3.1-1.2-5.1c0-2.6,0.6-4.8,1.7-6.9c1.1-2,2.6-3.6,4.6-4.8c1.9-1.2,4.1-1.7,6.5-1.7c2.1,0,3.9,0.4,5.4,1.3
		c1.5,0.8,2.5,2.1,3.2,3.6l2.8-14H322.5z M310.8,620.1c1.5-0.9,2.7-2.2,3.5-3.8s1.3-3.4,1.3-5.4c0-2.2-0.7-3.9-2-5.2
		c-1.3-1.2-3.1-1.9-5.5-1.9c-1.9,0-3.5,0.5-5,1.4s-2.7,2.2-3.5,3.8s-1.3,3.4-1.3,5.4c0,2.2,0.7,3.9,2,5.2c1.3,1.2,3.1,1.8,5.5,1.8
		C307.6,621.5,309.3,621,310.8,620.1z"/>
	<path d="M357.4,603.2c1.4,1.3,2.1,3.1,2.1,5.4c0,0.8-0.1,1.7-0.3,2.6l-2.6,12.9h-3.1l2.6-12.9c0.1-0.8,0.2-1.5,0.2-2.1
		c0-1.6-0.5-2.9-1.5-3.8c-1-0.9-2.4-1.3-4.4-1.3c-2.4,0-4.4,0.7-6,2s-2.6,3.3-3.2,5.9l-2.4,12.1h-3.1l6.4-31.9h3.1l-2.5,12.7
		c2.1-2.4,5-3.6,8.6-3.6C353.9,601.2,355.9,601.9,357.4,603.2z"/>
	<path d="M389.9,601.4l-4.5,22.6h-2.9l0.7-3.6c-2.1,2.6-5,3.8-8.7,3.8c-2.5,0-4.5-0.7-5.9-2s-2.1-3.1-2.1-5.4c0-0.8,0.1-1.6,0.3-2.5
		l2.6-12.9h3.1l-2.6,12.9c-0.1,0.8-0.2,1.5-0.2,2c0,1.7,0.5,2.9,1.4,3.8c1,0.9,2.4,1.3,4.3,1.3c2.4,0,4.4-0.7,6-2s2.6-3.3,3.2-5.9
		l2.4-12.2h2.9L389.9,601.4L389.9,601.4z"/>
	<path d="M432,603.1c1.4,1.3,2.1,3.1,2.1,5.4c0,0.7-0.1,1.5-0.3,2.7l-2.6,12.9h-3.1l2.6-12.9c0.1-0.7,0.2-1.4,0.2-2.1
		c0-1.6-0.5-2.8-1.4-3.7s-2.3-1.3-4.2-1.3c-2.3,0-4.2,0.6-5.7,1.9c-1.5,1.3-2.5,3.2-3.1,5.7l-2.5,12.5h-3l2.6-12.9
		c0.1-0.8,0.2-1.5,0.2-2.1c0-1.6-0.5-2.9-1.4-3.8c-0.9-0.9-2.3-1.3-4.2-1.3c-2.3,0-4.2,0.7-5.8,2c-1.5,1.3-2.6,3.3-3.1,5.9l-2.3,12
		h-3.1l4.5-22.6h2.9l-0.7,3.6c2.1-2.5,4.9-3.8,8.6-3.8c1.9,0,3.5,0.4,4.8,1.2s2.2,1.9,2.6,3.4c1.1-1.5,2.5-2.6,4.1-3.4
		c1.6-0.8,3.4-1.1,5.4-1.1C428.6,601.2,430.6,601.8,432,603.1z"/>
	<path d="M464.8,601.4l-4.5,22.6h-2.9l0.7-3.6c-1.1,1.2-2.4,2.1-3.9,2.8s-3.1,1-4.9,1c-1.9,0-3.6-0.4-5.1-1.2s-2.7-1.9-3.5-3.3
		c-0.8-1.4-1.2-3.1-1.2-5.1c0-2.6,0.6-4.8,1.7-6.9c1.1-2,2.6-3.6,4.6-4.8c1.9-1.2,4.1-1.7,6.5-1.7c2.1,0,4,0.4,5.4,1.3
		s2.5,2.1,3.2,3.6l0.9-4.7L464.8,601.4L464.8,601.4z M454.9,620.1c1.5-0.9,2.7-2.2,3.5-3.8s1.3-3.4,1.3-5.4c0-2.2-0.7-3.9-2-5.2
		c-1.3-1.2-3.1-1.9-5.5-1.9c-1.9,0-3.5,0.5-5,1.4s-2.7,2.2-3.5,3.8s-1.3,3.4-1.3,5.4c0,2.2,0.7,3.9,2,5.2c1.3,1.2,3.1,1.8,5.5,1.8
		C451.8,621.5,453.4,621,454.9,620.1z"/>
	<path d="M490.3,603.2c1.4,1.3,2.1,3.1,2.1,5.4c0,0.8-0.1,1.7-0.3,2.6l-2.6,12.9h-3.1l2.6-12.9c0.1-0.8,0.2-1.5,0.2-2.1
		c0-1.6-0.5-2.9-1.5-3.8c-1-0.9-2.4-1.3-4.4-1.3c-2.4,0-4.4,0.7-6,2s-2.6,3.3-3.2,5.9l-2.4,12.1h-3.1l4.5-22.6h2.9l-0.7,3.6
		c2.1-2.5,5.1-3.8,8.9-3.8C486.9,601.2,488.8,601.9,490.3,603.2z"/>
	<path d="M523.1,601.4l-4.5,22.6h-2.9l0.7-3.6c-1.1,1.2-2.4,2.1-3.9,2.8s-3.1,1-4.9,1c-1.9,0-3.6-0.4-5.1-1.2s-2.7-1.9-3.5-3.3
		c-0.8-1.4-1.2-3.1-1.2-5.1c0-2.6,0.6-4.8,1.7-6.9c1.1-2,2.6-3.6,4.6-4.8c1.9-1.2,4.1-1.7,6.5-1.7c2.1,0,4,0.4,5.4,1.3
		s2.5,2.1,3.2,3.6l0.9-4.7L523.1,601.4L523.1,601.4z M513.3,620.1c1.5-0.9,2.7-2.2,3.5-3.8s1.3-3.4,1.3-5.4c0-2.2-0.7-3.9-2-5.2
		c-1.3-1.2-3.1-1.9-5.5-1.9c-1.9,0-3.5,0.5-5,1.4s-2.7,2.2-3.5,3.8s-1.3,3.4-1.3,5.4c0,2.2,0.7,3.9,2,5.2c1.3,1.2,3.1,1.8,5.5,1.8
		C510.1,621.5,511.8,621,513.3,620.1z"/>
	<path d="M565.4,592.1L559,624h-2.9l0.7-3.6c-1.1,1.2-2.4,2.1-3.9,2.8s-3.1,1-4.9,1c-1.9,0-3.6-0.4-5.1-1.2s-2.7-1.9-3.5-3.3
		c-0.8-1.4-1.2-3.1-1.2-5.1c0-2.6,0.6-4.8,1.7-6.9c1.1-2,2.6-3.6,4.6-4.8c1.9-1.2,4.1-1.7,6.5-1.7c2.1,0,3.9,0.4,5.4,1.3
		s2.5,2.1,3.2,3.6l2.8-14H565.4z M553.7,620.1c1.5-0.9,2.7-2.2,3.5-3.8s1.3-3.4,1.3-5.4c0-2.2-0.7-3.9-2-5.2s-3.1-1.9-5.5-1.9
		c-1.9,0-3.5,0.5-5,1.4s-2.7,2.2-3.5,3.8s-1.3,3.4-1.3,5.4c0,2.2,0.7,3.9,2,5.2s3.1,1.8,5.5,1.8C550.5,621.5,552.2,621,553.7,620.1z
		"/>
	<path d="M570.4,613.5c0,0.2,0,0.5,0,0.9c0,2.3,0.7,4,2,5.2s3.2,1.8,5.8,1.8c1.5,0,2.9-0.3,4.2-0.8s2.4-1.2,3.2-2.1l1.4,2.2
		c-1.1,1.1-2.4,1.9-4,2.5s-3.3,0.9-5.1,0.9c-3.3,0-5.8-0.9-7.7-2.6c-1.9-1.7-2.8-4.1-2.8-7.1c0-2.5,0.5-4.8,1.6-6.8s2.6-3.6,4.5-4.8
		s4-1.7,6.4-1.7c3,0,5.4,0.9,7.2,2.6c1.8,1.7,2.7,4,2.7,7c0,0.8-0.1,1.7-0.3,2.8L570.4,613.5L570.4,613.5z M574,605.8
		c-1.6,1.3-2.7,3.2-3.3,5.5h16.1c0-0.2,0-0.5,0-0.8c0-2.1-0.6-3.8-1.9-4.9s-3-1.7-5.2-1.7C577.5,603.8,575.6,604.5,574,605.8z"/>
	<path d="M611.2,592.1h3.1l-6.4,31.9h-3.1L611.2,592.1z"/>
	<path d="M621,623c-1.5-0.8-2.7-1.9-3.6-3.4s-1.3-3.1-1.3-5.1c0-2.6,0.6-4.8,1.7-6.9c1.1-2,2.7-3.6,4.7-4.8s4.2-1.7,6.7-1.7
		c3.2,0,5.7,0.9,7.5,2.6c1.8,1.7,2.8,4,2.8,7c0,2.6-0.6,4.9-1.7,6.9c-1.1,2-2.7,3.7-4.7,4.8c-2,1.2-4.2,1.7-6.7,1.7
		C624.4,624.2,622.5,623.8,621,623z M631.7,620.1c1.5-0.9,2.7-2.2,3.5-3.8s1.3-3.4,1.3-5.4c0-2.2-0.7-3.9-2-5.2
		c-1.3-1.2-3.1-1.9-5.5-1.9c-1.9,0-3.5,0.5-5,1.4s-2.7,2.2-3.5,3.8s-1.3,3.4-1.3,5.4c0,2.2,0.7,3.9,2,5.2c1.3,1.2,3.1,1.8,5.5,1.8
		C628.5,621.5,630.2,621,631.7,620.1z"/>
	<path d="M644.7,623.4c-1.6-0.5-2.9-1.2-3.8-2l1.5-2.4c0.9,0.7,2,1.3,3.4,1.8s2.9,0.7,4.4,0.7c2.1,0,3.8-0.4,5-1.1
		c1.2-0.7,1.7-1.7,1.7-3c0-0.7-0.2-1.3-0.7-1.7s-1.1-0.8-1.7-1c-0.7-0.2-1.7-0.5-3-0.8c-1.6-0.3-2.9-0.7-3.8-1
		c-1-0.3-1.8-0.9-2.5-1.6c-0.7-0.7-1-1.8-1-3.1c0-2.1,0.9-3.9,2.7-5.1c1.8-1.3,4.2-1.9,7.1-1.9c1.5,0,2.9,0.2,4.3,0.6
		c1.4,0.4,2.5,0.9,3.4,1.5l-1.3,2.5c-0.9-0.6-1.9-1.1-3-1.4c-1.2-0.3-2.4-0.5-3.6-0.5c-2.1,0-3.7,0.4-4.8,1.1
		c-1.1,0.7-1.7,1.7-1.7,3c0,0.7,0.2,1.3,0.7,1.8s1.1,0.8,1.8,1s1.7,0.5,3,0.7c1.5,0.3,2.8,0.7,3.8,1s1.8,0.9,2.5,1.6
		c0.7,0.7,1,1.7,1,3c0,2.2-0.9,3.9-2.7,5.2c-1.8,1.2-4.3,1.9-7.3,1.9C648.1,624.2,646.4,624,644.7,623.4z"/>
	<path d="M697.1,603.2c1.4,1.3,2.1,3.1,2.1,5.4c0,0.8-0.1,1.7-0.3,2.6l-2.6,12.9h-3.1l2.6-12.9c0.1-0.8,0.2-1.5,0.2-2.1
		c0-1.6-0.5-2.9-1.5-3.8c-1-0.9-2.4-1.3-4.4-1.3c-2.4,0-4.4,0.7-6,2s-2.6,3.3-3.2,5.9l-2.4,12.1h-3.1l6.4-31.9h3.1l-2.5,12.7
		c2.1-2.4,5-3.6,8.6-3.6C693.7,601.2,695.7,601.9,697.1,603.2z"/>
	<path d="M707.6,613.5c0,0.2,0,0.5,0,0.9c0,2.3,0.7,4,2,5.2s3.2,1.8,5.8,1.8c1.5,0,2.9-0.3,4.2-0.8s2.4-1.2,3.2-2.1l1.4,2.2
		c-1.1,1.1-2.4,1.9-4,2.5s-3.3,0.9-5.1,0.9c-3.3,0-5.8-0.9-7.7-2.6c-1.9-1.7-2.8-4.1-2.8-7.1c0-2.5,0.5-4.8,1.6-6.8s2.6-3.6,4.5-4.8
		s4-1.7,6.4-1.7c3,0,5.4,0.9,7.2,2.6c1.8,1.7,2.7,4,2.7,7c0,0.8-0.1,1.7-0.3,2.8L707.6,613.5L707.6,613.5z M711.2,605.8
		c-1.6,1.3-2.7,3.2-3.3,5.5H724c0-0.2,0-0.5,0-0.8c0-2.1-0.6-3.8-1.9-4.9s-3-1.7-5.2-1.7C714.8,603.8,712.8,604.5,711.2,605.8z"/>
	<path d="M737.1,592.1h3.1l-6.4,31.9h-3.1L737.1,592.1z"/>
	<path d="M763,602.4c1.5,0.8,2.7,1.9,3.5,3.3c0.8,1.4,1.2,3.1,1.2,5.1c0,2.6-0.6,4.9-1.7,6.9c-1.1,2-2.6,3.7-4.6,4.8
		c-2,1.2-4.1,1.7-6.6,1.7c-2.2,0-4-0.4-5.4-1.3c-1.5-0.8-2.5-2.1-3.2-3.7l-2.6,13.1h-3.1l6.1-31h2.9L749,605
		c1.1-1.2,2.4-2.2,3.9-2.8s3.1-1,4.9-1C759.7,601.2,761.5,601.6,763,602.4z M759.9,620.1c1.5-0.9,2.6-2.2,3.5-3.8
		c0.8-1.6,1.3-3.4,1.3-5.5c0-2.2-0.7-3.9-2-5.2c-1.3-1.2-3.1-1.9-5.5-1.9c-1.9,0-3.5,0.5-5,1.4s-2.6,2.2-3.5,3.8
		c-0.8,1.6-1.3,3.4-1.3,5.5c0,2.2,0.7,3.9,2,5.2c1.3,1.2,3.1,1.8,5.5,1.8C756.7,621.5,758.4,621,759.9,620.1z"/>
	<path d="M774.3,613.5c0,0.2,0,0.5,0,0.9c0,2.3,0.7,4,2,5.2s3.2,1.8,5.8,1.8c1.5,0,2.9-0.3,4.2-0.8s2.4-1.2,3.2-2.1l1.4,2.2
		c-1.1,1.1-2.4,1.9-4,2.5s-3.3,0.9-5.1,0.9c-3.3,0-5.8-0.9-7.7-2.6c-1.9-1.7-2.8-4.1-2.8-7.1c0-2.5,0.5-4.8,1.6-6.8s2.6-3.6,4.5-4.8
		s4-1.7,6.4-1.7c3,0,5.4,0.9,7.2,2.6c1.8,1.7,2.7,4,2.7,7c0,0.8-0.1,1.7-0.3,2.8L774.3,613.5L774.3,613.5z M777.9,605.8
		c-1.6,1.3-2.7,3.2-3.3,5.5h16.1c0-0.2,0-0.5,0-0.8c0-2.1-0.6-3.8-1.9-4.9s-3-1.7-5.2-1.7C781.4,603.8,779.5,604.5,777.9,605.8z"/>
	<path d="M807.9,602.3c1.5-0.7,3.4-1.1,5.5-1.1l-0.6,3h-0.9c-2.4,0-4.4,0.7-6,2.1c-1.6,1.4-2.6,3.5-3.2,6.3l-2.3,11.5h-3.1l4.5-22.6
		h2.9l-0.8,4.1C805.1,604,806.4,603,807.9,602.3z"/>
	<path d="M815.9,623.4c-1.6-0.5-2.9-1.2-3.8-2l1.5-2.4c0.9,0.7,2,1.3,3.4,1.8s2.9,0.7,4.4,0.7c2.1,0,3.8-0.4,5-1.1
		c1.2-0.7,1.7-1.7,1.7-3c0-0.7-0.2-1.3-0.7-1.7s-1.1-0.8-1.7-1c-0.7-0.2-1.7-0.5-3-0.8c-1.6-0.3-2.9-0.7-3.8-1
		c-1-0.3-1.8-0.9-2.5-1.6c-0.7-0.7-1-1.8-1-3.1c0-2.1,0.9-3.9,2.7-5.1c1.8-1.3,4.2-1.9,7.1-1.9c1.5,0,2.9,0.2,4.3,0.6
		c1.4,0.4,2.5,0.9,3.4,1.5l-1.3,2.5c-0.9-0.6-1.9-1.1-3-1.4c-1.2-0.3-2.4-0.5-3.6-0.5c-2.1,0-3.7,0.4-4.8,1.1
		c-1.1,0.7-1.7,1.7-1.7,3c0,0.7,0.2,1.3,0.7,1.8s1.1,0.8,1.8,1s1.7,0.5,3,0.7c1.5,0.3,2.8,0.7,3.8,1s1.8,0.9,2.5,1.6
		c0.7,0.7,1,1.7,1,3c0,2.2-0.9,3.9-2.7,5.2c-1.8,1.2-4.3,1.9-7.3,1.9C819.3,624.2,817.6,624,815.9,623.4z"/>
	<path d="M868.3,603.2c1.4,1.3,2.1,3.1,2.1,5.4c0,0.8-0.1,1.7-0.3,2.6l-2.6,12.9h-3.1l2.6-12.9c0.1-0.8,0.2-1.5,0.2-2.1
		c0-1.6-0.5-2.9-1.5-3.8c-1-0.9-2.4-1.3-4.4-1.3c-2.4,0-4.4,0.7-6,2s-2.6,3.3-3.2,5.9l-2.4,12.1h-3.1l6.4-31.9h3.1l-2.5,12.7
		c2.1-2.4,5-3.6,8.6-3.6C864.9,601.2,866.9,601.9,868.3,603.2z"/>
	<path d="M901.2,601.4l-4.5,22.6h-2.9l0.7-3.6c-1.1,1.2-2.4,2.1-3.9,2.8s-3.1,1-4.9,1c-1.9,0-3.6-0.4-5.1-1.2s-2.7-1.9-3.5-3.3
		s-1.2-3.1-1.2-5.1c0-2.6,0.6-4.8,1.7-6.9c1.1-2,2.6-3.6,4.6-4.8c1.9-1.2,4.1-1.7,6.5-1.7c2.1,0,4,0.4,5.4,1.3s2.5,2.1,3.2,3.6
		l0.9-4.7L901.2,601.4L901.2,601.4z M891.3,620.1c1.5-0.9,2.7-2.2,3.5-3.8s1.3-3.4,1.3-5.4c0-2.2-0.7-3.9-2-5.2
		c-1.3-1.2-3.1-1.9-5.5-1.9c-1.9,0-3.5,0.5-5,1.4s-2.7,2.2-3.5,3.8s-1.3,3.4-1.3,5.4c0,2.2,0.7,3.9,2,5.2c1.3,1.2,3.1,1.8,5.5,1.8
		C888.2,621.5,889.8,621,891.3,620.1z"/>
	<path d="M909.9,623c-1.6-0.8-2.8-1.9-3.6-3.4s-1.3-3.1-1.3-5.1c0-2.6,0.6-4.8,1.7-6.9c1.1-2,2.7-3.6,4.7-4.8s4.3-1.7,6.8-1.7
		c2.1,0,3.9,0.4,5.4,1.1s2.7,1.9,3.5,3.4l-2.6,1.5c-1.3-2.2-3.5-3.4-6.6-3.4c-1.9,0-3.5,0.5-5.1,1.4c-1.5,0.9-2.7,2.2-3.5,3.8
		s-1.3,3.4-1.3,5.5c0,2.2,0.7,3.9,2,5.2c1.3,1.2,3.2,1.8,5.6,1.8c1.5,0,2.8-0.3,4.1-0.8c1.2-0.6,2.3-1.4,3.1-2.4l2.2,1.7
		c-1,1.3-2.3,2.4-4,3.2s-3.5,1.1-5.4,1.1C913.3,624.2,911.4,623.8,909.9,623z"/>
	<path d="M931.8,613.5c0,0.2,0,0.5,0,0.9c0,2.3,0.7,4,2,5.2s3.2,1.8,5.8,1.8c1.5,0,2.9-0.3,4.2-0.8s2.4-1.2,3.2-2.1l1.4,2.2
		c-1.1,1.1-2.4,1.9-4,2.5s-3.3,0.9-5.1,0.9c-3.3,0-5.8-0.9-7.7-2.6c-1.9-1.7-2.8-4.1-2.8-7.1c0-2.5,0.5-4.8,1.6-6.8s2.6-3.6,4.5-4.8
		s4-1.7,6.4-1.7c3,0,5.4,0.9,7.2,2.6c1.8,1.7,2.7,4,2.7,7c0,0.8-0.1,1.7-0.3,2.8L931.8,613.5L931.8,613.5z M935.4,605.8
		c-1.6,1.3-2.7,3.2-3.3,5.5h16.1c0-0.2,0-0.5,0-0.8c0-2.1-0.6-3.8-1.9-4.9s-3-1.7-5.2-1.7C939,603.8,937,604.5,935.4,605.8z"/>
	<path d="M120.8,653l-6.2,31h-3.1l2.3-11.7c-1.1,1.2-2.3,2.1-3.8,2.7c-1.5,0.6-3.1,0.9-4.8,0.9c-1.9,0-3.6-0.4-5.1-1.2
		s-2.7-1.9-3.5-3.3c-0.8-1.4-1.2-3.1-1.2-5.1c0-2.6,0.6-4.8,1.7-6.9c1.1-2,2.6-3.6,4.6-4.8c1.9-1.2,4.1-1.7,6.5-1.7
		c2.2,0,4,0.4,5.5,1.3c1.5,0.9,2.5,2.2,3.2,3.8l1-4.9L120.8,653L120.8,653z M110.9,671.7c1.5-0.9,2.7-2.2,3.5-3.8s1.3-3.4,1.3-5.4
		c0-2.2-0.7-3.9-2-5.2c-1.3-1.2-3.1-1.9-5.5-1.9c-1.9,0-3.5,0.5-5,1.4s-2.7,2.2-3.5,3.8s-1.3,3.4-1.3,5.4c0,2.2,0.7,3.9,2,5.2
		c1.3,1.2,3.1,1.8,5.5,1.8C107.8,673.1,109.5,672.6,110.9,671.7z"/>
	<path d="M149.7,653l-4.5,22.6h-2.9l0.7-3.6c-2.1,2.6-5,3.8-8.7,3.8c-2.5,0-4.5-0.7-5.9-2s-2.1-3.1-2.1-5.4c0-0.8,0.1-1.6,0.3-2.5
		L129,653h3.1l-2.6,12.9c-0.1,0.8-0.2,1.5-0.2,2c0,1.7,0.5,2.9,1.4,3.8c1,0.9,2.4,1.3,4.3,1.3c2.4,0,4.4-0.7,6-2s2.6-3.3,3.2-5.9
		l2.4-12.2h3.1V653z"/>
	<path d="M156.6,665.1c0,0.2,0,0.5,0,0.9c0,2.3,0.7,4,2,5.2s3.2,1.8,5.8,1.8c1.5,0,2.9-0.3,4.2-0.8s2.4-1.2,3.2-2.1l1.4,2.2
		c-1.1,1.1-2.4,1.9-4,2.5s-3.3,0.9-5.1,0.9c-3.3,0-5.8-0.9-7.7-2.6c-1.9-1.7-2.8-4.1-2.8-7.1c0-2.5,0.5-4.8,1.6-6.8s2.6-3.6,4.5-4.8
		s4-1.7,6.4-1.7c3,0,5.4,0.9,7.2,2.6c1.8,1.7,2.7,4,2.7,7c0,0.8-0.1,1.7-0.3,2.8L156.6,665.1L156.6,665.1z M160.1,657.4
		c-1.6,1.3-2.7,3.2-3.3,5.5H173c0-0.2,0-0.5,0-0.8c0-2.1-0.6-3.8-1.9-4.9s-3-1.7-5.2-1.7C163.7,655.4,161.7,656.1,160.1,657.4z"/>
	<path d="M229,654.7c1.4,1.3,2.1,3.1,2.1,5.4c0,0.7-0.1,1.5-0.3,2.7l-2.6,12.9h-3.1l2.6-12.9c0.1-0.7,0.2-1.4,0.2-2.1
		c0-1.6-0.5-2.8-1.4-3.7s-2.3-1.3-4.2-1.3c-2.3,0-4.2,0.6-5.7,1.9c-1.5,1.3-2.5,3.2-3.1,5.7l-2.5,12.5h-3.1l2.6-12.9
		c0.1-0.8,0.2-1.5,0.2-2.1c0-1.6-0.5-2.9-1.4-3.8c-0.9-0.9-2.3-1.3-4.2-1.3c-2.3,0-4.2,0.7-5.8,2c-1.5,1.3-2.6,3.3-3.1,5.9
		l-2.4,12.1H191l4.5-22.6h2.9l-0.7,3.6c2.1-2.5,4.9-3.8,8.6-3.8c1.9,0,3.5,0.4,4.8,1.2s2.2,1.9,2.6,3.4c1.1-1.5,2.5-2.6,4.1-3.4
		c1.6-0.8,3.4-1.1,5.4-1.1C225.7,652.8,227.6,653.4,229,654.7z"/>
	<path d="M241.1,653h3.1l-4.5,22.6h-3.1L241.1,653z M242.4,647.4c-0.4-0.4-0.6-0.9-0.6-1.4c0-0.7,0.2-1.2,0.7-1.7
		c0.4-0.4,1-0.7,1.7-0.7c0.6,0,1.1,0.2,1.5,0.6c0.4,0.4,0.6,0.8,0.6,1.4c0,0.7-0.2,1.3-0.7,1.7c-0.5,0.5-1,0.7-1.7,0.7
		C243.3,648,242.8,647.8,242.4,647.4z"/>
	<path d="M260.8,675c-1.6-0.5-2.9-1.2-3.8-2l1.5-2.4c0.9,0.7,2,1.3,3.4,1.8s2.9,0.7,4.4,0.7c2.1,0,3.8-0.4,5-1.1
		c1.2-0.7,1.7-1.7,1.7-3c0-0.7-0.2-1.3-0.7-1.7s-1.1-0.8-1.7-1c-0.7-0.2-1.7-0.5-3-0.8c-1.6-0.3-2.9-0.7-3.8-1s-1.8-0.9-2.5-1.6
		s-1-1.8-1-3.1c0-2.1,0.9-3.9,2.7-5.1c1.8-1.3,4.2-1.9,7.1-1.9c1.5,0,2.9,0.2,4.3,0.6c1.4,0.4,2.5,0.9,3.4,1.5l-1.3,2.5
		c-0.9-0.6-1.9-1.1-3-1.4c-1.2-0.3-2.4-0.5-3.6-0.5c-2.1,0-3.7,0.4-4.8,1.1c-1.1,0.7-1.7,1.7-1.7,3c0,0.7,0.2,1.3,0.7,1.8
		s1.1,0.8,1.8,1c0.7,0.2,1.7,0.5,3,0.7c1.5,0.3,2.8,0.7,3.8,1s1.8,0.9,2.5,1.6s1,1.7,1,3c0,2.2-0.9,3.9-2.7,5.2
		c-1.8,1.2-4.3,1.9-7.3,1.9C264.2,675.8,262.5,675.6,260.8,675z"/>
	<path d="M285.3,668.8c-0.1,0.7-0.2,1.2-0.2,1.4c0,2,1.1,3,3.3,3c1.3,0,2.5-0.4,3.5-1.2l0.7,2.3c-1.3,1-3,1.5-5,1.5
		c-1.7,0-3-0.5-4-1.4s-1.5-2.2-1.5-3.8c0-0.6,0.1-1.2,0.2-1.8l2.6-13.3h-4l0.5-2.6h4l1-4.9h3.1l-1,4.9h6.9l-0.5,2.6H288L285.3,668.8
		z"/>
	<path d="M308.3,653.9c1.5-0.7,3.4-1.1,5.5-1.1l-0.6,3h-0.9c-2.4,0-4.4,0.7-6,2.1c-1.6,1.4-2.6,3.5-3.2,6.3l-2.3,11.5h-3.1l4.5-22.6
		h2.9l-0.8,4.1C305.5,655.6,306.8,654.6,308.3,653.9z"/>
	<path d="M317.4,665.1c0,0.2,0,0.5,0,0.9c0,2.3,0.7,4,2,5.2s3.2,1.8,5.8,1.8c1.5,0,2.9-0.3,4.2-0.8c1.3-0.5,2.4-1.2,3.2-2.1l1.4,2.2
		c-1.1,1.1-2.4,1.9-4,2.5s-3.3,0.9-5.1,0.9c-3.3,0-5.8-0.9-7.7-2.6c-1.9-1.7-2.8-4.1-2.8-7.1c0-2.5,0.5-4.8,1.6-6.8s2.6-3.6,4.5-4.8
		s4-1.7,6.4-1.7c3,0,5.4,0.9,7.2,2.6c1.8,1.7,2.7,4,2.7,7c0,0.8-0.1,1.7-0.3,2.8L317.4,665.1L317.4,665.1z M321,657.4
		c-1.6,1.3-2.7,3.2-3.3,5.5h16.1c0-0.2,0-0.5,0-0.8c0-2.1-0.6-3.8-1.9-4.9s-3-1.7-5.2-1.7C324.5,655.4,322.6,656.1,321,657.4z"/>
	<path d="M342,675c-1.6-0.5-2.9-1.2-3.8-2l1.5-2.4c0.9,0.7,2,1.3,3.4,1.8s2.9,0.7,4.4,0.7c2.1,0,3.8-0.4,5-1.1
		c1.2-0.7,1.7-1.7,1.7-3c0-0.7-0.2-1.3-0.7-1.7s-1.1-0.8-1.7-1c-0.7-0.2-1.7-0.5-3-0.8c-1.6-0.3-2.9-0.7-3.8-1s-1.8-0.9-2.5-1.6
		s-1-1.8-1-3.1c0-2.1,0.9-3.9,2.7-5.1c1.8-1.3,4.2-1.9,7.1-1.9c1.5,0,2.9,0.2,4.3,0.6c1.4,0.4,2.5,0.9,3.4,1.5l-1.3,2.5
		c-0.9-0.6-1.9-1.1-3-1.4c-1.2-0.3-2.4-0.5-3.6-0.5c-2.1,0-3.7,0.4-4.8,1.1c-1.1,0.7-1.7,1.7-1.7,3c0,0.7,0.2,1.3,0.7,1.8
		s1.1,0.8,1.8,1c0.7,0.2,1.7,0.5,3,0.7c1.5,0.3,2.8,0.7,3.8,1s1.8,0.9,2.5,1.6s1,1.7,1,3c0,2.2-0.9,3.9-2.7,5.2
		c-1.8,1.2-4.3,1.9-7.3,1.9C345.3,675.8,343.6,675.6,342,675z"/>
	<path d="M363,675c-1.6-0.5-2.9-1.2-3.8-2l1.5-2.4c0.9,0.7,2,1.3,3.4,1.8s2.9,0.7,4.4,0.7c2.1,0,3.8-0.4,5-1.1
		c1.2-0.7,1.7-1.7,1.7-3c0-0.7-0.2-1.3-0.7-1.7s-1.1-0.8-1.7-1c-0.7-0.2-1.7-0.5-3-0.8c-1.6-0.3-2.9-0.7-3.8-1s-1.8-0.9-2.5-1.6
		s-1-1.8-1-3.1c0-2.1,0.9-3.9,2.7-5.1c1.8-1.3,4.2-1.9,7.1-1.9c1.5,0,2.9,0.2,4.3,0.6c1.4,0.4,2.5,0.9,3.4,1.5l-1.3,2.5
		c-0.9-0.6-1.9-1.1-3-1.4c-1.2-0.3-2.4-0.5-3.6-0.5c-2.1,0-3.7,0.4-4.8,1.1c-1.1,0.7-1.7,1.7-1.7,3c0,0.7,0.2,1.3,0.7,1.8
		s1.1,0.8,1.8,1c0.7,0.2,1.7,0.5,3,0.7c1.5,0.3,2.8,0.7,3.8,1s1.8,0.9,2.5,1.6s1,1.7,1,3c0,2.2-0.9,3.9-2.7,5.2
		c-1.8,1.2-4.3,1.9-7.3,1.9C366.4,675.8,364.6,675.6,363,675z"/>
	<path d="M414.5,654c1.5,0.8,2.7,1.9,3.5,3.3c0.8,1.4,1.2,3.1,1.2,5.1c0,2.6-0.6,4.9-1.7,6.9s-2.6,3.7-4.6,4.8
		c-1.9,1.2-4.1,1.7-6.6,1.7c-2.2,0-4-0.4-5.4-1.3c-1.5-0.8-2.5-2.1-3.2-3.7l-2.6,13.1H392l6.1-31h2.9l-0.7,3.6
		c1.1-1.2,2.4-2.2,3.9-2.8s3.1-1,4.9-1C411.3,652.8,413,653.2,414.5,654z M411.4,671.7c1.5-0.9,2.6-2.2,3.5-3.8
		c0.8-1.6,1.3-3.4,1.3-5.5c0-2.2-0.7-3.9-2-5.2c-1.3-1.2-3.1-1.9-5.5-1.9c-1.9,0-3.5,0.5-5,1.4s-2.6,2.2-3.5,3.8
		c-0.8,1.6-1.3,3.4-1.3,5.5c0,2.2,0.7,3.9,2,5.2c1.3,1.2,3.1,1.8,5.5,1.8C408.3,673.1,409.9,672.6,411.4,671.7z"/>
	<path d="M427.7,674.6c-1.5-0.8-2.7-1.9-3.6-3.4c-0.8-1.4-1.3-3.1-1.3-5.1c0-2.6,0.6-4.8,1.7-6.9c1.1-2,2.7-3.6,4.7-4.8
		s4.2-1.7,6.7-1.7c3.2,0,5.7,0.9,7.5,2.6c1.8,1.7,2.8,4,2.8,7c0,2.6-0.6,4.9-1.7,6.9s-2.7,3.7-4.7,4.8c-2,1.2-4.2,1.7-6.7,1.7
		C431,675.8,429.2,675.4,427.7,674.6z M438.3,671.7c1.5-0.9,2.7-2.2,3.5-3.8s1.3-3.4,1.3-5.4c0-2.2-0.7-3.9-2-5.2
		c-1.3-1.2-3.1-1.9-5.5-1.9c-1.9,0-3.5,0.5-5,1.4s-2.7,2.2-3.5,3.8s-1.3,3.4-1.3,5.4c0,2.2,0.7,3.9,2,5.2c1.3,1.2,3.1,1.8,5.5,1.8
		C435.2,673.1,436.8,672.6,438.3,671.7z"/>
	<path d="M460.4,653.9c1.5-0.7,3.4-1.1,5.5-1.1l-0.6,3h-0.9c-2.4,0-4.4,0.7-6,2.1c-1.6,1.4-2.6,3.5-3.2,6.3l-2.3,11.5H450l4.5-22.6
		h2.9l-0.8,4.1C457.6,655.6,458.9,654.6,460.4,653.9z"/>
	<path d="M481.3,665.1c0,0.2,0,0.5,0,0.9c0,2.3,0.7,4,2,5.2s3.2,1.8,5.8,1.8c1.5,0,2.9-0.3,4.2-0.8c1.3-0.5,2.4-1.2,3.2-2.1l1.4,2.2
		c-1.1,1.1-2.4,1.9-4,2.5s-3.3,0.9-5.1,0.9c-3.3,0-5.8-0.9-7.7-2.6c-1.9-1.7-2.8-4.1-2.8-7.1c0-2.5,0.5-4.8,1.6-6.8s2.6-3.6,4.5-4.8
		s4-1.7,6.4-1.7c3,0,5.4,0.9,7.2,2.6c1.8,1.7,2.7,4,2.7,7c0,0.8-0.1,1.7-0.3,2.8L481.3,665.1L481.3,665.1z M484.9,657.4
		c-1.6,1.3-2.7,3.2-3.3,5.5h16.1c0-0.2,0-0.5,0-0.8c0-2.1-0.6-3.8-1.9-4.9s-3-1.7-5.2-1.7C488.4,655.4,486.5,656.1,484.9,657.4z"/>
	<path d="M505.9,675c-1.6-0.5-2.9-1.2-3.8-2l1.5-2.4c0.9,0.7,2,1.3,3.4,1.8s2.9,0.7,4.4,0.7c2.1,0,3.8-0.4,5-1.1
		c1.2-0.7,1.7-1.7,1.7-3c0-0.7-0.2-1.3-0.7-1.7s-1.1-0.8-1.7-1c-0.7-0.2-1.7-0.5-3-0.8c-1.6-0.3-2.9-0.7-3.8-1s-1.8-0.9-2.5-1.6
		s-1-1.8-1-3.1c0-2.1,0.9-3.9,2.7-5.1c1.8-1.3,4.2-1.9,7.1-1.9c1.5,0,2.9,0.2,4.3,0.6c1.4,0.4,2.5,0.9,3.4,1.5l-1.3,2.5
		c-0.9-0.6-1.9-1.1-3-1.4c-1.2-0.3-2.4-0.5-3.6-0.5c-2.1,0-3.7,0.4-4.8,1.1c-1.1,0.7-1.7,1.7-1.7,3c0,0.7,0.2,1.3,0.7,1.8
		s1.1,0.8,1.8,1c0.7,0.2,1.7,0.5,3,0.7c1.5,0.3,2.8,0.7,3.8,1s1.8,0.9,2.5,1.6s1,1.7,1,3c0,2.2-0.9,3.9-2.7,5.2
		c-1.8,1.2-4.3,1.9-7.3,1.9C509.2,675.8,507.5,675.6,505.9,675z"/>
	<path d="M530.4,668.8c-0.1,0.7-0.2,1.2-0.2,1.4c0,2,1.1,3,3.3,3c1.3,0,2.5-0.4,3.5-1.2l0.7,2.3c-1.3,1-3,1.5-5,1.5
		c-1.7,0-3-0.5-4-1.4s-1.5-2.2-1.5-3.8c0-0.6,0.1-1.2,0.2-1.8l2.6-13.3h-4l0.5-2.6h4l1-4.9h3.1l-1,4.9h6.9l-0.5,2.6h-7L530.4,668.8z
		"/>
	<path d="M545,665.1c0,0.2,0,0.5,0,0.9c0,2.3,0.7,4,2,5.2s3.2,1.8,5.8,1.8c1.5,0,2.9-0.3,4.2-0.8s2.4-1.2,3.2-2.1l1.4,2.2
		c-1.1,1.1-2.4,1.9-4,2.5s-3.3,0.9-5.1,0.9c-3.3,0-5.8-0.9-7.7-2.6c-1.9-1.7-2.8-4.1-2.8-7.1c0-2.5,0.5-4.8,1.6-6.8s2.6-3.6,4.5-4.8
		s4-1.7,6.4-1.7c3,0,5.4,0.9,7.2,2.6c1.8,1.7,2.7,4,2.7,7c0,0.8-0.1,1.7-0.3,2.8L545,665.1L545,665.1z M548.5,657.4
		c-1.6,1.3-2.7,3.2-3.3,5.5h16.1c0-0.2,0-0.5,0-0.8c0-2.1-0.6-3.8-1.9-4.9s-3-1.7-5.2-1.7C552.1,655.4,550.2,656.1,548.5,657.4z"/>
	<path d="M582.2,665.1c0,0.2,0,0.5,0,0.9c0,2.3,0.7,4,2,5.2s3.2,1.8,5.8,1.8c1.5,0,2.9-0.3,4.2-0.8s2.4-1.2,3.2-2.1l1.4,2.2
		c-1.1,1.1-2.4,1.9-4,2.5s-3.3,0.9-5.1,0.9c-3.3,0-5.8-0.9-7.7-2.6c-1.9-1.7-2.8-4.1-2.8-7.1c0-2.5,0.5-4.8,1.6-6.8s2.6-3.6,4.5-4.8
		s4-1.7,6.4-1.7c3,0,5.4,0.9,7.2,2.6c1.8,1.7,2.7,4,2.7,7c0,0.8-0.1,1.7-0.3,2.8L582.2,665.1L582.2,665.1z M585.8,657.4
		c-1.6,1.3-2.7,3.2-3.3,5.5h16.1c0-0.2,0-0.5,0-0.8c0-2.1-0.6-3.8-1.9-4.9s-3-1.7-5.2-1.7C589.3,655.4,587.4,656.1,585.8,657.4z"/>
	<path d="M626.8,654.8c1.4,1.3,2.1,3.1,2.1,5.4c0,0.8-0.1,1.7-0.3,2.6l-2.6,12.9h-3.1l2.6-12.9c0.1-0.8,0.2-1.5,0.2-2.1
		c0-1.6-0.5-2.9-1.5-3.8c-1-0.9-2.4-1.3-4.4-1.3c-2.4,0-4.4,0.7-6,2s-2.6,3.3-3.2,5.9l-2.4,12.1h-3.1l4.5-22.6h2.9l-0.7,3.6
		c2.2-2.5,5.1-3.8,8.9-3.8C623.4,652.8,625.4,653.5,626.8,654.8z"/>
	<path d="M639.2,674.6c-1.6-0.8-2.8-1.9-3.6-3.4s-1.3-3.1-1.3-5.1c0-2.6,0.6-4.8,1.7-6.9c1.1-2,2.7-3.6,4.7-4.8s4.3-1.7,6.8-1.7
		c2.1,0,3.9,0.4,5.4,1.1s2.7,1.9,3.5,3.4l-2.6,1.5c-1.3-2.2-3.5-3.4-6.6-3.4c-1.9,0-3.5,0.5-5.1,1.4c-1.5,0.9-2.7,2.2-3.5,3.8
		s-1.3,3.4-1.3,5.5c0,2.2,0.7,3.9,2,5.2c1.3,1.2,3.2,1.8,5.6,1.8c1.5,0,2.8-0.3,4.1-0.8c1.2-0.6,2.3-1.4,3.1-2.4l2.2,1.7
		c-1,1.3-2.3,2.4-4,3.2s-3.5,1.1-5.4,1.1C642.7,675.8,640.8,675.4,639.2,674.6z"/>
	<path d="M663.2,653h3.1l-4.5,22.6h-3.1L663.2,653z M664.6,647.4c-0.4-0.4-0.6-0.9-0.6-1.4c0-0.7,0.2-1.2,0.7-1.7
		c0.4-0.4,1-0.7,1.7-0.7c0.6,0,1.1,0.2,1.5,0.6c0.4,0.4,0.6,0.8,0.6,1.4c0,0.7-0.2,1.3-0.7,1.7c-0.5,0.5-1,0.7-1.7,0.7
		C665.5,648,665,647.8,664.6,647.4z"/>
	<path d="M673.2,665.1c0,0.2,0,0.5,0,0.9c0,2.3,0.7,4,2,5.2s3.2,1.8,5.8,1.8c1.5,0,2.9-0.3,4.2-0.8s2.4-1.2,3.2-2.1l1.4,2.2
		c-1.1,1.1-2.4,1.9-4,2.5s-3.3,0.9-5.1,0.9c-3.3,0-5.8-0.9-7.7-2.6c-1.9-1.7-2.8-4.1-2.8-7.1c0-2.5,0.5-4.8,1.6-6.8s2.6-3.6,4.5-4.8
		s4-1.7,6.4-1.7c3,0,5.4,0.9,7.2,2.6c1.8,1.7,2.7,4,2.7,7c0,0.8-0.1,1.7-0.3,2.8L673.2,665.1L673.2,665.1z M676.7,657.4
		c-1.6,1.3-2.7,3.2-3.3,5.5h16.1c0-0.2,0-0.5,0-0.8c0-2.1-0.6-3.8-1.9-4.9s-3-1.7-5.2-1.7C680.3,655.4,678.3,656.1,676.7,657.4z"/>
	<path d="M706.7,653.9c1.5-0.7,3.4-1.1,5.5-1.1l-0.6,3h-0.9c-2.4,0-4.4,0.7-6,2.1c-1.6,1.4-2.6,3.5-3.2,6.3l-2.3,11.5h-3.1l4.5-22.6
		h2.9l-0.8,4.1C703.9,655.6,705.2,654.6,706.7,653.9z"/>
	<path d="M723.6,653.9c1.5-0.7,3.4-1.1,5.5-1.1l-0.6,3h-0.9c-2.4,0-4.4,0.7-6,2.1c-1.6,1.4-2.6,3.5-3.2,6.3l-2.3,11.5H713l4.5-22.6
		h2.9l-0.8,4.1C720.8,655.6,722.1,654.6,723.6,653.9z"/>
	<path d="M734.5,674.6c-1.5-0.8-2.7-1.9-3.6-3.4s-1.3-3.1-1.3-5.1c0-2.6,0.6-4.8,1.7-6.9c1.1-2,2.7-3.6,4.7-4.8s4.2-1.7,6.7-1.7
		c3.2,0,5.7,0.9,7.5,2.6c1.8,1.7,2.8,4,2.8,7c0,2.6-0.6,4.9-1.7,6.9c-1.1,2-2.7,3.7-4.7,4.8c-2,1.2-4.2,1.7-6.7,1.7
		C737.9,675.8,736.1,675.4,734.5,674.6z M745.2,671.7c1.5-0.9,2.7-2.2,3.5-3.8s1.3-3.4,1.3-5.4c0-2.2-0.7-3.9-2-5.2
		c-1.3-1.2-3.1-1.9-5.5-1.9c-1.9,0-3.5,0.5-5,1.4s-2.7,2.2-3.5,3.8s-1.3,3.4-1.3,5.4c0,2.2,0.7,3.9,2,5.2c1.3,1.2,3.1,1.8,5.5,1.8
		C742,673.1,743.7,672.6,745.2,671.7z"/>
	<path d="M769.5,675c-1.6-0.5-2.9-1.2-3.8-2l1.5-2.4c0.9,0.7,2,1.3,3.4,1.8s2.9,0.7,4.4,0.7c2.1,0,3.8-0.4,5-1.1
		c1.2-0.7,1.7-1.7,1.7-3c0-0.7-0.2-1.3-0.7-1.7s-1.1-0.8-1.7-1c-0.7-0.2-1.7-0.5-3-0.8c-1.6-0.3-2.9-0.7-3.8-1
		c-1-0.3-1.8-0.9-2.5-1.6c-0.7-0.7-1-1.8-1-3.1c0-2.1,0.9-3.9,2.7-5.1c1.8-1.3,4.2-1.9,7.1-1.9c1.5,0,2.9,0.2,4.3,0.6
		c1.4,0.4,2.5,0.9,3.4,1.5l-1.3,2.5c-0.9-0.6-1.9-1.1-3-1.4c-1.2-0.3-2.4-0.5-3.6-0.5c-2.1,0-3.7,0.4-4.8,1.1
		c-1.1,0.7-1.7,1.7-1.7,3c0,0.7,0.2,1.3,0.7,1.8s1.1,0.8,1.8,1s1.7,0.5,3,0.7c1.5,0.3,2.8,0.7,3.8,1s1.8,0.9,2.5,1.6
		c0.7,0.7,1,1.7,1,3c0,2.2-0.9,3.9-2.7,5.2c-1.8,1.2-4.3,1.9-7.3,1.9C772.9,675.8,771.1,675.6,769.5,675z"/>
	<path d="M792,665.1c0,0.2,0,0.5,0,0.9c0,2.3,0.7,4,2,5.2s3.2,1.8,5.8,1.8c1.5,0,2.9-0.3,4.2-0.8s2.4-1.2,3.2-2.1l1.4,2.2
		c-1.1,1.1-2.4,1.9-4,2.5s-3.3,0.9-5.1,0.9c-3.3,0-5.8-0.9-7.7-2.6c-1.9-1.7-2.8-4.1-2.8-7.1c0-2.5,0.5-4.8,1.6-6.8s2.6-3.6,4.5-4.8
		s4-1.7,6.4-1.7c3,0,5.4,0.9,7.2,2.6c1.8,1.7,2.7,4,2.7,7c0,0.8-0.1,1.7-0.3,2.8L792,665.1L792,665.1z M795.5,657.4
		c-1.6,1.3-2.7,3.2-3.3,5.5h16.1c0-0.2,0-0.5,0-0.8c0-2.1-0.6-3.8-1.9-4.9s-3-1.7-5.2-1.7C799.1,655.4,797.1,656.1,795.5,657.4z"/>
	<path d="M840.3,653l-4.5,22.6h-2.9l0.7-3.6c-1.1,1.2-2.4,2.1-3.9,2.8s-3.1,1-4.9,1c-1.9,0-3.6-0.4-5.1-1.2s-2.7-1.9-3.5-3.3
		s-1.2-3.1-1.2-5.1c0-2.6,0.6-4.8,1.7-6.9c1.1-2,2.6-3.6,4.6-4.8c1.9-1.2,4.1-1.7,6.5-1.7c2.1,0,4,0.4,5.4,1.3s2.5,2.1,3.2,3.6
		l0.9-4.7L840.3,653L840.3,653z M830.4,671.7c1.5-0.9,2.7-2.2,3.5-3.8s1.3-3.4,1.3-5.4c0-2.2-0.7-3.9-2-5.2
		c-1.3-1.2-3.1-1.9-5.5-1.9c-1.9,0-3.5,0.5-5,1.4s-2.7,2.2-3.5,3.8s-1.3,3.4-1.3,5.4c0,2.2,0.7,3.9,2,5.2c1.3,1.2,3.1,1.8,5.5,1.8
		C827.2,673.1,828.9,672.6,830.4,671.7z"/>
	<path d="M893.6,654.7c1.4,1.3,2.1,3.1,2.1,5.4c0,0.7-0.1,1.5-0.3,2.7l-2.6,12.9h-3.1l2.6-12.9c0.1-0.7,0.2-1.4,0.2-2.1
		c0-1.6-0.5-2.8-1.4-3.7s-2.3-1.3-4.2-1.3c-2.3,0-4.2,0.6-5.7,1.9c-1.5,1.3-2.5,3.2-3.1,5.7l-2.5,12.5h-3.1l2.6-12.9
		c0.1-0.8,0.2-1.5,0.2-2.1c0-1.6-0.5-2.9-1.4-3.8c-0.9-0.9-2.3-1.3-4.2-1.3c-2.3,0-4.2,0.7-5.8,2c-1.5,1.3-2.6,3.3-3.1,5.9
		l-2.4,12.1h-3.1L860,653h2.9l-0.7,3.6c2.1-2.5,4.9-3.8,8.6-3.8c1.9,0,3.5,0.4,4.8,1.2s2.2,1.9,2.6,3.4c1.1-1.5,2.5-2.6,4.1-3.4
		s3.4-1.1,5.4-1.1C890.2,652.8,892.2,653.4,893.6,654.7z"/>
	<path d="M904.1,665.1c0,0.2,0,0.5,0,0.9c0,2.3,0.7,4,2,5.2s3.2,1.8,5.8,1.8c1.5,0,2.9-0.3,4.2-0.8s2.4-1.2,3.2-2.1l1.4,2.2
		c-1.1,1.1-2.4,1.9-4,2.5s-3.3,0.9-5.1,0.9c-3.3,0-5.8-0.9-7.7-2.6c-1.9-1.7-2.8-4.1-2.8-7.1c0-2.5,0.5-4.8,1.6-6.8s2.6-3.6,4.5-4.8
		s4-1.7,6.4-1.7c3,0,5.4,0.9,7.2,2.6c1.8,1.7,2.7,4,2.7,7c0,0.8-0.1,1.7-0.3,2.8L904.1,665.1L904.1,665.1z M907.6,657.4
		c-1.6,1.3-2.7,3.2-3.3,5.5h16.1c0-0.2,0-0.5,0-0.8c0-2.1-0.6-3.8-1.9-4.9s-3-1.7-5.2-1.7C911.2,655.4,909.2,656.1,907.6,657.4z"/>
	<path d="M919.8,683.8c-0.8-0.2-1.5-0.6-2.1-1.1l1.4-2.4c0.9,0.8,2,1.2,3.4,1.2c1.2,0,2.2-0.3,3-1c0.7-0.7,1.3-1.8,1.5-3.3l4.9-24.3
		h3.1l-4.9,24.3c-0.9,4.6-3.5,6.8-7.6,6.8C921.5,684.2,920.6,684,919.8,683.8z M933.2,647.4c-0.4-0.4-0.6-0.9-0.6-1.4
		c0-0.7,0.2-1.2,0.7-1.7s1-0.7,1.7-0.7c0.6,0,1.1,0.2,1.5,0.6c0.4,0.4,0.6,0.8,0.6,1.4c0,0.7-0.2,1.3-0.7,1.7
		c-0.5,0.5-1,0.7-1.7,0.7C934.1,648,933.6,647.8,933.2,647.4z"/>
	<path d="M943.6,674.6c-1.5-0.8-2.7-1.9-3.6-3.4s-1.3-3.1-1.3-5.1c0-2.6,0.6-4.8,1.7-6.9c1.1-2,2.7-3.6,4.7-4.8s4.2-1.7,6.7-1.7
		c3.2,0,5.7,0.9,7.5,2.6c1.8,1.7,2.8,4,2.8,7c0,2.6-0.6,4.9-1.7,6.9c-1.1,2-2.7,3.7-4.7,4.8c-2,1.2-4.2,1.7-6.7,1.7
		C947,675.8,945.2,675.4,943.6,674.6z M954.3,671.7c1.5-0.9,2.7-2.2,3.5-3.8s1.3-3.4,1.3-5.4c0-2.2-0.7-3.9-2-5.2
		c-1.3-1.2-3.1-1.9-5.5-1.9c-1.9,0-3.5,0.5-5,1.4s-2.7,2.2-3.5,3.8s-1.3,3.4-1.3,5.4c0,2.2,0.7,3.9,2,5.2c1.3,1.2,3.1,1.8,5.5,1.8
		C951.1,673.1,952.8,672.6,954.3,671.7z"/>
	<path d="M976.3,653.9c1.5-0.7,3.4-1.1,5.5-1.1l-0.6,3h-0.9c-2.4,0-4.4,0.7-6,2.1c-1.6,1.4-2.6,3.5-3.2,6.3l-2.3,11.5h-3.1l4.5-22.6
		h2.9l-0.8,4.1C973.6,655.6,974.8,654.6,976.3,653.9z"/>
	<path d="M100.3,726.2c-1.6-0.8-2.8-1.9-3.6-3.4c-0.8-1.4-1.3-3.1-1.3-5.1c0-2.6,0.6-4.8,1.7-6.9c1.1-2,2.7-3.6,4.7-4.8
		s4.3-1.7,6.8-1.7c2.1,0,3.9,0.4,5.4,1.1c1.5,0.8,2.7,1.9,3.5,3.4l-2.6,1.5c-1.3-2.2-3.5-3.4-6.6-3.4c-1.9,0-3.5,0.5-5.1,1.4
		c-1.5,0.9-2.7,2.2-3.5,3.8s-1.3,3.4-1.3,5.5c0,2.2,0.7,3.9,2,5.2c1.3,1.2,3.2,1.8,5.6,1.8c1.5,0,2.8-0.3,4.1-0.8
		c1.2-0.6,2.3-1.4,3.1-2.4l2.2,1.7c-1,1.3-2.3,2.4-4,3.2s-3.5,1.1-5.4,1.1C103.7,727.4,101.9,727,100.3,726.2z"/>
	<path d="M124.1,726.2c-1.5-0.8-2.7-1.9-3.6-3.4c-0.8-1.4-1.3-3.1-1.3-5.1c0-2.6,0.6-4.8,1.7-6.9c1.1-2,2.7-3.6,4.7-4.8
		s4.2-1.7,6.7-1.7c3.2,0,5.7,0.9,7.5,2.6c1.8,1.7,2.8,4,2.8,7c0,2.6-0.6,4.9-1.7,6.9c-1.1,2-2.7,3.7-4.7,4.8c-2,1.2-4.2,1.7-6.7,1.7
		C127.5,727.4,125.6,727,124.1,726.2z M134.8,723.3c1.5-0.9,2.7-2.2,3.5-3.8s1.3-3.4,1.3-5.4c0-2.2-0.7-3.9-2-5.2
		c-1.3-1.2-3.1-1.9-5.5-1.9c-1.9,0-3.5,0.5-5,1.4s-2.7,2.2-3.5,3.8s-1.3,3.4-1.3,5.4c0,2.2,0.7,3.9,2,5.2c1.3,1.2,3.1,1.8,5.5,1.8
		C131.6,724.7,133.3,724.2,134.8,723.3z"/>
	<path d="M184.5,706.3c1.4,1.3,2.1,3.1,2.1,5.4c0,0.7-0.1,1.5-0.3,2.7l-2.6,12.9h-3.1l2.6-12.9c0.1-0.7,0.2-1.4,0.2-2.1
		c0-1.6-0.5-2.8-1.4-3.7s-2.3-1.3-4.2-1.3c-2.3,0-4.2,0.6-5.7,1.9c-1.5,1.3-2.5,3.2-3.1,5.7l-2.5,12.5h-3.1l2.6-12.9
		c0.1-0.8,0.2-1.5,0.2-2.1c0-1.6-0.5-2.9-1.4-3.8c-0.9-0.9-2.3-1.3-4.2-1.3c-2.3,0-4.2,0.7-5.8,2c-1.5,1.3-2.6,3.3-3.1,5.9
		l-2.4,12.1h-3.1l4.5-22.6h2.9l-0.7,3.6c2.1-2.5,4.9-3.8,8.6-3.8c1.9,0,3.5,0.4,4.8,1.2s2.2,1.9,2.6,3.4c1.1-1.5,2.5-2.6,4.1-3.4
		c1.6-0.8,3.4-1.1,5.4-1.1C181.1,704.4,183.1,705,184.5,706.3z"/>
	<path d="M212.7,705.6c1.5,0.8,2.7,1.9,3.5,3.3c0.8,1.4,1.2,3.1,1.2,5.1c0,2.6-0.6,4.9-1.7,6.9c-1.1,2-2.6,3.7-4.6,4.8
		c-1.9,1.2-4.1,1.7-6.6,1.7c-2.2,0-4-0.4-5.4-1.3c-1.5-0.8-2.5-2.1-3.2-3.7l-2.6,13.1h-3.1l6.1-31h2.9l-0.7,3.6
		c1.1-1.2,2.4-2.2,3.9-2.8s3.1-1,4.9-1C209.4,704.4,211.2,704.8,212.7,705.6z M209.6,723.3c1.5-0.9,2.6-2.2,3.5-3.8
		c0.8-1.6,1.3-3.4,1.3-5.5c0-2.2-0.7-3.9-2-5.2c-1.3-1.2-3.1-1.9-5.5-1.9c-1.9,0-3.5,0.5-5,1.4s-2.6,2.2-3.5,3.8
		c-0.8,1.6-1.3,3.4-1.3,5.5c0,2.2,0.7,3.9,2,5.2c1.3,1.2,3.1,1.8,5.5,1.8C206.4,724.7,208.1,724.2,209.6,723.3z"/>
	<path d="M231.6,705.5c1.5-0.7,3.4-1.1,5.5-1.1l-0.6,3h-0.9c-2.4,0-4.4,0.7-6,2.1c-1.6,1.4-2.6,3.5-3.2,6.3l-2.3,11.5H221l4.5-22.6
		h2.9l-0.8,4.1C228.8,707.2,230.1,706.2,231.6,705.5z"/>
	<path d="M240.7,716.7c0,0.2,0,0.5,0,0.9c0,2.3,0.7,4,2,5.2s3.2,1.8,5.8,1.8c1.5,0,2.9-0.3,4.2-0.8s2.4-1.2,3.2-2.1l1.4,2.2
		c-1.1,1.1-2.4,1.9-4,2.5s-3.3,0.9-5.1,0.9c-3.3,0-5.8-0.9-7.7-2.6c-1.9-1.7-2.8-4.1-2.8-7.1c0-2.5,0.5-4.8,1.6-6.8s2.6-3.6,4.5-4.8
		s4-1.7,6.4-1.7c3,0,5.4,0.9,7.2,2.6c1.8,1.7,2.7,4,2.7,7c0,0.8-0.1,1.7-0.3,2.8L240.7,716.7L240.7,716.7z M244.3,709
		c-1.6,1.3-2.7,3.2-3.3,5.5h16.1c0-0.2,0-0.5,0-0.8c0-2.1-0.6-3.8-1.9-4.9s-3-1.7-5.2-1.7C247.8,707,245.9,707.7,244.3,709z"/>
	<path d="M285.3,706.4c1.4,1.3,2.1,3.1,2.1,5.4c0,0.8-0.1,1.7-0.3,2.6l-2.6,12.9h-3.1l2.6-12.9c0.1-0.8,0.2-1.5,0.2-2.1
		c0-1.6-0.5-2.9-1.5-3.8c-1-0.9-2.4-1.3-4.4-1.3c-2.4,0-4.4,0.7-6,2s-2.6,3.3-3.2,5.9l-2.4,12.1h-3.1l4.5-22.6h2.9l-0.7,3.6
		c2.1-2.5,5.1-3.8,8.9-3.8C281.9,704.4,283.9,705.1,285.3,706.4z"/>
	<path d="M320,695.3l-6.4,31.9h-2.9l0.7-3.6c-1.1,1.2-2.4,2.1-3.9,2.8s-3.1,1-4.9,1c-1.9,0-3.6-0.4-5.1-1.2s-2.7-1.9-3.5-3.3
		c-0.8-1.4-1.2-3.1-1.2-5.1c0-2.6,0.6-4.8,1.7-6.9c1.1-2,2.6-3.6,4.6-4.8c1.9-1.2,4.1-1.7,6.5-1.7c2.1,0,3.9,0.4,5.4,1.3
		c1.5,0.8,2.5,2.1,3.2,3.6l2.8-14H320z M308.4,723.3c1.5-0.9,2.7-2.2,3.5-3.8s1.3-3.4,1.3-5.4c0-2.2-0.7-3.9-2-5.2
		c-1.3-1.2-3.1-1.9-5.5-1.9c-1.9,0-3.5,0.5-5,1.4s-2.7,2.2-3.5,3.8s-1.3,3.4-1.3,5.4c0,2.2,0.7,3.9,2,5.2c1.3,1.2,3.1,1.8,5.5,1.8
		C305.2,724.7,306.9,724.2,308.4,723.3z"/>
	<path d="M326.7,704.6h3.1l-4.5,22.6h-3.1L326.7,704.6z M328,699c-0.4-0.4-0.6-0.9-0.6-1.4c0-0.7,0.2-1.2,0.7-1.7
		c0.4-0.4,1-0.7,1.7-0.7c0.6,0,1.1,0.2,1.5,0.6c0.4,0.4,0.6,0.8,0.6,1.4c0,0.7-0.2,1.3-0.7,1.7c-0.5,0.5-1,0.7-1.7,0.7
		C328.9,699.6,328.4,699.4,328,699z"/>
	<path d="M360.8,695.3l-6.4,31.9h-2.9l0.7-3.6c-1.1,1.2-2.4,2.1-3.9,2.8s-3.1,1-4.9,1c-1.9,0-3.6-0.4-5.1-1.2s-2.7-1.9-3.5-3.3
		c-0.8-1.4-1.2-3.1-1.2-5.1c0-2.6,0.6-4.8,1.7-6.9c1.1-2,2.6-3.6,4.6-4.8c1.9-1.2,4.1-1.7,6.5-1.7c2.1,0,3.9,0.4,5.4,1.3
		c1.5,0.8,2.5,2.1,3.2,3.6l2.8-14H360.8z M349.1,723.3c1.5-0.9,2.7-2.2,3.5-3.8s1.3-3.4,1.3-5.4c0-2.2-0.7-3.9-2-5.2
		c-1.3-1.2-3.1-1.9-5.5-1.9c-1.9,0-3.5,0.5-5,1.4s-2.7,2.2-3.5,3.8s-1.3,3.4-1.3,5.4c0,2.2,0.7,3.9,2,5.2c1.3,1.2,3.1,1.8,5.5,1.8
		C345.9,724.7,347.6,724.2,349.1,723.3z"/>
	<path d="M367.6,726.2c-1.5-0.8-2.7-1.9-3.6-3.4c-0.8-1.4-1.3-3.1-1.3-5.1c0-2.6,0.6-4.8,1.7-6.9c1.1-2,2.7-3.6,4.7-4.8
		s4.2-1.7,6.7-1.7c3.2,0,5.7,0.9,7.5,2.6c1.8,1.7,2.8,4,2.8,7c0,2.6-0.6,4.9-1.7,6.9s-2.7,3.7-4.7,4.8c-2,1.2-4.2,1.7-6.7,1.7
		C370.9,727.4,369.1,727,367.6,726.2z M378.2,723.3c1.5-0.9,2.7-2.2,3.5-3.8s1.3-3.4,1.3-5.4c0-2.2-0.7-3.9-2-5.2
		c-1.3-1.2-3.1-1.9-5.5-1.9c-1.9,0-3.5,0.5-5,1.4s-2.7,2.2-3.5,3.8s-1.3,3.4-1.3,5.4c0,2.2,0.7,3.9,2,5.2c1.3,1.2,3.1,1.8,5.5,1.8
		C375.1,724.7,376.7,724.2,378.2,723.3z"/>
	<path d="M424.7,704.6l-16.5,25.5c-1.4,2.1-2.7,3.6-3.9,4.4c-1.2,0.8-2.6,1.2-4.3,1.2c-1.1,0-2.1-0.2-3.1-0.5s-1.7-0.9-2.3-1.5
		l1.6-2.2c1,1.1,2.4,1.6,4,1.6c1,0,1.9-0.3,2.7-0.8c0.8-0.5,1.6-1.5,2.5-2.8l1.6-2.4l-5.6-22.5h3.1l4.7,19.3l12.3-19.3H424.7z"/>
	<path d="M460.9,704.6l-6.2,31h-3.1l2.3-11.7c-1.1,1.2-2.3,2.1-3.8,2.7c-1.5,0.6-3.1,0.9-4.8,0.9c-1.9,0-3.6-0.4-5.1-1.2
		s-2.7-1.9-3.5-3.3c-0.8-1.4-1.2-3.1-1.2-5.1c0-2.6,0.6-4.8,1.7-6.9c1.1-2,2.6-3.6,4.6-4.8c1.9-1.2,4.1-1.7,6.5-1.7
		c2.2,0,4,0.4,5.5,1.3c1.5,0.9,2.5,2.2,3.2,3.8l1-4.9L460.9,704.6L460.9,704.6z M451,723.3c1.5-0.9,2.7-2.2,3.5-3.8s1.3-3.4,1.3-5.4
		c0-2.2-0.7-3.9-2-5.2c-1.3-1.2-3.1-1.9-5.5-1.9c-1.9,0-3.5,0.5-5,1.4s-2.7,2.2-3.5,3.8s-1.3,3.4-1.3,5.4c0,2.2,0.7,3.9,2,5.2
		c1.3,1.2,3.1,1.8,5.5,1.8C447.9,724.7,449.5,724.2,451,723.3z"/>
	<path d="M489.8,704.6l-4.5,22.6h-2.9l0.7-3.6c-2.1,2.6-5,3.8-8.7,3.8c-2.5,0-4.5-0.7-5.9-2s-2.1-3.1-2.1-5.4c0-0.8,0.1-1.6,0.3-2.5
		l2.6-12.9h3.1l-2.6,12.9c-0.1,0.8-0.2,1.5-0.2,2c0,1.7,0.5,2.9,1.4,3.8c1,0.9,2.4,1.3,4.3,1.3c2.4,0,4.4-0.7,6-2s2.6-3.3,3.2-5.9
		l2.4-12.2h2.9L489.8,704.6L489.8,704.6z"/>
	<path d="M496.6,716.7c0,0.2,0,0.5,0,0.9c0,2.3,0.7,4,2,5.2s3.2,1.8,5.8,1.8c1.5,0,2.9-0.3,4.2-0.8c1.3-0.5,2.4-1.2,3.2-2.1l1.4,2.2
		c-1.1,1.1-2.4,1.9-4,2.5s-3.3,0.9-5.1,0.9c-3.3,0-5.8-0.9-7.7-2.6c-1.9-1.7-2.8-4.1-2.8-7.1c0-2.5,0.5-4.8,1.6-6.8s2.6-3.6,4.5-4.8
		s4-1.7,6.4-1.7c3,0,5.4,0.9,7.2,2.6c1.8,1.7,2.7,4,2.7,7c0,0.8-0.1,1.7-0.3,2.8L496.6,716.7L496.6,716.7z M500.2,709
		c-1.6,1.3-2.7,3.2-3.3,5.5H513c0-0.2,0-0.5,0-0.8c0-2.1-0.6-3.8-1.9-4.9s-3-1.7-5.2-1.7C503.8,707,501.8,707.7,500.2,709z"/>
	<path d="M552.5,706.4c1.4,1.3,2.1,3.1,2.1,5.4c0,0.8-0.1,1.7-0.3,2.6l-2.6,12.9h-3.1l2.6-12.9c0.1-0.8,0.2-1.5,0.2-2.1
		c0-1.6-0.5-2.9-1.5-3.8c-1-0.9-2.4-1.3-4.4-1.3c-2.4,0-4.4,0.7-6,2s-2.6,3.3-3.2,5.9l-2.4,12.1H531l4.5-22.6h2.9l-0.7,3.6
		c2.1-2.5,5.1-3.8,8.9-3.8C549.1,704.4,551.1,705.1,552.5,706.4z"/>
	<path d="M564.9,726.2c-1.5-0.8-2.7-1.9-3.6-3.4s-1.3-3.1-1.3-5.1c0-2.6,0.6-4.8,1.7-6.9c1.1-2,2.7-3.6,4.7-4.8s4.2-1.7,6.7-1.7
		c3.2,0,5.7,0.9,7.5,2.6c1.8,1.7,2.8,4,2.8,7c0,2.6-0.6,4.9-1.7,6.9c-1.1,2-2.7,3.7-4.7,4.8c-2,1.2-4.2,1.7-6.7,1.7
		C568.2,727.4,566.4,727,564.9,726.2z M575.6,723.3c1.5-0.9,2.7-2.2,3.5-3.8s1.3-3.4,1.3-5.4c0-2.2-0.7-3.9-2-5.2
		c-1.3-1.2-3.1-1.9-5.5-1.9c-1.9,0-3.5,0.5-5,1.4s-2.7,2.2-3.5,3.8s-1.3,3.4-1.3,5.4c0,2.2,0.7,3.9,2,5.2c1.3,1.2,3.1,1.8,5.5,1.8
		C572.4,724.7,574.1,724.2,575.6,723.3z"/>
	<path d="M603.4,720.4c-0.1,0.7-0.2,1.2-0.2,1.4c0,2,1.1,3,3.3,3c1.3,0,2.5-0.4,3.5-1.2l0.7,2.3c-1.3,1-3,1.5-5,1.5
		c-1.7,0-3-0.5-4-1.4s-1.5-2.2-1.5-3.8c0-0.6,0.1-1.2,0.2-1.8l2.6-13.3h-4l0.5-2.6h4l1-4.9h3.1l-1,4.9h6.9l-0.5,2.6h-7L603.4,720.4z
		"/>
	<path d="M619.8,726.2c-1.5-0.8-2.7-1.9-3.6-3.4s-1.3-3.1-1.3-5.1c0-2.6,0.6-4.8,1.7-6.9c1.1-2,2.7-3.6,4.7-4.8s4.2-1.7,6.7-1.7
		c3.2,0,5.7,0.9,7.5,2.6c1.8,1.7,2.8,4,2.8,7c0,2.6-0.6,4.9-1.7,6.9c-1.1,2-2.7,3.7-4.7,4.8c-2,1.2-4.2,1.7-6.7,1.7
		C623.1,727.4,621.3,727,619.8,726.2z M630.4,723.3c1.5-0.9,2.7-2.2,3.5-3.8s1.3-3.4,1.3-5.4c0-2.2-0.7-3.9-2-5.2
		c-1.3-1.2-3.1-1.9-5.5-1.9c-1.9,0-3.5,0.5-5,1.4s-2.7,2.2-3.5,3.8s-1.3,3.4-1.3,5.4c0,2.2,0.7,3.9,2,5.2c1.3,1.2,3.1,1.8,5.5,1.8
		C627.3,724.7,628.9,724.2,630.4,723.3z"/>
	<path d="M669.1,695.3l-6.4,31.9h-2.9l0.7-3.6c-1.1,1.2-2.4,2.1-3.9,2.8s-3.1,1-4.9,1c-1.9,0-3.6-0.4-5.1-1.2s-2.7-1.9-3.5-3.3
		s-1.2-3.1-1.2-5.1c0-2.6,0.6-4.8,1.7-6.9c1.1-2,2.6-3.6,4.6-4.8c1.9-1.2,4.1-1.7,6.5-1.7c2.1,0,3.9,0.4,5.4,1.3
		c1.5,0.8,2.5,2.1,3.2,3.6l2.8-14H669.1z M657.4,723.3c1.5-0.9,2.7-2.2,3.5-3.8s1.3-3.4,1.3-5.4c0-2.2-0.7-3.9-2-5.2
		c-1.3-1.2-3.1-1.9-5.5-1.9c-1.9,0-3.5,0.5-5,1.4s-2.7,2.2-3.5,3.8s-1.3,3.4-1.3,5.4c0,2.2,0.7,3.9,2,5.2c1.3,1.2,3.1,1.8,5.5,1.8
		C654.2,724.7,655.9,724.2,657.4,723.3z"/>
	<path d="M675.9,726.2c-1.5-0.8-2.7-1.9-3.6-3.4s-1.3-3.1-1.3-5.1c0-2.6,0.6-4.8,1.7-6.9c1.1-2,2.7-3.6,4.7-4.8s4.2-1.7,6.7-1.7
		c3.2,0,5.7,0.9,7.5,2.6c1.8,1.7,2.8,4,2.8,7c0,2.6-0.6,4.9-1.7,6.9c-1.1,2-2.7,3.7-4.7,4.8c-2,1.2-4.2,1.7-6.7,1.7
		C679.2,727.4,677.4,727,675.9,726.2z M686.5,723.3c1.5-0.9,2.7-2.2,3.5-3.8s1.3-3.4,1.3-5.4c0-2.2-0.7-3.9-2-5.2
		c-1.3-1.2-3.1-1.9-5.5-1.9c-1.9,0-3.5,0.5-5,1.4s-2.7,2.2-3.5,3.8s-1.3,3.4-1.3,5.4c0,2.2,0.7,3.9,2,5.2c1.3,1.2,3.1,1.8,5.5,1.8
		C683.4,724.7,685,724.2,686.5,723.3z"/>
	<path d="M712.3,716.7c0,0.2,0,0.5,0,0.9c0,2.3,0.7,4,2,5.2s3.2,1.8,5.8,1.8c1.5,0,2.9-0.3,4.2-0.8s2.4-1.2,3.2-2.1l1.4,2.2
		c-1.1,1.1-2.4,1.9-4,2.5s-3.3,0.9-5.1,0.9c-3.3,0-5.8-0.9-7.7-2.6c-1.9-1.7-2.8-4.1-2.8-7.1c0-2.5,0.5-4.8,1.6-6.8s2.6-3.6,4.5-4.8
		s4-1.7,6.4-1.7c3,0,5.4,0.9,7.2,2.6c1.8,1.7,2.7,4,2.7,7c0,0.8-0.1,1.7-0.3,2.8L712.3,716.7L712.3,716.7z M715.9,709
		c-1.6,1.3-2.7,3.2-3.3,5.5h16.1c0-0.2,0-0.5,0-0.8c0-2.1-0.6-3.8-1.9-4.9s-3-1.7-5.2-1.7C719.4,707,717.5,707.7,715.9,709z"/>
	<path d="M736.8,726.6c-1.6-0.5-2.9-1.2-3.8-2l1.5-2.4c0.9,0.7,2,1.3,3.4,1.8s2.9,0.7,4.4,0.7c2.1,0,3.8-0.4,5-1.1
		c1.2-0.7,1.7-1.7,1.7-3c0-0.7-0.2-1.3-0.7-1.7s-1.1-0.8-1.7-1c-0.7-0.2-1.7-0.5-3-0.8c-1.6-0.3-2.9-0.7-3.8-1
		c-1-0.3-1.8-0.9-2.5-1.6c-0.7-0.7-1-1.8-1-3.1c0-2.1,0.9-3.9,2.7-5.1c1.8-1.3,4.2-1.9,7.1-1.9c1.5,0,2.9,0.2,4.3,0.6
		c1.4,0.4,2.5,0.9,3.4,1.5l-1.3,2.5c-0.9-0.6-1.9-1.1-3-1.4c-1.2-0.3-2.4-0.5-3.6-0.5c-2.1,0-3.7,0.4-4.8,1.1
		c-1.1,0.7-1.7,1.7-1.7,3c0,0.7,0.2,1.3,0.7,1.8s1.1,0.8,1.8,1s1.7,0.5,3,0.7c1.5,0.3,2.8,0.7,3.8,1s1.8,0.9,2.5,1.6
		c0.7,0.7,1,1.7,1,3c0,2.2-0.9,3.9-2.7,5.2c-1.8,1.2-4.3,1.9-7.3,1.9C740.2,727.4,738.5,727.2,736.8,726.6z"/>
	<path d="M772.6,720.4c-0.1,0.7-0.2,1.2-0.2,1.4c0,2,1.1,3,3.3,3c1.3,0,2.5-0.4,3.5-1.2l0.7,2.3c-1.3,1-3,1.5-5,1.5
		c-1.7,0-3-0.5-4-1.4s-1.5-2.2-1.5-3.8c0-0.6,0.1-1.2,0.2-1.8l2.6-13.3h-4l0.5-2.6h4l1-4.9h3.1l-1,4.9h6.9l-0.5,2.6h-6.9
		L772.6,720.4z"/>
	<path d="M809.5,704.6l-4.5,22.6h-2.9l0.7-3.6c-1.1,1.2-2.4,2.1-3.9,2.8s-3.1,1-4.9,1c-1.9,0-3.6-0.4-5.1-1.2s-2.7-1.9-3.5-3.3
		s-1.2-3.1-1.2-5.1c0-2.6,0.6-4.8,1.7-6.9c1.1-2,2.6-3.6,4.6-4.8c1.9-1.2,4.1-1.7,6.5-1.7c2.1,0,4,0.4,5.4,1.3s2.5,2.1,3.2,3.6
		l0.9-4.7L809.5,704.6L809.5,704.6z M799.7,723.3c1.5-0.9,2.7-2.2,3.5-3.8s1.3-3.4,1.3-5.4c0-2.2-0.7-3.9-2-5.2
		c-1.3-1.2-3.1-1.9-5.5-1.9c-1.9,0-3.5,0.5-5,1.4s-2.7,2.2-3.5,3.8s-1.3,3.4-1.3,5.4c0,2.2,0.7,3.9,2,5.2c1.3,1.2,3.1,1.8,5.5,1.8
		C796.5,724.7,798.2,724.2,799.7,723.3z"/>
	<path d="M835,706.4c1.4,1.3,2.1,3.1,2.1,5.4c0,0.8-0.1,1.7-0.3,2.6l-2.6,12.9h-3.1l2.6-12.9c0.1-0.8,0.2-1.5,0.2-2.1
		c0-1.6-0.5-2.9-1.5-3.8c-1-0.9-2.4-1.3-4.4-1.3c-2.4,0-4.4,0.7-6,2s-2.6,3.3-3.2,5.9l-2.4,12.1h-3.1l4.5-22.6h2.9l-0.7,3.6
		c2.2-2.5,5.1-3.8,8.9-3.8C831.6,704.4,833.6,705.1,835,706.4z"/>
	<path d="M892,706.3c1.4,1.3,2.1,3.1,2.1,5.4c0,0.7-0.1,1.5-0.3,2.7l-2.6,12.9h-3.1l2.6-12.9c0.1-0.7,0.2-1.4,0.2-2.1
		c0-1.6-0.5-2.8-1.4-3.7s-2.3-1.3-4.2-1.3c-2.3,0-4.2,0.6-5.7,1.9c-1.5,1.3-2.5,3.2-3.1,5.7l-2.5,12.5h-3l2.6-12.9
		c0.1-0.8,0.2-1.5,0.2-2.1c0-1.6-0.5-2.9-1.4-3.8c-0.9-0.9-2.3-1.3-4.2-1.3c-2.3,0-4.2,0.7-5.8,2c-1.5,1.3-2.6,3.3-3.1,5.9
		l-2.4,12.1h-3.1l4.5-22.6h2.9l-0.7,3.6c2.1-2.5,4.9-3.8,8.6-3.8c1.9,0,3.5,0.4,4.8,1.2s2.2,1.9,2.6,3.4c1.1-1.5,2.5-2.6,4.1-3.4
		s3.4-1.1,5.4-1.1C888.6,704.4,890.6,705,892,706.3z"/>
	<path d="M924.8,704.6l-4.5,22.6h-2.9l0.7-3.6c-1.1,1.2-2.4,2.1-3.9,2.8s-3.1,1-4.9,1c-1.9,0-3.6-0.4-5.1-1.2s-2.7-1.9-3.5-3.3
		s-1.2-3.1-1.2-5.1c0-2.6,0.6-4.8,1.7-6.9c1.1-2,2.6-3.6,4.6-4.8c1.9-1.2,4.1-1.7,6.5-1.7c2.1,0,4,0.4,5.4,1.3s2.5,2.1,3.2,3.6
		l0.9-4.7L924.8,704.6L924.8,704.6z M914.9,723.3c1.5-0.9,2.7-2.2,3.5-3.8s1.3-3.4,1.3-5.4c0-2.2-0.7-3.9-2-5.2
		c-1.3-1.2-3.1-1.9-5.5-1.9c-1.9,0-3.5,0.5-5,1.4s-2.7,2.2-3.5,3.8s-1.3,3.4-1.3,5.4c0,2.2,0.7,3.9,2,5.2c1.3,1.2,3.1,1.8,5.5,1.8
		C911.7,724.7,913.4,724.2,914.9,723.3z"/>
	<path d="M935.1,695.3h3.1l-6.4,31.9h-3.1L935.1,695.3z"/>
	<path d="M945,726.2c-1.5-0.8-2.7-1.9-3.6-3.4s-1.3-3.1-1.3-5.1c0-2.6,0.6-4.8,1.7-6.9c1.1-2,2.7-3.6,4.7-4.8s4.2-1.7,6.7-1.7
		c3.2,0,5.7,0.9,7.5,2.6c1.8,1.7,2.8,4,2.8,7c0,2.6-0.6,4.9-1.7,6.9c-1.1,2-2.7,3.7-4.7,4.8c-2,1.2-4.2,1.7-6.7,1.7
		C948.3,727.4,946.5,727,945,726.2z M955.6,723.3c1.5-0.9,2.7-2.2,3.5-3.8s1.3-3.4,1.3-5.4c0-2.2-0.7-3.9-2-5.2
		c-1.3-1.2-3.1-1.9-5.5-1.9c-1.9,0-3.5,0.5-5,1.4s-2.7,2.2-3.5,3.8s-1.3,3.4-1.3,5.4c0,2.2,0.7,3.9,2,5.2c1.3,1.2,3.1,1.8,5.5,1.8
		C952.5,724.7,954.1,724.2,955.6,723.3z"/>
	<path d="M965.7,726.8c-0.4-0.4-0.6-1-0.6-1.6c0-0.7,0.2-1.3,0.7-1.7c0.5-0.5,1-0.7,1.7-0.7c0.6,0,1.2,0.2,1.6,0.6
		c0.4,0.4,0.6,1,0.6,1.6c0,0.7-0.2,1.3-0.7,1.7c-0.5,0.5-1,0.7-1.7,0.7C966.6,727.4,966.1,727.2,965.7,726.8z"/>
	<path d="M106.7,753.3c-2.3,1.3-4.1,3.2-5.3,5.5c-1.2,2.3-1.9,4.8-1.9,7.6c0,3,1,5.4,2.9,7.2s4.7,2.7,8.4,2.7c2.9,0,5.5-0.8,7.7-2.4
		l2-10.1h3.1l-2.3,11.6c-1.4,1.2-3,2.1-4.9,2.8s-3.8,1-5.9,1c-2.9,0-5.4-0.5-7.5-1.5s-3.7-2.5-4.9-4.4c-1.1-1.9-1.7-4.1-1.7-6.6
		c0-3.3,0.8-6.4,2.3-9.1c1.5-2.8,3.6-4.9,6.4-6.6c2.8-1.6,6-2.4,9.7-2.4c2.5,0,4.7,0.4,6.6,1.1c1.9,0.8,3.4,1.8,4.5,3.2l-2.2,1.9
		c-1-1.2-2.3-2.1-3.8-2.6c-1.5-0.6-3.3-0.8-5.3-0.8C111.6,751.3,109,751.9,106.7,753.3z"/>
	<path d="M139.3,757.1c1.5-0.7,3.4-1.1,5.5-1.1l-0.6,3h-0.9c-2.4,0-4.4,0.7-6,2.1c-1.6,1.4-2.6,3.5-3.2,6.3l-2.3,11.5h-3.1l4.5-22.6
		h2.9l-0.8,4.1C136.5,758.8,137.8,757.8,139.3,757.1z"/>
	<path d="M170.7,756.2l-4.5,22.6h-2.9l0.7-3.6c-1.1,1.2-2.4,2.1-3.9,2.8s-3.1,1-4.9,1c-1.9,0-3.6-0.4-5.1-1.2s-2.7-1.9-3.5-3.3
		c-0.8-1.4-1.2-3.1-1.2-5.1c0-2.6,0.6-4.8,1.7-6.9c1.1-2,2.6-3.6,4.6-4.8c1.9-1.2,4.1-1.7,6.5-1.7c2.1,0,4,0.4,5.4,1.3
		s2.5,2.1,3.2,3.6l0.9-4.7L170.7,756.2L170.7,756.2z M160.9,774.9c1.5-0.9,2.7-2.2,3.5-3.8s1.3-3.4,1.3-5.4c0-2.2-0.7-3.9-2-5.2
		c-1.3-1.2-3.1-1.9-5.5-1.9c-1.9,0-3.5,0.5-5,1.4s-2.7,2.2-3.5,3.8s-1.3,3.4-1.3,5.4c0,2.2,0.7,3.9,2,5.2c1.3,1.2,3.1,1.8,5.5,1.8
		C157.7,776.3,159.4,775.8,160.9,774.9z"/>
	<path d="M179.4,777.8c-1.6-0.8-2.8-1.9-3.6-3.4c-0.8-1.4-1.3-3.1-1.3-5.1c0-2.6,0.6-4.8,1.7-6.9c1.1-2,2.7-3.6,4.7-4.8
		s4.3-1.7,6.8-1.7c2.1,0,3.9,0.4,5.4,1.1c1.5,0.8,2.7,1.9,3.5,3.4L194,762c-1.3-2.2-3.5-3.4-6.6-3.4c-1.9,0-3.5,0.5-5.1,1.4
		c-1.5,0.9-2.7,2.2-3.5,3.8s-1.3,3.4-1.3,5.5c0,2.2,0.7,3.9,2,5.2c1.3,1.2,3.2,1.8,5.6,1.8c1.5,0,2.8-0.3,4.1-0.8
		c1.2-0.6,2.3-1.4,3.1-2.4l2.2,1.7c-1,1.3-2.3,2.4-4,3.2s-3.5,1.1-5.4,1.1C182.8,779,181,778.6,179.4,777.8z"/>
	<path d="M203.4,756.2h3.1l-4.5,22.6h-3.1L203.4,756.2z M204.7,750.6c-0.4-0.4-0.6-0.9-0.6-1.4c0-0.7,0.2-1.2,0.7-1.7
		c0.4-0.4,1-0.7,1.7-0.7c0.6,0,1.1,0.2,1.5,0.6c0.4,0.4,0.6,0.8,0.6,1.4c0,0.7-0.2,1.3-0.7,1.7c-0.5,0.5-1,0.7-1.7,0.7
		C205.6,751.2,205.1,751,204.7,750.6z"/>
	<path d="M235.6,756.2l-4.5,22.6h-2.9l0.7-3.6c-1.1,1.2-2.4,2.1-3.9,2.8s-3.1,1-4.9,1c-1.9,0-3.6-0.4-5.1-1.2s-2.7-1.9-3.5-3.3
		c-0.8-1.4-1.2-3.1-1.2-5.1c0-2.6,0.6-4.8,1.7-6.9c1.1-2,2.6-3.6,4.6-4.8c1.9-1.2,4.1-1.7,6.5-1.7c2.1,0,4,0.4,5.4,1.3
		s2.5,2.1,3.2,3.6l0.9-4.7L235.6,756.2L235.6,756.2z M225.8,774.9c1.5-0.9,2.7-2.2,3.5-3.8s1.3-3.4,1.3-5.4c0-2.2-0.7-3.9-2-5.2
		c-1.3-1.2-3.1-1.9-5.5-1.9c-1.9,0-3.5,0.5-5,1.4s-2.7,2.2-3.5,3.8s-1.3,3.4-1.3,5.4c0,2.2,0.7,3.9,2,5.2c1.3,1.2,3.1,1.8,5.5,1.8
		C222.6,776.3,224.3,775.8,225.8,774.9z"/>
	<path d="M241,778.2c-1.6-0.5-2.9-1.2-3.8-2l1.5-2.4c0.9,0.7,2,1.3,3.4,1.8s2.9,0.7,4.4,0.7c2.1,0,3.8-0.4,5-1.1
		c1.2-0.7,1.7-1.7,1.7-3c0-0.7-0.2-1.3-0.7-1.7s-1.1-0.8-1.7-1c-0.7-0.2-1.7-0.5-3-0.8c-1.6-0.3-2.9-0.7-3.8-1s-1.8-0.9-2.5-1.6
		s-1-1.8-1-3.1c0-2.1,0.9-3.9,2.7-5.1c1.8-1.3,4.2-1.9,7.1-1.9c1.5,0,2.9,0.2,4.3,0.6c1.4,0.4,2.5,0.9,3.4,1.5l-1.3,2.5
		c-0.9-0.6-1.9-1.1-3-1.4c-1.2-0.3-2.4-0.5-3.6-0.5c-2.1,0-3.7,0.4-4.8,1.1c-1.1,0.7-1.7,1.7-1.7,3c0,0.7,0.2,1.3,0.7,1.8
		s1.1,0.8,1.8,1s1.7,0.5,3,0.7c1.5,0.3,2.8,0.7,3.8,1s1.8,0.9,2.5,1.6s1,1.7,1,3c0,2.2-0.9,3.9-2.7,5.2c-1.8,1.2-4.3,1.9-7.3,1.9
		C244.4,779,242.7,778.8,241,778.2z"/>
	<path d="M260.8,778.4c-0.4-0.4-0.6-0.9-0.6-1.5c0-0.7,0.2-1.2,0.7-1.7c0.4-0.4,1-0.7,1.7-0.7c0.6,0,1.2,0.2,1.6,0.6
		c0.4,0.4,0.6,0.9,0.6,1.5c0,0.7-0.2,1.2-0.7,1.7c-0.4,0.5-1,0.7-1.7,0.7C261.7,779,261.2,778.8,260.8,778.4z M266.2,748.7h3.6
		l-4.8,21.1h-2.4L266.2,748.7z"/>
</g>
<g class="st6">
	<path d="M124.3,568c2.3,3.9,3.5,8.5,3.5,13.8c0,7.9-2.5,14.2-7.5,19s-11.5,7.1-19.4,7.1s-14.3-2.4-19.4-7.1c-5-4.8-7.5-11.1-7.5-19
		c0-3.5,0.5-7.1,1.4-10.6s3.1-8.9,6.5-16.1l14.3-30.4h28.5l-10.2,34.4C118.7,561.2,122,564.1,124.3,568z M183.4,568
		c2.3,3.9,3.5,8.5,3.5,13.8c0,7.9-2.5,14.2-7.5,19s-11.5,7.1-19.4,7.1s-14.3-2.4-19.4-7.1c-5-4.8-7.5-11.1-7.5-19
		c0-3.5,0.5-7.1,1.4-10.6s3.1-8.9,6.5-16.1l14.3-30.4h28.5l-10.2,34.4C177.8,561.2,181.1,564.1,183.4,568z"/>
</g>
<g>
	<rect x="506.9" y="324.8" width="200.3" height="9"/>
</g>
<g>
	<path d="M564.1,185.6h-37l-7.1,17.1h-18.9l35.6-79.8h18.2l35.7,79.8h-19.4L564.1,185.6z M558.3,171.6L545.6,141L533,171.6H558.3z"
		/>
	<path d="M660.3,141.4v51.1c0,11.2-2.9,19.6-8.8,25.1c-5.9,5.5-14.4,8.2-25.7,8.2c-5.9,0-11.6-0.7-16.9-2.2
		c-5.3-1.4-9.7-3.5-13.2-6.3l7.1-12.8c2.6,2.1,5.9,3.8,9.8,5.1c4,1.3,7.9,1.9,11.9,1.9c6.2,0,10.7-1.4,13.6-4.2
		c2.9-2.8,4.4-7,4.4-12.6v-2.6c-4.6,5.1-11.1,7.6-19.4,7.6c-5.6,0-10.8-1.2-15.4-3.7c-4.7-2.5-8.4-5.9-11.1-10.4
		c-2.7-4.5-4.1-9.7-4.1-15.5c0-5.9,1.4-11,4.1-15.5c2.7-4.5,6.4-8,11.1-10.4c4.7-2.5,9.8-3.7,15.4-3.7c8.9,0,15.7,2.9,20.3,8.8v-7.9
		L660.3,141.4L660.3,141.4z M638.3,181c3-2.8,4.5-6.4,4.5-10.9s-1.5-8.1-4.5-10.9c-3-2.8-6.9-4.2-11.6-4.2c-4.7,0-8.6,1.4-11.6,4.2
		s-4.6,6.4-4.6,10.9s1.5,8.1,4.6,10.9c3,2.8,6.9,4.2,11.6,4.2C631.4,185.1,635.3,183.8,638.3,181z"/>
	<path d="M738.6,141.4v61.3h-16.9v-7.3c-2.4,2.7-5.2,4.7-8.4,6.1c-3.3,1.4-6.8,2.1-10.6,2.1c-8.1,0-14.4-2.3-19.2-7
		c-4.7-4.6-7.1-11.5-7.1-20.6v-34.7h17.8v32c0,9.9,4.1,14.8,12.4,14.8c4.3,0,7.7-1.4,10.3-4.2s3.9-6.9,3.9-12.4v-30.3h17.8V141.4z"
		/>
	<path d="M760.9,201.7c-4.9-1.3-8.7-2.8-11.6-4.7l5.9-12.8c2.7,1.7,6,3.2,9.9,4.3s7.7,1.7,11.4,1.7c7.5,0,11.3-1.9,11.3-5.6
		c0-1.7-1-3-3.1-3.8s-5.2-1.4-9.5-1.9c-5-0.8-9.2-1.6-12.4-2.6c-3.3-1-6.1-2.7-8.5-5.2s-3.6-6.1-3.6-10.7c0-3.9,1.1-7.3,3.4-10.3
		c2.2-3,5.5-5.3,9.8-7s9.4-2.5,15.2-2.5c4.3,0,8.6,0.5,12.9,1.4c4.3,1,7.8,2.3,10.7,3.9l-5.9,12.7c-5.4-3-11.3-4.6-17.7-4.6
		c-3.8,0-6.7,0.5-8.6,1.6c-1.9,1.1-2.8,2.4-2.8,4.1c0,1.9,1,3.2,3.1,4s5.3,1.5,9.8,2.2c5,0.8,9.1,1.7,12.3,2.7s6,2.7,8.3,5.2
		c2.4,2.5,3.5,6,3.5,10.5c0,3.8-1.1,7.2-3.4,10.1s-5.6,5.3-10,6.9c-4.4,1.6-9.6,2.5-15.6,2.5C770.7,203.6,765.7,203,760.9,201.7z"/>
	<path d="M855.3,199.7c-1.7,1.3-3.9,2.3-6.4,2.9c-2.5,0.6-5.2,1-8,1c-7.3,0-12.9-1.9-16.9-5.6c-4-3.7-6-9.2-6-16.4v-25.2h-9.5v-13.7
		h9.5v-14.9h17.8v14.9h15.3v13.7h-15.3v25c0,2.6,0.7,4.6,2,6s3.2,2.1,5.6,2.1c2.8,0,5.2-0.8,7.2-2.3L855.3,199.7z"/>
	<path d="M879.2,117.1h19.2l-20.6,16.4h-13.9L879.2,117.1z M865.3,141.4h17.8v61.3h-17.8V141.4z"/>
	<path d="M955.3,147.3c4.7,4.6,7,11.3,7,20.3v35.1h-17.8v-32.4c0-4.9-1.1-8.5-3.2-10.9c-2.1-2.4-5.2-3.6-9.2-3.6
		c-4.5,0-8.1,1.4-10.7,4.2c-2.7,2.8-4,6.9-4,12.4v30.3h-17.8v-61.3h17v7.2c2.4-2.6,5.3-4.6,8.8-6s7.3-2.1,11.5-2.1
		C944.5,140.5,950.6,142.7,955.3,147.3z"/>
</g>
<g>
	<path d="M530.4,275.7v6.1h-24.3V277l12.4-11.7c1.3-1.3,2.2-2.3,2.7-3.2c0.5-0.9,0.7-1.8,0.7-2.7c0-1.3-0.4-2.3-1.3-3s-2.2-1-3.8-1
		c-1.4,0-2.7,0.3-3.8,0.8c-1.1,0.5-2.1,1.3-2.9,2.4l-5.4-3.5c1.3-1.9,3-3.3,5.2-4.4s4.7-1.6,7.6-1.6c2.4,0,4.5,0.4,6.3,1.2
		s3.2,1.9,4.2,3.3c1,1.4,1.5,3.1,1.5,5c0,1.7-0.4,3.4-1.1,4.9c-0.7,1.5-2.2,3.3-4.3,5.2l-7.4,7L530.4,275.7L530.4,275.7z"/>
	<path d="M554.5,262.8c1.7,0.8,3,2,4,3.5s1.5,3.3,1.5,5.3c0,2.1-0.5,4-1.6,5.7c-1.1,1.6-2.5,2.9-4.4,3.7s-3.9,1.3-6.2,1.3
		c-4.5,0-8-1.4-10.6-4.1c-2.5-2.8-3.8-6.7-3.8-11.8c0-3.6,0.7-6.8,2.1-9.4c1.4-2.6,3.3-4.6,5.8-5.9c2.5-1.3,5.3-2,8.6-2
		c1.7,0,3.4,0.2,4.9,0.6c1.6,0.4,2.9,0.9,4,1.6l-2.8,5.5c-1.6-1.1-3.6-1.6-6-1.6c-2.7,0-4.9,0.8-6.5,2.4s-2.5,3.9-2.6,6.9
		c1.9-1.9,4.6-2.9,8-2.9C551,261.5,552.9,262,554.5,262.8z M551.3,275.4c1-0.9,1.5-2,1.5-3.5s-0.5-2.6-1.5-3.5s-2.3-1.3-4-1.3
		c-1.6,0-3,0.5-4,1.4s-1.6,2.1-1.6,3.5s0.5,2.6,1.5,3.4c1,0.9,2.4,1.3,4.1,1.3C549,276.7,550.3,276.3,551.3,275.4z"/>
	<path d="M596.1,259.4c2.1,1.8,3.1,4.6,3.1,8.3v14.1h-6.7v-3.1c-1.3,2.3-3.9,3.5-7.5,3.5c-1.9,0-3.5-0.3-4.9-1s-2.5-1.5-3.2-2.7
		c-0.7-1.1-1.1-2.4-1.1-3.9c0-2.3,0.9-4.1,2.6-5.4c1.7-1.3,4.4-2,8-2h5.7c0-1.6-0.5-2.8-1.4-3.6c-1-0.8-2.4-1.3-4.3-1.3
		c-1.3,0-2.6,0.2-3.9,0.6c-1.3,0.4-2.4,1-3.2,1.7l-2.6-5c1.3-1,3-1.7,4.9-2.2s3.8-0.8,5.8-0.8C591.1,256.6,594,257.5,596.1,259.4z
		 M590,276.4c1-0.6,1.6-1.4,2-2.5v-2.5h-4.9c-2.9,0-4.4,1-4.4,2.9c0,0.9,0.4,1.6,1.1,2.2c0.7,0.5,1.7,0.8,3,0.8
		C587.9,277.3,589,277,590,276.4z"/>
	<path d="M628.1,259.4c1.9,1.8,2.8,4.6,2.8,8.2v14.2h-7.2v-13.1c0-2-0.4-3.4-1.3-4.4c-0.9-1-2.1-1.4-3.7-1.4c-1.8,0-3.3,0.6-4.3,1.7
		c-1.1,1.1-1.6,2.8-1.6,5v12.2h-7.2V257h6.9v2.9c1-1,2.1-1.8,3.5-2.4s3-0.9,4.6-0.9C623.8,256.6,626.2,257.5,628.1,259.4z
		 M619.6,253.5c-0.6-0.3-1.3-0.8-2.1-1.3c-0.5-0.4-0.9-0.6-1.2-0.8s-0.6-0.3-0.9-0.3c-0.6,0-1.2,0.2-1.6,0.7
		c-0.4,0.4-0.6,1.1-0.6,1.9h-3.6c0.1-2.1,0.6-3.7,1.5-4.9c1-1.2,2.2-1.8,3.8-1.8c0.8,0,1.5,0.2,2.1,0.5s1.3,0.8,2.1,1.4
		c0.5,0.4,0.9,0.6,1.2,0.8s0.6,0.3,0.9,0.3c0.6,0,1.1-0.2,1.5-0.7c0.4-0.4,0.6-1.1,0.7-1.8h3.6c-0.1,2-0.6,3.6-1.5,4.8
		c-1,1.2-2.2,1.8-3.8,1.8C621,254,620.2,253.8,619.6,253.5z"/>
	<path d="M642.5,280.5c-2.1-1.1-3.7-2.6-4.9-4.5s-1.7-4.1-1.7-6.6s0.6-4.6,1.7-6.6c1.2-1.9,2.8-3.4,4.9-4.5c2.1-1.1,4.4-1.6,7-1.6
		s4.9,0.5,7,1.6s3.7,2.6,4.8,4.5c1.2,1.9,1.7,4.1,1.7,6.6s-0.6,4.6-1.7,6.6c-1.2,1.9-2.8,3.4-4.8,4.5c-2.1,1.1-4.4,1.6-7,1.6
		S644.5,281.6,642.5,280.5z M654,274.4c1.2-1.2,1.8-2.9,1.8-5s-0.6-3.7-1.8-5c-1.2-1.2-2.7-1.9-4.5-1.9s-3.4,0.6-4.6,1.9
		c-1.2,1.2-1.8,2.9-1.8,5s0.6,3.7,1.8,5c1.2,1.2,2.7,1.9,4.6,1.9S652.8,275.6,654,274.4z"/>
	<path d="M670.1,281.3c-2-0.5-3.5-1.1-4.7-1.9l2.4-5.2c1.1,0.7,2.4,1.3,4,1.7c1.6,0.4,3.1,0.7,4.6,0.7c3,0,4.6-0.8,4.6-2.3
		c0-0.7-0.4-1.2-1.2-1.5s-2.1-0.6-3.8-0.8c-2-0.3-3.7-0.7-5-1.1s-2.5-1.1-3.4-2.1c-1-1-1.4-2.5-1.4-4.3c0-1.6,0.5-3,1.4-4.2
		s2.2-2.2,4-2.8c1.7-0.7,3.8-1,6.1-1c1.7,0,3.5,0.2,5.2,0.6s3.2,0.9,4.3,1.6l-2.4,5.1c-2.2-1.2-4.6-1.8-7.1-1.8
		c-1.5,0-2.7,0.2-3.4,0.6c-0.8,0.4-1.2,1-1.2,1.7c0,0.8,0.4,1.3,1.2,1.6c0.8,0.3,2.1,0.6,4,0.9c2,0.3,3.7,0.7,5,1.1s2.4,1.1,3.4,2.1
		c0.9,1,1.4,2.4,1.4,4.2c0,1.5-0.5,2.9-1.4,4.1s-2.3,2.1-4,2.8c-1.8,0.7-3.9,1-6.3,1C674.1,282.1,672.1,281.9,670.1,281.3z"/>
</g>
<g>
	<g>
		<g>
			<g>
				<g>
					<path class="st7" d="M582.1,1019.2h-84.3c-24.7,0-46.7-21.1-46.7-46.7s21.1-46.7,46.7-46.7h84.3c25.6,0,46.7,21.1,46.7,46.7
						S606.9,1019.2,582.1,1019.2z M497.9,934c-21.1,0-38.5,17.4-38.5,38.5s17.4,38.5,38.5,38.5h84.3c21.1,0,38.5-17.4,38.5-38.5
						S603.2,934,582.1,934H497.9z"/>
				</g>
			</g>
			
				<ellipse transform="matrix(0.9239 -0.3827 0.3827 0.9239 -334.1907 264.9096)" class="st7" cx="498.8" cy="972.5" rx="28.4" ry="28.4"/>
			<circle class="st8" cx="581.2" cy="972.5" r="28.4"/>
		</g>
	</g>
</g>
</svg>
