<?xml version="1.0" encoding="utf-8"?>
<!-- Generator: Adobe Illustrator 22.0.0, SVG Export Plug-In . SVG Version: 6.00 Build 0)  -->
<svg version="1.1" id="Capa_1" xmlns="http://www.w3.org/2000/svg" xmlns:xlink="http://www.w3.org/1999/xlink" x="0px" y="0px"
	 viewBox="0 0 1080 1080" style="enable-background:new 0 0 1080 1080;" xml:space="preserve">
<style type="text/css">
	.st0{fill:#F2F2F2;}
	.st1{fill:#727272;}
	.st2{opacity:0.25;}
	.st3{fill:#EDEDED;}
	.st4{fill:#FFE212;}
	.st5{fill:#333333;}
	.st6{opacity:0.19;}
	.st7{fill:#3DE200;}
	.st8{fill:#22263D;}
</style>
<path class="st0" d="M1046,1080H34c-18.8,0-34-15.2-34-34V34C0,15.2,15.2,0,34,0h1012c18.8,0,34,15.2,34,34v1012
	C1080,1064.8,1064.8,1080,1046,1080z"/>
<path class="st1" d="M372.9,419.5H115.4c-19.4,0-35.1-15.7-35.1-35.1V126.9c0-19.4,15.7-35.1,35.1-35.1h257.5
	c19.4,0,35.1,15.7,35.1,35.1v257.5C408,403.8,392.3,419.5,372.9,419.5z"/>
<g class="st2">
	<path class="st3" d="M244.1,305.6c-39,0-70.6-31.7-70.6-70.6v-26c0-39,31.7-70.6,70.6-70.6s70.6,31.7,70.6,70.6v26
		C314.8,273.9,283.1,305.6,244.1,305.6z M244.1,148.3c-33.4,0-60.6,27.2-60.6,60.6v26c0,33.4,27.2,60.6,60.6,60.6
		s60.6-27.2,60.6-60.6v-26C304.8,175.5,277.6,148.3,244.1,148.3z"/>
</g>
<g class="st2">
	<path class="st3" d="M357.9,378.1c-2.8,0-5-2.2-5-5v-6.8c0-20.3-16.5-36.9-36.9-36.9H172.3c-20.3,0-36.9,16.5-36.9,36.9v6.8
		c0,2.8-2.2,5-5,5s-5-2.2-5-5v-6.8c0-25.8,21-46.9,46.9-46.9H316c25.8,0,46.9,21,46.9,46.9v6.8C362.9,375.8,360.6,378.1,357.9,378.1
		z"/>
</g>
<g>
	<g>
		<polygon class="st4" points="522.2,373.9 529.5,388.8 545.8,391.1 534,402.7 536.8,419 522.2,411.3 507.5,419 510.3,402.7 
			498.5,391.1 514.8,388.8 		"/>
		<path class="st5" d="M536.8,420c-0.2,0-0.3,0-0.5-0.1l-14.2-7.4l-14.2,7.4c-0.3,0.2-0.7,0.1-1.1-0.1c-0.3-0.2-0.5-0.6-0.4-1
			l2.7-15.8l-11.5-11.2c-0.3-0.3-0.4-0.7-0.3-1c0.1-0.4,0.4-0.6,0.8-0.7l15.8-2.3l7.1-14.4c0.3-0.7,1.5-0.7,1.8,0l7.1,14.4l15.8,2.3
			c0.4,0.1,0.7,0.3,0.8,0.7c0.1,0.4,0,0.8-0.3,1L535.1,403l2.7,15.8c0.1,0.4-0.1,0.8-0.4,1C537.2,419.9,537,420,536.8,420z
			 M500.6,391.8L511,402c0.2,0.2,0.3,0.6,0.3,0.9l-2.5,14.3l12.8-6.8c0.3-0.2,0.6-0.2,0.9,0l12.8,6.8l-2.5-14.3
			c-0.1-0.3,0.1-0.7,0.3-0.9l10.4-10.1l-14.4-2.1c-0.3,0-0.6-0.3-0.8-0.5l-6.4-13l-6.4,13c-0.1,0.3-0.4,0.5-0.8,0.5L500.6,391.8z"/>
	</g>
	<g>
		<polygon class="st4" points="588.7,373.9 596.1,388.8 612.4,391.1 600.6,402.7 603.4,419 588.7,411.3 574.1,419 576.9,402.7 
			565.1,391.1 581.4,388.8 		"/>
		<path class="st5" d="M603.4,420c-0.2,0-0.3,0-0.5-0.1l-14.2-7.4l-14.2,7.4c-0.3,0.2-0.7,0.1-1.1-0.1c-0.3-0.2-0.5-0.6-0.4-1
			l2.7-15.8l-11.5-11.2c-0.3-0.3-0.4-0.7-0.3-1c0.1-0.4,0.4-0.6,0.8-0.7l15.8-2.3l7.1-14.4c0.3-0.7,1.5-0.7,1.8,0l7.1,14.4l15.8,2.3
			c0.4,0.1,0.7,0.3,0.8,0.7c0.1,0.4,0,0.8-0.3,1L601.7,403l2.7,15.8c0.1,0.4-0.1,0.8-0.4,1C603.8,419.9,603.6,420,603.4,420z
			 M588.7,410.3c0.2,0,0.3,0,0.5,0.1l12.8,6.8l-2.5-14.3c-0.1-0.3,0.1-0.7,0.3-0.9l10.4-10.1l-14.4-2.1c-0.3,0-0.6-0.3-0.8-0.5
			l-6.4-13l-6.4,13c-0.1,0.3-0.4,0.5-0.8,0.5l-14.4,2.1l10.4,10.1c0.2,0.2,0.3,0.6,0.3,0.9l-2.5,14.3l12.8-6.8
			C588.4,410.3,588.6,410.3,588.7,410.3z"/>
	</g>
	<g>
		<polygon class="st4" points="655.3,373.9 662.6,388.8 679,391.1 667.2,402.7 670,419 655.3,411.3 640.7,419 643.5,402.7 
			631.6,391.1 648,388.8 		"/>
		<path class="st5" d="M670,420c-0.2,0-0.3,0-0.5-0.1l-14.2-7.4l-14.2,7.4c-0.3,0.2-0.7,0.1-1.1-0.1c-0.3-0.2-0.5-0.6-0.4-1
			l2.7-15.8l-11.5-11.2c-0.3-0.3-0.4-0.7-0.3-1c0.1-0.4,0.4-0.6,0.8-0.7l15.8-2.3l7.1-14.4c0.3-0.7,1.5-0.7,1.8,0l7.1,14.4l15.8,2.3
			c0.4,0.1,0.7,0.3,0.8,0.7c0.1,0.4,0,0.8-0.3,1L668.2,403l2.7,15.8c0.1,0.4-0.1,0.8-0.4,1C670.4,419.9,670.2,420,670,420z
			 M655.3,410.3c0.2,0,0.3,0,0.5,0.1l12.8,6.8l-2.5-14.3c-0.1-0.3,0.1-0.7,0.3-0.9l10.4-10.1l-14.4-2.1c-0.3,0-0.6-0.3-0.8-0.5
			l-6.4-13l-6.4,13c-0.1,0.3-0.4,0.5-0.8,0.5l-14.4,2.1L644,402c0.2,0.2,0.3,0.6,0.3,0.9l-2.5,14.3l12.8-6.8
			C655,410.3,655.2,410.3,655.3,410.3z"/>
	</g>
	<g>
		<polygon class="st4" points="721.9,373.9 729.2,388.8 745.6,391.1 733.7,402.7 736.5,419 721.9,411.3 707.3,419 710.1,402.7 
			698.2,391.1 714.6,388.8 		"/>
		<path class="st5" d="M736.5,420c-0.2,0-0.3,0-0.5-0.1l-14.2-7.4l-14.2,7.4c-0.3,0.2-0.7,0.1-1.1-0.1c-0.3-0.2-0.5-0.6-0.4-1
			L709,403l-11.5-11.2c-0.3-0.3-0.4-0.7-0.3-1c0.1-0.4,0.4-0.6,0.8-0.7l15.8-2.3l7.1-14.4c0.3-0.7,1.5-0.7,1.8,0l7.1,14.4l15.8,2.3
			c0.4,0.1,0.7,0.3,0.8,0.7c0.1,0.4,0,0.8-0.3,1L734.8,403l2.7,15.8c0.1,0.4-0.1,0.8-0.4,1C737,419.9,736.8,420,736.5,420z
			 M721.9,410.3c0.2,0,0.3,0,0.5,0.1l12.8,6.8l-2.5-14.3c-0.1-0.3,0.1-0.7,0.3-0.9l10.4-10.1l-14.4-2.1c-0.3,0-0.6-0.3-0.8-0.5
			l-6.4-13l-6.4,13c-0.1,0.3-0.4,0.5-0.8,0.5l-14.4,2.1l10.4,10.1c0.2,0.2,0.3,0.6,0.3,0.9l-2.5,14.3l12.8-6.8
			C721.6,410.3,721.7,410.3,721.9,410.3z"/>
	</g>
	<g>
		<polygon class="st4" points="788.5,373.9 795.8,388.8 812.2,391.1 800.3,402.7 803.1,419 788.5,411.3 773.9,419 776.7,402.7 
			764.8,391.1 781.2,388.8 		"/>
		<path class="st5" d="M803.1,420c-0.2,0-0.3,0-0.5-0.1l-14.2-7.4l-14.2,7.4c-0.3,0.2-0.7,0.1-1.1-0.1c-0.3-0.2-0.5-0.6-0.4-1
			l2.7-15.8l-11.5-11.2c-0.3-0.3-0.4-0.7-0.3-1c0.1-0.4,0.4-0.6,0.8-0.7l15.8-2.3l7.1-14.4c0.3-0.7,1.5-0.7,1.8,0l7.1,14.4l15.8,2.3
			c0.4,0.1,0.7,0.3,0.8,0.7c0.1,0.4,0,0.8-0.3,1L801.4,403l2.7,15.8c0.1,0.4-0.1,0.8-0.4,1C803.5,419.9,803.3,420,803.1,420z
			 M788.5,410.3c0.2,0,0.3,0,0.5,0.1l12.8,6.8l-2.5-14.3c-0.1-0.3,0.1-0.7,0.3-0.9l10.4-10.1l-14.4-2.1c-0.3,0-0.6-0.3-0.8-0.5
			l-6.4-13l-6.4,13c-0.1,0.3-0.4,0.5-0.8,0.5l-14.4,2.1l10.4,10.1c0.2,0.2,0.3,0.6,0.3,0.9l-2.5,14.3l12.8-6.8
			C788.2,410.3,788.3,410.3,788.5,410.3z"/>
	</g>
</g>
<g>
	<path d="M98.5,610.4h2.4l-3.4,20.2h-3.6L98.5,610.4z M99.4,605c-0.4-0.4-0.6-0.9-0.6-1.5c0-0.7,0.2-1.2,0.7-1.7s1-0.7,1.7-0.7
		c0.6,0,1.1,0.2,1.5,0.6c0.4,0.4,0.6,0.9,0.6,1.5s-0.2,1.2-0.7,1.6c-0.4,0.5-1,0.7-1.7,0.7C100.3,605.6,99.8,605.4,99.4,605z"/>
	<path d="M128.5,616h-16.8l-5.2,8h-3.4l19.8-30.1h3.1l7.7,30.1h-3.2L128.5,616z M127.9,613.4l-4.1-16.3l-10.5,16.3H127.9z"/>
	<path d="M139.3,623.4c-1.6-0.5-2.9-1.2-3.8-2l1.5-2.4c0.9,0.7,2,1.3,3.4,1.8s2.9,0.7,4.4,0.7c2.1,0,3.8-0.4,5-1.1
		c1.2-0.7,1.7-1.7,1.7-3c0-0.7-0.2-1.3-0.7-1.7s-1.1-0.8-1.7-1c-0.7-0.2-1.7-0.5-3-0.8c-1.6-0.3-2.9-0.7-3.8-1s-1.8-0.9-2.5-1.6
		s-1-1.8-1-3.1c0-2.1,0.9-3.9,2.7-5.1c1.8-1.3,4.2-1.9,7.1-1.9c1.5,0,2.9,0.2,4.3,0.6c1.4,0.4,2.5,0.9,3.4,1.5l-1.3,2.5
		c-0.9-0.6-1.9-1.1-3-1.4c-1.2-0.3-2.4-0.5-3.6-0.5c-2.1,0-3.7,0.4-4.8,1.1c-1.1,0.7-1.7,1.7-1.7,3c0,0.7,0.2,1.3,0.7,1.8
		s1.1,0.8,1.8,1s1.7,0.5,3,0.7c1.5,0.3,2.8,0.7,3.8,1s1.8,0.9,2.5,1.6s1,1.7,1,3c0,2.2-0.9,3.9-2.7,5.2c-1.8,1.2-4.3,1.9-7.3,1.9
		C142.6,624.2,140.9,624,139.3,623.4z"/>
	<path d="M163.4,601.4h3.1L162,624h-3.1L163.4,601.4z M164.7,595.8c-0.4-0.4-0.6-0.9-0.6-1.4c0-0.7,0.2-1.2,0.7-1.7
		c0.4-0.4,1-0.7,1.7-0.7c0.6,0,1.1,0.2,1.5,0.6c0.4,0.4,0.6,0.8,0.6,1.4c0,0.7-0.2,1.3-0.7,1.7c-0.5,0.5-1,0.7-1.7,0.7
		C165.6,596.4,165.1,596.2,164.7,595.8z"/>
	<path d="M171.9,623.4c-1.6-0.5-2.9-1.2-3.8-2l1.5-2.4c0.9,0.7,2,1.3,3.4,1.8s2.9,0.7,4.4,0.7c2.1,0,3.8-0.4,5-1.1
		c1.2-0.7,1.7-1.7,1.7-3c0-0.7-0.2-1.3-0.7-1.7s-1.1-0.8-1.7-1c-0.7-0.2-1.7-0.5-3-0.8c-1.6-0.3-2.9-0.7-3.8-1s-1.8-0.9-2.5-1.6
		s-1-1.8-1-3.1c0-2.1,0.9-3.9,2.7-5.1c1.8-1.3,4.2-1.9,7.1-1.9c1.5,0,2.9,0.2,4.3,0.6c1.4,0.4,2.5,0.9,3.4,1.5l-1.3,2.5
		c-0.9-0.6-1.9-1.1-3-1.4c-1.2-0.3-2.4-0.5-3.6-0.5c-2.1,0-3.7,0.4-4.8,1.1c-1.1,0.7-1.7,1.7-1.7,3c0,0.7,0.2,1.3,0.7,1.8
		s1.1,0.8,1.8,1s1.7,0.5,3,0.7c1.5,0.3,2.8,0.7,3.8,1s1.8,0.9,2.5,1.6s1,1.7,1,3c0,2.2-0.9,3.9-2.7,5.2c-1.8,1.2-4.3,1.9-7.3,1.9
		C175.2,624.2,173.5,624,171.9,623.4z"/>
	<path d="M196.4,617.2c-0.1,0.7-0.2,1.2-0.2,1.4c0,2,1.1,3,3.3,3c1.3,0,2.5-0.4,3.5-1.2l0.7,2.3c-1.3,1-3,1.5-5,1.5
		c-1.7,0-3-0.5-4-1.4s-1.5-2.2-1.5-3.8c0-0.6,0.1-1.2,0.2-1.8L196,604h-4l0.5-2.6h4l1-4.9h3.1l-1,4.9h6.9L206,604h-7L196.4,617.2z"
		/>
	<path d="M213.4,601.4h3.1L212,624h-3.1L213.4,601.4z M219.3,592.5h4.2l-7.5,5.3h-3.2L219.3,592.5z"/>
	<path d="M252.4,602.4c1.5,0.8,2.7,1.9,3.5,3.3c0.8,1.4,1.2,3.1,1.2,5.1c0,2.6-0.6,4.9-1.7,6.9c-1.1,2-2.6,3.7-4.6,4.8
		c-1.9,1.2-4.1,1.7-6.6,1.7c-2.2,0-4-0.4-5.4-1.3c-1.5-0.8-2.5-2.1-3.2-3.7l-2.6,13.1h-3.1l6.1-31h2.9l-0.7,3.6
		c1.1-1.2,2.4-2.2,3.9-2.8s3.1-1,4.9-1C249.2,601.2,250.9,601.6,252.4,602.4z M249.3,620.1c1.5-0.9,2.6-2.2,3.5-3.8
		c0.8-1.6,1.3-3.4,1.3-5.5c0-2.2-0.7-3.9-2-5.2c-1.3-1.2-3.1-1.9-5.5-1.9c-1.9,0-3.5,0.5-5,1.4s-2.6,2.2-3.5,3.8
		c-0.8,1.6-1.3,3.4-1.3,5.5c0,2.2,0.7,3.9,2,5.2c1.3,1.2,3.1,1.8,5.5,1.8C246.1,621.5,247.8,621,249.3,620.1z"/>
	<path d="M265.6,623c-1.5-0.8-2.7-1.9-3.6-3.4c-0.8-1.4-1.3-3.1-1.3-5.1c0-2.6,0.6-4.8,1.7-6.9c1.1-2,2.7-3.6,4.7-4.8
		s4.2-1.7,6.7-1.7c3.2,0,5.7,0.9,7.5,2.6c1.8,1.7,2.8,4,2.8,7c0,2.6-0.6,4.9-1.7,6.9s-2.7,3.7-4.7,4.8c-2,1.2-4.2,1.7-6.7,1.7
		C268.9,624.2,267.1,623.8,265.6,623z M276.2,620.1c1.5-0.9,2.7-2.2,3.5-3.8s1.3-3.4,1.3-5.4c0-2.2-0.7-3.9-2-5.2
		c-1.3-1.2-3.1-1.9-5.5-1.9c-1.9,0-3.5,0.5-5,1.4s-2.7,2.2-3.5,3.8s-1.3,3.4-1.3,5.4c0,2.2,0.7,3.9,2,5.2c1.3,1.2,3.1,1.8,5.5,1.8
		C273.1,621.5,274.7,621,276.2,620.1z"/>
	<path d="M298.3,602.3c1.5-0.7,3.4-1.1,5.5-1.1l-0.6,3h-0.9c-2.4,0-4.4,0.7-6,2.1c-1.6,1.4-2.6,3.5-3.2,6.3l-2.3,11.5h-3.1l4.5-22.6
		h2.9l-0.8,4.1C295.5,604,296.8,603,298.3,602.3z"/>
	<path d="M337,602.4c1.5,0.8,2.7,1.9,3.5,3.3c0.8,1.4,1.2,3.1,1.2,5.1c0,2.6-0.6,4.9-1.7,6.9s-2.6,3.7-4.6,4.8
		c-1.9,1.2-4.1,1.7-6.6,1.7c-2.2,0-4-0.4-5.4-1.3c-1.5-0.8-2.5-2.1-3.2-3.7l-2.6,13.1h-3.1l6.1-31h2.9l-0.7,3.6
		c1.1-1.2,2.4-2.2,3.9-2.8s3.1-1,4.9-1C333.8,601.2,335.5,601.6,337,602.4z M333.9,620.1c1.5-0.9,2.6-2.2,3.5-3.8
		c0.8-1.6,1.3-3.4,1.3-5.5c0-2.2-0.7-3.9-2-5.2c-1.3-1.2-3.1-1.9-5.5-1.9c-1.9,0-3.5,0.5-5,1.4s-2.6,2.2-3.5,3.8
		c-0.8,1.6-1.3,3.4-1.3,5.5c0,2.2,0.7,3.9,2,5.2c1.3,1.2,3.1,1.8,5.5,1.8C330.8,621.5,332.4,621,333.9,620.1z"/>
	<path d="M356,602.3c1.5-0.7,3.4-1.1,5.5-1.1l-0.6,3H360c-2.4,0-4.4,0.7-6,2.1c-1.6,1.4-2.6,3.5-3.2,6.3l-2.3,11.5h-3.1l4.5-22.6
		h2.9l-0.8,4.1C353.2,604,354.4,603,356,602.3z"/>
	<path d="M366.9,601.4h3.1l-4.5,22.6h-3.1L366.9,601.4z M368.3,595.8c-0.4-0.4-0.6-0.9-0.6-1.4c0-0.7,0.2-1.2,0.7-1.7
		c0.4-0.4,1-0.7,1.7-0.7c0.6,0,1.1,0.2,1.5,0.6c0.4,0.4,0.6,0.8,0.6,1.4c0,0.7-0.2,1.3-0.7,1.7c-0.5,0.5-1,0.7-1.7,0.7
		C369.2,596.4,368.7,596.2,368.3,595.8z"/>
	<path d="M412.1,603.1c1.4,1.3,2.1,3.1,2.1,5.4c0,0.7-0.1,1.5-0.3,2.7l-2.6,12.9h-3.1l2.6-12.9c0.1-0.7,0.2-1.4,0.2-2.1
		c0-1.6-0.5-2.8-1.4-3.7s-2.3-1.3-4.2-1.3c-2.3,0-4.2,0.6-5.7,1.9c-1.5,1.3-2.5,3.2-3.1,5.7l-2.5,12.5H391l2.6-12.9
		c0.1-0.8,0.2-1.5,0.2-2.1c0-1.6-0.5-2.9-1.4-3.8c-0.9-0.9-2.3-1.3-4.2-1.3c-2.3,0-4.2,0.7-5.8,2c-1.5,1.3-2.6,3.3-3.1,5.9
		l-2.4,12.1H374l4.5-22.6h2.9l-0.7,3.6c2.1-2.5,4.9-3.8,8.6-3.8c1.9,0,3.5,0.4,4.8,1.2s2.2,1.9,2.6,3.4c1.1-1.5,2.5-2.6,4.1-3.4
		c1.6-0.8,3.4-1.1,5.4-1.1C408.7,601.2,410.7,601.8,412.1,603.1z"/>
	<path d="M422.6,613.5c0,0.2,0,0.5,0,0.9c0,2.3,0.7,4,2,5.2s3.2,1.8,5.8,1.8c1.5,0,2.9-0.3,4.2-0.8c1.3-0.5,2.4-1.2,3.2-2.1l1.4,2.2
		c-1.1,1.1-2.4,1.9-4,2.5s-3.3,0.9-5.1,0.9c-3.3,0-5.8-0.9-7.7-2.6c-1.9-1.7-2.8-4.1-2.8-7.1c0-2.5,0.5-4.8,1.6-6.8s2.6-3.6,4.5-4.8
		s4-1.7,6.4-1.7c3,0,5.4,0.9,7.2,2.6c1.8,1.7,2.7,4,2.7,7c0,0.8-0.1,1.7-0.3,2.8L422.6,613.5L422.6,613.5z M426.1,605.8
		c-1.6,1.3-2.7,3.2-3.3,5.5H439c0-0.2,0-0.5,0-0.8c0-2.1-0.6-3.8-1.9-4.9s-3-1.7-5.2-1.7C429.7,603.8,427.7,604.5,426.1,605.8z"/>
	<path d="M456.1,602.3c1.5-0.7,3.4-1.1,5.5-1.1l-0.6,3h-0.9c-2.4,0-4.4,0.7-6,2.1c-1.6,1.4-2.6,3.5-3.2,6.3l-2.3,11.5h-3.1l4.5-22.6
		h2.9l-0.8,4.1C453.3,604,454.6,603,456.1,602.3z"/>
	<path d="M487.5,601.4L483,624h-2.9l0.7-3.6c-1.1,1.2-2.4,2.1-3.9,2.8s-3.1,1-4.9,1c-1.9,0-3.6-0.4-5.1-1.2s-2.7-1.9-3.5-3.3
		c-0.8-1.4-1.2-3.1-1.2-5.1c0-2.6,0.6-4.8,1.7-6.9c1.1-2,2.6-3.6,4.6-4.8c1.9-1.2,4.1-1.7,6.5-1.7c2.1,0,4,0.4,5.4,1.3
		s2.5,2.1,3.2,3.6l0.9-4.7L487.5,601.4L487.5,601.4z M477.7,620.1c1.5-0.9,2.7-2.2,3.5-3.8s1.3-3.4,1.3-5.4c0-2.2-0.7-3.9-2-5.2
		c-1.3-1.2-3.1-1.9-5.5-1.9c-1.9,0-3.5,0.5-5,1.4s-2.7,2.2-3.5,3.8s-1.3,3.4-1.3,5.4c0,2.2,0.7,3.9,2,5.2c1.3,1.2,3.1,1.8,5.5,1.8
		C474.5,621.5,476.2,621,477.7,620.1z"/>
	<path d="M526.3,601.4L511.8,624h-3.1l-5.6-22.6h3.1l4.7,19.3l12.3-19.3H526.3z"/>
	<path d="M528.3,613.5c0,0.2,0,0.5,0,0.9c0,2.3,0.7,4,2,5.2s3.2,1.8,5.8,1.8c1.5,0,2.9-0.3,4.2-0.8s2.4-1.2,3.2-2.1l1.4,2.2
		c-1.1,1.1-2.4,1.9-4,2.5s-3.3,0.9-5.1,0.9c-3.3,0-5.8-0.9-7.7-2.6c-1.9-1.7-2.8-4.1-2.8-7.1c0-2.5,0.5-4.8,1.6-6.8s2.6-3.6,4.5-4.8
		s4-1.7,6.4-1.7c3,0,5.4,0.9,7.2,2.6c1.8,1.7,2.7,4,2.7,7c0,0.8-0.1,1.7-0.3,2.8L528.3,613.5L528.3,613.5z M531.9,605.8
		c-1.6,1.3-2.7,3.2-3.3,5.5h16.1c0-0.2,0-0.5,0-0.8c0-2.1-0.6-3.8-1.9-4.9s-3-1.7-5.2-1.7C535.4,603.8,533.5,604.5,531.9,605.8z"/>
	<path d="M570.9,603.4l-17.6,18.1h14.3l-0.5,2.5h-18.4l0.4-2l17.6-18H553l0.5-2.6h17.8L570.9,603.4z"/>
	<path d="M609.6,601.4l-4.5,22.6h-2.9l0.7-3.6c-1.1,1.2-2.4,2.1-3.9,2.8s-3.1,1-4.9,1c-1.9,0-3.6-0.4-5.1-1.2s-2.7-1.9-3.5-3.3
		s-1.2-3.1-1.2-5.1c0-2.6,0.6-4.8,1.7-6.9c1.1-2,2.6-3.6,4.6-4.8c1.9-1.2,4.1-1.7,6.5-1.7c2.1,0,4,0.4,5.4,1.3s2.5,2.1,3.2,3.6
		l0.9-4.7L609.6,601.4L609.6,601.4z M599.8,620.1c1.5-0.9,2.7-2.2,3.5-3.8s1.3-3.4,1.3-5.4c0-2.2-0.7-3.9-2-5.2
		c-1.3-1.2-3.1-1.9-5.5-1.9c-1.9,0-3.5,0.5-5,1.4s-2.7,2.2-3.5,3.8s-1.3,3.4-1.3,5.4c0,2.2,0.7,3.9,2,5.2c1.3,1.2,3.1,1.8,5.5,1.8
		C596.6,621.5,598.3,621,599.8,620.1z"/>
	<path d="M649.8,601.4l-4.5,22.6h-2.9l0.7-3.6c-2.1,2.6-5,3.8-8.7,3.8c-2.5,0-4.5-0.7-5.9-2s-2.1-3.1-2.1-5.4c0-0.8,0.1-1.6,0.3-2.5
		l2.6-12.9h3.1l-2.6,12.9c-0.1,0.8-0.2,1.5-0.2,2c0,1.7,0.5,2.9,1.4,3.8c1,0.9,2.4,1.3,4.3,1.3c2.4,0,4.4-0.7,6-2s2.6-3.3,3.2-5.9
		l2.4-12.2h2.9V601.4z"/>
	<path d="M675.3,603.2c1.4,1.3,2.1,3.1,2.1,5.4c0,0.8-0.1,1.7-0.3,2.6l-2.6,12.9h-3.1l2.6-12.9c0.1-0.8,0.2-1.5,0.2-2.1
		c0-1.6-0.5-2.9-1.5-3.8c-1-0.9-2.4-1.3-4.4-1.3c-2.4,0-4.4,0.7-6,2s-2.6,3.3-3.2,5.9l-2.4,12.1h-3.1l4.5-22.6h2.9l-0.7,3.6
		c2.2-2.5,5.1-3.8,8.9-3.8C671.9,601.2,673.9,601.9,675.3,603.2z"/>
	<path d="M708.2,601.4l-4.5,22.6h-2.9l0.7-3.6c-1.1,1.2-2.4,2.1-3.9,2.8s-3.1,1-4.9,1c-1.9,0-3.6-0.4-5.1-1.2s-2.7-1.9-3.5-3.3
		s-1.2-3.1-1.2-5.1c0-2.6,0.6-4.8,1.7-6.9c1.1-2,2.6-3.6,4.6-4.8c1.9-1.2,4.1-1.7,6.5-1.7c2.1,0,4,0.4,5.4,1.3s2.5,2.1,3.2,3.6
		l0.9-4.7L708.2,601.4L708.2,601.4z M698.3,620.1c1.5-0.9,2.7-2.2,3.5-3.8s1.3-3.4,1.3-5.4c0-2.2-0.7-3.9-2-5.2
		c-1.3-1.2-3.1-1.9-5.5-1.9c-1.9,0-3.5,0.5-5,1.4s-2.7,2.2-3.5,3.8s-1.3,3.4-1.3,5.4c0,2.2,0.7,3.9,2,5.2c1.3,1.2,3.1,1.8,5.5,1.8
		C695.1,621.5,696.8,621,698.3,620.1z"/>
	<path d="M728.1,623c-1.6-0.8-2.8-1.9-3.6-3.4s-1.3-3.1-1.3-5.1c0-2.6,0.6-4.8,1.7-6.9c1.1-2,2.7-3.6,4.7-4.8s4.3-1.7,6.8-1.7
		c2.1,0,3.9,0.4,5.4,1.1s2.7,1.9,3.5,3.4l-2.6,1.5c-1.3-2.2-3.5-3.4-6.6-3.4c-1.9,0-3.5,0.5-5.1,1.4c-1.5,0.9-2.7,2.2-3.5,3.8
		s-1.3,3.4-1.3,5.5c0,2.2,0.7,3.9,2,5.2c1.3,1.2,3.2,1.8,5.6,1.8c1.5,0,2.8-0.3,4.1-0.8c1.2-0.6,2.3-1.4,3.1-2.4l2.2,1.7
		c-1,1.3-2.3,2.4-4,3.2s-3.5,1.1-5.4,1.1C731.5,624.2,729.7,623.8,728.1,623z"/>
	<path d="M768.8,603.2c1.4,1.3,2.1,3.1,2.1,5.4c0,0.8-0.1,1.7-0.3,2.6l-2.6,12.9h-3l2.6-12.9c0.1-0.8,0.2-1.5,0.2-2.1
		c0-1.6-0.5-2.9-1.5-3.8c-1-0.9-2.4-1.3-4.4-1.3c-2.4,0-4.4,0.7-6,2s-2.6,3.3-3.2,5.9l-2.4,12.1h-3.1l6.4-31.9h3.1l-2.5,12.7
		c2.1-2.4,5-3.6,8.6-3.6C765.4,601.2,767.3,601.9,768.8,603.2z"/>
	<path d="M801.6,601.4l-4.5,22.6h-2.9l0.7-3.6c-1.1,1.2-2.4,2.1-3.9,2.8s-3.1,1-4.9,1c-1.9,0-3.6-0.4-5.1-1.2s-2.7-1.9-3.5-3.3
		s-1.2-3.1-1.2-5.1c0-2.6,0.6-4.8,1.7-6.9c1.1-2,2.6-3.6,4.6-4.8c1.9-1.2,4.1-1.7,6.5-1.7c2.1,0,4,0.4,5.4,1.3s2.5,2.1,3.2,3.6
		l0.9-4.7L801.6,601.4L801.6,601.4z M791.8,620.1c1.5-0.9,2.7-2.2,3.5-3.8s1.3-3.4,1.3-5.4c0-2.2-0.7-3.9-2-5.2
		c-1.3-1.2-3.1-1.9-5.5-1.9c-1.9,0-3.5,0.5-5,1.4s-2.7,2.2-3.5,3.8s-1.3,3.4-1.3,5.4c0,2.2,0.7,3.9,2,5.2c1.3,1.2,3.1,1.8,5.5,1.8
		C788.6,621.5,790.3,621,791.8,620.1z"/>
	<path d="M816,602.3c1.5-0.7,3.4-1.1,5.5-1.1l-0.6,3H820c-2.4,0-4.4,0.7-6,2.1c-1.6,1.4-2.6,3.5-3.2,6.3l-2.3,11.5h-3.1l4.5-22.6
		h2.9l-0.8,4.1C813.3,604,814.5,603,816,602.3z"/>
	<path d="M828.9,592.1h3.1l-6.4,31.9h-3.1L828.9,592.1z"/>
	<path d="M859.3,601.4l-4.5,22.6h-2.9l0.7-3.6c-1.1,1.2-2.4,2.1-3.9,2.8s-3.1,1-4.9,1c-1.9,0-3.6-0.4-5.1-1.2s-2.7-1.9-3.5-3.3
		s-1.2-3.1-1.2-5.1c0-2.6,0.6-4.8,1.7-6.9c1.1-2,2.6-3.6,4.6-4.8c1.9-1.2,4.1-1.7,6.5-1.7c2.1,0,4,0.4,5.4,1.3s2.5,2.1,3.2,3.6
		l0.9-4.7L859.3,601.4L859.3,601.4z M849.4,620.1c1.5-0.9,2.7-2.2,3.5-3.8s1.3-3.4,1.3-5.4c0-2.2-0.7-3.9-2-5.2
		c-1.3-1.2-3.1-1.9-5.5-1.9c-1.9,0-3.5,0.5-5,1.4s-2.7,2.2-3.5,3.8s-1.3,3.4-1.3,5.4c0,2.2,0.7,3.9,2,5.2c1.3,1.2,3.1,1.8,5.5,1.8
		C846.2,621.5,847.9,621,849.4,620.1z"/>
	<path d="M121.1,653l-4,19.9c-0.8,4-2.2,6.8-4.4,8.6c-2.1,1.8-5.1,2.7-8.8,2.7c-2.1,0-4-0.3-5.7-0.9c-1.7-0.6-3.1-1.4-4.3-2.5
		l1.8-2.3c0.9,0.9,2.1,1.7,3.6,2.2s3.1,0.8,4.9,0.8c2.8,0,5-0.7,6.6-2s2.6-3.4,3.2-6.1l0.5-2.5c-1.1,1.2-2.4,2.2-3.9,2.9
		s-3.2,1-5.1,1c-3,0-5.4-0.8-7.2-2.5c-1.8-1.6-2.7-3.9-2.7-6.7c0-2.4,0.6-4.6,1.7-6.5s2.6-3.5,4.6-4.6s4.2-1.7,6.6-1.7
		c2.1,0,4,0.4,5.5,1.3c1.5,0.9,2.6,2.2,3.3,3.8l0.9-5L121.1,653L121.1,653z M111.1,670.7c1.5-0.9,2.7-2,3.5-3.6
		c0.8-1.5,1.3-3.2,1.3-5.1c0-2.1-0.7-3.7-2-4.8c-1.3-1.2-3.2-1.7-5.5-1.7c-1.9,0-3.6,0.4-5.1,1.3c-1.5,0.9-2.7,2-3.5,3.6
		c-0.8,1.5-1.3,3.2-1.3,5.1c0,2.1,0.7,3.7,2,4.8c1.3,1.2,3.2,1.7,5.5,1.7C107.9,672,109.6,671.6,111.1,670.7z"/>
	<path d="M135.5,653.9c1.5-0.7,3.4-1.1,5.5-1.1l-0.6,3h-0.9c-2.4,0-4.4,0.7-6,2.1c-1.6,1.4-2.6,3.5-3.2,6.3l-2.3,11.5h-3.1l4.5-22.6
		h2.9l-0.8,4.1C132.8,655.6,134,654.6,135.5,653.9z"/>
	<path d="M167.3,653l-4.5,22.6h-2.9l0.7-3.6c-2.1,2.6-5,3.8-8.7,3.8c-2.5,0-4.5-0.7-5.9-2s-2.1-3.1-2.1-5.4c0-0.8,0.1-1.6,0.3-2.5
		l2.6-12.9h3.1l-2.6,12.9c-0.1,0.8-0.2,1.5-0.2,2c0,1.7,0.5,2.9,1.4,3.8c1,0.9,2.4,1.3,4.3,1.3c2.4,0,4.4-0.7,6-2s2.6-3.3,3.2-5.9
		l2.4-12.2h2.9V653z"/>
	<path d="M191.9,654c1.5,0.8,2.7,1.9,3.5,3.3c0.8,1.4,1.2,3.1,1.2,5.1c0,2.6-0.6,4.9-1.7,6.9c-1.1,2-2.6,3.7-4.6,4.8
		c-1.9,1.2-4.1,1.7-6.6,1.7c-2.2,0-4-0.4-5.4-1.3c-1.5-0.8-2.5-2.1-3.2-3.7l-2.6,13.1h-3.1l6.1-31h2.9l-0.7,3.6
		c1.1-1.2,2.4-2.2,3.9-2.8s3.1-1,4.9-1C188.7,652.8,190.4,653.2,191.9,654z M188.8,671.7c1.5-0.9,2.6-2.2,3.5-3.8
		c0.8-1.6,1.3-3.4,1.3-5.5c0-2.2-0.7-3.9-2-5.2c-1.3-1.2-3.1-1.9-5.5-1.9c-1.9,0-3.5,0.5-5,1.4s-2.6,2.2-3.5,3.8
		c-0.8,1.6-1.3,3.4-1.3,5.5c0,2.2,0.7,3.9,2,5.2c1.3,1.2,3.1,1.8,5.5,1.8C185.7,673.1,187.4,672.6,188.8,671.7z"/>
	<path d="M225.6,653l-4.5,22.6h-2.9l0.7-3.6c-1.1,1.2-2.4,2.1-3.9,2.8s-3.1,1-4.9,1c-1.9,0-3.6-0.4-5.1-1.2s-2.7-1.9-3.5-3.3
		c-0.8-1.4-1.2-3.1-1.2-5.1c0-2.6,0.6-4.8,1.7-6.9c1.1-2,2.6-3.6,4.6-4.8c1.9-1.2,4.1-1.7,6.5-1.7c2.1,0,4,0.4,5.4,1.3
		s2.5,2.1,3.2,3.6l0.9-4.7L225.6,653L225.6,653z M215.8,671.7c1.5-0.9,2.7-2.2,3.5-3.8s1.3-3.4,1.3-5.4c0-2.2-0.7-3.9-2-5.2
		c-1.3-1.2-3.1-1.9-5.5-1.9c-1.9,0-3.5,0.5-5,1.4s-2.7,2.2-3.5,3.8s-1.3,3.4-1.3,5.4c0,2.2,0.7,3.9,2,5.2c1.3,1.2,3.1,1.8,5.5,1.8
		C212.6,673.1,214.3,672.6,215.8,671.7z"/>
	<path d="M236,643.7h3.1l-6.4,31.9h-3.1L236,643.7z"/>
	<path d="M253.8,675c-1.6-0.5-2.9-1.2-3.8-2l1.5-2.4c0.9,0.7,2,1.3,3.4,1.8s2.9,0.7,4.4,0.7c2.1,0,3.8-0.4,5-1.1
		c1.2-0.7,1.7-1.7,1.7-3c0-0.7-0.2-1.3-0.7-1.7s-1.1-0.8-1.7-1c-0.7-0.2-1.7-0.5-3-0.8c-1.6-0.3-2.9-0.7-3.8-1s-1.8-0.9-2.5-1.6
		s-1-1.8-1-3.1c0-2.1,0.9-3.9,2.7-5.1c1.8-1.3,4.2-1.9,7.1-1.9c1.5,0,2.9,0.2,4.3,0.6c1.4,0.4,2.5,0.9,3.4,1.5l-1.3,2.5
		c-0.9-0.6-1.9-1.1-3-1.4c-1.2-0.3-2.4-0.5-3.6-0.5c-2.1,0-3.7,0.4-4.8,1.1c-1.1,0.7-1.7,1.7-1.7,3c0,0.7,0.2,1.3,0.7,1.8
		s1.1,0.8,1.8,1c0.7,0.2,1.7,0.5,3,0.7c1.5,0.3,2.8,0.7,3.8,1s1.8,0.9,2.5,1.6s1,1.7,1,3c0,2.2-0.9,3.9-2.7,5.2
		c-1.8,1.2-4.3,1.9-7.3,1.9C257.2,675.8,255.5,675.6,253.8,675z"/>
	<path d="M278.1,674.6c-1.5-0.8-2.7-1.9-3.6-3.4c-0.8-1.4-1.3-3.1-1.3-5.1c0-2.6,0.6-4.8,1.7-6.9c1.1-2,2.7-3.6,4.7-4.8
		s4.2-1.7,6.7-1.7c3.2,0,5.7,0.9,7.5,2.6c1.8,1.7,2.8,4,2.8,7c0,2.6-0.6,4.9-1.7,6.9s-2.7,3.7-4.7,4.8c-2,1.2-4.2,1.7-6.7,1.7
		C281.5,675.8,279.7,675.4,278.1,674.6z M288.8,671.7c1.5-0.9,2.7-2.2,3.5-3.8s1.3-3.4,1.3-5.4c0-2.2-0.7-3.9-2-5.2
		c-1.3-1.2-3.1-1.9-5.5-1.9c-1.9,0-3.5,0.5-5,1.4s-2.7,2.2-3.5,3.8s-1.3,3.4-1.3,5.4c0,2.2,0.7,3.9,2,5.2c1.3,1.2,3.1,1.8,5.5,1.8
		C285.6,673.1,287.3,672.6,288.8,671.7z"/>
	<path d="M321.1,654c1.5,0.8,2.7,1.9,3.5,3.3c0.8,1.4,1.2,3.1,1.2,5.1c0,2.6-0.6,4.9-1.7,6.9s-2.6,3.7-4.6,4.8
		c-1.9,1.2-4.1,1.7-6.6,1.7c-2.2,0-4-0.4-5.5-1.3c-1.5-0.9-2.5-2.2-3.2-3.8l-1,4.9h-2.9l6.4-31.9h3.1l-2.5,12.7
		c1.1-1.1,2.4-2,3.8-2.6s3-0.9,4.8-0.9C317.8,652.8,319.6,653.2,321.1,654z M318,671.7c1.5-0.9,2.6-2.2,3.5-3.8
		c0.8-1.6,1.3-3.4,1.3-5.5c0-2.2-0.7-3.9-2-5.2c-1.3-1.2-3.1-1.9-5.5-1.9c-1.9,0-3.5,0.5-5,1.4s-2.6,2.2-3.5,3.8
		c-0.8,1.6-1.3,3.4-1.3,5.5c0,2.2,0.7,3.9,2,5.2c1.3,1.2,3.1,1.8,5.5,1.8C314.8,673.1,316.5,672.6,318,671.7z"/>
	<path d="M340,653.9c1.5-0.7,3.4-1.1,5.5-1.1l-0.6,3H344c-2.4,0-4.4,0.7-6,2.1c-1.6,1.4-2.6,3.5-3.2,6.3l-2.3,11.5h-3.1l4.5-22.6
		h2.9l-0.8,4.1C337.2,655.6,338.5,654.6,340,653.9z"/>
	<path d="M349.1,665.1c0,0.2,0,0.5,0,0.9c0,2.3,0.7,4,2,5.2s3.2,1.8,5.8,1.8c1.5,0,2.9-0.3,4.2-0.8c1.3-0.5,2.4-1.2,3.2-2.1l1.4,2.2
		c-1.1,1.1-2.4,1.9-4,2.5s-3.3,0.9-5.1,0.9c-3.3,0-5.8-0.9-7.7-2.6c-1.9-1.7-2.8-4.1-2.8-7.1c0-2.5,0.5-4.8,1.6-6.8s2.6-3.6,4.5-4.8
		s4-1.7,6.4-1.7c3,0,5.4,0.9,7.2,2.6c1.8,1.7,2.7,4,2.7,7c0,0.8-0.1,1.7-0.3,2.8L349.1,665.1L349.1,665.1z M352.7,657.4
		c-1.6,1.3-2.7,3.2-3.3,5.5h16.1c0-0.2,0-0.5,0-0.8c0-2.1-0.6-3.8-1.9-4.9s-3-1.7-5.2-1.7C356.2,655.4,354.3,656.1,352.7,657.4z"/>
	<path d="M408.7,653l-4.5,22.6h-2.9l0.7-3.6c-1.1,1.2-2.4,2.1-3.9,2.8s-3.1,1-4.9,1c-1.9,0-3.6-0.4-5.1-1.2s-2.7-1.9-3.5-3.3
		c-0.8-1.4-1.2-3.1-1.2-5.1c0-2.6,0.6-4.8,1.7-6.9c1.1-2,2.6-3.6,4.6-4.8c1.9-1.2,4.1-1.7,6.5-1.7c2.1,0,4,0.4,5.4,1.3
		s2.5,2.1,3.2,3.6l0.9-4.7L408.7,653L408.7,653z M398.8,671.7c1.5-0.9,2.7-2.2,3.5-3.8s1.3-3.4,1.3-5.4c0-2.2-0.7-3.9-2-5.2
		c-1.3-1.2-3.1-1.9-5.5-1.9c-1.9,0-3.5,0.5-5,1.4s-2.7,2.2-3.5,3.8s-1.3,3.4-1.3,5.4c0,2.2,0.7,3.9,2,5.2c1.3,1.2,3.1,1.8,5.5,1.8
		C395.7,673.1,397.3,672.6,398.8,671.7z"/>
	<path d="M439.7,643.7l-6.4,31.9h-2.9l0.7-3.6c-1.1,1.2-2.4,2.1-3.9,2.8s-3.1,1-4.9,1c-1.9,0-3.6-0.4-5.1-1.2s-2.7-1.9-3.5-3.3
		c-0.8-1.4-1.2-3.1-1.2-5.1c0-2.6,0.6-4.8,1.7-6.9c1.1-2,2.6-3.6,4.6-4.8c1.9-1.2,4.1-1.7,6.5-1.7c2.1,0,3.9,0.4,5.4,1.3
		c1.5,0.8,2.5,2.1,3.2,3.6l2.8-14H439.7z M428,671.7c1.5-0.9,2.7-2.2,3.5-3.8s1.3-3.4,1.3-5.4c0-2.2-0.7-3.9-2-5.2
		c-1.3-1.2-3.1-1.9-5.5-1.9c-1.9,0-3.5,0.5-5,1.4s-2.7,2.2-3.5,3.8s-1.3,3.4-1.3,5.4c0,2.2,0.7,3.9,2,5.2c1.3,1.2,3.1,1.8,5.5,1.8
		C424.8,673.1,426.5,672.6,428,671.7z"/>
	<path d="M446.3,653h3.1l-4.5,22.6h-3.1L446.3,653z M447.6,647.4c-0.4-0.4-0.6-0.9-0.6-1.4c0-0.7,0.2-1.2,0.7-1.7
		c0.4-0.4,1-0.7,1.7-0.7c0.6,0,1.1,0.2,1.5,0.6c0.4,0.4,0.6,0.8,0.6,1.4c0,0.7-0.2,1.3-0.7,1.7c-0.5,0.5-1,0.7-1.7,0.7
		C448.5,648,448,647.8,447.6,647.4z"/>
	<path d="M458.1,674.6c-1.6-0.8-2.8-1.9-3.6-3.4c-0.8-1.4-1.3-3.1-1.3-5.1c0-2.6,0.6-4.8,1.7-6.9c1.1-2,2.7-3.6,4.7-4.8
		s4.3-1.7,6.8-1.7c2.1,0,3.9,0.4,5.4,1.1c1.5,0.8,2.7,1.9,3.5,3.4l-2.6,1.5c-1.3-2.2-3.5-3.4-6.6-3.4c-1.9,0-3.5,0.5-5.1,1.4
		c-1.5,0.9-2.7,2.2-3.5,3.8s-1.3,3.4-1.3,5.5c0,2.2,0.7,3.9,2,5.2c1.3,1.2,3.2,1.8,5.6,1.8c1.5,0,2.8-0.3,4.1-0.8
		c1.2-0.6,2.3-1.4,3.1-2.4l2.2,1.7c-1,1.3-2.3,2.4-4,3.2s-3.5,1.1-5.4,1.1C461.5,675.8,459.7,675.4,458.1,674.6z"/>
	<path d="M481.9,674.6c-1.6-0.8-2.8-1.9-3.6-3.4c-0.8-1.4-1.3-3.1-1.3-5.1c0-2.6,0.6-4.8,1.7-6.9c1.1-2,2.7-3.6,4.7-4.8
		s4.3-1.7,6.8-1.7c2.1,0,3.9,0.4,5.4,1.1c1.5,0.8,2.7,1.9,3.5,3.4l-2.6,1.5c-1.3-2.2-3.5-3.4-6.6-3.4c-1.9,0-3.5,0.5-5.1,1.4
		c-1.5,0.9-2.7,2.2-3.5,3.8s-1.3,3.4-1.3,5.5c0,2.2,0.7,3.9,2,5.2c1.3,1.2,3.2,1.8,5.6,1.8c1.5,0,2.8-0.3,4.1-0.8
		c1.2-0.6,2.3-1.4,3.1-2.4l2.2,1.7c-1,1.3-2.3,2.4-4,3.2s-3.5,1.1-5.4,1.1C485.3,675.8,483.5,675.4,481.9,674.6z"/>
	<path d="M505.9,653h3.1l-4.5,22.6h-3.1L505.9,653z M507.2,647.4c-0.4-0.4-0.6-0.9-0.6-1.4c0-0.7,0.2-1.2,0.7-1.7
		c0.4-0.4,1-0.7,1.7-0.7c0.6,0,1.1,0.2,1.5,0.6c0.4,0.4,0.6,0.8,0.6,1.4c0,0.7-0.2,1.3-0.7,1.7c-0.5,0.5-1,0.7-1.7,0.7
		C508.1,648,507.6,647.8,507.2,647.4z"/>
	<path d="M517.6,674.6c-1.5-0.8-2.7-1.9-3.6-3.4c-0.8-1.4-1.3-3.1-1.3-5.1c0-2.6,0.6-4.8,1.7-6.9c1.1-2,2.7-3.6,4.7-4.8
		s4.2-1.7,6.7-1.7c3.2,0,5.7,0.9,7.5,2.6c1.8,1.7,2.8,4,2.8,7c0,2.6-0.6,4.9-1.7,6.9c-1.1,2-2.7,3.7-4.7,4.8c-2,1.2-4.2,1.7-6.7,1.7
		C521,675.8,519.2,675.4,517.6,674.6z M528.3,671.7c1.5-0.9,2.7-2.2,3.5-3.8s1.3-3.4,1.3-5.4c0-2.2-0.7-3.9-2-5.2
		c-1.3-1.2-3.1-1.9-5.5-1.9c-1.9,0-3.5,0.5-5,1.4s-2.7,2.2-3.5,3.8s-1.3,3.4-1.3,5.4c0,2.2,0.7,3.9,2,5.2c1.3,1.2,3.1,1.8,5.5,1.8
		C525.1,673.1,526.8,672.6,528.3,671.7z"/>
	<path d="M561.4,654.8c1.4,1.3,2.1,3.1,2.1,5.4c0,0.8-0.1,1.7-0.3,2.6l-2.6,12.9h-3.1l2.6-12.9c0.1-0.8,0.2-1.5,0.2-2.1
		c0-1.6-0.5-2.9-1.5-3.8c-1-0.9-2.4-1.3-4.4-1.3c-2.4,0-4.4,0.7-6,2s-2.6,3.3-3.2,5.9l-2.4,12.1h-3.1l4.5-22.6h2.9l-0.7,3.6
		c2.2-2.5,5.1-3.8,8.9-3.8C558,652.8,560,653.5,561.4,654.8z"/>
	<path d="M572,665.1c0,0.2,0,0.5,0,0.9c0,2.3,0.7,4,2,5.2s3.2,1.8,5.8,1.8c1.5,0,2.9-0.3,4.2-0.8s2.4-1.2,3.2-2.1l1.4,2.2
		c-1.1,1.1-2.4,1.9-4,2.5s-3.3,0.9-5.1,0.9c-3.3,0-5.8-0.9-7.7-2.6c-1.9-1.7-2.8-4.1-2.8-7.1c0-2.5,0.5-4.8,1.6-6.8s2.6-3.6,4.5-4.8
		s4-1.7,6.4-1.7c3,0,5.4,0.9,7.2,2.6c1.8,1.7,2.7,4,2.7,7c0,0.8-0.1,1.7-0.3,2.8L572,665.1L572,665.1z M575.6,657.4
		c-1.6,1.3-2.7,3.2-3.3,5.5h16.1c0-0.2,0-0.5,0-0.8c0-2.1-0.6-3.8-1.9-4.9s-3-1.7-5.2-1.7C579.1,655.4,577.2,656.1,575.6,657.4z"/>
	<path d="M596.5,675c-1.6-0.5-2.9-1.2-3.8-2l1.5-2.4c0.9,0.7,2,1.3,3.4,1.8s2.9,0.7,4.4,0.7c2.1,0,3.8-0.4,5-1.1
		c1.2-0.7,1.7-1.7,1.7-3c0-0.7-0.2-1.3-0.7-1.7s-1.1-0.8-1.7-1c-0.7-0.2-1.7-0.5-3-0.8c-1.6-0.3-2.9-0.7-3.8-1
		c-1-0.3-1.8-0.9-2.5-1.6c-0.7-0.7-1-1.8-1-3.1c0-2.1,0.9-3.9,2.7-5.1c1.8-1.3,4.2-1.9,7.1-1.9c1.5,0,2.9,0.2,4.3,0.6
		c1.4,0.4,2.5,0.9,3.4,1.5l-1.3,2.5c-0.9-0.6-1.9-1.1-3-1.4c-1.2-0.3-2.4-0.5-3.6-0.5c-2.1,0-3.7,0.4-4.8,1.1
		c-1.1,0.7-1.7,1.7-1.7,3c0,0.7,0.2,1.3,0.7,1.8s1.1,0.8,1.8,1s1.7,0.5,3,0.7c1.5,0.3,2.8,0.7,3.8,1s1.8,0.9,2.5,1.6
		c0.7,0.7,1,1.7,1,3c0,2.2-0.9,3.9-2.7,5.2c-1.8,1.2-4.3,1.9-7.3,1.9C599.9,675.8,598.2,675.6,596.5,675z"/>
	<path d="M650.9,653l-16.5,25.5c-1.4,2.1-2.7,3.6-3.9,4.4c-1.2,0.8-2.6,1.2-4.3,1.2c-1.1,0-2.1-0.2-3.1-0.5c-1-0.4-1.7-0.9-2.3-1.5
		l1.6-2.2c1,1.1,2.4,1.6,4,1.6c1,0,1.9-0.3,2.7-0.8s1.6-1.5,2.5-2.8l1.6-2.4l-5.6-22.5h3.1l4.7,19.3l12.3-19.3H650.9z"/>
	<path d="M672.1,647.1c-0.8,0.7-1.3,1.8-1.6,3.4L670,653h6.9l-0.5,2.6h-6.8l-4,20h-3.1l4-20h-4l0.5-2.6h4.1l0.6-2.8
		c0.4-2.2,1.3-3.8,2.6-4.9c1.3-1.1,3-1.7,5.1-1.7c0.9,0,1.8,0.1,2.6,0.4c0.8,0.3,1.5,0.6,2,1.1l-1.3,2.2c-0.8-0.7-1.9-1.1-3.2-1.1
		C674,646.1,672.9,646.4,672.1,647.1z"/>
	<path d="M701.5,653l-4.5,22.6h-3l0.7-3.6c-2.1,2.6-5,3.8-8.7,3.8c-2.5,0-4.5-0.7-5.9-2s-2.1-3.1-2.1-5.4c0-0.8,0.1-1.6,0.3-2.5
		l2.6-12.9h3.1l-2.6,12.9c-0.1,0.8-0.2,1.5-0.2,2c0,1.7,0.5,2.9,1.4,3.8c1,0.9,2.4,1.3,4.3,1.3c2.4,0,4.4-0.7,6-2s2.6-3.3,3.2-5.9
		l2.4-12.2h3V653z"/>
	<path d="M708.3,665.1c0,0.2,0,0.5,0,0.9c0,2.3,0.7,4,2,5.2s3.2,1.8,5.8,1.8c1.5,0,2.9-0.3,4.2-0.8s2.4-1.2,3.2-2.1l1.4,2.2
		c-1.1,1.1-2.4,1.9-4,2.5s-3.3,0.9-5.1,0.9c-3.3,0-5.8-0.9-7.7-2.6c-1.9-1.7-2.8-4.1-2.8-7.1c0-2.5,0.5-4.8,1.6-6.8s2.6-3.6,4.5-4.8
		s4-1.7,6.4-1.7c3,0,5.4,0.9,7.2,2.6c1.8,1.7,2.7,4,2.7,7c0,0.8-0.1,1.7-0.3,2.8L708.3,665.1L708.3,665.1z M711.9,657.4
		c-1.6,1.3-2.7,3.2-3.3,5.5h16.1c0-0.2,0-0.5,0-0.8c0-2.1-0.6-3.8-1.9-4.9s-3-1.7-5.2-1.7C715.4,655.4,713.5,656.1,711.9,657.4z"/>
	<path d="M745.6,665.1c0,0.2,0,0.5,0,0.9c0,2.3,0.7,4,2,5.2s3.2,1.8,5.8,1.8c1.5,0,2.9-0.3,4.2-0.8s2.4-1.2,3.2-2.1l1.4,2.2
		c-1.1,1.1-2.4,1.9-4,2.5s-3.3,0.9-5.1,0.9c-3.3,0-5.8-0.9-7.7-2.6c-1.9-1.7-2.8-4.1-2.8-7.1c0-2.5,0.5-4.8,1.6-6.8s2.6-3.6,4.5-4.8
		s4-1.7,6.4-1.7c3,0,5.4,0.9,7.2,2.6c1.8,1.7,2.7,4,2.7,7c0,0.8-0.1,1.7-0.3,2.8L745.6,665.1L745.6,665.1z M749.1,657.4
		c-1.6,1.3-2.7,3.2-3.3,5.5H762c0-0.2,0-0.5,0-0.8c0-2.1-0.6-3.8-1.9-4.9s-3-1.7-5.2-1.7C752.7,655.4,750.7,656.1,749.1,657.4z"/>
	<path d="M779.2,664.1l6.7,11.5h-3.3l-5.4-9.4l-9.1,9.4h-3.6l11.4-11.7l-6.3-10.9h3.2l5.1,8.9l8.5-8.9h3.5L779.2,664.1z"/>
	<path d="M794.9,674.6c-1.6-0.8-2.8-1.9-3.6-3.4s-1.3-3.1-1.3-5.1c0-2.6,0.6-4.8,1.7-6.9c1.1-2,2.7-3.6,4.7-4.8s4.3-1.7,6.8-1.7
		c2.1,0,3.9,0.4,5.4,1.1s2.7,1.9,3.5,3.4l-2.6,1.5c-1.3-2.2-3.5-3.4-6.6-3.4c-1.9,0-3.5,0.5-5.1,1.4c-1.5,0.9-2.7,2.2-3.5,3.8
		s-1.3,3.4-1.3,5.5c0,2.2,0.7,3.9,2,5.2c1.3,1.2,3.2,1.8,5.6,1.8c1.5,0,2.8-0.3,4.1-0.8c1.2-0.6,2.3-1.4,3.1-2.4l2.2,1.7
		c-1,1.3-2.3,2.4-4,3.2s-3.5,1.1-5.4,1.1C798.3,675.8,796.5,675.4,794.9,674.6z"/>
	<path d="M816.9,665.1c0,0.2,0,0.5,0,0.9c0,2.3,0.7,4,2,5.2s3.2,1.8,5.8,1.8c1.5,0,2.9-0.3,4.2-0.8s2.4-1.2,3.2-2.1l1.4,2.2
		c-1.1,1.1-2.4,1.9-4,2.5s-3.3,0.9-5.1,0.9c-3.3,0-5.8-0.9-7.7-2.6c-1.9-1.7-2.8-4.1-2.8-7.1c0-2.5,0.5-4.8,1.6-6.8s2.6-3.6,4.5-4.8
		s4-1.7,6.4-1.7c3,0,5.4,0.9,7.2,2.6c1.8,1.7,2.7,4,2.7,7c0,0.8-0.1,1.7-0.3,2.8L816.9,665.1L816.9,665.1z M820.4,657.4
		c-1.6,1.3-2.7,3.2-3.3,5.5h16.1c0-0.2,0-0.5,0-0.8c0-2.1-0.6-3.8-1.9-4.9s-3-1.7-5.2-1.7C824,655.4,822,656.1,820.4,657.4z"/>
	<path d="M846.4,643.7h3.1l-6.4,31.9H840L846.4,643.7z"/>
	<path d="M854.4,665.1c0,0.2,0,0.5,0,0.9c0,2.3,0.7,4,2,5.2s3.2,1.8,5.8,1.8c1.5,0,2.9-0.3,4.2-0.8s2.4-1.2,3.2-2.1l1.4,2.2
		c-1.1,1.1-2.4,1.9-4,2.5s-3.3,0.9-5.1,0.9c-3.3,0-5.8-0.9-7.7-2.6c-1.9-1.7-2.8-4.1-2.8-7.1c0-2.5,0.5-4.8,1.6-6.8s2.6-3.6,4.5-4.8
		s4-1.7,6.4-1.7c3,0,5.4,0.9,7.2,2.6c1.8,1.7,2.7,4,2.7,7c0,0.8-0.1,1.7-0.3,2.8L854.4,665.1L854.4,665.1z M858,657.4
		c-1.6,1.3-2.7,3.2-3.3,5.5h16.1c0-0.2,0-0.5,0-0.8c0-2.1-0.6-3.8-1.9-4.9s-3-1.7-5.2-1.7C861.5,655.4,859.6,656.1,858,657.4z"/>
	<path d="M899,654.8c1.4,1.3,2.1,3.1,2.1,5.4c0,0.8-0.1,1.7-0.3,2.6l-2.6,12.9h-3.1l2.6-12.9c0.1-0.8,0.2-1.5,0.2-2.1
		c0-1.6-0.5-2.9-1.5-3.8c-1-0.9-2.4-1.3-4.4-1.3c-2.4,0-4.4,0.7-6,2s-2.6,3.3-3.2,5.9l-2.4,12.1h-3.1L882,653h2.9l-0.7,3.6
		c2.2-2.5,5.1-3.8,8.9-3.8C895.6,652.8,897.6,653.5,899,654.8z"/>
	<path d="M911.5,668.8c-0.1,0.7-0.2,1.2-0.2,1.4c0,2,1.1,3,3.3,3c1.3,0,2.5-0.4,3.5-1.2l0.7,2.3c-1.3,1-3,1.5-5,1.5
		c-1.7,0-3-0.5-4-1.4s-1.5-2.2-1.5-3.8c0-0.6,0.1-1.2,0.2-1.8l2.6-13.3h-4l0.5-2.6h4l1-4.9h3.1l-1,4.9h6.9l-0.5,2.6h-6.9
		L911.5,668.8z"/>
	<path d="M926.1,665.1c0,0.2,0,0.5,0,0.9c0,2.3,0.7,4,2,5.2s3.2,1.8,5.8,1.8c1.5,0,2.9-0.3,4.2-0.8s2.4-1.2,3.2-2.1l1.4,2.2
		c-1.1,1.1-2.4,1.9-4,2.5s-3.3,0.9-5.1,0.9c-3.3,0-5.8-0.9-7.7-2.6c-1.9-1.7-2.8-4.1-2.8-7.1c0-2.5,0.5-4.8,1.6-6.8s2.6-3.6,4.5-4.8
		s4-1.7,6.4-1.7c3,0,5.4,0.9,7.2,2.6c1.8,1.7,2.7,4,2.7,7c0,0.8-0.1,1.7-0.3,2.8L926.1,665.1L926.1,665.1z M929.7,657.4
		c-1.6,1.3-2.7,3.2-3.3,5.5h16.1c0-0.2,0-0.5,0-0.8c0-2.1-0.6-3.8-1.9-4.9s-3-1.7-5.2-1.7C933.2,655.4,931.3,656.1,929.7,657.4z"/>
	<path d="M949.3,675.2c-0.4-0.4-0.6-0.9-0.6-1.5c0-0.7,0.2-1.2,0.7-1.7c0.4-0.4,1-0.7,1.7-0.7c0.6,0,1.2,0.2,1.6,0.6
		c0.4,0.4,0.6,0.9,0.6,1.5c0,0.7-0.2,1.2-0.7,1.7c-0.4,0.5-1,0.7-1.7,0.7C950.3,675.8,949.8,675.6,949.3,675.2z M954.8,645.5h3.6
		l-4.8,21.1h-2.4L954.8,645.5z"/>
	<path d="M104.9,699.8l-2.1,10.7h15.6l-0.5,2.7h-15.6l-2.2,11.2h18.1l-0.6,2.8H96.3l6-30.1h20.6l-0.6,2.8h-17.4V699.8z"/>
	<path d="M125.5,726.6c-1.6-0.5-2.9-1.2-3.8-2l1.5-2.4c0.9,0.7,2,1.3,3.4,1.8s2.9,0.7,4.4,0.7c2.1,0,3.8-0.4,5-1.1
		c1.2-0.7,1.7-1.7,1.7-3c0-0.7-0.2-1.3-0.7-1.7s-1.1-0.8-1.7-1c-0.7-0.2-1.7-0.5-3-0.8c-1.6-0.3-2.9-0.7-3.8-1s-1.8-0.9-2.5-1.6
		s-1-1.8-1-3.1c0-2.1,0.9-3.9,2.7-5.1c1.8-1.3,4.2-1.9,7.1-1.9c1.5,0,2.9,0.2,4.3,0.6c1.4,0.4,2.5,0.9,3.4,1.5L141,709
		c-0.9-0.6-1.9-1.1-3-1.4c-1.2-0.3-2.4-0.5-3.6-0.5c-2.1,0-3.7,0.4-4.8,1.1c-1.1,0.7-1.7,1.7-1.7,3c0,0.7,0.2,1.3,0.7,1.8
		s1.1,0.8,1.8,1s1.7,0.5,3,0.7c1.5,0.3,2.8,0.7,3.8,1s1.8,0.9,2.5,1.6s1,1.7,1,3c0,2.2-0.9,3.9-2.7,5.2c-1.8,1.2-4.3,1.9-7.3,1.9
		C128.8,727.4,127.1,727.2,125.5,726.6z"/>
	<path d="M150,720.4c-0.1,0.7-0.2,1.2-0.2,1.4c0,2,1.1,3,3.3,3c1.3,0,2.5-0.4,3.5-1.2l0.7,2.3c-1.3,1-3,1.5-5,1.5
		c-1.7,0-3-0.5-4-1.4s-1.5-2.2-1.5-3.8c0-0.6,0.1-1.2,0.2-1.8l2.6-13.3h-4l0.5-2.6h4l1-4.9h3.1l-1,4.9h6.9l-0.5,2.6h-6.9L150,720.4z
		"/>
	<path d="M166.4,726.2c-1.5-0.8-2.7-1.9-3.6-3.4c-0.8-1.4-1.3-3.1-1.3-5.1c0-2.6,0.6-4.8,1.7-6.9c1.1-2,2.7-3.6,4.7-4.8
		s4.2-1.7,6.7-1.7c3.2,0,5.7,0.9,7.5,2.6c1.8,1.7,2.8,4,2.8,7c0,2.6-0.6,4.9-1.7,6.9c-1.1,2-2.7,3.7-4.7,4.8c-2,1.2-4.2,1.7-6.7,1.7
		C169.7,727.4,167.9,727,166.4,726.2z M177,723.3c1.5-0.9,2.7-2.2,3.5-3.8s1.3-3.4,1.3-5.4c0-2.2-0.7-3.9-2-5.2
		c-1.3-1.2-3.1-1.9-5.5-1.9c-1.9,0-3.5,0.5-5,1.4s-2.7,2.2-3.5,3.8s-1.3,3.4-1.3,5.4c0,2.2,0.7,3.9,2,5.2c1.3,1.2,3.1,1.8,5.5,1.8
		C173.9,724.7,175.5,724.2,177,723.3z"/>
	<path d="M211.6,704.6L195,730.1c-1.4,2.1-2.7,3.6-3.9,4.4c-1.2,0.8-2.6,1.2-4.3,1.2c-1.1,0-2.1-0.2-3.1-0.5s-1.7-0.9-2.3-1.5
		l1.6-2.2c1,1.1,2.4,1.6,4,1.6c1,0,1.9-0.3,2.7-0.8s1.6-1.5,2.5-2.8l1.6-2.4l-5.6-22.5h3.1l4.7,19.3l12.3-19.3H211.6z"/>
	<path d="M225.4,716.7c0,0.2,0,0.5,0,0.9c0,2.3,0.7,4,2,5.2s3.2,1.8,5.8,1.8c1.5,0,2.9-0.3,4.2-0.8s2.4-1.2,3.2-2.1l1.4,2.2
		c-1.1,1.1-2.4,1.9-4,2.5s-3.3,0.9-5.1,0.9c-3.3,0-5.8-0.9-7.7-2.6c-1.9-1.7-2.8-4.1-2.8-7.1c0-2.5,0.5-4.8,1.6-6.8s2.6-3.6,4.5-4.8
		s4-1.7,6.4-1.7c3,0,5.4,0.9,7.2,2.6c1.8,1.7,2.7,4,2.7,7c0,0.8-0.1,1.7-0.3,2.8L225.4,716.7L225.4,716.7z M229,709
		c-1.6,1.3-2.7,3.2-3.3,5.5h16.1c0-0.2,0-0.5,0-0.8c0-2.1-0.6-3.8-1.9-4.9s-3-1.7-5.2-1.7C232.6,707,230.6,707.7,229,709z"/>
	<path d="M250,726.6c-1.6-0.5-2.9-1.2-3.8-2l1.5-2.4c0.9,0.7,2,1.3,3.4,1.8s2.9,0.7,4.4,0.7c2.1,0,3.8-0.4,5-1.1
		c1.2-0.7,1.7-1.7,1.7-3c0-0.7-0.2-1.3-0.7-1.7s-1.1-0.8-1.7-1c-0.7-0.2-1.7-0.5-3-0.8c-1.6-0.3-2.9-0.7-3.8-1s-1.8-0.9-2.5-1.6
		s-1-1.8-1-3.1c0-2.1,0.9-3.9,2.7-5.1c1.8-1.3,4.2-1.9,7.1-1.9c1.5,0,2.9,0.2,4.3,0.6c1.4,0.4,2.5,0.9,3.4,1.5l-1.3,2.5
		c-0.9-0.6-1.9-1.1-3-1.4c-1.2-0.3-2.4-0.5-3.6-0.5c-2.1,0-3.7,0.4-4.8,1.1c-1.1,0.7-1.7,1.7-1.7,3c0,0.7,0.2,1.3,0.7,1.8
		s1.1,0.8,1.8,1s1.7,0.5,3,0.7c1.5,0.3,2.8,0.7,3.8,1s1.8,0.9,2.5,1.6s1,1.7,1,3c0,2.2-0.9,3.9-2.7,5.2c-1.8,1.2-4.3,1.9-7.3,1.9
		C253.4,727.4,251.6,727.2,250,726.6z"/>
	<path d="M290.2,705.6c1.5,0.8,2.7,1.9,3.5,3.3c0.8,1.4,1.2,3.1,1.2,5.1c0,2.6-0.6,4.9-1.7,6.9s-2.6,3.7-4.6,4.8
		c-1.9,1.2-4.1,1.7-6.6,1.7c-2.2,0-4-0.4-5.4-1.3c-1.5-0.8-2.5-2.1-3.2-3.7l-2.6,13.1h-3.1l6.1-31h2.9l-0.7,3.6
		c1.1-1.2,2.4-2.2,3.9-2.8s3.1-1,4.9-1C287,704.4,288.7,704.8,290.2,705.6z M287.1,723.3c1.5-0.9,2.6-2.2,3.5-3.8
		c0.8-1.6,1.3-3.4,1.3-5.5c0-2.2-0.7-3.9-2-5.2c-1.3-1.2-3.1-1.9-5.5-1.9c-1.9,0-3.5,0.5-5,1.4s-2.6,2.2-3.5,3.8
		c-0.8,1.6-1.3,3.4-1.3,5.5c0,2.2,0.7,3.9,2,5.2c1.3,1.2,3.1,1.8,5.5,1.8C284,724.7,285.7,724.2,287.1,723.3z"/>
	<path d="M301.6,716.7c0,0.2,0,0.5,0,0.9c0,2.3,0.7,4,2,5.2s3.2,1.8,5.8,1.8c1.5,0,2.9-0.3,4.2-0.8c1.3-0.5,2.4-1.2,3.2-2.1l1.4,2.2
		c-1.1,1.1-2.4,1.9-4,2.5s-3.3,0.9-5.1,0.9c-3.3,0-5.8-0.9-7.7-2.6c-1.9-1.7-2.8-4.1-2.8-7.1c0-2.5,0.5-4.8,1.6-6.8s2.6-3.6,4.5-4.8
		s4-1.7,6.4-1.7c3,0,5.4,0.9,7.2,2.6c1.8,1.7,2.7,4,2.7,7c0,0.8-0.1,1.7-0.3,2.8L301.6,716.7L301.6,716.7z M305.2,709
		c-1.6,1.3-2.7,3.2-3.3,5.5H318c0-0.2,0-0.5,0-0.8c0-2.1-0.6-3.8-1.9-4.9s-3-1.7-5.2-1.7C308.7,707,306.8,707.7,305.2,709z"/>
	<path d="M335.1,705.5c1.5-0.7,3.4-1.1,5.5-1.1l-0.6,3h-0.9c-2.4,0-4.4,0.7-6,2.1c-1.6,1.4-2.6,3.5-3.2,6.3l-2.3,11.5h-3.1l4.5-22.6
		h2.9l-0.8,4.1C332.4,707.2,333.6,706.2,335.1,705.5z"/>
	<path d="M366.6,704.6l-4.5,22.6h-2.9l0.7-3.6c-1.1,1.2-2.4,2.1-3.9,2.8s-3.1,1-4.9,1c-1.9,0-3.6-0.4-5.1-1.2s-2.7-1.9-3.5-3.3
		c-0.8-1.4-1.2-3.1-1.2-5.1c0-2.6,0.6-4.8,1.7-6.9c1.1-2,2.6-3.6,4.6-4.8c1.9-1.2,4.1-1.7,6.5-1.7c2.1,0,4,0.4,5.4,1.3
		s2.5,2.1,3.2,3.6l0.9-4.7L366.6,704.6L366.6,704.6z M356.7,723.3c1.5-0.9,2.7-2.2,3.5-3.8s1.3-3.4,1.3-5.4c0-2.2-0.7-3.9-2-5.2
		c-1.3-1.2-3.1-1.9-5.5-1.9c-1.9,0-3.5,0.5-5,1.4s-2.7,2.2-3.5,3.8s-1.3,3.4-1.3,5.4c0,2.2,0.7,3.9,2,5.2c1.3,1.2,3.1,1.8,5.5,1.8
		C353.6,724.7,355.2,724.2,356.7,723.3z"/>
	<path d="M392.1,706.4c1.4,1.3,2.1,3.1,2.1,5.4c0,0.8-0.1,1.7-0.3,2.6l-2.6,12.9h-3.1l2.6-12.9c0.1-0.8,0.2-1.5,0.2-2.1
		c0-1.6-0.5-2.9-1.5-3.8c-1-0.9-2.4-1.3-4.4-1.3c-2.4,0-4.4,0.7-6,2s-2.6,3.3-3.2,5.9l-2.4,12.1h-3.1l4.5-22.6h2.9l-0.7,3.6
		c2.1-2.5,5.1-3.8,8.9-3.8C388.6,704.4,390.6,705.1,392.1,706.4z"/>
	<path d="M426.8,695.3l-6.4,31.9h-2.9l0.7-3.6c-1.1,1.2-2.4,2.1-3.9,2.8s-3.1,1-4.9,1c-1.9,0-3.6-0.4-5.1-1.2s-2.7-1.9-3.5-3.3
		c-0.8-1.4-1.2-3.1-1.2-5.1c0-2.6,0.6-4.8,1.7-6.9c1.1-2,2.6-3.6,4.6-4.8c1.9-1.2,4.1-1.7,6.5-1.7c2.1,0,3.9,0.4,5.4,1.3
		c1.5,0.8,2.5,2.1,3.2,3.6l2.8-14H426.8z M415.1,723.3c1.5-0.9,2.7-2.2,3.5-3.8s1.3-3.4,1.3-5.4c0-2.2-0.7-3.9-2-5.2
		c-1.3-1.2-3.1-1.9-5.5-1.9c-1.9,0-3.5,0.5-5,1.4s-2.7,2.2-3.5,3.8s-1.3,3.4-1.3,5.4c0,2.2,0.7,3.9,2,5.2c1.3,1.2,3.1,1.8,5.5,1.8
		C411.9,724.7,413.6,724.2,415.1,723.3z"/>
	<path d="M433.6,726.2c-1.5-0.8-2.7-1.9-3.6-3.4c-0.8-1.4-1.3-3.1-1.3-5.1c0-2.6,0.6-4.8,1.7-6.9c1.1-2,2.7-3.6,4.7-4.8
		s4.2-1.7,6.7-1.7c3.2,0,5.7,0.9,7.5,2.6c1.8,1.7,2.8,4,2.8,7c0,2.6-0.6,4.9-1.7,6.9s-2.7,3.7-4.7,4.8c-2,1.2-4.2,1.7-6.7,1.7
		C436.9,727.4,435.1,727,433.6,726.2z M444.2,723.3c1.5-0.9,2.7-2.2,3.5-3.8s1.3-3.4,1.3-5.4c0-2.2-0.7-3.9-2-5.2
		c-1.3-1.2-3.1-1.9-5.5-1.9c-1.9,0-3.5,0.5-5,1.4s-2.7,2.2-3.5,3.8s-1.3,3.4-1.3,5.4c0,2.2,0.7,3.9,2,5.2c1.3,1.2,3.1,1.8,5.5,1.8
		C441.1,724.7,442.7,724.2,444.2,723.3z"/>
	<path d="M473.5,695.3h3.1l-6.4,31.9h-3.1L473.5,695.3z"/>
	<path d="M503.9,704.6l-4.5,22.6h-2.9l0.7-3.6c-1.1,1.2-2.4,2.1-3.9,2.8s-3.1,1-4.9,1c-1.9,0-3.6-0.4-5.1-1.2s-2.7-1.9-3.5-3.3
		c-0.8-1.4-1.2-3.1-1.2-5.1c0-2.6,0.6-4.8,1.7-6.9c1.1-2,2.6-3.6,4.6-4.8c1.9-1.2,4.1-1.7,6.5-1.7c2.1,0,4,0.4,5.4,1.3
		s2.5,2.1,3.2,3.6l0.9-4.7L503.9,704.6L503.9,704.6z M494,723.3c1.5-0.9,2.7-2.2,3.5-3.8s1.3-3.4,1.3-5.4c0-2.2-0.7-3.9-2-5.2
		c-1.3-1.2-3.1-1.9-5.5-1.9c-1.9,0-3.5,0.5-5,1.4s-2.7,2.2-3.5,3.8s-1.3,3.4-1.3,5.4c0,2.2,0.7,3.9,2,5.2c1.3,1.2,3.1,1.8,5.5,1.8
		C490.9,724.7,492.5,724.2,494,723.3z"/>
	<path d="M539.8,705.6c1.5,0.8,2.7,1.9,3.5,3.3c0.8,1.4,1.2,3.1,1.2,5.1c0,2.6-0.6,4.9-1.7,6.9c-1.1,2-2.6,3.7-4.6,4.8
		s-4.1,1.7-6.6,1.7c-2.2,0-4-0.4-5.4-1.3c-1.5-0.8-2.5-2.1-3.2-3.7l-2.6,13.1h-3.1l6.1-31h2.9l-0.7,3.6c1.1-1.2,2.4-2.2,3.9-2.8
		s3.1-1,4.9-1C536.5,704.4,538.2,704.8,539.8,705.6z M536.7,723.3c1.5-0.9,2.6-2.2,3.5-3.8c0.8-1.6,1.3-3.4,1.3-5.5
		c0-2.2-0.7-3.9-2-5.2c-1.3-1.2-3.1-1.9-5.5-1.9c-1.9,0-3.5,0.5-5,1.4s-2.6,2.2-3.5,3.8c-0.8,1.6-1.3,3.4-1.3,5.5
		c0,2.2,0.7,3.9,2,5.2c1.3,1.2,3.1,1.8,5.5,1.8C533.5,724.7,535.2,724.2,536.7,723.3z"/>
	<path d="M558.7,705.5c1.5-0.7,3.4-1.1,5.5-1.1l-0.6,3h-0.9c-2.4,0-4.4,0.7-6,2.1c-1.6,1.4-2.6,3.5-3.2,6.3l-2.3,11.5h-3.1l4.5-22.6
		h2.9l-0.8,4.1C555.9,707.2,557.2,706.2,558.7,705.5z"/>
	<path d="M569.6,726.2c-1.5-0.8-2.7-1.9-3.6-3.4s-1.3-3.1-1.3-5.1c0-2.6,0.6-4.8,1.7-6.9c1.1-2,2.7-3.6,4.7-4.8s4.2-1.7,6.7-1.7
		c3.2,0,5.7,0.9,7.5,2.6c1.8,1.7,2.8,4,2.8,7c0,2.6-0.6,4.9-1.7,6.9c-1.1,2-2.7,3.7-4.7,4.8c-2,1.2-4.2,1.7-6.7,1.7
		C573,727.4,571.2,727,569.6,726.2z M580.3,723.3c1.5-0.9,2.7-2.2,3.5-3.8s1.3-3.4,1.3-5.4c0-2.2-0.7-3.9-2-5.2
		c-1.3-1.2-3.1-1.9-5.5-1.9c-1.9,0-3.5,0.5-5,1.4s-2.7,2.2-3.5,3.8s-1.3,3.4-1.3,5.4c0,2.2,0.7,3.9,2,5.2c1.3,1.2,3.1,1.8,5.5,1.8
		C577.1,724.7,578.8,724.2,580.3,723.3z M582.9,695.7h4.2l-7.5,5.3h-3.2L582.9,695.7z"/>
	<path d="M602.3,715.7l6.7,11.5h-3.3l-5.4-9.4l-9.1,9.4h-3.6l11.4-11.7l-6.3-10.9h3.2l5.1,8.9l8.5-8.9h3.5L602.3,715.7z"/>
	<path d="M618.6,704.6h3.1l-4.5,22.6h-3.1L618.6,704.6z M619.9,699c-0.4-0.4-0.6-0.9-0.6-1.4c0-0.7,0.2-1.2,0.7-1.7
		c0.4-0.4,1-0.7,1.7-0.7c0.6,0,1.1,0.2,1.5,0.6c0.4,0.4,0.6,0.8,0.6,1.4c0,0.7-0.2,1.3-0.7,1.7c-0.5,0.5-1,0.7-1.7,0.7
		C620.8,699.6,620.3,699.4,619.9,699z"/>
	<path d="M663.7,706.3c1.4,1.3,2.1,3.1,2.1,5.4c0,0.7-0.1,1.5-0.3,2.7l-2.6,12.9h-3.1l2.6-12.9c0.1-0.7,0.2-1.4,0.2-2.1
		c0-1.6-0.5-2.8-1.4-3.7s-2.3-1.3-4.2-1.3c-2.3,0-4.2,0.6-5.7,1.9c-1.5,1.3-2.5,3.2-3.1,5.7l-2.5,12.5h-3.1l2.6-12.9
		c0.1-0.8,0.2-1.5,0.2-2.1c0-1.6-0.5-2.9-1.4-3.8c-0.9-0.9-2.3-1.3-4.2-1.3c-2.3,0-4.2,0.7-5.8,2c-1.5,1.3-2.6,3.3-3.1,5.9
		l-2.4,12.1h-3.1l4.5-22.6h2.9l-0.7,3.6c2.1-2.5,4.9-3.8,8.6-3.8c1.9,0,3.5,0.4,4.8,1.2s2.2,1.9,2.6,3.4c1.1-1.5,2.5-2.6,4.1-3.4
		s3.4-1.1,5.4-1.1C660.4,704.4,662.3,705,663.7,706.3z"/>
	<path d="M696.5,704.6l-4.5,22.6h-2.9l0.7-3.6c-1.1,1.2-2.4,2.1-3.9,2.8s-3.1,1-4.9,1c-1.9,0-3.6-0.4-5.1-1.2s-2.7-1.9-3.5-3.3
		s-1.2-3.1-1.2-5.1c0-2.6,0.6-4.8,1.7-6.9c1.1-2,2.6-3.6,4.6-4.8c1.9-1.2,4.1-1.7,6.5-1.7c2.1,0,4,0.4,5.4,1.3s2.5,2.1,3.2,3.6
		l0.9-4.7L696.5,704.6L696.5,704.6z M686.7,723.3c1.5-0.9,2.7-2.2,3.5-3.8s1.3-3.4,1.3-5.4c0-2.2-0.7-3.9-2-5.2
		c-1.3-1.2-3.1-1.9-5.5-1.9c-1.9,0-3.5,0.5-5,1.4s-2.7,2.2-3.5,3.8s-1.3,3.4-1.3,5.4c0,2.2,0.7,3.9,2,5.2c1.3,1.2,3.1,1.8,5.5,1.8
		C683.5,724.7,685.2,724.2,686.7,723.3z"/>
	<path d="M699.6,726.8c-0.4-0.4-0.6-1-0.6-1.6c0-0.7,0.2-1.3,0.7-1.7c0.5-0.5,1-0.7,1.7-0.7c0.6,0,1.2,0.2,1.6,0.6
		c0.4,0.4,0.6,1,0.6,1.6c0,0.7-0.2,1.3-0.7,1.7c-0.5,0.5-1,0.7-1.7,0.7C700.5,727.4,700,727.2,699.6,726.8z"/>
</g>
<g class="st6">
	<path d="M124.3,568c2.3,3.9,3.5,8.5,3.5,13.8c0,7.9-2.5,14.2-7.5,19s-11.5,7.1-19.4,7.1s-14.3-2.4-19.4-7.1c-5-4.8-7.5-11.1-7.5-19
		c0-3.5,0.5-7.1,1.4-10.6s3.1-8.9,6.5-16.1l14.3-30.4h28.5l-10.2,34.4C118.7,561.2,122,564.1,124.3,568z M183.4,568
		c2.3,3.9,3.5,8.5,3.5,13.8c0,7.9-2.5,14.2-7.5,19s-11.5,7.1-19.4,7.1s-14.3-2.4-19.4-7.1c-5-4.8-7.5-11.1-7.5-19
		c0-3.5,0.5-7.1,1.4-10.6s3.1-8.9,6.5-16.1l14.3-30.4h28.5l-10.2,34.4C177.8,561.2,181.1,564.1,183.4,568z"/>
</g>
<g>
	<rect x="506.9" y="324.8" width="200.3" height="9"/>
</g>
<g>
	<path d="M519.5,201.5c-5.9-1.7-10.6-3.9-14.2-6.7l6.3-13.9c3.4,2.5,7.5,4.5,12.2,6s9.4,2.3,14.1,2.3c5.2,0,9.1-0.8,11.6-2.3
		c2.5-1.6,3.8-3.6,3.8-6.2c0-1.9-0.7-3.5-2.2-4.7c-1.5-1.3-3.4-2.3-5.7-3c-2.3-0.8-5.5-1.6-9.4-2.5c-6.1-1.4-11.1-2.9-14.9-4.3
		c-3.9-1.4-7.2-3.8-10-7s-4.2-7.4-4.2-12.8c0-4.6,1.3-8.8,3.8-12.6s6.3-6.7,11.3-8.9c5.1-2.2,11.2-3.3,18.5-3.3
		c5.1,0,10.1,0.6,14.9,1.8c4.9,1.2,9.1,3,12.8,5.2l-5.7,14c-7.4-4.2-14.7-6.3-22.1-6.3c-5.2,0-9,0.8-11.5,2.5s-3.7,3.9-3.7,6.6
		s1.4,4.8,4.3,6.1c2.9,1.3,7.2,2.6,13.1,3.9c6.1,1.4,11.1,2.9,14.9,4.3c3.9,1.4,7.2,3.7,10,6.8s4.2,7.3,4.2,12.7
		c0,4.6-1.3,8.7-3.8,12.5s-6.4,6.7-11.5,8.9s-11.3,3.3-18.6,3.3C531.5,204.1,525.4,203.2,519.5,201.5z"/>
	<path d="M594.8,199.6c-5.1-2.7-9.1-6.4-12-11.2s-4.3-10.2-4.3-16.3s1.4-11.5,4.3-16.3c2.9-4.8,6.9-8.5,12-11.2s10.9-4,17.4-4
		s12.2,1.4,17.3,4c5.1,2.7,9.1,6.4,12,11.2s4.3,10.2,4.3,16.3s-1.4,11.5-4.3,16.3c-2.9,4.8-6.9,8.5-12,11.2s-10.9,4-17.3,4
		C605.8,203.6,600,202.3,594.8,199.6z M623.4,184.4c2.9-3.1,4.4-7.2,4.4-12.4s-1.5-9.3-4.4-12.4c-2.9-3.1-6.7-4.6-11.2-4.6
		c-4.6,0-8.3,1.5-11.3,4.6s-4.4,7.2-4.4,12.4s1.5,9.3,4.4,12.4c3,3.1,6.7,4.6,11.3,4.6S620.5,187.5,623.4,184.4z"/>
	<path d="M657.7,118.1h17.8v84.6h-17.8V118.1z"/>
	<path d="M751.8,177h-46.4c0.8,3.8,2.8,6.8,5.9,9c3.1,2.2,7,3.3,11.6,3.3c3.2,0,6-0.5,8.5-1.4s4.8-2.5,6.9-4.5l9.5,10.3
		c-5.8,6.6-14.2,9.9-25.3,9.9c-6.9,0-13-1.3-18.4-4c-5.3-2.7-9.4-6.4-12.3-11.2c-2.9-4.8-4.3-10.2-4.3-16.3c0-6,1.4-11.4,4.3-16.2
		c2.9-4.8,6.8-8.6,11.7-11.3c5-2.7,10.5-4,16.7-4c6,0,11.4,1.3,16.3,3.9c4.9,2.6,8.7,6.3,11.5,11.1s4.2,10.4,4.2,16.8
		C752.1,172.5,752,174.1,751.8,177z M710.1,157.3c-2.7,2.3-4.4,5.4-5,9.3h30.2c-0.6-3.9-2.3-7-5-9.3s-6.1-3.5-10-3.5
		C716.3,153.9,712.9,155,710.1,157.3z"/>
	<path d="M826.4,118.1v84.6h-17v-7.1c-4.4,5.3-10.8,8-19.2,8c-5.8,0-11-1.3-15.7-3.9c-4.7-2.6-8.3-6.3-11-11.1s-4-10.3-4-16.6
		s1.3-11.9,4-16.6c2.7-4.8,6.3-8.5,11-11.1s9.9-3.9,15.7-3.9c7.8,0,13.9,2.5,18.4,7.4V118L826.4,118.1L826.4,118.1z M804.5,184.4
		c3-3.1,4.4-7.2,4.4-12.4s-1.5-9.3-4.4-12.4c-3-3.1-6.7-4.6-11.2-4.6c-4.6,0-8.3,1.5-11.3,4.6s-4.4,7.2-4.4,12.4s1.5,9.3,4.4,12.4
		c3,3.1,6.7,4.6,11.3,4.6C797.8,189,801.6,187.5,804.5,184.4z"/>
	<path d="M889.5,147.2c5.1,4.5,7.6,11.3,7.6,20.5v35h-16.6v-7.6c-3.3,5.7-9.6,8.6-18.7,8.6c-4.7,0-8.8-0.8-12.3-2.4
		c-3.5-1.6-6.1-3.8-7.9-6.6c-1.8-2.8-2.7-6-2.7-9.6c0-5.7,2.1-10.2,6.4-13.5c4.3-3.3,10.9-4.9,19.9-4.9h14.1c0-3.9-1.2-6.9-3.5-8.9
		c-2.4-2.1-5.9-3.1-10.6-3.1c-3.3,0-6.5,0.5-9.6,1.5c-3.2,1-5.8,2.4-8,4.2l-6.4-12.4c3.3-2.4,7.4-4.2,12-5.5
		c4.7-1.3,9.5-1.9,14.4-1.9C877.1,140.5,884.4,142.7,889.5,147.2z M874.3,189.5c2.4-1.4,4-3.5,5-6.2V177h-12.2
		c-7.3,0-10.9,2.4-10.9,7.2c0,2.3,0.9,4.1,2.7,5.4c1.8,1.3,4.2,2,7.4,2C869.2,191.6,871.9,190.9,874.3,189.5z"/>
	<path d="M976.3,118.1v84.6h-17v-7.1c-4.4,5.3-10.8,8-19.2,8c-5.8,0-11-1.3-15.7-3.9c-4.7-2.6-8.3-6.3-11-11.1s-4-10.3-4-16.6
		s1.3-11.9,4-16.6c2.7-4.8,6.3-8.5,11-11.1s9.9-3.9,15.7-3.9c7.8,0,13.9,2.5,18.4,7.4V118L976.3,118.1L976.3,118.1z M954.4,184.4
		c3-3.1,4.4-7.2,4.4-12.4s-1.5-9.3-4.4-12.4c-3-3.1-6.7-4.6-11.2-4.6c-4.6,0-8.3,1.5-11.3,4.6s-4.4,7.2-4.4,12.4s1.5,9.3,4.4,12.4
		c3,3.1,6.7,4.6,11.3,4.6S951.5,187.5,954.4,184.4z"/>
</g>
<g>
	<path d="M530.4,275.7v6.1h-24.3V277l12.4-11.7c1.3-1.3,2.2-2.3,2.7-3.2c0.5-0.9,0.7-1.8,0.7-2.7c0-1.3-0.4-2.3-1.3-3s-2.2-1-3.8-1
		c-1.4,0-2.7,0.3-3.8,0.8c-1.1,0.5-2.1,1.3-2.9,2.4l-5.4-3.5c1.3-1.9,3-3.3,5.2-4.4s4.7-1.6,7.6-1.6c2.4,0,4.5,0.4,6.3,1.2
		s3.2,1.9,4.2,3.3c1,1.4,1.5,3.1,1.5,5c0,1.7-0.4,3.4-1.1,4.9c-0.7,1.5-2.2,3.3-4.3,5.2l-7.4,7L530.4,275.7L530.4,275.7z"/>
	<path d="M559.2,267.9c0.8,1.3,1.3,2.8,1.3,4.5c0,2-0.6,3.7-1.7,5.2c-1.1,1.5-2.7,2.6-4.8,3.5s-4.4,1.2-7.1,1.2s-5.1-0.4-7.1-1.2
		c-2-0.8-3.6-2-4.7-3.5c-1.1-1.5-1.7-3.2-1.7-5.2c0-1.7,0.4-3.2,1.3-4.5c0.8-1.3,2-2.3,3.6-3.1c-1.2-0.7-2.1-1.7-2.8-2.8
		c-0.6-1.1-1-2.4-1-3.8c0-1.9,0.5-3.5,1.6-4.9c1-1.4,2.5-2.4,4.4-3.2s4-1.1,6.4-1.1c2.5,0,4.6,0.4,6.5,1.1c1.9,0.8,3.4,1.8,4.4,3.2
		s1.6,3,1.6,4.9c0,1.4-0.3,2.7-1,3.8c-0.6,1.1-1.6,2-2.8,2.8C557.2,265.6,558.4,266.6,559.2,267.9z M551.3,275.5
		c1.1-0.8,1.6-2,1.6-3.4s-0.5-2.5-1.6-3.4c-1.1-0.8-2.6-1.2-4.4-1.2c-1.8,0-3.3,0.4-4.4,1.2c-1.1,0.8-1.6,1.9-1.6,3.4
		c0,1.4,0.5,2.6,1.6,3.4s2.5,1.2,4.4,1.2C548.7,276.8,550.2,276.4,551.3,275.5z M543.3,255.5c-0.9,0.7-1.4,1.7-1.4,3
		c0,1.2,0.4,2.2,1.3,2.9c0.9,0.7,2.1,1.1,3.6,1.1s2.8-0.4,3.7-1.1s1.4-1.7,1.4-2.9c0-1.3-0.5-2.2-1.4-3c-0.9-0.7-2.1-1.1-3.7-1.1
		C545.4,254.5,544.2,254.8,543.3,255.5z"/>
	<path d="M597.2,259.4c2.1,1.8,3.1,4.6,3.1,8.3v14.1h-6.7v-3.1c-1.3,2.3-3.9,3.5-7.5,3.5c-1.9,0-3.5-0.3-4.9-1s-2.5-1.5-3.2-2.7
		c-0.7-1.1-1.1-2.4-1.1-3.9c0-2.3,0.9-4.1,2.6-5.4c1.7-1.3,4.4-2,8-2h5.7c0-1.6-0.5-2.8-1.4-3.6c-1-0.8-2.4-1.3-4.3-1.3
		c-1.3,0-2.6,0.2-3.9,0.6c-1.3,0.4-2.4,1-3.2,1.7l-2.6-5c1.3-1,3-1.7,4.9-2.2s3.8-0.8,5.8-0.8C592.2,256.6,595.2,257.5,597.2,259.4z
		 M591.1,276.4c1-0.6,1.6-1.4,2-2.5v-2.5h-4.9c-2.9,0-4.4,1-4.4,2.9c0,0.9,0.4,1.6,1.1,2.2c0.7,0.5,1.7,0.8,3,0.8
		C589.1,277.3,590.2,277,591.1,276.4z"/>
	<path d="M629.3,259.4c1.9,1.8,2.8,4.6,2.8,8.2v14.2h-7.2v-13.1c0-2-0.4-3.4-1.3-4.4c-0.9-1-2.1-1.4-3.7-1.4c-1.8,0-3.3,0.6-4.3,1.7
		c-1.1,1.1-1.6,2.8-1.6,5v12.2h-7.2V257h6.9v2.9c1-1,2.1-1.8,3.5-2.4s3-0.9,4.6-0.9C624.9,256.6,627.4,257.5,629.3,259.4z
		 M620.8,253.5c-0.6-0.3-1.3-0.8-2.1-1.3c-0.5-0.4-0.9-0.6-1.2-0.8s-0.6-0.3-0.9-0.3c-0.6,0-1.2,0.2-1.6,0.7
		c-0.4,0.4-0.6,1.1-0.6,1.9h-3.6c0.1-2.1,0.6-3.7,1.5-4.9c1-1.2,2.2-1.8,3.8-1.8c0.8,0,1.5,0.2,2.1,0.5s1.3,0.8,2.1,1.4
		c0.5,0.4,0.9,0.6,1.2,0.8s0.6,0.3,0.9,0.3c0.6,0,1.1-0.2,1.5-0.7c0.4-0.4,0.6-1.1,0.7-1.8h3.6c-0.1,2-0.6,3.6-1.5,4.8
		c-1,1.2-2.2,1.8-3.8,1.8C622.1,254,621.4,253.8,620.8,253.5z"/>
	<path d="M643.6,280.5c-2.1-1.1-3.7-2.6-4.9-4.5s-1.7-4.1-1.7-6.6s0.6-4.6,1.7-6.6c1.2-1.9,2.8-3.4,4.9-4.5c2.1-1.1,4.4-1.6,7-1.6
		s4.9,0.5,7,1.6s3.7,2.6,4.8,4.5c1.2,1.9,1.7,4.1,1.7,6.6s-0.6,4.6-1.7,6.6c-1.2,1.9-2.8,3.4-4.8,4.5c-2.1,1.1-4.4,1.6-7,1.6
		S645.7,281.6,643.6,280.5z M655.2,274.4c1.2-1.2,1.8-2.9,1.8-5s-0.6-3.7-1.8-5c-1.2-1.2-2.7-1.9-4.5-1.9s-3.4,0.6-4.6,1.9
		c-1.2,1.2-1.8,2.9-1.8,5s0.6,3.7,1.8,5c1.2,1.2,2.7,1.9,4.6,1.9S654,275.6,655.2,274.4z"/>
	<path d="M671.3,281.3c-2-0.5-3.5-1.1-4.7-1.9l2.4-5.2c1.1,0.7,2.4,1.3,4,1.7c1.6,0.4,3.1,0.7,4.6,0.7c3,0,4.6-0.8,4.6-2.3
		c0-0.7-0.4-1.2-1.2-1.5s-2.1-0.6-3.8-0.8c-2-0.3-3.7-0.7-5-1.1s-2.5-1.1-3.4-2.1c-1-1-1.4-2.5-1.4-4.3c0-1.6,0.5-3,1.4-4.2
		s2.2-2.2,4-2.8c1.7-0.7,3.8-1,6.1-1c1.7,0,3.5,0.2,5.2,0.6s3.2,0.9,4.3,1.6l-2.4,5.1c-2.2-1.2-4.6-1.8-7.1-1.8
		c-1.5,0-2.7,0.2-3.4,0.6c-0.8,0.4-1.2,1-1.2,1.7c0,0.8,0.4,1.3,1.2,1.6c0.8,0.3,2.1,0.6,4,0.9c2,0.3,3.7,0.7,5,1.1s2.4,1.1,3.4,2.1
		c0.9,1,1.4,2.4,1.4,4.2c0,1.5-0.5,2.9-1.4,4.1s-2.3,2.1-4,2.8c-1.8,0.7-3.9,1-6.3,1C675.3,282.1,673.3,281.9,671.3,281.3z"/>
</g>
<g>
	<g>
		<g>
			<g>
				<g>
					<path class="st7" d="M582.1,1019.2h-84.3c-24.7,0-46.7-21.1-46.7-46.7s21.1-46.7,46.7-46.7h84.3c25.6,0,46.7,21.1,46.7,46.7
						S606.9,1019.2,582.1,1019.2z M497.9,934c-21.1,0-38.5,17.4-38.5,38.5s17.4,38.5,38.5,38.5h84.3c21.1,0,38.5-17.4,38.5-38.5
						S603.2,934,582.1,934H497.9z"/>
				</g>
			</g>
			
				<ellipse transform="matrix(0.9239 -0.3827 0.3827 0.9239 -334.1907 264.9096)" class="st7" cx="498.8" cy="972.5" rx="28.4" ry="28.4"/>
			<circle class="st8" cx="581.2" cy="972.5" r="28.4"/>
		</g>
	</g>
</g>
</svg>
