<?xml version="1.0" encoding="utf-8"?>
<!-- Generator: Adobe Illustrator 22.0.0, SVG Export Plug-In . SVG Version: 6.00 Build 0)  -->
<svg version="1.1" id="Capa_1" xmlns="http://www.w3.org/2000/svg" xmlns:xlink="http://www.w3.org/1999/xlink" x="0px" y="0px"
	 viewBox="0 0 1080 1080" style="enable-background:new 0 0 1080 1080;" xml:space="preserve">
<style type="text/css">
	.st0{fill:#F2F2F2;}
	.st1{fill:#727272;}
	.st2{opacity:0.25;}
	.st3{fill:#EDEDED;}
	.st4{fill:#FFE212;}
	.st5{fill:#333333;}
	.st6{opacity:0.19;}
	.st7{fill:#3DE200;}
	.st8{fill:#22263D;}
</style>
<path class="st0" d="M1046,1080H34c-18.8,0-34-15.2-34-34V34C0,15.2,15.2,0,34,0h1012c18.8,0,34,15.2,34,34v1012
	C1080,1064.8,1064.8,1080,1046,1080z"/>
<path class="st1" d="M372.9,419.5H115.4c-19.4,0-35.1-15.7-35.1-35.1V126.9c0-19.4,15.7-35.1,35.1-35.1h257.5
	c19.4,0,35.1,15.7,35.1,35.1v257.5C408,403.8,392.3,419.5,372.9,419.5z"/>
<g class="st2">
	<path class="st3" d="M244.1,305.6c-39,0-70.6-31.7-70.6-70.6v-26c0-39,31.7-70.6,70.6-70.6s70.6,31.7,70.6,70.6v26
		C314.8,273.9,283.1,305.6,244.1,305.6z M244.1,148.3c-33.4,0-60.6,27.2-60.6,60.6v26c0,33.4,27.2,60.6,60.6,60.6
		s60.6-27.2,60.6-60.6v-26C304.8,175.5,277.6,148.3,244.1,148.3z"/>
</g>
<g class="st2">
	<path class="st3" d="M357.9,378.1c-2.8,0-5-2.2-5-5v-6.8c0-20.3-16.5-36.9-36.9-36.9H172.3c-20.3,0-36.9,16.5-36.9,36.9v6.8
		c0,2.8-2.2,5-5,5s-5-2.2-5-5v-6.8c0-25.8,21-46.9,46.9-46.9H316c25.8,0,46.9,21,46.9,46.9v6.8C362.9,375.8,360.6,378.1,357.9,378.1
		z"/>
</g>
<g>
	<g>
		<polygon class="st4" points="522.2,373.9 529.5,388.8 545.8,391.1 534,402.7 536.8,419 522.2,411.3 507.5,419 510.3,402.7 
			498.5,391.1 514.8,388.8 		"/>
		<path class="st5" d="M536.8,420c-0.2,0-0.3,0-0.5-0.1l-14.2-7.4l-14.2,7.4c-0.3,0.2-0.7,0.1-1.1-0.1c-0.3-0.2-0.5-0.6-0.4-1
			l2.7-15.8l-11.5-11.2c-0.3-0.3-0.4-0.7-0.3-1c0.1-0.4,0.4-0.6,0.8-0.7l15.8-2.3l7.1-14.4c0.3-0.7,1.5-0.7,1.8,0l7.1,14.4l15.8,2.3
			c0.4,0.1,0.7,0.3,0.8,0.7c0.1,0.4,0,0.8-0.3,1L535.1,403l2.7,15.8c0.1,0.4-0.1,0.8-0.4,1C537.2,419.9,537,420,536.8,420z
			 M500.6,391.8L511,402c0.2,0.2,0.3,0.6,0.3,0.9l-2.5,14.3l12.8-6.8c0.3-0.2,0.6-0.2,0.9,0l12.8,6.8l-2.5-14.3
			c-0.1-0.3,0.1-0.7,0.3-0.9l10.4-10.1l-14.4-2.1c-0.3,0-0.6-0.3-0.8-0.5l-6.4-13l-6.4,13c-0.1,0.3-0.4,0.5-0.8,0.5L500.6,391.8z"/>
	</g>
	<g>
		<polygon class="st4" points="588.7,373.9 596.1,388.8 612.4,391.1 600.6,402.7 603.4,419 588.7,411.3 574.1,419 576.9,402.7 
			565.1,391.1 581.4,388.8 		"/>
		<path class="st5" d="M603.4,420c-0.2,0-0.3,0-0.5-0.1l-14.2-7.4l-14.2,7.4c-0.3,0.2-0.7,0.1-1.1-0.1c-0.3-0.2-0.5-0.6-0.4-1
			l2.7-15.8l-11.5-11.2c-0.3-0.3-0.4-0.7-0.3-1c0.1-0.4,0.4-0.6,0.8-0.7l15.8-2.3l7.1-14.4c0.3-0.7,1.5-0.7,1.8,0l7.1,14.4l15.8,2.3
			c0.4,0.1,0.7,0.3,0.8,0.7c0.1,0.4,0,0.8-0.3,1L601.7,403l2.7,15.8c0.1,0.4-0.1,0.8-0.4,1C603.8,419.9,603.6,420,603.4,420z
			 M588.7,410.3c0.2,0,0.3,0,0.5,0.1l12.8,6.8l-2.5-14.3c-0.1-0.3,0.1-0.7,0.3-0.9l10.4-10.1l-14.4-2.1c-0.3,0-0.6-0.3-0.8-0.5
			l-6.4-13l-6.4,13c-0.1,0.3-0.4,0.5-0.8,0.5l-14.4,2.1l10.4,10.1c0.2,0.2,0.3,0.6,0.3,0.9l-2.5,14.3l12.8-6.8
			C588.4,410.3,588.6,410.3,588.7,410.3z"/>
	</g>
	<g>
		<polygon class="st4" points="655.3,373.9 662.6,388.8 679,391.1 667.2,402.7 670,419 655.3,411.3 640.7,419 643.5,402.7 
			631.6,391.1 648,388.8 		"/>
		<path class="st5" d="M670,420c-0.2,0-0.3,0-0.5-0.1l-14.2-7.4l-14.2,7.4c-0.3,0.2-0.7,0.1-1.1-0.1c-0.3-0.2-0.5-0.6-0.4-1
			l2.7-15.8l-11.5-11.2c-0.3-0.3-0.4-0.7-0.3-1c0.1-0.4,0.4-0.6,0.8-0.7l15.8-2.3l7.1-14.4c0.3-0.7,1.5-0.7,1.8,0l7.1,14.4l15.8,2.3
			c0.4,0.1,0.7,0.3,0.8,0.7c0.1,0.4,0,0.8-0.3,1L668.2,403l2.7,15.8c0.1,0.4-0.1,0.8-0.4,1C670.4,419.9,670.2,420,670,420z
			 M655.3,410.3c0.2,0,0.3,0,0.5,0.1l12.8,6.8l-2.5-14.3c-0.1-0.3,0.1-0.7,0.3-0.9l10.4-10.1l-14.4-2.1c-0.3,0-0.6-0.3-0.8-0.5
			l-6.4-13l-6.4,13c-0.1,0.3-0.4,0.5-0.8,0.5l-14.4,2.1L644,402c0.2,0.2,0.3,0.6,0.3,0.9l-2.5,14.3l12.8-6.8
			C655,410.3,655.2,410.3,655.3,410.3z"/>
	</g>
	<g>
		<polygon class="st4" points="721.9,373.9 729.2,388.8 745.6,391.1 733.7,402.7 736.5,419 721.9,411.3 707.3,419 710.1,402.7 
			698.2,391.1 714.6,388.8 		"/>
		<path class="st5" d="M736.5,420c-0.2,0-0.3,0-0.5-0.1l-14.2-7.4l-14.2,7.4c-0.3,0.2-0.7,0.1-1.1-0.1c-0.3-0.2-0.5-0.6-0.4-1
			L709,403l-11.5-11.2c-0.3-0.3-0.4-0.7-0.3-1c0.1-0.4,0.4-0.6,0.8-0.7l15.8-2.3l7.1-14.4c0.3-0.7,1.5-0.7,1.8,0l7.1,14.4l15.8,2.3
			c0.4,0.1,0.7,0.3,0.8,0.7c0.1,0.4,0,0.8-0.3,1L734.8,403l2.7,15.8c0.1,0.4-0.1,0.8-0.4,1C737,419.9,736.8,420,736.5,420z
			 M721.9,410.3c0.2,0,0.3,0,0.5,0.1l12.8,6.8l-2.5-14.3c-0.1-0.3,0.1-0.7,0.3-0.9l10.4-10.1l-14.4-2.1c-0.3,0-0.6-0.3-0.8-0.5
			l-6.4-13l-6.4,13c-0.1,0.3-0.4,0.5-0.8,0.5l-14.4,2.1l10.4,10.1c0.2,0.2,0.3,0.6,0.3,0.9l-2.5,14.3l12.8-6.8
			C721.6,410.3,721.7,410.3,721.9,410.3z"/>
	</g>
	<g>
		<polygon class="st4" points="788.5,373.9 795.8,388.8 812.2,391.1 800.3,402.7 803.1,419 788.5,411.3 773.9,419 776.7,402.7 
			764.8,391.1 781.2,388.8 		"/>
		<path class="st5" d="M803.1,420c-0.2,0-0.3,0-0.5-0.1l-14.2-7.4l-14.2,7.4c-0.3,0.2-0.7,0.1-1.1-0.1c-0.3-0.2-0.5-0.6-0.4-1
			l2.7-15.8l-11.5-11.2c-0.3-0.3-0.4-0.7-0.3-1c0.1-0.4,0.4-0.6,0.8-0.7l15.8-2.3l7.1-14.4c0.3-0.7,1.5-0.7,1.8,0l7.1,14.4l15.8,2.3
			c0.4,0.1,0.7,0.3,0.8,0.7c0.1,0.4,0,0.8-0.3,1L801.4,403l2.7,15.8c0.1,0.4-0.1,0.8-0.4,1C803.5,419.9,803.3,420,803.1,420z
			 M788.5,410.3c0.2,0,0.3,0,0.5,0.1l12.8,6.8l-2.5-14.3c-0.1-0.3,0.1-0.7,0.3-0.9l10.4-10.1l-14.4-2.1c-0.3,0-0.6-0.3-0.8-0.5
			l-6.4-13l-6.4,13c-0.1,0.3-0.4,0.5-0.8,0.5l-14.4,2.1l10.4,10.1c0.2,0.2,0.3,0.6,0.3,0.9l-2.5,14.3l12.8-6.8
			C788.2,410.3,788.3,410.3,788.5,410.3z"/>
	</g>
</g>
<g>
	<path d="M516.1,130v-13h41.6v56.4c0,9.9-2.5,17.4-7.6,22.4s-11.5,7.5-19.4,7.5c-9.9,0-18.4-3.5-25.4-10.5l8.2-11.4
		c5.5,5.3,11,7.9,16.3,7.9c3.7,0,6.9-1.3,9.6-3.8c2.6-2.5,4-6.3,4-11.4V130H516.1z"/>
	<path d="M623.4,172.7v-35.2h13.7v65h-13.7v-11.9c-2.2,4-5.2,7.1-9.1,9.4c-3.9,2.3-8,3.4-12.5,3.4c-7.3,0-13.3-2.2-17.8-6.7
		s-6.8-11-6.8-19.4v-39.8h13.7v35.7c0,12,5,18,14.9,18c4.7,0,8.8-1.6,12.3-4.7C621.6,183.3,623.4,178.7,623.4,172.7z"/>
	<path d="M709.6,202.5h-12.5v-8.7c-5.4,6.4-12.6,9.7-21.6,9.7c-6.8,0-12.4-1.9-16.8-5.7c-4.4-3.8-6.7-8.9-6.7-15.3
		c0-6.4,2.4-11.2,7.1-14.4c4.7-3.2,11.1-4.8,19.2-4.8H696v-2.4c0-8.6-4.8-13-14.4-13c-6,0-12.3,2.2-18.8,6.6l-6.1-8.6
		c7.9-6.3,16.9-9.4,26.9-9.4c7.7,0,13.9,1.9,18.8,5.8c4.8,3.9,7.3,10,7.3,18.3v41.9H709.6z M695.9,178.3v-5.5h-15.4
		c-9.9,0-14.8,3.1-14.8,9.3c0,3.2,1.2,5.6,3.7,7.3c2.4,1.7,5.8,2.5,10.2,2.5s8.2-1.2,11.4-3.7C694.2,185.8,695.9,182.5,695.9,178.3z
		"/>
	<path d="M742.3,167.3v35.2h-13.7v-65h13.7v11.9c2.2-4,5.2-7.1,9.1-9.4c3.9-2.3,8-3.4,12.5-3.4c7.3,0,13.3,2.2,17.8,6.7
		s6.8,11,6.8,19.4v39.8h-13.7v-35.7c0-12-5-18-14.9-18c-4.7,0-8.8,1.6-12.3,4.7C744.1,156.7,742.3,161.3,742.3,167.3z"/>
</g>
<g>
	<path d="M153,596.3l-6.7,33.3h-3.4l5.3-26.4L131,625.4h-1.7l-8.9-22.6l-5.3,26.8h-3.4l6.7-33.3h2.9l9.6,24.7l19-24.7L153,596.3
		L153,596.3z"/>
	<path d="M159.6,618c0,0.2,0,0.6,0,1c0,2.5,0.7,4.5,2.2,5.8c1.4,1.3,3.6,2,6.4,2c1.6,0,3.2-0.3,4.6-0.8c1.4-0.6,2.6-1.3,3.5-2.3
		l1.5,2.4c-1.2,1.2-2.6,2.1-4.4,2.7s-3.6,1-5.6,1c-3.6,0-6.5-1-8.5-2.9c-2.1-1.9-3.1-4.5-3.1-7.8c0-2.8,0.6-5.3,1.8-7.6
		s2.8-4,4.9-5.3c2.1-1.3,4.5-1.9,7.1-1.9c3.3,0,6,0.9,7.9,2.8c2,1.9,2.9,4.5,2.9,7.8c0,0.9-0.1,1.9-0.3,3L159.6,618L159.6,618z
		 M163.5,609.5c-1.8,1.5-3,3.5-3.6,6h17.8c0-0.2,0-0.5,0-0.9c0-2.3-0.7-4.2-2.1-5.4c-1.4-1.3-3.3-1.9-5.7-1.9
		C167.4,607.3,165.3,608,163.5,609.5z"/>
	<path d="M199.2,629c-1.8-0.6-3.2-1.3-4.2-2.2l1.6-2.7c1,0.8,2.2,1.5,3.8,2s3.2,0.8,4.9,0.8c2.4,0,4.2-0.4,5.5-1.2s1.9-1.9,1.9-3.3
		c0-0.8-0.3-1.4-0.8-1.9s-1.2-0.8-1.9-1.1c-0.8-0.3-1.9-0.5-3.3-0.9c-1.7-0.4-3.2-0.8-4.2-1.1c-1.1-0.4-2-1-2.8-1.8s-1.1-2-1.1-3.4
		c0-2.4,1-4.3,2.9-5.7c2-1.4,4.6-2.1,7.9-2.1c1.6,0,3.2,0.2,4.7,0.6s2.8,1,3.7,1.7l-1.4,2.7c-1-0.7-2.1-1.2-3.4-1.6
		c-1.3-0.4-2.6-0.5-4-0.5c-2.3,0-4.1,0.4-5.3,1.2c-1.3,0.8-1.9,1.9-1.9,3.3c0,0.8,0.3,1.5,0.8,2s1.2,0.9,2,1.1
		c0.8,0.3,1.9,0.5,3.3,0.8c1.7,0.4,3.1,0.8,4.2,1.1c1.1,0.4,2,1,2.7,1.8c0.8,0.8,1.1,1.9,1.1,3.3c0,2.4-1,4.3-3,5.7
		s-4.7,2.1-8.1,2.1C202.9,629.8,201,629.6,199.2,629z"/>
	<path d="M225.8,604.6h3.4l-4.9,25h-3.4L225.8,604.6z M227.3,598.5c-0.4-0.4-0.6-1-0.6-1.6c0-0.7,0.2-1.3,0.7-1.8s1.1-0.7,1.9-0.7
		c0.7,0,1.2,0.2,1.7,0.6c0.4,0.4,0.7,0.9,0.7,1.5c0,0.8-0.3,1.4-0.8,1.9s-1.1,0.8-1.9,0.8C228.3,599.1,227.7,598.9,227.3,598.5z"/>
	<path d="M236.8,618c0,0.2,0,0.6,0,1c0,2.5,0.7,4.5,2.2,5.8c1.4,1.3,3.6,2,6.4,2c1.6,0,3.2-0.3,4.6-0.8c1.4-0.6,2.6-1.3,3.5-2.3
		l1.5,2.4c-1.2,1.2-2.6,2.1-4.4,2.7s-3.6,1-5.6,1c-3.6,0-6.5-1-8.5-2.9c-2.1-1.9-3.1-4.5-3.1-7.8c0-2.8,0.6-5.3,1.8-7.6
		s2.8-4,4.9-5.3c2.1-1.3,4.5-1.9,7.1-1.9c3.3,0,6,0.9,7.9,2.8c2,1.9,2.9,4.5,2.9,7.8c0,0.9-0.1,1.9-0.3,3L236.8,618L236.8,618z
		 M240.7,609.5c-1.8,1.5-3,3.5-3.6,6h17.8c0-0.2,0-0.5,0-0.9c0-2.3-0.7-4.2-2.1-5.4c-1.4-1.3-3.3-1.9-5.7-1.9
		C244.6,607.3,242.5,608,240.7,609.5z"/>
	<path d="M286.1,606.6c1.6,1.4,2.4,3.4,2.4,6c0,0.9-0.1,1.8-0.3,2.9l-2.9,14.2h-3.4l2.9-14.3c0.2-0.9,0.2-1.6,0.2-2.3
		c0-1.8-0.5-3.2-1.6-4.2s-2.7-1.4-4.8-1.4c-2.7,0-4.9,0.7-6.7,2.2c-1.7,1.5-2.9,3.7-3.5,6.5l-2.7,13.4h-3.4l4.9-25h3.2l-0.8,4
		c2.4-2.8,5.6-4.2,9.8-4.2C282.3,604.4,284.5,605.1,286.1,606.6z"/>
	<path d="M300,622c-0.1,0.8-0.2,1.3-0.2,1.6c0,2.2,1.2,3.3,3.6,3.3c1.4,0,2.7-0.4,3.9-1.3l0.8,2.6c-1.4,1.1-3.3,1.6-5.6,1.6
		c-1.9,0-3.4-0.5-4.4-1.5c-1.1-1-1.6-2.4-1.6-4.2c0-0.7,0.1-1.3,0.2-1.9l2.9-14.7h-4.4l0.5-2.9h4.5l1.1-5.5h3.4l-1.1,5.5h7.6
		l-0.6,2.9H303L300,622z"/>
	<path d="M318.1,628.5c-1.7-0.9-3-2.1-4-3.7c-0.9-1.6-1.4-3.5-1.4-5.6c0-2.8,0.6-5.4,1.9-7.6c1.2-2.3,3-4,5.2-5.3s4.7-1.9,7.4-1.9
		c3.5,0,6.3,1,8.3,2.9s3.1,4.5,3.1,7.7c0,2.8-0.6,5.4-1.9,7.6c-1.2,2.3-3,4-5.2,5.3s-4.7,1.9-7.4,1.9
		C321.8,629.8,319.8,629.4,318.1,628.5z M329.9,625.3c1.6-1,2.9-2.4,3.9-4.2c0.9-1.8,1.4-3.8,1.4-6c0-2.4-0.7-4.3-2.2-5.7
		c-1.4-1.4-3.5-2.1-6.1-2.1c-2.1,0-3.9,0.5-5.6,1.5c-1.6,1-2.9,2.4-3.9,4.2c-0.9,1.8-1.4,3.8-1.4,6c0,2.4,0.7,4.3,2.2,5.7
		c1.4,1.4,3.5,2,6.1,2C326.3,626.8,328.2,626.3,329.9,625.3z"/>
	<path d="M397.3,606.5c1.5,1.4,2.3,3.4,2.3,5.9c0,0.7-0.1,1.7-0.3,2.9l-2.9,14.2H393l2.9-14.3c0.2-0.7,0.2-1.5,0.2-2.3
		c0-1.8-0.5-3.1-1.6-4.1c-1-1-2.6-1.4-4.6-1.4c-2.5,0-4.6,0.7-6.3,2.1c-1.7,1.4-2.8,3.5-3.4,6.3l-2.8,13.8H374l2.9-14.3
		c0.2-0.9,0.2-1.6,0.2-2.3c0-1.8-0.5-3.2-1.5-4.2s-2.6-1.4-4.6-1.4c-2.6,0-4.7,0.7-6.4,2.2c-1.7,1.5-2.8,3.7-3.4,6.5l-2.7,13.4h-3.4
		l4.9-25h3.2l-0.8,4c2.3-2.8,5.4-4.2,9.5-4.2c2.1,0,3.8,0.4,5.3,1.3c1.4,0.9,2.4,2.1,2.9,3.7c1.2-1.6,2.7-2.9,4.5-3.7s3.8-1.3,6-1.3
		C393.6,604.4,395.7,605.1,397.3,606.5z"/>
	<path d="M433.1,604.6l-5,25h-3.2l0.8-4c-2.3,2.8-5.6,4.2-9.6,4.2c-2.8,0-5-0.7-6.5-2.2c-1.6-1.4-2.4-3.4-2.4-6
		c0-0.9,0.1-1.8,0.3-2.8l2.9-14.3h3.4l-2.9,14.3c-0.2,0.9-0.2,1.6-0.2,2.2c0,1.8,0.5,3.2,1.6,4.2s2.7,1.5,4.8,1.5
		c2.7,0,4.9-0.7,6.6-2.2s2.9-3.7,3.5-6.5l2.7-13.5L433.1,604.6L433.1,604.6z"/>
	<path d="M442.8,628.5c-1.7-0.9-3.1-2.1-4-3.7c-0.9-1.6-1.4-3.5-1.4-5.6c0-2.8,0.6-5.4,1.9-7.6c1.2-2.3,3-4,5.2-5.3s4.7-1.9,7.5-1.9
		c2.3,0,4.3,0.4,6,1.3c1.7,0.8,3,2.1,3.9,3.7l-2.9,1.7c-1.4-2.5-3.9-3.7-7.3-3.7c-2.1,0-3.9,0.5-5.6,1.5s-3,2.4-3.9,4.2
		s-1.4,3.8-1.4,6c0,2.4,0.7,4.3,2.2,5.7c1.4,1.4,3.5,2,6.2,2c1.6,0,3.1-0.3,4.5-0.9c1.4-0.6,2.5-1.5,3.4-2.7l2.4,1.9
		c-1.1,1.5-2.6,2.7-4.4,3.5c-1.9,0.8-3.9,1.3-6,1.3C446.6,629.8,444.5,629.4,442.8,628.5z"/>
	<path d="M487.7,606.6c1.6,1.4,2.4,3.4,2.4,6c0,0.9-0.1,1.8-0.3,2.9l-2.9,14.2h-3.4l2.9-14.3c0.2-0.9,0.2-1.6,0.2-2.3
		c0-1.8-0.5-3.2-1.6-4.2s-2.7-1.4-4.8-1.4c-2.7,0-4.9,0.7-6.7,2.2c-1.7,1.5-2.9,3.7-3.5,6.5l-2.7,13.4H464l7-35.3h3.4l-2.8,14
		c2.3-2.6,5.5-3.9,9.6-3.9C484,604.4,486.2,605.1,487.7,606.6z"/>
	<path d="M501.4,628.5c-1.7-0.9-3-2.1-4-3.7c-0.9-1.6-1.4-3.5-1.4-5.6c0-2.8,0.6-5.4,1.9-7.6c1.2-2.3,3-4,5.2-5.3s4.7-1.9,7.4-1.9
		c3.5,0,6.3,1,8.3,2.9s3.1,4.5,3.1,7.7c0,2.8-0.6,5.4-1.9,7.6c-1.2,2.3-3,4-5.2,5.3s-4.7,1.9-7.4,1.9
		C505.1,629.8,503.1,629.4,501.4,628.5z M513.2,625.3c1.6-1,2.9-2.4,3.9-4.2c0.9-1.8,1.4-3.8,1.4-6c0-2.4-0.7-4.3-2.2-5.7
		c-1.4-1.4-3.5-2.1-6.1-2.1c-2.1,0-3.9,0.5-5.6,1.5c-1.6,1-2.9,2.4-3.9,4.2c-0.9,1.8-1.4,3.8-1.4,6c0,2.4,0.7,4.3,2.2,5.7
		c1.4,1.4,3.5,2,6.1,2C509.7,626.8,511.5,626.3,513.2,625.3z"/>
	<path d="M580.6,606.5c1.5,1.4,2.3,3.4,2.3,5.9c0,0.7-0.1,1.7-0.3,2.9l-2.9,14.2h-3.4l2.9-14.3c0.2-0.7,0.2-1.5,0.2-2.3
		c0-1.8-0.5-3.1-1.6-4.1c-1-1-2.6-1.4-4.6-1.4c-2.5,0-4.6,0.7-6.3,2.1c-1.7,1.4-2.8,3.5-3.4,6.3l-2.8,13.8h-3.4l2.9-14.3
		c0.2-0.9,0.2-1.6,0.2-2.3c0-1.8-0.5-3.2-1.5-4.2s-2.6-1.4-4.6-1.4c-2.6,0-4.7,0.7-6.4,2.2s-2.8,3.7-3.4,6.5l-2.7,13.4h-3.4l4.9-25
		h3.2l-0.8,4c2.3-2.8,5.4-4.2,9.5-4.2c2.1,0,3.8,0.4,5.3,1.3c1.4,0.9,2.4,2.1,2.9,3.7c1.2-1.6,2.8-2.9,4.5-3.7
		c1.8-0.8,3.8-1.3,6-1.3C576.9,604.4,579.1,605.1,580.6,606.5z"/>
	<path d="M592.2,618c0,0.2,0,0.6,0,1c0,2.5,0.7,4.5,2.2,5.8c1.4,1.3,3.6,2,6.4,2c1.6,0,3.2-0.3,4.6-0.8c1.4-0.6,2.6-1.3,3.5-2.3
		l1.5,2.4c-1.2,1.2-2.6,2.1-4.4,2.7s-3.6,1-5.6,1c-3.6,0-6.5-1-8.5-2.9c-2.1-1.9-3.1-4.5-3.1-7.8c0-2.8,0.6-5.3,1.8-7.6
		s2.8-4,4.9-5.3c2.1-1.3,4.5-1.9,7.1-1.9c3.3,0,6,0.9,7.9,2.8s2.9,4.5,2.9,7.8c0,0.9-0.1,1.9-0.3,3L592.2,618L592.2,618z
		 M596.1,609.5c-1.8,1.5-3,3.5-3.6,6h17.8c0-0.2,0-0.5,0-0.9c0-2.3-0.7-4.2-2.1-5.4c-1.4-1.3-3.3-1.9-5.7-1.9
		C600.1,607.3,597.9,608,596.1,609.5z"/>
	<path d="M609.6,638.7c-0.9-0.3-1.7-0.7-2.3-1.2l1.6-2.6c1,0.9,2.2,1.3,3.8,1.3c1.4,0,2.5-0.4,3.3-1.1c0.8-0.8,1.4-2,1.7-3.6
		l5.4-26.8h3.4l-5.4,26.9c-1,5-3.8,7.6-8.4,7.6C611.5,639.1,610.5,638.9,609.6,638.7z M624.4,598.4c-0.4-0.4-0.6-1-0.6-1.6
		c0-0.7,0.2-1.3,0.7-1.8s1.1-0.7,1.9-0.7c0.7,0,1.2,0.2,1.7,0.6c0.4,0.4,0.7,0.9,0.7,1.5c0,0.8-0.3,1.4-0.8,1.9s-1.1,0.8-1.9,0.8
		C625.4,599.1,624.8,598.9,624.4,598.4z"/>
	<path d="M635.9,628.5c-1.7-0.9-3-2.1-4-3.7c-0.9-1.6-1.4-3.5-1.4-5.6c0-2.8,0.6-5.4,1.9-7.6c1.2-2.3,3-4,5.2-5.3s4.7-1.9,7.4-1.9
		c3.5,0,6.3,1,8.3,2.9s3.1,4.5,3.1,7.7c0,2.8-0.6,5.4-1.9,7.6c-1.2,2.3-3,4-5.2,5.3s-4.7,1.9-7.4,1.9
		C639.6,629.8,637.6,629.4,635.9,628.5z M647.7,625.3c1.6-1,2.9-2.4,3.9-4.2c0.9-1.8,1.4-3.8,1.4-6c0-2.4-0.7-4.3-2.2-5.7
		c-1.4-1.4-3.5-2.1-6.1-2.1c-2.1,0-3.9,0.5-5.6,1.5c-1.6,1-2.9,2.4-3.9,4.2c-0.9,1.8-1.4,3.8-1.4,6c0,2.4,0.7,4.3,2.2,5.7
		s3.5,2,6.1,2C644.2,626.8,646.1,626.3,647.7,625.3z"/>
	<path d="M672.1,605.6c1.7-0.8,3.7-1.2,6.1-1.2l-0.6,3.3h-1c-2.7,0-4.9,0.8-6.6,2.3c-1.7,1.6-2.9,3.9-3.5,6.9l-2.5,12.7h-3.4l4.9-25
		h3.2l-0.9,4.6C669,607.5,670.4,606.3,672.1,605.6z"/>
	<path d="M718.1,604.6l-18.3,28.2c-1.5,2.3-2.9,4-4.3,4.9c-1.3,0.9-2.9,1.4-4.8,1.4c-1.2,0-2.3-0.2-3.4-0.6s-1.9-0.9-2.5-1.6
		l1.8-2.5c1.1,1.2,2.6,1.8,4.4,1.8c1.1,0,2.1-0.3,3-0.9c0.9-0.6,1.8-1.6,2.8-3.1l1.8-2.7l-6.2-24.9h3.4l5.2,21.3l13.6-21.3
		L718.1,604.6L718.1,604.6z"/>
	<path d="M754.1,606.6c1.6,1.4,2.4,3.4,2.4,6c0,0.9-0.1,1.8-0.3,2.9l-2.9,14.2h-3.4l2.9-14.3c0.2-0.9,0.2-1.6,0.2-2.3
		c0-1.8-0.5-3.2-1.6-4.2s-2.7-1.4-4.8-1.4c-2.7,0-4.9,0.7-6.7,2.2c-1.7,1.5-2.9,3.7-3.5,6.5l-2.7,13.4h-3.4l7-35.3h3.4l-2.8,14
		c2.3-2.6,5.5-3.9,9.6-3.9C750.3,604.4,752.5,605.1,754.1,606.6z"/>
	<path d="M765.7,618c0,0.2,0,0.6,0,1c0,2.5,0.7,4.5,2.2,5.8c1.4,1.3,3.6,2,6.4,2c1.6,0,3.2-0.3,4.6-0.8c1.4-0.6,2.6-1.3,3.5-2.3
		l1.5,2.4c-1.2,1.2-2.6,2.1-4.4,2.7s-3.6,1-5.6,1c-3.6,0-6.5-1-8.5-2.9c-2.1-1.9-3.1-4.5-3.1-7.8c0-2.8,0.6-5.3,1.8-7.6
		s2.8-4,4.9-5.3c2.1-1.3,4.5-1.9,7.1-1.9c3.3,0,6,0.9,7.9,2.8s2.9,4.5,2.9,7.8c0,0.9-0.1,1.9-0.3,3L765.7,618L765.7,618z
		 M769.7,609.5c-1.8,1.5-3,3.5-3.6,6h17.8c0-0.2,0-0.5,0-0.9c0-2.3-0.7-4.2-2.1-5.4c-1.4-1.3-3.3-1.9-5.7-1.9
		C773.6,607.3,771.5,608,769.7,609.5z"/>
	<path d="M827.5,606.6c1.6,1.4,2.4,3.4,2.4,6c0,0.9-0.1,1.8-0.3,2.9l-2.9,14.2h-3.4l2.9-14.3c0.2-0.9,0.2-1.6,0.2-2.3
		c0-1.8-0.5-3.2-1.6-4.2s-2.7-1.4-4.8-1.4c-2.7,0-4.9,0.7-6.7,2.2c-1.7,1.5-2.9,3.7-3.5,6.5l-2.7,13.4h-3.4l4.9-25h3.2l-0.8,4
		c2.4-2.8,5.6-4.2,9.8-4.2C823.8,604.4,826,605.1,827.5,606.6z"/>
	<path d="M841.2,628.5c-1.7-0.9-3-2.1-4-3.7c-0.9-1.6-1.4-3.5-1.4-5.6c0-2.8,0.6-5.4,1.9-7.6c1.2-2.3,3-4,5.2-5.3s4.7-1.9,7.4-1.9
		c3.5,0,6.3,1,8.3,2.9s3.1,4.5,3.1,7.7c0,2.8-0.6,5.4-1.9,7.6c-1.2,2.3-3,4-5.2,5.3s-4.7,1.9-7.4,1.9
		C844.9,629.8,842.9,629.4,841.2,628.5z M853,625.3c1.6-1,2.9-2.4,3.9-4.2c0.9-1.8,1.4-3.8,1.4-6c0-2.4-0.7-4.3-2.2-5.7
		c-1.4-1.4-3.5-2.1-6.1-2.1c-2.1,0-3.9,0.5-5.6,1.5c-1.6,1-2.9,2.4-3.9,4.2c-0.9,1.8-1.4,3.8-1.4,6c0,2.4,0.7,4.3,2.2,5.7
		s3.5,2,6.1,2C849.5,626.8,851.3,626.3,853,625.3z"/>
	<path d="M871.3,622c-0.1,0.8-0.2,1.3-0.2,1.6c0,2.2,1.2,3.3,3.6,3.3c1.4,0,2.7-0.4,3.9-1.3l0.8,2.6c-1.4,1.1-3.3,1.6-5.6,1.6
		c-1.9,0-3.4-0.5-4.4-1.5c-1.1-1-1.6-2.4-1.6-4.2c0-0.7,0.1-1.3,0.2-1.9l2.9-14.7h-4.4l0.5-2.9h4.5l1.1-5.5h3.4l-1.1,5.5h7.6
		l-0.6,2.9h-7.6L871.3,622z"/>
	<path d="M912.1,604.6l-5,25h-3.2l0.8-3.9c-1.2,1.3-2.6,2.4-4.3,3.1c-1.6,0.7-3.5,1.1-5.5,1.1c-2.1,0-4-0.4-5.7-1.3
		c-1.6-0.9-2.9-2.1-3.9-3.7c-0.9-1.6-1.4-3.5-1.4-5.6c0-2.8,0.6-5.4,1.8-7.6c1.2-2.3,2.9-4,5.1-5.3c2.2-1.3,4.6-1.9,7.2-1.9
		c2.4,0,4.4,0.5,6,1.4s2.8,2.3,3.5,4l1-5.2L912.1,604.6L912.1,604.6z M901.2,625.3c1.6-1,2.9-2.4,3.9-4.2c0.9-1.8,1.4-3.8,1.4-6
		c0-2.4-0.7-4.3-2.2-5.7c-1.4-1.4-3.5-2.1-6.1-2.1c-2.1,0-3.9,0.5-5.6,1.5c-1.6,1-2.9,2.4-3.9,4.2c-0.9,1.8-1.4,3.8-1.4,6
		c0,2.4,0.7,4.3,2.2,5.7s3.5,2,6.1,2C897.7,626.8,899.5,626.3,901.2,625.3z"/>
	<path d="M946.3,594.3l-7,35.3h-3.2l0.8-3.9c-1.2,1.3-2.6,2.4-4.3,3.1c-1.6,0.7-3.5,1.1-5.5,1.1c-2.1,0-4-0.4-5.7-1.3
		c-1.6-0.9-2.9-2.1-3.9-3.7c-0.9-1.6-1.4-3.5-1.4-5.6c0-2.8,0.6-5.4,1.8-7.6c1.2-2.3,2.9-4,5.1-5.3c2.2-1.3,4.6-1.9,7.2-1.9
		c2.3,0,4.3,0.5,6,1.4c1.6,0.9,2.8,2.3,3.5,4l3.1-15.5L946.3,594.3L946.3,594.3z M933.4,625.3c1.6-1,2.9-2.4,3.9-4.2
		c0.9-1.8,1.4-3.8,1.4-6c0-2.4-0.7-4.3-2.2-5.7c-1.4-1.4-3.5-2.1-6.1-2.1c-2.1,0-3.9,0.5-5.6,1.5c-1.6,1-2.9,2.4-3.9,4.2
		c-0.9,1.8-1.4,3.8-1.4,6c0,2.4,0.7,4.3,2.2,5.7s3.5,2,6.1,2C929.9,626.8,931.8,626.3,933.4,625.3z"/>
	<path d="M953.8,628.5c-1.7-0.9-3-2.1-4-3.7c-0.9-1.6-1.4-3.5-1.4-5.6c0-2.8,0.6-5.4,1.9-7.6c1.2-2.3,3-4,5.2-5.3s4.7-1.9,7.4-1.9
		c3.5,0,6.3,1,8.3,2.9s3.1,4.5,3.1,7.7c0,2.8-0.6,5.4-1.9,7.6c-1.2,2.3-3,4-5.2,5.3s-4.7,1.9-7.4,1.9
		C957.6,629.8,955.6,629.4,953.8,628.5z M965.6,625.3c1.6-1,2.9-2.4,3.9-4.2c0.9-1.8,1.4-3.8,1.4-6c0-2.4-0.7-4.3-2.2-5.7
		c-1.4-1.4-3.5-2.1-6.1-2.1c-2.1,0-3.9,0.5-5.6,1.5c-1.6,1-2.9,2.4-3.9,4.2c-0.9,1.8-1.4,3.8-1.4,6c0,2.4,0.7,4.3,2.2,5.7
		s3.5,2,6.1,2C962.1,626.8,964,626.3,965.6,625.3z"/>
	<path d="M128.6,661.6l-5,25h-3.2l0.8-4c-2.3,2.8-5.6,4.2-9.6,4.2c-2.8,0-5-0.7-6.5-2.2c-1.6-1.4-2.4-3.4-2.4-6
		c0-0.9,0.1-1.8,0.3-2.8l2.9-14.3h3.4l-2.9,14.3c-0.2,0.9-0.2,1.6-0.2,2.2c0,1.8,0.5,3.2,1.6,4.2s2.7,1.5,4.8,1.5
		c2.7,0,4.9-0.7,6.6-2.2s2.9-3.7,3.5-6.5l2.7-13.5L128.6,661.6L128.6,661.6z"/>
	<path d="M156.8,663.6c1.6,1.4,2.4,3.4,2.4,6c0,0.9-0.1,1.8-0.3,2.9l-2.9,14.2h-3.4l2.9-14.3c0.2-0.9,0.2-1.6,0.2-2.3
		c0-1.8-0.5-3.2-1.6-4.2s-2.7-1.4-4.8-1.4c-2.7,0-4.9,0.7-6.7,2.2c-1.7,1.5-2.9,3.7-3.5,6.5l-2.7,13.4H133l4.9-25h3.2l-0.8,4
		c2.4-2.8,5.6-4.2,9.8-4.2C153,661.4,155.2,662.2,156.8,663.6z"/>
	<path d="M193.1,661.6l-5,25h-3.2l0.8-3.9c-1.2,1.3-2.6,2.4-4.3,3.1c-1.6,0.7-3.5,1.1-5.5,1.1c-2.1,0-4-0.4-5.7-1.3
		c-1.6-0.9-2.9-2.1-3.9-3.7c-0.9-1.6-1.4-3.5-1.4-5.6c0-2.8,0.6-5.4,1.8-7.6c1.2-2.3,2.9-4,5.1-5.3c2.2-1.3,4.6-1.9,7.2-1.9
		c2.4,0,4.4,0.5,6,1.4s2.8,2.3,3.5,4l1-5.2L193.1,661.6L193.1,661.6z M182.2,682.4c1.6-1,2.9-2.4,3.9-4.2c0.9-1.8,1.4-3.8,1.4-6
		c0-2.4-0.7-4.3-2.2-5.7c-1.4-1.4-3.5-2.1-6.1-2.1c-2.1,0-3.9,0.5-5.6,1.5c-1.6,1-2.9,2.4-3.9,4.2c-0.9,1.8-1.4,3.8-1.4,6
		c0,2.4,0.7,4.3,2.2,5.7c1.4,1.4,3.5,2,6.1,2C178.7,683.9,180.6,683.4,182.2,682.4z"/>
	<path d="M236,661.6l-16.1,25h-3.5l-6.2-25h3.4l5.2,21.3l13.6-21.3H236z"/>
	<path d="M238.2,675.1c0,0.2,0,0.6,0,1c0,2.5,0.7,4.5,2.2,5.8c1.4,1.3,3.6,2,6.4,2c1.6,0,3.2-0.3,4.6-0.8c1.4-0.6,2.6-1.3,3.5-2.3
		l1.5,2.4c-1.2,1.2-2.6,2.1-4.4,2.7s-3.6,1-5.6,1c-3.6,0-6.5-1-8.5-2.9c-2.1-1.9-3.1-4.5-3.1-7.8c0-2.8,0.6-5.3,1.8-7.6
		s2.8-4,4.9-5.3c2.1-1.3,4.5-1.9,7.1-1.9c3.3,0,6,0.9,7.9,2.8c2,1.9,2.9,4.5,2.9,7.8c0,0.9-0.1,1.9-0.3,3L238.2,675.1L238.2,675.1z
		 M242.1,666.5c-1.8,1.5-3,3.5-3.6,6h17.8c0-0.2,0-0.5,0-0.9c0-2.3-0.7-4.2-2.1-5.4c-1.4-1.3-3.3-1.9-5.7-1.9
		C246,664.3,243.9,665,242.1,666.5z"/>
	<path d="M275.3,662.6c1.7-0.8,3.7-1.2,6.1-1.2l-0.6,3.3h-1c-2.7,0-4.9,0.8-6.6,2.3c-1.7,1.6-2.9,3.9-3.5,6.9l-2.5,12.7h-3.4l4.9-25
		h3.2l-0.9,4.6C272.2,664.6,273.6,663.4,275.3,662.6z"/>
	<path d="M312,651.4l-7,35.3h-3.2l0.8-3.9c-1.2,1.3-2.6,2.4-4.3,3.1c-1.6,0.7-3.5,1.1-5.5,1.1c-2.1,0-4-0.4-5.7-1.3
		c-1.6-0.9-2.9-2.1-3.9-3.7c-0.9-1.6-1.4-3.5-1.4-5.6c0-2.8,0.6-5.4,1.8-7.6c1.2-2.3,2.9-4,5.1-5.3s4.6-1.9,7.2-1.9
		c2.3,0,4.3,0.5,6,1.4c1.6,0.9,2.8,2.3,3.5,4l3.1-15.5L312,651.4L312,651.4z M299.1,682.4c1.6-1,2.9-2.4,3.9-4.2
		c0.9-1.8,1.4-3.8,1.4-6c0-2.4-0.7-4.3-2.2-5.7c-1.4-1.4-3.5-2.1-6.1-2.1c-2.1,0-3.9,0.5-5.6,1.5c-1.6,1-2.9,2.4-3.9,4.2
		c-0.9,1.8-1.4,3.8-1.4,6c0,2.4,0.7,4.3,2.2,5.7c1.4,1.4,3.5,2,6.1,2C295.6,683.9,297.5,683.4,299.1,682.4z"/>
	<path d="M342.2,661.6l-5,25H334l0.8-3.9c-1.2,1.3-2.6,2.4-4.3,3.1c-1.6,0.7-3.5,1.1-5.5,1.1c-2.1,0-4-0.4-5.7-1.3
		c-1.6-0.9-2.9-2.1-3.9-3.7c-0.9-1.6-1.4-3.5-1.4-5.6c0-2.8,0.6-5.4,1.8-7.6c1.2-2.3,2.9-4,5.1-5.3s4.6-1.9,7.2-1.9
		c2.4,0,4.4,0.5,6,1.4s2.8,2.3,3.5,4l1-5.2L342.2,661.6L342.2,661.6z M331.3,682.4c1.6-1,2.9-2.4,3.9-4.2c0.9-1.8,1.4-3.8,1.4-6
		c0-2.4-0.7-4.3-2.2-5.7c-1.4-1.4-3.5-2.1-6.1-2.1c-2.1,0-3.9,0.5-5.6,1.5c-1.6,1-2.9,2.4-3.9,4.2c-0.9,1.8-1.4,3.8-1.4,6
		c0,2.4,0.7,4.3,2.2,5.7c1.4,1.4,3.5,2,6.1,2C327.8,683.9,329.7,683.4,331.3,682.4z"/>
	<path d="M376.5,651.4l-7,35.3h-3.2l0.8-3.9c-1.2,1.3-2.6,2.4-4.3,3.1c-1.6,0.7-3.5,1.1-5.5,1.1c-2.1,0-4-0.4-5.7-1.3
		c-1.6-0.9-2.9-2.1-3.9-3.7c-0.9-1.6-1.4-3.5-1.4-5.6c0-2.8,0.6-5.4,1.8-7.6c1.2-2.3,2.9-4,5.1-5.3s4.6-1.9,7.2-1.9
		c2.3,0,4.3,0.5,6,1.4c1.6,0.9,2.8,2.3,3.5,4l3.1-15.5L376.5,651.4L376.5,651.4z M363.6,682.4c1.6-1,2.9-2.4,3.9-4.2
		c0.9-1.8,1.4-3.8,1.4-6c0-2.4-0.7-4.3-2.2-5.7c-1.4-1.4-3.5-2.1-6.1-2.1c-2.1,0-3.9,0.5-5.6,1.5c-1.6,1-2.9,2.4-3.9,4.2
		c-0.9,1.8-1.4,3.8-1.4,6c0,2.4,0.7,4.3,2.2,5.7c1.4,1.4,3.5,2,6.1,2C360.1,683.9,361.9,683.4,363.6,682.4z"/>
	<path d="M382,675.1c0,0.2,0,0.6,0,1c0,2.5,0.7,4.5,2.2,5.8c1.4,1.3,3.6,2,6.4,2c1.6,0,3.2-0.3,4.6-0.8c1.4-0.6,2.6-1.3,3.5-2.3
		l1.5,2.4c-1.2,1.2-2.6,2.1-4.4,2.7s-3.6,1-5.6,1c-3.6,0-6.5-1-8.5-2.9c-2.1-1.9-3.1-4.5-3.1-7.8c0-2.8,0.6-5.3,1.8-7.6
		c1.2-2.3,2.8-4,4.9-5.3s4.5-1.9,7.1-1.9c3.3,0,6,0.9,7.9,2.8c2,1.9,2.9,4.5,2.9,7.8c0,0.9-0.1,1.9-0.3,3L382,675.1L382,675.1z
		 M386,666.5c-1.8,1.5-3,3.5-3.6,6h17.8c0-0.2,0-0.5,0-0.9c0-2.3-0.7-4.2-2.1-5.4c-1.4-1.3-3.3-1.9-5.7-1.9
		C389.9,664.3,387.7,665,386,666.5z"/>
	<path d="M419.1,662.6c1.7-0.8,3.7-1.2,6.1-1.2l-0.6,3.3h-1c-2.7,0-4.9,0.8-6.6,2.3c-1.7,1.6-2.9,3.9-3.5,6.9l-2.5,12.7h-3.4l4.9-25
		h3.2l-0.9,4.6C416,664.6,417.4,663.4,419.1,662.6z"/>
	<path d="M453.8,661.6l-5,25h-3.2l0.8-3.9c-1.2,1.3-2.6,2.4-4.3,3.1c-1.6,0.7-3.5,1.1-5.5,1.1c-2.1,0-4-0.4-5.7-1.3
		c-1.6-0.9-2.9-2.1-3.9-3.7c-0.9-1.6-1.4-3.5-1.4-5.6c0-2.8,0.6-5.4,1.8-7.6c1.2-2.3,2.9-4,5.1-5.3s4.6-1.9,7.2-1.9
		c2.4,0,4.4,0.5,6,1.4s2.8,2.3,3.5,4l1-5.2L453.8,661.6L453.8,661.6z M443,682.4c1.6-1,2.9-2.4,3.9-4.2c0.9-1.8,1.4-3.8,1.4-6
		c0-2.4-0.7-4.3-2.2-5.7c-1.4-1.4-3.5-2.1-6.1-2.1c-2.1,0-3.9,0.5-5.6,1.5c-1.6,1-2.9,2.4-3.9,4.2c-0.9,1.8-1.4,3.8-1.4,6
		c0,2.4,0.7,4.3,2.2,5.7c1.4,1.4,3.5,2,6.1,2C439.5,683.9,441.3,683.4,443,682.4z"/>
	<path d="M473.9,675.1c0,0.2,0,0.6,0,1c0,2.5,0.7,4.5,2.2,5.8c1.4,1.3,3.6,2,6.4,2c1.6,0,3.2-0.3,4.6-0.8c1.4-0.6,2.6-1.3,3.5-2.3
		l1.5,2.4c-1.2,1.2-2.6,2.1-4.4,2.7s-3.6,1-5.6,1c-3.6,0-6.5-1-8.5-2.9c-2.1-1.9-3.1-4.5-3.1-7.8c0-2.8,0.6-5.3,1.8-7.6
		c1.2-2.3,2.8-4,4.9-5.3s4.5-1.9,7.1-1.9c3.3,0,6,0.9,7.9,2.8c2,1.9,2.9,4.5,2.9,7.8c0,0.9-0.1,1.9-0.3,3L473.9,675.1L473.9,675.1z
		 M477.8,666.5c-1.8,1.5-3,3.5-3.6,6H492c0-0.2,0-0.5,0-0.9c0-2.3-0.7-4.2-2.1-5.4c-1.4-1.3-3.3-1.9-5.7-1.9
		C481.7,664.3,479.6,665,477.8,666.5z"/>
	<path d="M541.5,663.6c1.5,1.4,2.3,3.4,2.3,5.9c0,0.7-0.1,1.7-0.3,2.9l-2.9,14.2h-3.4l2.9-14.3c0.2-0.7,0.2-1.5,0.2-2.3
		c0-1.8-0.5-3.1-1.6-4.1c-1-1-2.6-1.4-4.6-1.4c-2.5,0-4.6,0.7-6.3,2.1c-1.7,1.4-2.8,3.5-3.4,6.3l-2.8,13.8h-3.4l2.9-14.3
		c0.2-0.9,0.2-1.6,0.2-2.3c0-1.8-0.5-3.2-1.5-4.2s-2.6-1.4-4.6-1.4c-2.6,0-4.7,0.7-6.4,2.2c-1.7,1.5-2.8,3.7-3.4,6.5l-2.7,13.4h-3.4
		l4.9-25h3.2l-0.8,4c2.3-2.8,5.4-4.2,9.5-4.2c2.1,0,3.8,0.4,5.3,1.3c1.4,0.9,2.4,2.1,2.9,3.7c1.2-1.6,2.7-2.9,4.5-3.7s3.8-1.3,6-1.3
		C537.8,661.4,540,662.2,541.5,663.6z"/>
	<path d="M572.7,662.7c1.7,0.9,3,2.1,3.9,3.7c0.9,1.6,1.4,3.5,1.4,5.6c0,2.8-0.6,5.4-1.8,7.6c-1.2,2.3-2.9,4-5.1,5.3
		c-2.2,1.3-4.6,1.9-7.3,1.9c-2.4,0-4.4-0.5-6-1.4s-2.8-2.3-3.5-4.1l-2.9,14.5H548l6.8-34.2h3.2l-0.8,4c1.2-1.4,2.6-2.4,4.3-3.1
		c1.6-0.7,3.5-1.1,5.5-1.1C569.1,661.4,571,661.9,572.7,662.7z M569.2,682.4c1.6-1,2.9-2.4,3.8-4.2c0.9-1.8,1.4-3.8,1.4-6
		c0-2.4-0.7-4.3-2.2-5.7c-1.4-1.4-3.5-2.1-6.1-2.1c-2.1,0-3.9,0.5-5.5,1.5s-2.9,2.4-3.8,4.2c-0.9,1.8-1.4,3.8-1.4,6.1
		c0,2.4,0.7,4.3,2.2,5.7s3.5,2,6.1,2C565.8,683.9,567.6,683.4,569.2,682.4z"/>
	<path d="M609.9,661.6l-5,25h-3.2l0.8-3.9c-1.2,1.3-2.6,2.4-4.3,3.1c-1.6,0.7-3.5,1.1-5.5,1.1c-2.1,0-4-0.4-5.7-1.3
		c-1.6-0.9-2.9-2.1-3.9-3.7c-0.9-1.6-1.4-3.5-1.4-5.6c0-2.8,0.6-5.4,1.8-7.6c1.2-2.3,2.9-4,5.1-5.3c2.2-1.3,4.6-1.9,7.2-1.9
		c2.4,0,4.4,0.5,6,1.4s2.8,2.3,3.5,4l1-5.2L609.9,661.6L609.9,661.6z M599,682.4c1.6-1,2.9-2.4,3.9-4.2c0.9-1.8,1.4-3.8,1.4-6
		c0-2.4-0.7-4.3-2.2-5.7c-1.4-1.4-3.5-2.1-6.1-2.1c-2.1,0-3.9,0.5-5.6,1.5c-1.6,1-2.9,2.4-3.9,4.2c-0.9,1.8-1.4,3.8-1.4,6
		c0,2.4,0.7,4.3,2.2,5.7s3.5,2,6.1,2C595.5,683.9,597.4,683.4,599,682.4z"/>
	<path d="M619.7,679.1c-0.1,0.8-0.2,1.3-0.2,1.6c0,2.2,1.2,3.3,3.6,3.3c1.4,0,2.7-0.4,3.9-1.3l0.8,2.6c-1.4,1.1-3.3,1.6-5.6,1.6
		c-1.9,0-3.4-0.5-4.4-1.5c-1.1-1-1.6-2.4-1.6-4.2c0-0.7,0.1-1.3,0.2-1.9l2.9-14.7h-4.4l0.5-2.9h4.5l1.1-5.5h3.4l-1.1,5.5h7.6
		l-0.6,2.9h-7.6L619.7,679.1z"/>
	<path d="M638.6,661.6h3.4l-4.9,25h-3.4L638.6,661.6z M645.1,651.8h4.6l-8.3,5.9h-3.5L645.1,651.8z"/>
	<path d="M674.2,661.6l-5,25H666l0.8-3.9c-1.2,1.3-2.6,2.4-4.3,3.1c-1.6,0.7-3.5,1.1-5.5,1.1c-2.1,0-4-0.4-5.7-1.3
		c-1.6-0.9-2.9-2.1-3.9-3.7c-0.9-1.6-1.4-3.5-1.4-5.6c0-2.8,0.6-5.4,1.8-7.6c1.2-2.3,2.9-4,5.1-5.3c2.2-1.3,4.6-1.9,7.2-1.9
		c2.4,0,4.4,0.5,6,1.4s2.8,2.3,3.5,4l1-5.2L674.2,661.6L674.2,661.6z M663.3,682.4c1.6-1,2.9-2.4,3.9-4.2c0.9-1.8,1.4-3.8,1.4-6
		c0-2.4-0.7-4.3-2.2-5.7c-1.4-1.4-3.5-2.1-6.1-2.1c-2.1,0-3.9,0.5-5.6,1.5c-1.6,1-2.9,2.4-3.9,4.2c-0.9,1.8-1.4,3.8-1.4,6
		c0,2.4,0.7,4.3,2.2,5.7s3.5,2,6.1,2C659.8,683.9,661.7,683.4,663.3,682.4z"/>
	<path d="M696.3,685.6c-1.7-0.9-3.1-2.1-4-3.7c-0.9-1.6-1.4-3.5-1.4-5.6c0-2.8,0.6-5.4,1.9-7.6c1.2-2.3,3-4,5.2-5.3s4.7-1.9,7.5-1.9
		c2.3,0,4.3,0.4,6,1.3c1.7,0.8,3,2.1,3.9,3.7l-2.9,1.7c-1.4-2.5-3.9-3.7-7.3-3.7c-2.1,0-3.9,0.5-5.6,1.5c-1.7,1-3,2.4-3.9,4.2
		s-1.4,3.8-1.4,6c0,2.4,0.7,4.3,2.2,5.7s3.5,2,6.2,2c1.6,0,3.1-0.3,4.5-0.9c1.4-0.6,2.5-1.5,3.4-2.7l2.4,1.9
		c-1.1,1.5-2.6,2.7-4.4,3.5c-1.9,0.8-3.9,1.3-6,1.3C700.1,686.9,698,686.4,696.3,685.6z"/>
	<path d="M722.6,685.6c-1.7-0.9-3-2.1-4-3.7c-0.9-1.6-1.4-3.5-1.4-5.6c0-2.8,0.6-5.4,1.9-7.6c1.2-2.3,3-4,5.2-5.3s4.7-1.9,7.4-1.9
		c3.5,0,6.3,1,8.3,2.9s3.1,4.5,3.1,7.7c0,2.8-0.6,5.4-1.9,7.6c-1.2,2.3-3,4-5.2,5.3s-4.7,1.9-7.4,1.9
		C726.3,686.9,724.3,686.4,722.6,685.6z M734.4,682.4c1.6-1,2.9-2.4,3.9-4.2c0.9-1.8,1.4-3.8,1.4-6c0-2.4-0.7-4.3-2.2-5.7
		c-1.4-1.4-3.5-2.1-6.1-2.1c-2.1,0-3.9,0.5-5.6,1.5c-1.6,1-2.9,2.4-3.9,4.2c-0.9,1.8-1.4,3.8-1.4,6c0,2.4,0.7,4.3,2.2,5.7
		s3.5,2,6.1,2C730.9,683.9,732.7,683.4,734.4,682.4z"/>
	<path d="M771,663.6c1.6,1.4,2.4,3.4,2.4,6c0,0.9-0.1,1.8-0.3,2.9l-2.9,14.2h-3.4l2.9-14.3c0.2-0.9,0.2-1.6,0.2-2.3
		c0-1.8-0.5-3.2-1.6-4.2s-2.7-1.4-4.8-1.4c-2.7,0-4.9,0.7-6.7,2.2c-1.7,1.5-2.9,3.7-3.5,6.5l-2.7,13.4h-3.4l4.9-25h3.2l-0.8,4
		c2.4-2.8,5.6-4.2,9.8-4.2C767.2,661.4,769.4,662.2,771,663.6z"/>
	<path d="M834,663.6c1.5,1.4,2.3,3.4,2.3,5.9c0,0.7-0.1,1.7-0.3,2.9l-2.9,14.2h-3.4l2.9-14.3c0.2-0.7,0.2-1.5,0.2-2.3
		c0-1.8-0.5-3.1-1.6-4.1c-1-1-2.6-1.4-4.6-1.4c-2.5,0-4.6,0.7-6.3,2.1c-1.7,1.4-2.8,3.5-3.4,6.3l-2.8,13.8h-3.4l2.9-14.3
		c0.2-0.9,0.2-1.6,0.2-2.3c0-1.8-0.5-3.2-1.5-4.2s-2.6-1.4-4.6-1.4c-2.6,0-4.7,0.7-6.4,2.2s-2.8,3.7-3.4,6.5l-2.7,13.4h-3.4l4.9-25
		h3.2l-0.8,4c2.3-2.8,5.4-4.2,9.5-4.2c2.1,0,3.8,0.4,5.3,1.3c1.4,0.9,2.4,2.1,2.9,3.7c1.2-1.6,2.7-2.9,4.5-3.7s3.8-1.3,6-1.3
		C830.2,661.4,832.4,662.2,834,663.6z"/>
	<path d="M847.3,661.6h3.4l-4.9,25h-3.4L847.3,661.6z M848.7,655.5c-0.4-0.4-0.6-1-0.6-1.6c0-0.7,0.2-1.3,0.7-1.8s1.1-0.7,1.9-0.7
		c0.7,0,1.2,0.2,1.7,0.6c0.4,0.4,0.7,0.9,0.7,1.5c0,0.8-0.3,1.4-0.8,1.9s-1.1,0.8-1.9,0.8C849.7,656.2,849.2,655.9,848.7,655.5z"/>
	<path d="M872.7,685.6c-1.7-0.9-3.1-2.1-4-3.7c-0.9-1.6-1.4-3.5-1.4-5.6c0-2.8,0.6-5.4,1.9-7.6c1.2-2.3,3-4,5.2-5.3s4.7-1.9,7.5-1.9
		c2.3,0,4.3,0.4,6,1.3c1.7,0.8,3,2.1,3.9,3.7l-2.9,1.7c-1.4-2.5-3.9-3.7-7.3-3.7c-2.1,0-3.9,0.5-5.6,1.5c-1.7,1-3,2.4-3.9,4.2
		s-1.4,3.8-1.4,6c0,2.4,0.7,4.3,2.2,5.7s3.5,2,6.2,2c1.6,0,3.1-0.3,4.5-0.9c1.4-0.6,2.5-1.5,3.4-2.7l2.4,1.9
		c-1.1,1.5-2.6,2.7-4.4,3.5c-1.9,0.8-3.9,1.3-6,1.3C876.5,686.9,874.5,686.4,872.7,685.6z"/>
	<path d="M921.7,661.6l-5,25h-3.2l0.8-3.9c-1.2,1.3-2.6,2.4-4.3,3.1c-1.6,0.7-3.5,1.1-5.5,1.1c-2.1,0-4-0.4-5.7-1.3
		c-1.6-0.9-2.9-2.1-3.9-3.7c-0.9-1.6-1.4-3.5-1.4-5.6c0-2.8,0.6-5.4,1.8-7.6c1.2-2.3,2.9-4,5.1-5.3c2.2-1.3,4.6-1.9,7.2-1.9
		c2.4,0,4.4,0.5,6,1.4s2.8,2.3,3.5,4l1-5.2L921.7,661.6L921.7,661.6z M910.8,682.4c1.6-1,2.9-2.4,3.9-4.2c0.9-1.8,1.4-3.8,1.4-6
		c0-2.4-0.7-4.3-2.2-5.7c-1.4-1.4-3.5-2.1-6.1-2.1c-2.1,0-3.9,0.5-5.6,1.5c-1.6,1-2.9,2.4-3.9,4.2c-0.9,1.8-1.4,3.8-1.4,6
		c0,2.4,0.7,4.3,2.2,5.7s3.5,2,6.1,2C907.3,683.9,909.2,683.4,910.8,682.4z"/>
	<path d="M927.7,686c-1.8-0.6-3.2-1.3-4.2-2.2l1.6-2.7c1,0.8,2.2,1.5,3.8,2s3.2,0.8,4.9,0.8c2.4,0,4.2-0.4,5.5-1.2s1.9-1.9,1.9-3.3
		c0-0.8-0.3-1.4-0.8-1.9s-1.2-0.8-1.9-1.1c-0.8-0.3-1.9-0.5-3.3-0.9c-1.7-0.4-3.2-0.8-4.2-1.1c-1.1-0.4-2-1-2.8-1.8s-1.1-2-1.1-3.4
		c0-2.4,1-4.3,2.9-5.7c2-1.4,4.6-2.1,7.9-2.1c1.6,0,3.2,0.2,4.7,0.6c1.5,0.4,2.8,1,3.7,1.7l-1.4,2.7c-1-0.7-2.1-1.2-3.4-1.6
		c-1.3-0.4-2.6-0.5-4-0.5c-2.3,0-4.1,0.4-5.3,1.2c-1.3,0.8-1.9,1.9-1.9,3.3c0,0.8,0.3,1.5,0.8,2s1.2,0.9,2,1.1
		c0.8,0.3,1.9,0.5,3.3,0.8c1.7,0.4,3.1,0.8,4.2,1.1c1.1,0.4,2,1,2.7,1.8c0.8,0.8,1.1,1.9,1.1,3.3c0,2.4-1,4.3-3,5.7
		s-4.7,2.1-8.1,2.1C931.4,686.9,929.5,686.6,927.7,686z"/>
	<path d="M954.5,685.6c-1.7-0.9-3-2.1-4-3.7c-0.9-1.6-1.4-3.5-1.4-5.6c0-2.8,0.6-5.4,1.9-7.6c1.2-2.3,3-4,5.2-5.3s4.7-1.9,7.4-1.9
		c3.5,0,6.3,1,8.3,2.9s3.1,4.5,3.1,7.7c0,2.8-0.6,5.4-1.9,7.6c-1.2,2.3-3,4-5.2,5.3s-4.7,1.9-7.4,1.9
		C958.2,686.9,956.2,686.4,954.5,685.6z M966.3,682.4c1.6-1,2.9-2.4,3.9-4.2c0.9-1.8,1.4-3.8,1.4-6c0-2.4-0.7-4.3-2.2-5.7
		c-1.4-1.4-3.5-2.1-6.1-2.1c-2.1,0-3.9,0.5-5.6,1.5c-1.6,1-2.9,2.4-3.9,4.2c-0.9,1.8-1.4,3.8-1.4,6c0,2.4,0.7,4.3,2.2,5.7
		s3.5,2,6.1,2C962.8,683.9,964.6,683.4,966.3,682.4z"/>
	<path d="M977.4,686.2c-0.5-0.5-0.7-1.1-0.7-1.8c0-0.8,0.3-1.4,0.8-1.9s1.1-0.8,1.9-0.8c0.7,0,1.3,0.2,1.7,0.7s0.7,1.1,0.7,1.8
		c0,0.8-0.3,1.4-0.8,1.9s-1.1,0.8-1.8,0.8C978.5,686.9,977.9,686.6,977.4,686.2z"/>
</g>
<g>
	<path d="M508.6,254.5v-5H528v4.4l-8,9c3,0.1,5.4,1.1,7.1,2.9c1.7,1.8,2.6,4,2.6,6.5c0,3.4-1.1,6.1-3.4,8c-2.3,1.9-5.3,2.9-8.9,2.9
		s-7.1-1.2-10.6-3.5l2.4-4.5c2.7,1.9,5.6,2.9,8.6,2.9c1.9,0,3.5-0.5,4.8-1.4s1.9-2.2,1.9-3.9c0-1.7-0.7-3-2.1-4.1
		c-1.4-1-3.3-1.5-5.8-1.5c-1.2,0-2.4,0.2-3.6,0.5v-4.3l7.7-8.9H508.6z"/>
	<path d="M534.6,259.1v-9.6H558v5l-14.1,28.2h-6.2l13.7-28.1h-11.8v4.5H534.6z"/>
	<path d="M596.7,282.8h-4.8v-3.4c-2.1,2.5-4.9,3.8-8.4,3.8c-2.6,0-4.8-0.7-6.5-2.2s-2.6-3.5-2.6-6s0.9-4.3,2.8-5.6s4.3-1.9,7.5-1.9
		h6.9v-1c0-3.4-1.9-5-5.6-5c-2.3,0-4.8,0.9-7.3,2.6l-2.4-3.3c3.1-2.4,6.6-3.7,10.5-3.7c3,0,5.4,0.8,7.3,2.3c1.9,1.5,2.8,3.9,2.8,7.1
		v16.3H596.7z M591.4,273.4v-2.1h-6c-3.8,0-5.8,1.2-5.8,3.6c0,1.2,0.5,2.2,1.4,2.8c1,0.6,2.3,1,4,1s3.2-0.5,4.4-1.4
		C590.7,276.3,591.4,275,591.4,273.4z"/>
	<path d="M609.4,269.1v13.7h-5.3v-25.3h5.3v4.6c0.9-1.6,2-2.8,3.5-3.7c1.5-0.9,3.1-1.3,4.9-1.3c2.9,0,5.2,0.9,6.9,2.6
		c1.8,1.7,2.6,4.3,2.6,7.6v15.5H622v-13.9c0-4.7-1.9-7-5.8-7c-1.8,0-3.4,0.6-4.8,1.8C610.1,265,609.4,266.7,609.4,269.1z
		 M619.5,254.4c-0.8,0-2-0.4-3.4-1.1c-1.5-0.7-2.4-1.1-2.8-1.1c-1,0-1.6,0.7-1.6,2.1h-3.5c0-1.8,0.4-3.3,1.1-4.5
		c0.7-1.1,1.8-1.7,3.1-1.7c0.9,0,2,0.4,3.6,1.1c1.5,0.7,2.5,1.1,3,1.1c1,0,1.4-0.7,1.4-2.1h3.6C623.8,252.3,622.3,254.4,619.5,254.4
		z"/>
	<path d="M656,279.4c-2.5,2.5-5.7,3.8-9.5,3.8s-7-1.3-9.5-3.8s-3.8-5.6-3.8-9.2s1.3-6.7,3.8-9.2s5.7-3.8,9.5-3.8s7,1.3,9.5,3.8
		s3.8,5.6,3.8,9.2S658.5,276.9,656,279.4z M640.7,276.1c1.5,1.5,3.4,2.3,5.7,2.3s4.2-0.8,5.7-2.3s2.3-3.5,2.3-6c0-2.4-0.8-4.4-2.3-6
		c-1.5-1.5-3.4-2.3-5.7-2.3s-4.2,0.8-5.7,2.3s-2.3,3.5-2.3,6C638.5,272.6,639.2,274.6,640.7,276.1z"/>
	<path d="M683.8,275.2c0,2.4-0.9,4.3-2.6,5.8c-1.7,1.4-4,2.2-6.7,2.2c-1.8,0-3.7-0.3-5.7-1s-3.7-1.6-5.3-2.8l2.6-4.1
		c2.9,2.2,5.8,3.3,8.6,3.3c1.2,0,2.2-0.3,2.9-0.8c0.7-0.6,1-1.3,1-2.1c0-1.3-1.7-2.4-5-3.4c-0.3-0.1-0.4-0.2-0.6-0.2
		c-5.3-1.4-7.9-3.8-7.9-7.1c0-2.3,0.9-4.2,2.7-5.6s4.2-2.1,7.1-2.1c2.9,0,5.7,0.9,8.3,2.6l-2,3.9c-2.1-1.4-4.3-2-6.7-2
		c-1.3,0-2.3,0.2-3.1,0.7s-1.2,1.1-1.2,2.1c0,0.8,0.4,1.4,1.2,1.8c0.6,0.3,1.4,0.6,2.4,0.8c1,0.3,1.9,0.5,2.7,0.8s1.6,0.5,2.3,0.9
		c0.7,0.3,1.5,0.8,2.4,1.3C683,271,683.8,272.8,683.8,275.2z"/>
</g>
<g class="st6">
	<path d="M124.3,568c2.3,3.9,3.5,8.5,3.5,13.8c0,7.9-2.5,14.2-7.5,19s-11.5,7.1-19.4,7.1s-14.3-2.4-19.4-7.1c-5-4.8-7.5-11.1-7.5-19
		c0-3.5,0.5-7.1,1.4-10.6s3.1-8.9,6.5-16.1l14.3-30.4h28.5l-10.2,34.4C118.7,561.2,122,564.1,124.3,568z M183.4,568
		c2.3,3.9,3.5,8.5,3.5,13.8c0,7.9-2.5,14.2-7.5,19s-11.5,7.1-19.4,7.1s-14.3-2.4-19.4-7.1c-5-4.8-7.5-11.1-7.5-19
		c0-3.5,0.5-7.1,1.4-10.6s3.1-8.9,6.5-16.1l14.3-30.4h28.5l-10.2,34.4C177.8,561.2,181.1,564.1,183.4,568z"/>
</g>
<g>
	<rect x="506.9" y="324.8" width="200.3" height="9"/>
</g>
<g>
	<g>
		<g>
			<g>
				<g>
					<path class="st7" d="M582.1,1019.2h-84.3c-24.7,0-46.7-21.1-46.7-46.7s21.1-46.7,46.7-46.7h84.3c25.6,0,46.7,21.1,46.7,46.7
						S606.9,1019.2,582.1,1019.2z M497.9,934c-21.1,0-38.5,17.4-38.5,38.5c0,21.1,17.4,38.5,38.5,38.5h84.3
						c21.1,0,38.5-17.4,38.5-38.5S603.2,934,582.1,934C582.1,934,497.9,934,497.9,934z"/>
				</g>
			</g>
			<circle class="st7" cx="498.8" cy="972.5" r="28.4"/>
			<circle class="st8" cx="581.2" cy="972.5" r="28.4"/>
		</g>
	</g>
</g>
</svg>
