<?xml version="1.0" encoding="utf-8"?>
<!-- Generator: Adobe Illustrator 22.0.0, SVG Export Plug-In . SVG Version: 6.00 Build 0)  -->
<svg version="1.1" id="Capa_1" xmlns="http://www.w3.org/2000/svg" xmlns:xlink="http://www.w3.org/1999/xlink" x="0px" y="0px"
	 viewBox="0 0 1080 1080" style="enable-background:new 0 0 1080 1080;" xml:space="preserve">
<style type="text/css">
	.st0{fill:#F2F2F2;}
	.st1{fill:#727272;}
	.st2{opacity:0.25;}
	.st3{fill:#EDEDED;}
	.st4{fill:#FFE212;}
	.st5{fill:#333333;}
	.st6{enable-background:new    ;}
	.st7{opacity:0.19;}
	.st8{fill:#3DE200;}
	.st9{fill:#22263D;}
</style>
<path class="st0" d="M1046,1080H34c-18.8,0-34-15.2-34-34V34C0,15.2,15.2,0,34,0h1012c18.8,0,34,15.2,34,34v1012
	C1080,1064.8,1064.8,1080,1046,1080z"/>
<path class="st1" d="M372.9,419.5H115.4c-19.4,0-35.1-15.7-35.1-35.1V126.9c0-19.4,15.7-35.1,35.1-35.1h257.5
	c19.4,0,35.1,15.7,35.1,35.1v257.5C408,403.8,392.3,419.5,372.9,419.5z"/>
<g class="st2">
	<path class="st3" d="M244.1,305.6c-39,0-70.6-31.7-70.6-70.6v-26c0-39,31.7-70.6,70.6-70.6s70.6,31.7,70.6,70.6v26
		C314.8,273.9,283.1,305.6,244.1,305.6z M244.1,148.3c-33.4,0-60.6,27.2-60.6,60.6v26c0,33.4,27.2,60.6,60.6,60.6
		s60.6-27.2,60.6-60.6v-26C304.8,175.5,277.6,148.3,244.1,148.3z"/>
</g>
<g class="st2">
	<path class="st3" d="M357.9,378.1c-2.8,0-5-2.2-5-5v-6.8c0-20.3-16.5-36.9-36.9-36.9H172.3c-20.3,0-36.9,16.5-36.9,36.9v6.8
		c0,2.8-2.2,5-5,5s-5-2.2-5-5v-6.8c0-25.8,21-46.9,46.9-46.9H316c25.8,0,46.9,21,46.9,46.9v6.8C362.9,375.8,360.6,378.1,357.9,378.1
		z"/>
</g>
<g>
	<g>
		<polygon class="st4" points="522.2,373.9 529.5,388.8 545.8,391.1 534,402.7 536.8,419 522.2,411.3 507.5,419 510.3,402.7 
			498.5,391.1 514.8,388.8 		"/>
		<path class="st5" d="M536.8,420c-0.2,0-0.3,0-0.5-0.1l-14.2-7.4l-14.2,7.4c-0.3,0.2-0.7,0.1-1.1-0.1c-0.3-0.2-0.5-0.6-0.4-1
			l2.7-15.8l-11.5-11.2c-0.3-0.3-0.4-0.7-0.3-1c0.1-0.4,0.4-0.6,0.8-0.7l15.8-2.3l7.1-14.4c0.3-0.7,1.5-0.7,1.8,0l7.1,14.4l15.8,2.3
			c0.4,0.1,0.7,0.3,0.8,0.7c0.1,0.4,0,0.8-0.3,1L535.1,403l2.7,15.8c0.1,0.4-0.1,0.8-0.4,1C537.2,419.9,537,420,536.8,420z
			 M500.6,391.8L511,402c0.2,0.2,0.3,0.6,0.3,0.9l-2.5,14.3l12.8-6.8c0.3-0.2,0.6-0.2,0.9,0l12.8,6.8l-2.5-14.3
			c-0.1-0.3,0.1-0.7,0.3-0.9l10.4-10.1l-14.4-2.1c-0.3,0-0.6-0.3-0.8-0.5l-6.4-13l-6.4,13c-0.1,0.3-0.4,0.5-0.8,0.5L500.6,391.8z"/>
	</g>
	<g>
		<polygon class="st4" points="588.7,373.9 596.1,388.8 612.4,391.1 600.6,402.7 603.4,419 588.7,411.3 574.1,419 576.9,402.7 
			565.1,391.1 581.4,388.8 		"/>
		<path class="st5" d="M603.4,420c-0.2,0-0.3,0-0.5-0.1l-14.2-7.4l-14.2,7.4c-0.3,0.2-0.7,0.1-1.1-0.1c-0.3-0.2-0.5-0.6-0.4-1
			l2.7-15.8l-11.5-11.2c-0.3-0.3-0.4-0.7-0.3-1c0.1-0.4,0.4-0.6,0.8-0.7l15.8-2.3l7.1-14.4c0.3-0.7,1.5-0.7,1.8,0l7.1,14.4l15.8,2.3
			c0.4,0.1,0.7,0.3,0.8,0.7c0.1,0.4,0,0.8-0.3,1L601.7,403l2.7,15.8c0.1,0.4-0.1,0.8-0.4,1C603.8,419.9,603.6,420,603.4,420z
			 M588.7,410.3c0.2,0,0.3,0,0.5,0.1l12.8,6.8l-2.5-14.3c-0.1-0.3,0.1-0.7,0.3-0.9l10.4-10.1l-14.4-2.1c-0.3,0-0.6-0.3-0.8-0.5
			l-6.4-13l-6.4,13c-0.1,0.3-0.4,0.5-0.8,0.5l-14.4,2.1l10.4,10.1c0.2,0.2,0.3,0.6,0.3,0.9l-2.5,14.3l12.8-6.8
			C588.4,410.3,588.6,410.3,588.7,410.3z"/>
	</g>
	<g>
		<polygon class="st4" points="655.3,373.9 662.6,388.8 679,391.1 667.2,402.7 670,419 655.3,411.3 640.7,419 643.5,402.7 
			631.6,391.1 648,388.8 		"/>
		<path class="st5" d="M670,420c-0.2,0-0.3,0-0.5-0.1l-14.2-7.4l-14.2,7.4c-0.3,0.2-0.7,0.1-1.1-0.1c-0.3-0.2-0.5-0.6-0.4-1
			l2.7-15.8l-11.5-11.2c-0.3-0.3-0.4-0.7-0.3-1c0.1-0.4,0.4-0.6,0.8-0.7l15.8-2.3l7.1-14.4c0.3-0.7,1.5-0.7,1.8,0l7.1,14.4l15.8,2.3
			c0.4,0.1,0.7,0.3,0.8,0.7c0.1,0.4,0,0.8-0.3,1L668.2,403l2.7,15.8c0.1,0.4-0.1,0.8-0.4,1C670.4,419.9,670.2,420,670,420z
			 M655.3,410.3c0.2,0,0.3,0,0.5,0.1l12.8,6.8l-2.5-14.3c-0.1-0.3,0.1-0.7,0.3-0.9l10.4-10.1l-14.4-2.1c-0.3,0-0.6-0.3-0.8-0.5
			l-6.4-13l-6.4,13c-0.1,0.3-0.4,0.5-0.8,0.5l-14.4,2.1L644,402c0.2,0.2,0.3,0.6,0.3,0.9l-2.5,14.3l12.8-6.8
			C655,410.3,655.2,410.3,655.3,410.3z"/>
	</g>
	<g>
		<polygon class="st4" points="721.9,373.9 729.2,388.8 745.6,391.1 733.7,402.7 736.5,419 721.9,411.3 707.3,419 710.1,402.7 
			698.2,391.1 714.6,388.8 		"/>
		<path class="st5" d="M736.5,420c-0.2,0-0.3,0-0.5-0.1l-14.2-7.4l-14.2,7.4c-0.3,0.2-0.7,0.1-1.1-0.1c-0.3-0.2-0.5-0.6-0.4-1
			L709,403l-11.5-11.2c-0.3-0.3-0.4-0.7-0.3-1c0.1-0.4,0.4-0.6,0.8-0.7l15.8-2.3l7.1-14.4c0.3-0.7,1.5-0.7,1.8,0l7.1,14.4l15.8,2.3
			c0.4,0.1,0.7,0.3,0.8,0.7c0.1,0.4,0,0.8-0.3,1L734.8,403l2.7,15.8c0.1,0.4-0.1,0.8-0.4,1C737,419.9,736.8,420,736.5,420z
			 M721.9,410.3c0.2,0,0.3,0,0.5,0.1l12.8,6.8l-2.5-14.3c-0.1-0.3,0.1-0.7,0.3-0.9l10.4-10.1l-14.4-2.1c-0.3,0-0.6-0.3-0.8-0.5
			l-6.4-13l-6.4,13c-0.1,0.3-0.4,0.5-0.8,0.5l-14.4,2.1l10.4,10.1c0.2,0.2,0.3,0.6,0.3,0.9l-2.5,14.3l12.8-6.8
			C721.6,410.3,721.7,410.3,721.9,410.3z"/>
	</g>
	<g>
		<polygon class="st4" points="788.5,373.9 795.8,388.8 812.2,391.1 800.3,402.7 803.1,419 788.5,411.3 773.9,419 776.7,402.7 
			764.8,391.1 781.2,388.8 		"/>
		<path class="st5" d="M803.1,420c-0.2,0-0.3,0-0.5-0.1l-14.2-7.4l-14.2,7.4c-0.3,0.2-0.7,0.1-1.1-0.1c-0.3-0.2-0.5-0.6-0.4-1
			l2.7-15.8l-11.5-11.2c-0.3-0.3-0.4-0.7-0.3-1c0.1-0.4,0.4-0.6,0.8-0.7l15.8-2.3l7.1-14.4c0.3-0.7,1.5-0.7,1.8,0l7.1,14.4l15.8,2.3
			c0.4,0.1,0.7,0.3,0.8,0.7c0.1,0.4,0,0.8-0.3,1L801.4,403l2.7,15.8c0.1,0.4-0.1,0.8-0.4,1C803.5,419.9,803.3,420,803.1,420z
			 M788.5,410.3c0.2,0,0.3,0,0.5,0.1l12.8,6.8l-2.5-14.3c-0.1-0.3,0.1-0.7,0.3-0.9l10.4-10.1l-14.4-2.1c-0.3,0-0.6-0.3-0.8-0.5
			l-6.4-13l-6.4,13c-0.1,0.3-0.4,0.5-0.8,0.5l-14.4,2.1l10.4,10.1c0.2,0.2,0.3,0.6,0.3,0.9l-2.5,14.3l12.8-6.8
			C788.2,410.3,788.3,410.3,788.5,410.3z"/>
	</g>
</g>
<g class="st6">
	<path d="M104.9,596.6l-2.1,10.7h15.6l-0.5,2.7h-15.6l-2.2,11.2h18.1l-0.6,2.8H96.3l6-30.1h20.6l-0.6,2.8H104.9z"/>
	<path d="M130.8,592.1h3.1l-6.4,31.9h-3.1L130.8,592.1z"/>
	<path d="M152.1,617.2c-0.1,0.7-0.2,1.2-0.2,1.4c0,2,1.1,3,3.3,3c1.3,0,2.5-0.4,3.5-1.2l0.7,2.3c-1.3,1-3,1.5-5,1.5
		c-1.7,0-3-0.5-4-1.4c-1-0.9-1.5-2.2-1.5-3.8c0-0.6,0.1-1.2,0.2-1.8l2.6-13.3h-4l0.5-2.6h4l1-4.9h3.1l-1,4.9h6.9l-0.5,2.6h-6.9
		L152.1,617.2z"/>
	<path d="M175.1,602.3c1.5-0.7,3.4-1.1,5.5-1.1l-0.6,3l-0.9,0c-2.4,0-4.4,0.7-6,2.1c-1.6,1.4-2.6,3.5-3.2,6.3l-2.3,11.5h-3.1
		l4.5-22.6h2.9l-0.8,4.1C172.3,604,173.6,603,175.1,602.3z"/>
	<path d="M206.5,601.4L202,624h-2.9l0.7-3.6c-1.1,1.2-2.4,2.1-3.9,2.8c-1.5,0.7-3.1,1-4.9,1c-1.9,0-3.6-0.4-5.1-1.2
		c-1.5-0.8-2.7-1.9-3.5-3.3c-0.8-1.4-1.2-3.1-1.2-5.1c0-2.6,0.6-4.8,1.7-6.9c1.1-2,2.6-3.6,4.6-4.8c1.9-1.2,4.1-1.7,6.5-1.7
		c2.1,0,4,0.4,5.4,1.3s2.5,2.1,3.2,3.6l0.9-4.7H206.5z M196.7,620.1c1.5-0.9,2.7-2.2,3.5-3.8c0.8-1.6,1.3-3.4,1.3-5.4
		c0-2.2-0.7-3.9-2-5.2c-1.3-1.2-3.1-1.9-5.5-1.9c-1.9,0-3.5,0.5-5,1.4c-1.5,0.9-2.7,2.2-3.5,3.8c-0.8,1.6-1.3,3.4-1.3,5.4
		c0,2.2,0.7,3.9,2,5.2c1.3,1.2,3.1,1.8,5.5,1.8C193.5,621.5,195.2,621,196.7,620.1z"/>
	<path d="M215.4,617.2c-0.1,0.7-0.2,1.2-0.2,1.4c0,2,1.1,3,3.3,3c1.3,0,2.5-0.4,3.5-1.2l0.7,2.3c-1.3,1-3,1.5-5,1.5
		c-1.7,0-3-0.5-4-1.4c-1-0.9-1.5-2.2-1.5-3.8c0-0.6,0.1-1.2,0.2-1.8L215,604h-4l0.5-2.6h4l1-4.9h3.1l-1,4.9h6.9l-0.5,2.6h-6.9
		L215.4,617.2z"/>
	<path d="M231.8,623c-1.5-0.8-2.7-1.9-3.6-3.4c-0.8-1.4-1.3-3.1-1.3-5.1c0-2.6,0.6-4.8,1.7-6.9c1.1-2,2.7-3.6,4.7-4.8
		c2-1.2,4.2-1.7,6.7-1.7c3.2,0,5.7,0.9,7.5,2.6c1.8,1.7,2.8,4,2.8,7c0,2.6-0.6,4.9-1.7,6.9c-1.1,2-2.7,3.7-4.7,4.8
		c-2,1.2-4.2,1.7-6.7,1.7C235.2,624.2,233.4,623.8,231.8,623z M242.5,620.1c1.5-0.9,2.7-2.2,3.5-3.8c0.8-1.6,1.3-3.4,1.3-5.4
		c0-2.2-0.7-3.9-2-5.2c-1.3-1.2-3.1-1.9-5.5-1.9c-1.9,0-3.5,0.5-5,1.4c-1.5,0.9-2.7,2.2-3.5,3.8c-0.8,1.6-1.3,3.4-1.3,5.4
		c0,2.2,0.7,3.9,2,5.2c1.3,1.2,3.1,1.8,5.5,1.8C239.3,621.5,241,621,242.5,620.1z"/>
	<path d="M286.9,603.2c1.4,1.3,2.1,3.1,2.1,5.4c0,0.8-0.1,1.7-0.3,2.6l-2.6,12.9h-3.1l2.6-12.9c0.1-0.8,0.2-1.5,0.2-2.1
		c0-1.6-0.5-2.9-1.5-3.8c-1-0.9-2.4-1.3-4.4-1.3c-2.4,0-4.4,0.7-6,2c-1.6,1.3-2.6,3.3-3.2,5.9l-2.4,12.1h-3.1l6.4-31.9h3.1
		l-2.5,12.7c2.1-2.4,5-3.6,8.6-3.6C283.5,601.2,285.5,601.9,286.9,603.2z"/>
	<path d="M319.7,601.4l-4.5,22.6h-2.9l0.7-3.6c-1.1,1.2-2.4,2.1-3.9,2.8c-1.5,0.7-3.1,1-4.9,1c-1.9,0-3.6-0.4-5.1-1.2
		c-1.5-0.8-2.7-1.9-3.5-3.3c-0.8-1.4-1.2-3.1-1.2-5.1c0-2.6,0.6-4.8,1.7-6.9c1.1-2,2.6-3.6,4.6-4.8c1.9-1.2,4.1-1.7,6.5-1.7
		c2.1,0,4,0.4,5.4,1.3s2.5,2.1,3.2,3.6l0.9-4.7H319.7z M309.9,620.1c1.5-0.9,2.7-2.2,3.5-3.8c0.8-1.6,1.3-3.4,1.3-5.4
		c0-2.2-0.7-3.9-2-5.2c-1.3-1.2-3.1-1.9-5.5-1.9c-1.9,0-3.5,0.5-5,1.4c-1.5,0.9-2.7,2.2-3.5,3.8c-0.8,1.6-1.3,3.4-1.3,5.4
		c0,2.2,0.7,3.9,2,5.2c1.3,1.2,3.1,1.8,5.5,1.8C306.7,621.5,308.4,621,309.9,620.1z"/>
	<path d="M336.4,623.4c-1.6-0.5-2.9-1.2-3.8-2l1.5-2.4c0.9,0.7,2,1.3,3.4,1.8c1.4,0.5,2.9,0.7,4.4,0.7c2.1,0,3.8-0.4,5-1.1
		c1.2-0.7,1.7-1.7,1.7-3c0-0.7-0.2-1.3-0.7-1.7s-1.1-0.8-1.7-1c-0.7-0.2-1.7-0.5-3-0.8c-1.6-0.3-2.9-0.7-3.8-1s-1.8-0.9-2.5-1.6
		s-1-1.8-1-3.1c0-2.1,0.9-3.9,2.7-5.1c1.8-1.3,4.2-1.9,7.1-1.9c1.5,0,2.9,0.2,4.3,0.6c1.4,0.4,2.5,0.9,3.4,1.5l-1.3,2.5
		c-0.9-0.6-1.9-1.1-3-1.4c-1.2-0.3-2.4-0.5-3.6-0.5c-2.1,0-3.7,0.4-4.8,1.1c-1.1,0.7-1.7,1.7-1.7,3c0,0.7,0.2,1.3,0.7,1.8
		c0.5,0.5,1.1,0.8,1.8,1c0.7,0.2,1.7,0.5,3,0.7c1.5,0.3,2.8,0.7,3.8,1c1,0.3,1.8,0.9,2.5,1.6s1,1.7,1,3c0,2.2-0.9,3.9-2.7,5.2
		c-1.8,1.2-4.3,1.9-7.3,1.9C339.8,624.2,338.1,624,336.4,623.4z"/>
	<path d="M360.5,601.4h3.1l-4.5,22.6H356L360.5,601.4z M361.9,595.8c-0.4-0.4-0.6-0.9-0.6-1.4c0-0.7,0.2-1.2,0.7-1.7
		c0.4-0.4,1-0.7,1.7-0.7c0.6,0,1.1,0.2,1.5,0.6c0.4,0.4,0.6,0.8,0.6,1.4c0,0.7-0.2,1.3-0.7,1.7c-0.5,0.5-1,0.7-1.7,0.7
		C362.7,596.4,362.3,596.2,361.9,595.8z"/>
	<path d="M394.6,592.1l-6.4,31.9h-2.9l0.7-3.6c-1.1,1.2-2.4,2.1-3.9,2.8c-1.5,0.7-3.1,1-4.9,1c-1.9,0-3.6-0.4-5.1-1.2
		c-1.5-0.8-2.7-1.9-3.5-3.3c-0.8-1.4-1.2-3.1-1.2-5.1c0-2.6,0.6-4.8,1.7-6.9c1.1-2,2.6-3.6,4.6-4.8c1.9-1.2,4.1-1.7,6.5-1.7
		c2.1,0,3.9,0.4,5.4,1.3c1.5,0.8,2.5,2.1,3.2,3.6l2.8-14H394.6z M382.9,620.1c1.5-0.9,2.7-2.2,3.5-3.8c0.8-1.6,1.3-3.4,1.3-5.4
		c0-2.2-0.7-3.9-2-5.2c-1.3-1.2-3.1-1.9-5.5-1.9c-1.9,0-3.5,0.5-5,1.4c-1.5,0.9-2.7,2.2-3.5,3.8c-0.8,1.6-1.3,3.4-1.3,5.4
		c0,2.2,0.7,3.9,2,5.2c1.3,1.2,3.1,1.8,5.5,1.8C379.7,621.5,381.4,621,382.9,620.1z"/>
	<path d="M401.4,623c-1.5-0.8-2.7-1.9-3.6-3.4c-0.8-1.4-1.3-3.1-1.3-5.1c0-2.6,0.6-4.8,1.7-6.9c1.1-2,2.7-3.6,4.7-4.8
		c2-1.2,4.2-1.7,6.7-1.7c3.2,0,5.7,0.9,7.5,2.6c1.8,1.7,2.8,4,2.8,7c0,2.6-0.6,4.9-1.7,6.9c-1.1,2-2.7,3.7-4.7,4.8
		c-2,1.2-4.2,1.7-6.7,1.7C404.8,624.2,403,623.8,401.4,623z M412.1,620.1c1.5-0.9,2.7-2.2,3.5-3.8c0.8-1.6,1.3-3.4,1.3-5.4
		c0-2.2-0.7-3.9-2-5.2c-1.3-1.2-3.1-1.9-5.5-1.9c-1.9,0-3.5,0.5-5,1.4c-1.5,0.9-2.7,2.2-3.5,3.8c-0.8,1.6-1.3,3.4-1.3,5.4
		c0,2.2,0.7,3.9,2,5.2c1.3,1.2,3.1,1.8,5.5,1.8C408.9,621.5,410.6,621,412.1,620.1z"/>
	<path d="M460.4,601.4l-4,19.9c-0.8,4-2.2,6.8-4.4,8.6c-2.1,1.8-5.1,2.7-8.8,2.7c-2.1,0-4-0.3-5.7-0.9c-1.7-0.6-3.1-1.4-4.3-2.5
		l1.8-2.3c0.9,0.9,2.1,1.7,3.6,2.2c1.5,0.5,3.1,0.8,4.9,0.8c2.8,0,5-0.7,6.6-2c1.6-1.3,2.6-3.4,3.2-6.1l0.5-2.5
		c-1.1,1.2-2.4,2.2-3.9,2.9c-1.5,0.7-3.2,1-5.1,1c-3,0-5.4-0.8-7.2-2.5c-1.8-1.6-2.7-3.9-2.7-6.7c0-2.4,0.6-4.6,1.7-6.5
		s2.6-3.5,4.6-4.6c2-1.1,4.2-1.7,6.6-1.7c2.1,0,4,0.4,5.5,1.3c1.5,0.9,2.6,2.2,3.3,3.8l0.9-5H460.4z M450.5,619.1
		c1.5-0.9,2.7-2,3.5-3.6c0.8-1.5,1.3-3.2,1.3-5.1c0-2.1-0.7-3.7-2-4.8c-1.3-1.2-3.2-1.7-5.5-1.7c-1.9,0-3.6,0.4-5.1,1.3
		c-1.5,0.9-2.7,2-3.5,3.6c-0.8,1.5-1.3,3.2-1.3,5.1c0,2.1,0.7,3.7,2,4.8c1.3,1.2,3.2,1.7,5.5,1.7C447.3,620.4,449,620,450.5,619.1z"
		/>
	<path d="M467.3,613.5c0,0.2,0,0.5,0,0.9c0,2.3,0.7,4,2,5.2c1.3,1.2,3.2,1.8,5.8,1.8c1.5,0,2.9-0.3,4.2-0.8c1.3-0.5,2.4-1.2,3.2-2.1
		l1.4,2.2c-1.1,1.1-2.4,1.9-4,2.5s-3.3,0.9-5.1,0.9c-3.3,0-5.8-0.9-7.7-2.6c-1.9-1.7-2.8-4.1-2.8-7.1c0-2.5,0.5-4.8,1.6-6.8
		c1.1-2,2.6-3.6,4.5-4.8c1.9-1.2,4-1.7,6.4-1.7c3,0,5.4,0.9,7.2,2.6c1.8,1.7,2.7,4,2.7,7c0,0.8-0.1,1.7-0.3,2.8H467.3z M470.9,605.8
		c-1.6,1.3-2.7,3.2-3.3,5.5h16.1c0-0.2,0-0.5,0-0.8c0-2.1-0.6-3.8-1.9-4.9s-3-1.7-5.2-1.7C474.4,603.8,472.5,604.5,470.9,605.8z"/>
	<path d="M511.9,603.2c1.4,1.3,2.1,3.1,2.1,5.4c0,0.8-0.1,1.7-0.3,2.6l-2.6,12.9h-3.1l2.6-12.9c0.1-0.8,0.2-1.5,0.2-2.1
		c0-1.6-0.5-2.9-1.5-3.8c-1-0.9-2.4-1.3-4.4-1.3c-2.4,0-4.4,0.7-6,2c-1.6,1.3-2.6,3.3-3.2,5.9l-2.4,12.1h-3.1l4.5-22.6h2.9l-0.7,3.6
		c2.1-2.5,5.1-3.8,8.9-3.8C508.5,601.2,510.5,601.9,511.9,603.2z"/>
	<path d="M524,601.4h3.1l-4.5,22.6h-3.1L524,601.4z M525.4,595.8c-0.4-0.4-0.6-0.9-0.6-1.4c0-0.7,0.2-1.2,0.7-1.7
		c0.4-0.4,1-0.7,1.7-0.7c0.6,0,1.1,0.2,1.5,0.6c0.4,0.4,0.6,0.8,0.6,1.4c0,0.7-0.2,1.3-0.7,1.7c-0.5,0.5-1,0.7-1.7,0.7
		C526.3,596.4,525.8,596.2,525.4,595.8z"/>
	<path d="M556.3,601.4l-4.5,22.6h-2.9l0.7-3.6c-1.1,1.2-2.4,2.1-3.9,2.8c-1.5,0.7-3.1,1-4.9,1c-1.9,0-3.6-0.4-5.1-1.2
		c-1.5-0.8-2.7-1.9-3.5-3.3c-0.8-1.4-1.2-3.1-1.2-5.1c0-2.6,0.6-4.8,1.7-6.9c1.1-2,2.6-3.6,4.6-4.8c1.9-1.2,4.1-1.7,6.5-1.7
		c2.1,0,4,0.4,5.4,1.3s2.5,2.1,3.2,3.6l0.9-4.7H556.3z M546.4,620.1c1.5-0.9,2.7-2.2,3.5-3.8c0.8-1.6,1.3-3.4,1.3-5.4
		c0-2.2-0.7-3.9-2-5.2c-1.3-1.2-3.1-1.9-5.5-1.9c-1.9,0-3.5,0.5-5,1.4c-1.5,0.9-2.7,2.2-3.5,3.8c-0.8,1.6-1.3,3.4-1.3,5.4
		c0,2.2,0.7,3.9,2,5.2c1.3,1.2,3.1,1.8,5.5,1.8C543.3,621.5,544.9,621,546.4,620.1z"/>
	<path d="M566.6,592.1h3.1l-6.4,31.9h-3.1L566.6,592.1z"/>
	<path d="M606.6,601.4l-16.5,25.5c-1.4,2.1-2.7,3.6-3.9,4.4c-1.2,0.8-2.6,1.2-4.3,1.2c-1.1,0-2.1-0.2-3.1-0.5s-1.7-0.9-2.3-1.5
		l1.6-2.2c1,1.1,2.4,1.6,4,1.6c1,0,1.9-0.3,2.7-0.8c0.8-0.5,1.6-1.5,2.5-2.8l1.6-2.4l-5.6-22.5h3.1l4.7,19.3l12.3-19.3H606.6z"/>
	<path d="M628.1,602.3c1.5-0.7,3.4-1.1,5.5-1.1l-0.6,3l-0.9,0c-2.4,0-4.4,0.7-6,2.1s-2.6,3.5-3.2,6.3l-2.3,11.5h-3.1l4.5-22.6h2.9
		l-0.8,4.1C625.3,604,626.6,603,628.1,602.3z"/>
	<path d="M637.2,613.5c0,0.2,0,0.5,0,0.9c0,2.3,0.7,4,2,5.2c1.3,1.2,3.2,1.8,5.8,1.8c1.5,0,2.9-0.3,4.2-0.8s2.4-1.2,3.2-2.1l1.4,2.2
		c-1.1,1.1-2.4,1.9-4,2.5s-3.3,0.9-5.1,0.9c-3.3,0-5.8-0.9-7.7-2.6c-1.9-1.7-2.8-4.1-2.8-7.1c0-2.5,0.5-4.8,1.6-6.8
		c1.1-2,2.6-3.6,4.5-4.8c1.9-1.2,4-1.7,6.4-1.7c3,0,5.4,0.9,7.2,2.6c1.8,1.7,2.7,4,2.7,7c0,0.8-0.1,1.7-0.3,2.8H637.2z M640.8,605.8
		c-1.6,1.3-2.7,3.2-3.3,5.5h16.1c0-0.2,0-0.5,0-0.8c0-2.1-0.6-3.8-1.9-4.9s-3-1.7-5.2-1.7C644.3,603.8,642.4,604.5,640.8,605.8z"/>
	<path d="M685.5,601.4L681,624h-2.9l0.7-3.6c-1.1,1.2-2.4,2.1-3.9,2.8c-1.5,0.7-3.1,1-4.9,1c-1.9,0-3.6-0.4-5.1-1.2
		c-1.5-0.8-2.7-1.9-3.5-3.3s-1.2-3.1-1.2-5.1c0-2.6,0.6-4.8,1.7-6.9c1.1-2,2.6-3.6,4.6-4.8c1.9-1.2,4.1-1.7,6.5-1.7
		c2.1,0,4,0.4,5.4,1.3s2.5,2.1,3.2,3.6l0.9-4.7H685.5z M675.7,620.1c1.5-0.9,2.7-2.2,3.5-3.8c0.8-1.6,1.3-3.4,1.3-5.4
		c0-2.2-0.7-3.9-2-5.2c-1.3-1.2-3.1-1.9-5.5-1.9c-1.9,0-3.5,0.5-5,1.4c-1.5,0.9-2.7,2.2-3.5,3.8c-0.8,1.6-1.3,3.4-1.3,5.4
		c0,2.2,0.7,3.9,2,5.2c1.3,1.2,3.1,1.8,5.5,1.8C672.5,621.5,674.2,621,675.7,620.1z"/>
	<path d="M695.9,592.1h3.1l-6.4,31.9h-3.1L695.9,592.1z"/>
	<path d="M739.1,603.1c1.4,1.3,2.1,3.1,2.1,5.4c0,0.7-0.1,1.5-0.3,2.7l-2.6,12.9h-3.1l2.6-12.9c0.1-0.7,0.2-1.4,0.2-2.1
		c0-1.6-0.5-2.8-1.4-3.7c-0.9-0.9-2.3-1.3-4.2-1.3c-2.3,0-4.2,0.6-5.7,1.9c-1.5,1.3-2.5,3.2-3.1,5.7l-2.5,12.5h-3.1l2.6-12.9
		c0.1-0.8,0.2-1.5,0.2-2.1c0-1.6-0.5-2.9-1.4-3.8c-0.9-0.9-2.3-1.3-4.2-1.3c-2.3,0-4.2,0.7-5.8,2c-1.5,1.3-2.6,3.3-3.1,5.9
		l-2.4,12.1h-3.1l4.5-22.6h2.9l-0.7,3.6c2.1-2.5,4.9-3.8,8.6-3.8c1.9,0,3.5,0.4,4.8,1.2c1.3,0.8,2.2,1.9,2.6,3.4
		c1.1-1.5,2.5-2.6,4.1-3.4s3.4-1.1,5.4-1.1C735.8,601.2,737.8,601.8,739.1,603.1z"/>
	<path d="M749.6,613.5c0,0.2,0,0.5,0,0.9c0,2.3,0.7,4,2,5.2c1.3,1.2,3.2,1.8,5.8,1.8c1.5,0,2.9-0.3,4.2-0.8s2.4-1.2,3.2-2.1l1.4,2.2
		c-1.1,1.1-2.4,1.9-4,2.5s-3.3,0.9-5.1,0.9c-3.3,0-5.8-0.9-7.7-2.6c-1.9-1.7-2.8-4.1-2.8-7.1c0-2.5,0.5-4.8,1.6-6.8
		c1.1-2,2.6-3.6,4.5-4.8c1.9-1.2,4-1.7,6.4-1.7c3,0,5.4,0.9,7.2,2.6c1.8,1.7,2.7,4,2.7,7c0,0.8-0.1,1.7-0.3,2.8H749.6z M753.2,605.8
		c-1.6,1.3-2.7,3.2-3.3,5.5H766c0-0.2,0-0.5,0-0.8c0-2.1-0.6-3.8-1.9-4.9s-3-1.7-5.2-1.7C756.7,603.8,754.8,604.5,753.2,605.8z"/>
	<path d="M794.2,603.2c1.4,1.3,2.1,3.1,2.1,5.4c0,0.8-0.1,1.7-0.3,2.6l-2.6,12.9h-3.1l2.6-12.9c0.1-0.8,0.2-1.5,0.2-2.1
		c0-1.6-0.5-2.9-1.5-3.8c-1-0.9-2.4-1.3-4.4-1.3c-2.4,0-4.4,0.7-6,2c-1.6,1.3-2.6,3.3-3.2,5.9l-2.4,12.1h-3.1l4.5-22.6h2.9l-0.7,3.6
		c2.2-2.5,5.1-3.8,8.9-3.8C790.8,601.2,792.8,601.9,794.2,603.2z"/>
	<path d="M806.8,617.2c-0.1,0.7-0.2,1.2-0.2,1.4c0,2,1.1,3,3.3,3c1.3,0,2.5-0.4,3.5-1.2l0.7,2.3c-1.3,1-3,1.5-5,1.5
		c-1.7,0-3-0.5-4-1.4c-1-0.9-1.5-2.2-1.5-3.8c0-0.6,0.1-1.2,0.2-1.8l2.6-13.3h-4l0.5-2.6h4l1-4.9h3.1l-1,4.9h6.9l-0.5,2.6h-6.9
		L806.8,617.2z"/>
	<path d="M821.3,613.5c0,0.2,0,0.5,0,0.9c0,2.3,0.7,4,2,5.2c1.3,1.2,3.2,1.8,5.8,1.8c1.5,0,2.9-0.3,4.2-0.8s2.4-1.2,3.2-2.1l1.4,2.2
		c-1.1,1.1-2.4,1.9-4,2.5s-3.3,0.9-5.1,0.9c-3.3,0-5.8-0.9-7.7-2.6c-1.9-1.7-2.8-4.1-2.8-7.1c0-2.5,0.5-4.8,1.6-6.8
		c1.1-2,2.6-3.6,4.5-4.8c1.9-1.2,4-1.7,6.4-1.7c3,0,5.4,0.9,7.2,2.6c1.8,1.7,2.7,4,2.7,7c0,0.8-0.1,1.7-0.3,2.8H821.3z M824.9,605.8
		c-1.6,1.3-2.7,3.2-3.3,5.5h16.1c0-0.2,0-0.5,0-0.8c0-2.1-0.6-3.8-1.9-4.9s-3-1.7-5.2-1.7C828.4,603.8,826.5,604.5,824.9,605.8z"/>
	<path d="M893.8,603.1c1.4,1.3,2.1,3.1,2.1,5.4c0,0.7-0.1,1.5-0.3,2.7L893,624H890l2.6-12.9c0.1-0.7,0.2-1.4,0.2-2.1
		c0-1.6-0.5-2.8-1.4-3.7c-0.9-0.9-2.3-1.3-4.2-1.3c-2.3,0-4.2,0.6-5.7,1.9c-1.5,1.3-2.5,3.2-3.1,5.7l-2.5,12.5h-3.1l2.6-12.9
		c0.1-0.8,0.2-1.5,0.2-2.1c0-1.6-0.5-2.9-1.4-3.8c-0.9-0.9-2.3-1.3-4.2-1.3c-2.3,0-4.2,0.7-5.8,2c-1.5,1.3-2.6,3.3-3.1,5.9
		l-2.4,12.1h-3.1l4.5-22.6h2.9l-0.7,3.6c2.1-2.5,4.9-3.8,8.6-3.8c1.9,0,3.5,0.4,4.8,1.2c1.3,0.8,2.2,1.9,2.6,3.4
		c1.1-1.5,2.5-2.6,4.1-3.4s3.4-1.1,5.4-1.1C890.5,601.2,892.4,601.8,893.8,603.1z"/>
	<path d="M904.3,613.5c0,0.2,0,0.5,0,0.9c0,2.3,0.7,4,2,5.2c1.3,1.2,3.2,1.8,5.8,1.8c1.5,0,2.9-0.3,4.2-0.8s2.4-1.2,3.2-2.1l1.4,2.2
		c-1.1,1.1-2.4,1.9-4,2.5s-3.3,0.9-5.1,0.9c-3.3,0-5.8-0.9-7.7-2.6c-1.9-1.7-2.8-4.1-2.8-7.1c0-2.5,0.5-4.8,1.6-6.8
		c1.1-2,2.6-3.6,4.5-4.8c1.9-1.2,4-1.7,6.4-1.7c3,0,5.4,0.9,7.2,2.6c1.8,1.7,2.7,4,2.7,7c0,0.8-0.1,1.7-0.3,2.8H904.3z M907.8,605.8
		c-1.6,1.3-2.7,3.2-3.3,5.5h16.1c0-0.2,0-0.5,0-0.8c0-2.1-0.6-3.8-1.9-4.9s-3-1.7-5.2-1.7C911.4,603.8,909.5,604.5,907.8,605.8z"/>
</g>
<g class="st6">
	<path d="M117.1,654.8c1.4,1.3,2.1,3.1,2.1,5.4c0,0.8-0.1,1.7-0.3,2.6l-2.6,12.9h-3.1l2.6-12.9c0.1-0.8,0.2-1.5,0.2-2.1
		c0-1.6-0.5-2.9-1.5-3.8c-1-0.9-2.4-1.3-4.4-1.3c-2.4,0-4.4,0.7-6,2c-1.6,1.3-2.6,3.3-3.2,5.9l-2.4,12.1h-3.1l6.4-31.9h3.1
		l-2.5,12.7c2.1-2.4,5-3.6,8.6-3.6C113.7,652.8,115.7,653.5,117.1,654.8z"/>
	<path d="M150,653l-4.5,22.6h-2.9l0.7-3.6c-1.1,1.2-2.4,2.1-3.9,2.8c-1.5,0.7-3.1,1-4.9,1c-1.9,0-3.6-0.4-5.1-1.2
		c-1.5-0.8-2.7-1.9-3.5-3.3c-0.8-1.4-1.2-3.1-1.2-5.1c0-2.6,0.6-4.8,1.7-6.9c1.1-2,2.6-3.6,4.6-4.8c1.9-1.2,4.1-1.7,6.5-1.7
		c2.1,0,4,0.4,5.4,1.3s2.5,2.1,3.2,3.6l0.9-4.7H150z M140.1,671.7c1.5-0.9,2.7-2.2,3.5-3.8c0.8-1.6,1.3-3.4,1.3-5.4
		c0-2.2-0.7-3.9-2-5.2c-1.3-1.2-3.1-1.9-5.5-1.9c-1.9,0-3.5,0.5-5,1.4c-1.5,0.9-2.7,2.2-3.5,3.8c-0.8,1.6-1.3,3.4-1.3,5.4
		c0,2.2,0.7,3.9,2,5.2c1.3,1.2,3.1,1.8,5.5,1.8C137,673.1,138.6,672.6,140.1,671.7z"/>
	<path d="M175.5,654.8c1.4,1.3,2.1,3.1,2.1,5.4c0,0.8-0.1,1.7-0.3,2.6l-2.6,12.9h-3.1l2.6-12.9c0.1-0.8,0.2-1.5,0.2-2.1
		c0-1.6-0.5-2.9-1.5-3.8c-1-0.9-2.4-1.3-4.4-1.3c-2.4,0-4.4,0.7-6,2c-1.6,1.3-2.6,3.3-3.2,5.9l-2.4,12.1H154l4.5-22.6h2.9l-0.7,3.6
		c2.1-2.5,5.1-3.8,8.9-3.8C172.1,652.8,174,653.5,175.5,654.8z"/>
	<path d="M219.5,653l-4.5,22.6h-2.9l0.7-3.6c-1.1,1.2-2.4,2.1-3.9,2.8c-1.5,0.7-3.1,1-4.9,1c-1.9,0-3.6-0.4-5.1-1.2
		c-1.5-0.8-2.7-1.9-3.5-3.3c-0.8-1.4-1.2-3.1-1.2-5.1c0-2.6,0.6-4.8,1.7-6.9c1.1-2,2.6-3.6,4.6-4.8c1.9-1.2,4.1-1.7,6.5-1.7
		c2.1,0,4,0.4,5.4,1.3s2.5,2.1,3.2,3.6l0.9-4.7H219.5z M209.7,671.7c1.5-0.9,2.7-2.2,3.5-3.8c0.8-1.6,1.3-3.4,1.3-5.4
		c0-2.2-0.7-3.9-2-5.2c-1.3-1.2-3.1-1.9-5.5-1.9c-1.9,0-3.5,0.5-5,1.4c-1.5,0.9-2.7,2.2-3.5,3.8c-0.8,1.6-1.3,3.4-1.3,5.4
		c0,2.2,0.7,3.9,2,5.2c1.3,1.2,3.1,1.8,5.5,1.8C206.5,673.1,208.2,672.6,209.7,671.7z"/>
	<path d="M247,653l-16.5,25.5c-1.4,2.1-2.7,3.6-3.9,4.4c-1.2,0.8-2.6,1.2-4.3,1.2c-1.1,0-2.1-0.2-3.1-0.5c-1-0.4-1.7-0.9-2.3-1.5
		l1.6-2.2c1,1.1,2.4,1.6,4,1.6c1,0,1.9-0.3,2.7-0.8c0.8-0.5,1.6-1.5,2.5-2.8l1.6-2.4l-5.6-22.5h3.1l4.7,19.3l12.3-19.3H247z"/>
	<path d="M271.7,653l-4.5,22.6h-2.9l0.7-3.6c-2.1,2.6-5,3.8-8.7,3.8c-2.5,0-4.5-0.7-5.9-2s-2.1-3.1-2.1-5.4c0-0.8,0.1-1.6,0.3-2.5
		l2.6-12.9h3.1l-2.6,12.9c-0.1,0.8-0.2,1.5-0.2,2c0,1.7,0.5,2.9,1.4,3.8c1,0.9,2.4,1.3,4.3,1.3c2.4,0,4.4-0.7,6-2
		c1.6-1.3,2.6-3.3,3.2-5.9l2.4-12.2H271.7z"/>
	<path d="M302.8,643.7l-6.4,31.9h-2.9l0.7-3.6c-1.1,1.2-2.4,2.1-3.9,2.8c-1.5,0.7-3.1,1-4.9,1c-1.9,0-3.6-0.4-5.1-1.2
		c-1.5-0.8-2.7-1.9-3.5-3.3c-0.8-1.4-1.2-3.1-1.2-5.1c0-2.6,0.6-4.8,1.7-6.9c1.1-2,2.6-3.6,4.6-4.8c1.9-1.2,4.1-1.7,6.5-1.7
		c2.1,0,3.9,0.4,5.4,1.3c1.5,0.8,2.5,2.1,3.2,3.6l2.8-14H302.8z M291.1,671.7c1.5-0.9,2.7-2.2,3.5-3.8c0.8-1.6,1.3-3.4,1.3-5.4
		c0-2.2-0.7-3.9-2-5.2c-1.3-1.2-3.1-1.9-5.5-1.9c-1.9,0-3.5,0.5-5,1.4c-1.5,0.9-2.7,2.2-3.5,3.8c-0.8,1.6-1.3,3.4-1.3,5.4
		c0,2.2,0.7,3.9,2,5.2c1.3,1.2,3.1,1.8,5.5,1.8C287.9,673.1,289.6,672.6,291.1,671.7z"/>
	<path d="M330.1,653l-4.5,22.6h-2.9l0.7-3.6c-1.1,1.2-2.4,2.1-3.9,2.8c-1.5,0.7-3.1,1-4.9,1c-1.9,0-3.6-0.4-5.1-1.2
		c-1.5-0.8-2.7-1.9-3.5-3.3c-0.8-1.4-1.2-3.1-1.2-5.1c0-2.6,0.6-4.8,1.7-6.9c1.1-2,2.6-3.6,4.6-4.8c1.9-1.2,4.1-1.7,6.5-1.7
		c2.1,0,4,0.4,5.4,1.3s2.5,2.1,3.2,3.6l0.9-4.7H330.1z M320.2,671.7c1.5-0.9,2.7-2.2,3.5-3.8c0.8-1.6,1.3-3.4,1.3-5.4
		c0-2.2-0.7-3.9-2-5.2c-1.3-1.2-3.1-1.9-5.5-1.9c-1.9,0-3.5,0.5-5,1.4c-1.5,0.9-2.7,2.2-3.5,3.8c-0.8,1.6-1.3,3.4-1.3,5.4
		c0,2.2,0.7,3.9,2,5.2c1.3,1.2,3.1,1.8,5.5,1.8C317.1,673.1,318.7,672.6,320.2,671.7z"/>
	<path d="M361.1,643.7l-6.4,31.9h-2.9l0.7-3.6c-1.1,1.2-2.4,2.1-3.9,2.8c-1.5,0.7-3.1,1-4.9,1c-1.9,0-3.6-0.4-5.1-1.2
		c-1.5-0.8-2.7-1.9-3.5-3.3c-0.8-1.4-1.2-3.1-1.2-5.1c0-2.6,0.6-4.8,1.7-6.9c1.1-2,2.6-3.6,4.6-4.8c1.9-1.2,4.1-1.7,6.5-1.7
		c2.1,0,3.9,0.4,5.4,1.3c1.5,0.8,2.5,2.1,3.2,3.6l2.8-14H361.1z M349.4,671.7c1.5-0.9,2.7-2.2,3.5-3.8c0.8-1.6,1.3-3.4,1.3-5.4
		c0-2.2-0.7-3.9-2-5.2c-1.3-1.2-3.1-1.9-5.5-1.9c-1.9,0-3.5,0.5-5,1.4c-1.5,0.9-2.7,2.2-3.5,3.8c-0.8,1.6-1.3,3.4-1.3,5.4
		c0,2.2,0.7,3.9,2,5.2c1.3,1.2,3.1,1.8,5.5,1.8C346.2,673.1,347.9,672.6,349.4,671.7z"/>
	<path d="M367.9,674.6c-1.5-0.8-2.7-1.9-3.6-3.4c-0.8-1.4-1.3-3.1-1.3-5.1c0-2.6,0.6-4.8,1.7-6.9c1.1-2,2.7-3.6,4.7-4.8
		c2-1.2,4.2-1.7,6.7-1.7c3.2,0,5.7,0.9,7.5,2.6c1.8,1.7,2.8,4,2.8,7c0,2.6-0.6,4.9-1.7,6.9c-1.1,2.1-2.7,3.7-4.7,4.8
		c-2,1.2-4.2,1.7-6.7,1.7C371.2,675.8,369.4,675.4,367.9,674.6z M378.5,671.7c1.5-0.9,2.7-2.2,3.5-3.8c0.8-1.6,1.3-3.4,1.3-5.4
		c0-2.2-0.7-3.9-2-5.2c-1.3-1.2-3.1-1.9-5.5-1.9c-1.9,0-3.5,0.5-5,1.4c-1.5,0.9-2.7,2.2-3.5,3.8c-0.8,1.6-1.3,3.4-1.3,5.4
		c0,2.2,0.7,3.9,2,5.2c1.3,1.2,3.1,1.8,5.5,1.8C375.4,673.1,377,672.6,378.5,671.7z"/>
	<path d="M439.5,654.7c1.4,1.3,2.1,3.1,2.1,5.4c0,0.7-0.1,1.5-0.3,2.7l-2.6,12.9h-3.1l2.6-12.9c0.1-0.7,0.2-1.4,0.2-2.1
		c0-1.6-0.5-2.8-1.4-3.7s-2.3-1.3-4.2-1.3c-2.3,0-4.2,0.6-5.7,1.9c-1.5,1.3-2.5,3.2-3.1,5.7l-2.5,12.5h-3.1l2.6-12.9
		c0.1-0.8,0.2-1.5,0.2-2.1c0-1.6-0.5-2.9-1.4-3.8c-0.9-0.9-2.3-1.3-4.2-1.3c-2.3,0-4.2,0.7-5.8,2c-1.5,1.3-2.6,3.3-3.1,5.9
		l-2.4,12.1h-3.1l4.5-22.6h2.9l-0.7,3.6c2.1-2.5,4.9-3.8,8.6-3.8c1.9,0,3.5,0.4,4.8,1.2c1.3,0.8,2.2,1.9,2.6,3.4
		c1.1-1.5,2.5-2.6,4.1-3.4c1.6-0.8,3.4-1.1,5.4-1.1C436.2,652.8,438.1,653.4,439.5,654.7z"/>
	<path d="M472,653l-4.5,22.6h-2.9l0.7-3.6c-2.1,2.6-5,3.8-8.7,3.8c-2.5,0-4.5-0.7-5.9-2s-2.1-3.1-2.1-5.4c0-0.8,0.1-1.6,0.3-2.5
		l2.6-12.9h3.1l-2.6,12.9c-0.1,0.8-0.2,1.5-0.2,2c0,1.7,0.5,2.9,1.4,3.8c1,0.9,2.4,1.3,4.3,1.3c2.4,0,4.4-0.7,6-2
		c1.6-1.3,2.6-3.3,3.2-5.9l2.4-12.2H472z"/>
	<path d="M480.7,674.6c-1.6-0.8-2.8-1.9-3.6-3.4c-0.8-1.4-1.3-3.1-1.3-5.1c0-2.6,0.6-4.8,1.7-6.9c1.1-2,2.7-3.6,4.7-4.8
		c2-1.2,4.3-1.7,6.8-1.7c2.1,0,3.9,0.4,5.4,1.1c1.5,0.8,2.7,1.9,3.5,3.4l-2.6,1.5c-1.3-2.2-3.5-3.4-6.6-3.4c-1.9,0-3.5,0.5-5.1,1.4
		c-1.5,0.9-2.7,2.2-3.5,3.8c-0.8,1.6-1.3,3.4-1.3,5.5c0,2.2,0.7,3.9,2,5.2c1.3,1.2,3.2,1.8,5.6,1.8c1.5,0,2.8-0.3,4.1-0.8
		c1.2-0.6,2.3-1.4,3.1-2.4l2.2,1.7c-1,1.3-2.3,2.4-4,3.2c-1.7,0.8-3.5,1.1-5.4,1.1C484.1,675.8,482.3,675.4,480.7,674.6z"/>
	<path d="M521.4,654.8c1.4,1.3,2.1,3.1,2.1,5.4c0,0.8-0.1,1.7-0.3,2.6l-2.6,12.9h-3.1l2.6-12.9c0.1-0.8,0.2-1.5,0.2-2.1
		c0-1.6-0.5-2.9-1.5-3.8c-1-0.9-2.4-1.3-4.4-1.3c-2.4,0-4.4,0.7-6,2c-1.6,1.3-2.6,3.3-3.2,5.9l-2.4,12.1h-3.1l6.4-31.9h3.1
		l-2.5,12.7c2.1-2.4,5-3.6,8.6-3.6C517.9,652.8,519.9,653.5,521.4,654.8z"/>
	<path d="M533.7,674.6c-1.5-0.8-2.7-1.9-3.6-3.4c-0.8-1.4-1.3-3.1-1.3-5.1c0-2.6,0.6-4.8,1.7-6.9c1.1-2,2.7-3.6,4.7-4.8
		c2-1.2,4.2-1.7,6.7-1.7c3.2,0,5.7,0.9,7.5,2.6c1.8,1.7,2.8,4,2.8,7c0,2.6-0.6,4.9-1.7,6.9c-1.1,2.1-2.7,3.7-4.7,4.8
		c-2,1.2-4.2,1.7-6.7,1.7C537.1,675.8,535.3,675.4,533.7,674.6z M544.4,671.7c1.5-0.9,2.7-2.2,3.5-3.8c0.8-1.6,1.3-3.4,1.3-5.4
		c0-2.2-0.7-3.9-2-5.2c-1.3-1.2-3.1-1.9-5.5-1.9c-1.9,0-3.5,0.5-5,1.4c-1.5,0.9-2.7,2.2-3.5,3.8c-0.8,1.6-1.3,3.4-1.3,5.4
		c0,2.2,0.7,3.9,2,5.2c1.3,1.2,3.1,1.8,5.5,1.8C541.2,673.1,542.9,672.6,544.4,671.7z"/>
	<path d="M557.8,671.8c0.4,0.4,0.6,1,0.6,1.6c0,0.4-0.1,0.7-0.2,1c-0.1,0.3-0.3,0.7-0.6,1.2l-3.3,6.2h-2.1l2.8-6.3
		c-0.4-0.2-0.7-0.4-0.9-0.8c-0.2-0.4-0.3-0.8-0.3-1.2c0-0.7,0.2-1.3,0.7-1.7c0.5-0.5,1-0.7,1.7-0.7
		C556.8,671.1,557.4,671.3,557.8,671.8z"/>
	<path d="M582.1,643.7h3.1l-6.4,31.9h-3.1L582.1,643.7z"/>
	<path d="M592,674.6c-1.5-0.8-2.7-1.9-3.6-3.4s-1.3-3.1-1.3-5.1c0-2.6,0.6-4.8,1.7-6.9c1.1-2,2.7-3.6,4.7-4.8c2-1.2,4.2-1.7,6.7-1.7
		c3.2,0,5.7,0.9,7.5,2.6c1.8,1.7,2.8,4,2.8,7c0,2.6-0.6,4.9-1.7,6.9c-1.1,2.1-2.7,3.7-4.7,4.8c-2,1.2-4.2,1.7-6.7,1.7
		C595.3,675.8,593.5,675.4,592,674.6z M602.6,671.7c1.5-0.9,2.7-2.2,3.5-3.8s1.3-3.4,1.3-5.4c0-2.2-0.7-3.9-2-5.2
		c-1.3-1.2-3.1-1.9-5.5-1.9c-1.9,0-3.5,0.5-5,1.4c-1.5,0.9-2.7,2.2-3.5,3.8c-0.8,1.6-1.3,3.4-1.3,5.4c0,2.2,0.7,3.9,2,5.2
		c1.3,1.2,3.1,1.8,5.5,1.8C599.5,673.1,601.1,672.6,602.6,671.7z"/>
	<path d="M615.7,675c-1.6-0.5-2.9-1.2-3.8-2l1.5-2.4c0.9,0.7,2,1.3,3.4,1.8c1.4,0.5,2.9,0.7,4.4,0.7c2.2,0,3.8-0.4,5-1.1
		c1.2-0.7,1.7-1.7,1.7-3c0-0.7-0.2-1.3-0.7-1.7c-0.5-0.4-1.1-0.8-1.7-1c-0.7-0.2-1.7-0.5-3-0.8c-1.6-0.3-2.9-0.7-3.8-1
		s-1.8-0.9-2.5-1.6c-0.7-0.7-1-1.8-1-3.1c0-2.2,0.9-3.9,2.7-5.1c1.8-1.3,4.2-1.9,7.1-1.9c1.5,0,2.9,0.2,4.3,0.6
		c1.4,0.4,2.5,0.9,3.4,1.5l-1.3,2.5c-0.9-0.6-1.9-1.1-3-1.4c-1.2-0.3-2.4-0.5-3.6-0.5c-2.1,0-3.7,0.4-4.8,1.1s-1.7,1.7-1.7,3
		c0,0.7,0.2,1.3,0.7,1.8c0.5,0.5,1.1,0.8,1.8,1s1.7,0.5,3,0.7c1.5,0.3,2.8,0.7,3.8,1c1,0.3,1.8,0.9,2.5,1.6c0.7,0.7,1,1.8,1,3
		c0,2.2-0.9,3.9-2.7,5.2c-1.8,1.2-4.3,1.9-7.3,1.9C619.1,675.8,617.3,675.6,615.7,675z"/>
	<path d="M657,653.9c1.5-0.7,3.4-1.1,5.5-1.1l-0.6,3l-0.9,0c-2.4,0-4.4,0.7-6,2.1c-1.6,1.4-2.6,3.5-3.2,6.3l-2.3,11.5h-3.1l4.5-22.6
		h2.9l-0.8,4.1C654.2,655.6,655.5,654.6,657,653.9z"/>
	<path d="M666.1,665.1c0,0.2,0,0.5,0,0.9c0,2.3,0.7,4,2,5.2c1.3,1.2,3.2,1.8,5.8,1.8c1.5,0,2.9-0.3,4.2-0.8s2.4-1.2,3.2-2.1l1.4,2.2
		c-1.1,1.1-2.4,1.9-4,2.5s-3.3,0.9-5.1,0.9c-3.3,0-5.8-0.9-7.7-2.6s-2.8-4.1-2.8-7.1c0-2.5,0.5-4.8,1.6-6.8c1.1-2,2.6-3.6,4.5-4.8
		c1.9-1.2,4-1.7,6.4-1.7c3,0,5.4,0.9,7.2,2.6c1.8,1.7,2.7,4.1,2.7,7c0,0.8-0.1,1.7-0.3,2.8H666.1z M669.7,657.4
		c-1.6,1.3-2.7,3.2-3.3,5.5h16.1c0-0.2,0-0.5,0-0.8c0-2.1-0.6-3.8-1.9-4.9c-1.3-1.2-3-1.7-5.2-1.7
		C673.2,655.4,671.3,656.1,669.7,657.4z"/>
	<path d="M693.9,674.6c-1.6-0.8-2.8-1.9-3.6-3.4s-1.3-3.1-1.3-5.1c0-2.6,0.6-4.8,1.7-6.9c1.1-2,2.7-3.6,4.7-4.8
		c2-1.2,4.3-1.7,6.8-1.7c2.1,0,3.9,0.4,5.4,1.1s2.7,1.9,3.5,3.4l-2.6,1.5c-1.3-2.2-3.5-3.4-6.6-3.4c-1.9,0-3.5,0.5-5.1,1.4
		s-2.7,2.2-3.5,3.8c-0.8,1.6-1.3,3.4-1.3,5.5c0,2.2,0.7,3.9,2,5.2c1.3,1.2,3.2,1.8,5.6,1.8c1.5,0,2.8-0.3,4.1-0.8
		c1.2-0.6,2.3-1.4,3.1-2.4l2.2,1.7c-1,1.3-2.3,2.4-4,3.2c-1.7,0.8-3.5,1.1-5.4,1.1C697.4,675.8,695.5,675.4,693.9,674.6z"/>
	<path d="M717.7,674.6c-1.5-0.8-2.7-1.9-3.6-3.4s-1.3-3.1-1.3-5.1c0-2.6,0.6-4.8,1.7-6.9c1.1-2,2.7-3.6,4.7-4.8
		c2-1.2,4.2-1.7,6.7-1.7c3.2,0,5.7,0.9,7.5,2.6c1.8,1.7,2.8,4,2.8,7c0,2.6-0.6,4.9-1.7,6.9c-1.1,2.1-2.7,3.7-4.7,4.8
		c-2,1.2-4.2,1.7-6.7,1.7C721.1,675.8,719.3,675.4,717.7,674.6z M728.4,671.7c1.5-0.9,2.7-2.2,3.5-3.8c0.8-1.6,1.3-3.4,1.3-5.4
		c0-2.2-0.7-3.9-2-5.2c-1.3-1.2-3.1-1.9-5.5-1.9c-1.9,0-3.5,0.5-5,1.4c-1.5,0.9-2.7,2.2-3.5,3.8c-0.8,1.6-1.3,3.4-1.3,5.4
		c0,2.2,0.7,3.9,2,5.2c1.3,1.2,3.1,1.8,5.5,1.8C725.2,673.1,726.9,672.6,728.4,671.7z"/>
	<path d="M778.1,654.7c1.4,1.3,2.1,3.1,2.1,5.4c0,0.7-0.1,1.5-0.3,2.7l-2.6,12.9h-3.1l2.6-12.9c0.1-0.7,0.2-1.4,0.2-2.1
		c0-1.6-0.5-2.8-1.4-3.7s-2.3-1.3-4.2-1.3c-2.3,0-4.2,0.6-5.7,1.9c-1.5,1.3-2.5,3.2-3.1,5.7l-2.5,12.5h-3.1l2.6-12.9
		c0.1-0.8,0.2-1.5,0.2-2.1c0-1.6-0.5-2.9-1.4-3.8s-2.3-1.3-4.2-1.3c-2.3,0-4.2,0.7-5.8,2c-1.5,1.3-2.6,3.3-3.1,5.9l-2.4,12.1H740
		l4.5-22.6h2.9l-0.7,3.6c2.1-2.5,4.9-3.8,8.6-3.8c1.9,0,3.5,0.4,4.8,1.2c1.3,0.8,2.2,1.9,2.6,3.4c1.1-1.5,2.5-2.6,4.1-3.4
		s3.4-1.1,5.4-1.1C774.7,652.8,776.7,653.4,778.1,654.7z"/>
	<path d="M790.1,653h3.1l-4.5,22.6h-3.1L790.1,653z M791.5,647.4c-0.4-0.4-0.6-0.9-0.6-1.4c0-0.7,0.2-1.2,0.7-1.7
		c0.4-0.4,1-0.7,1.7-0.7c0.6,0,1.1,0.2,1.5,0.6s0.6,0.8,0.6,1.4c0,0.7-0.2,1.3-0.7,1.7c-0.5,0.5-1,0.7-1.7,0.7
		C792.4,648,791.9,647.8,791.5,647.4z"/>
	<path d="M800.1,665.1c0,0.2,0,0.5,0,0.9c0,2.3,0.7,4,2,5.2c1.3,1.2,3.2,1.8,5.8,1.8c1.5,0,2.9-0.3,4.2-0.8s2.4-1.2,3.2-2.1l1.4,2.2
		c-1.1,1.1-2.4,1.9-4,2.5s-3.3,0.9-5.1,0.9c-3.3,0-5.8-0.9-7.7-2.6s-2.8-4.1-2.8-7.1c0-2.5,0.5-4.8,1.6-6.8c1.1-2,2.6-3.6,4.5-4.8
		c1.9-1.2,4-1.7,6.4-1.7c3,0,5.4,0.9,7.2,2.6c1.8,1.7,2.7,4.1,2.7,7c0,0.8-0.1,1.7-0.3,2.8H800.1z M803.6,657.4
		c-1.6,1.3-2.7,3.2-3.3,5.5h16.1c0-0.2,0-0.5,0-0.8c0-2.1-0.6-3.8-1.9-4.9c-1.3-1.2-3-1.7-5.2-1.7
		C807.2,655.4,805.2,656.1,803.6,657.4z"/>
	<path d="M844.7,654.8c1.4,1.3,2.1,3.1,2.1,5.4c0,0.8-0.1,1.7-0.3,2.6l-2.6,12.9h-3.1l2.6-12.9c0.1-0.8,0.2-1.5,0.2-2.1
		c0-1.6-0.5-2.9-1.5-3.8c-1-0.9-2.4-1.3-4.4-1.3c-2.4,0-4.4,0.7-6,2c-1.6,1.3-2.6,3.3-3.2,5.9l-2.4,12.1h-3.1l4.5-22.6h2.9l-0.7,3.6
		c2.2-2.5,5.1-3.8,8.9-3.8C841.3,652.8,843.2,653.5,844.7,654.8z"/>
	<path d="M879.4,643.7l-6.4,31.9h-2.9l0.7-3.6c-1.1,1.2-2.4,2.1-3.9,2.8c-1.5,0.7-3.1,1-4.9,1c-1.9,0-3.6-0.4-5.1-1.2
		c-1.5-0.8-2.7-1.9-3.5-3.3s-1.2-3.1-1.2-5.1c0-2.6,0.6-4.8,1.7-6.9c1.1-2,2.6-3.6,4.6-4.8c1.9-1.2,4.1-1.7,6.5-1.7
		c2.1,0,3.9,0.4,5.4,1.3c1.5,0.8,2.5,2.1,3.2,3.6l2.8-14H879.4z M867.7,671.7c1.5-0.9,2.7-2.2,3.5-3.8c0.8-1.6,1.3-3.4,1.3-5.4
		c0-2.2-0.7-3.9-2-5.2c-1.3-1.2-3.1-1.9-5.5-1.9c-1.9,0-3.5,0.5-5,1.4c-1.5,0.9-2.7,2.2-3.5,3.8c-0.8,1.6-1.3,3.4-1.3,5.4
		c0,2.2,0.7,3.9,2,5.2c1.3,1.2,3.1,1.8,5.5,1.8C864.5,673.1,866.2,672.6,867.7,671.7z"/>
	<path d="M886.2,674.6c-1.5-0.8-2.7-1.9-3.6-3.4s-1.3-3.1-1.3-5.1c0-2.6,0.6-4.8,1.7-6.9c1.1-2,2.7-3.6,4.7-4.8
		c2-1.2,4.2-1.7,6.7-1.7c3.2,0,5.7,0.9,7.5,2.6c1.8,1.7,2.8,4,2.8,7c0,2.6-0.6,4.9-1.7,6.9c-1.1,2.1-2.7,3.7-4.7,4.8
		c-2,1.2-4.2,1.7-6.7,1.7C889.5,675.8,887.7,675.4,886.2,674.6z M896.8,671.7c1.5-0.9,2.7-2.2,3.5-3.8c0.8-1.6,1.3-3.4,1.3-5.4
		c0-2.2-0.7-3.9-2-5.2c-1.3-1.2-3.1-1.9-5.5-1.9c-1.9,0-3.5,0.5-5,1.4c-1.5,0.9-2.7,2.2-3.5,3.8c-0.8,1.6-1.3,3.4-1.3,5.4
		c0,2.2,0.7,3.9,2,5.2c1.3,1.2,3.1,1.8,5.5,1.8C893.7,673.1,895.4,672.6,896.8,671.7z"/>
	<path d="M944.9,653l-4.5,22.6h-2.9l0.7-3.6c-1.1,1.2-2.4,2.1-3.9,2.8c-1.5,0.7-3.1,1-4.9,1c-1.9,0-3.6-0.4-5.1-1.2
		c-1.5-0.8-2.7-1.9-3.5-3.3s-1.2-3.1-1.2-5.1c0-2.6,0.6-4.8,1.7-6.9c1.1-2,2.6-3.6,4.6-4.8c1.9-1.2,4.1-1.7,6.5-1.7
		c2.1,0,4,0.4,5.4,1.3s2.5,2.1,3.2,3.6l0.9-4.7H944.9z M935.1,671.7c1.5-0.9,2.7-2.2,3.5-3.8c0.8-1.6,1.3-3.4,1.3-5.4
		c0-2.2-0.7-3.9-2-5.2c-1.3-1.2-3.1-1.9-5.5-1.9c-1.9,0-3.5,0.5-5,1.4c-1.5,0.9-2.7,2.2-3.5,3.8c-0.8,1.6-1.3,3.4-1.3,5.4
		c0,2.2,0.7,3.9,2,5.2c1.3,1.2,3.1,1.8,5.5,1.8C931.9,673.1,933.6,672.6,935.1,671.7z"/>
</g>
<g class="st6">
	<path d="M100.3,726.2c-1.6-0.8-2.8-1.9-3.6-3.4c-0.8-1.4-1.3-3.1-1.3-5.1c0-2.6,0.6-4.8,1.7-6.9c1.1-2,2.7-3.6,4.7-4.8
		c2-1.2,4.3-1.7,6.8-1.7c2.1,0,3.9,0.4,5.4,1.1c1.5,0.8,2.7,1.9,3.5,3.4l-2.6,1.5c-1.3-2.2-3.5-3.4-6.6-3.4c-1.9,0-3.5,0.5-5.1,1.4
		c-1.5,0.9-2.7,2.2-3.5,3.8c-0.8,1.6-1.3,3.4-1.3,5.5c0,2.2,0.7,3.9,2,5.2c1.3,1.2,3.2,1.8,5.6,1.8c1.5,0,2.8-0.3,4.1-0.8
		c1.2-0.6,2.3-1.4,3.1-2.4l2.2,1.7c-1,1.3-2.3,2.4-4,3.2c-1.7,0.8-3.5,1.1-5.4,1.1C103.7,727.4,101.9,727,100.3,726.2z"/>
	<path d="M144.7,704.6l-4.5,22.6h-2.9l0.7-3.6c-2.1,2.6-5,3.8-8.7,3.8c-2.5,0-4.5-0.7-5.9-2s-2.1-3.1-2.1-5.4c0-0.8,0.1-1.6,0.3-2.5
		l2.6-12.9h3.1l-2.6,12.9c-0.1,0.8-0.2,1.5-0.2,2c0,1.7,0.5,2.9,1.4,3.8c1,0.9,2.4,1.3,4.3,1.3c2.4,0,4.4-0.7,6-2
		c1.6-1.3,2.6-3.3,3.2-5.9l2.4-12.2H144.7z"/>
	<path d="M173.9,704.6l-4.5,22.6h-2.9l0.7-3.6c-1.1,1.2-2.4,2.1-3.9,2.8c-1.5,0.7-3.1,1-4.9,1c-1.9,0-3.6-0.4-5.1-1.2
		c-1.5-0.8-2.7-1.9-3.5-3.3c-0.8-1.4-1.2-3.1-1.2-5.1c0-2.6,0.6-4.8,1.7-6.9c1.1-2,2.6-3.6,4.6-4.8c1.9-1.2,4.1-1.7,6.5-1.7
		c2.1,0,4,0.4,5.4,1.3s2.5,2.1,3.2,3.6l0.9-4.7H173.9z M164.1,723.3c1.5-0.9,2.7-2.2,3.5-3.8c0.8-1.6,1.3-3.4,1.3-5.4
		c0-2.2-0.7-3.9-2-5.2c-1.3-1.2-3.1-1.9-5.5-1.9c-1.9,0-3.5,0.5-5,1.4c-1.5,0.9-2.7,2.2-3.5,3.8c-0.8,1.6-1.3,3.4-1.3,5.4
		c0,2.2,0.7,3.9,2,5.2c1.3,1.2,3.1,1.8,5.5,1.8C160.9,724.7,162.6,724.2,164.1,723.3z"/>
	<path d="M184.3,695.3h3.1l-6.4,31.9h-3.1L184.3,695.3z"/>
	<path d="M214.7,704.6l-6.2,31h-3.1l2.3-11.7c-1.1,1.2-2.3,2.1-3.8,2.7c-1.5,0.6-3.1,0.9-4.8,0.9c-1.9,0-3.6-0.4-5.1-1.2
		c-1.5-0.8-2.7-1.9-3.5-3.3c-0.8-1.4-1.2-3.1-1.2-5.1c0-2.6,0.6-4.8,1.7-6.9c1.1-2,2.6-3.6,4.6-4.8c1.9-1.2,4.1-1.7,6.5-1.7
		c2.2,0,4,0.4,5.5,1.3c1.5,0.9,2.5,2.2,3.2,3.8l1-4.9H214.7z M204.8,723.3c1.5-0.9,2.7-2.2,3.5-3.8c0.8-1.6,1.3-3.4,1.3-5.4
		c0-2.2-0.7-3.9-2-5.2c-1.3-1.2-3.1-1.9-5.5-1.9c-1.9,0-3.5,0.5-5,1.4c-1.5,0.9-2.7,2.2-3.5,3.8c-0.8,1.6-1.3,3.4-1.3,5.4
		c0,2.2,0.7,3.9,2,5.2c1.3,1.2,3.1,1.8,5.5,1.8C201.6,724.7,203.3,724.2,204.8,723.3z"/>
	<path d="M243.6,704.6l-4.5,22.6h-2.9l0.7-3.6c-2.1,2.6-5,3.8-8.7,3.8c-2.5,0-4.5-0.7-5.9-2s-2.1-3.1-2.1-5.4c0-0.8,0.1-1.6,0.3-2.5
		l2.6-12.9h3.1l-2.6,12.9c-0.1,0.8-0.2,1.5-0.2,2c0,1.7,0.5,2.9,1.4,3.8c1,0.9,2.4,1.3,4.3,1.3c2.4,0,4.4-0.7,6-2
		c1.6-1.3,2.6-3.3,3.2-5.9l2.4-12.2H243.6z"/>
	<path d="M252.1,704.6h3.1l-4.5,22.6h-3.1L252.1,704.6z M253.4,699c-0.4-0.4-0.6-0.9-0.6-1.4c0-0.7,0.2-1.2,0.7-1.7
		c0.4-0.4,1-0.7,1.7-0.7c0.6,0,1.1,0.2,1.5,0.6c0.4,0.4,0.6,0.8,0.6,1.4c0,0.7-0.2,1.3-0.7,1.7c-0.5,0.5-1,0.7-1.7,0.7
		C254.3,699.6,253.8,699.4,253.4,699z"/>
	<path d="M262,716.7c0,0.2,0,0.5,0,0.9c0,2.3,0.7,4,2,5.2c1.3,1.2,3.2,1.8,5.8,1.8c1.5,0,2.9-0.3,4.2-0.8c1.3-0.5,2.4-1.2,3.2-2.1
		l1.4,2.2c-1.1,1.1-2.4,1.9-4,2.5s-3.3,0.9-5.1,0.9c-3.3,0-5.8-0.9-7.7-2.6c-1.9-1.7-2.8-4.1-2.8-7.1c0-2.5,0.5-4.8,1.6-6.8
		c1.1-2,2.6-3.6,4.5-4.8c1.9-1.2,4-1.7,6.4-1.7c3,0,5.4,0.9,7.2,2.6c1.8,1.7,2.7,4,2.7,7c0,0.8-0.1,1.7-0.3,2.8H262z M265.6,709
		c-1.6,1.3-2.7,3.2-3.3,5.5h16.1c0-0.2,0-0.5,0-0.8c0-2.1-0.6-3.8-1.9-4.9s-3-1.7-5.2-1.7C269.1,707,267.2,707.7,265.6,709z"/>
	<path d="M295.5,705.5c1.5-0.7,3.4-1.1,5.5-1.1l-0.6,3l-0.9,0c-2.4,0-4.4,0.7-6,2.1c-1.6,1.4-2.6,3.5-3.2,6.3l-2.3,11.5h-3.1
		l4.5-22.6h2.9l-0.8,4.1C292.8,707.2,294,706.2,295.5,705.5z"/>
	<path d="M327,704.6l-4.5,22.6h-2.9l0.7-3.6c-1.1,1.2-2.4,2.1-3.9,2.8c-1.5,0.7-3.1,1-4.9,1c-1.9,0-3.6-0.4-5.1-1.2
		c-1.5-0.8-2.7-1.9-3.5-3.3c-0.8-1.4-1.2-3.1-1.2-5.1c0-2.6,0.6-4.8,1.7-6.9c1.1-2,2.6-3.6,4.6-4.8c1.9-1.2,4.1-1.7,6.5-1.7
		c2.1,0,4,0.4,5.4,1.3s2.5,2.1,3.2,3.6l0.9-4.7H327z M317.1,723.3c1.5-0.9,2.7-2.2,3.5-3.8c0.8-1.6,1.3-3.4,1.3-5.4
		c0-2.2-0.7-3.9-2-5.2c-1.3-1.2-3.1-1.9-5.5-1.9c-1.9,0-3.5,0.5-5,1.4c-1.5,0.9-2.7,2.2-3.5,3.8c-0.8,1.6-1.3,3.4-1.3,5.4
		c0,2.2,0.7,3.9,2,5.2c1.3,1.2,3.1,1.8,5.5,1.8C314,724.7,315.6,724.2,317.1,723.3z"/>
	<path d="M367.4,704.6l-6.2,31h-3.1l2.3-11.7c-1.1,1.2-2.3,2.1-3.8,2.7c-1.5,0.6-3.1,0.9-4.8,0.9c-1.9,0-3.6-0.4-5.1-1.2
		c-1.5-0.8-2.7-1.9-3.5-3.3c-0.8-1.4-1.2-3.1-1.2-5.1c0-2.6,0.6-4.8,1.7-6.9c1.1-2,2.6-3.6,4.6-4.8c1.9-1.2,4.1-1.7,6.5-1.7
		c2.2,0,4,0.4,5.5,1.3c1.5,0.9,2.5,2.2,3.2,3.8l1-4.9H367.4z M357.5,723.3c1.5-0.9,2.7-2.2,3.5-3.8c0.8-1.6,1.3-3.4,1.3-5.4
		c0-2.2-0.7-3.9-2-5.2c-1.3-1.2-3.1-1.9-5.5-1.9c-1.9,0-3.5,0.5-5,1.4c-1.5,0.9-2.7,2.2-3.5,3.8c-0.8,1.6-1.3,3.4-1.3,5.4
		c0,2.2,0.7,3.9,2,5.2c1.3,1.2,3.1,1.8,5.5,1.8C354.4,724.7,356.1,724.2,357.5,723.3z"/>
	<path d="M396.3,704.6l-4.5,22.6h-2.9l0.7-3.6c-2.1,2.6-5,3.8-8.7,3.8c-2.5,0-4.5-0.7-5.9-2s-2.1-3.1-2.1-5.4c0-0.8,0.1-1.6,0.3-2.5
		l2.6-12.9h3.1l-2.6,12.9c-0.1,0.8-0.2,1.5-0.2,2c0,1.7,0.5,2.9,1.4,3.8c1,0.9,2.4,1.3,4.3,1.3c2.4,0,4.4-0.7,6-2
		c1.6-1.3,2.6-3.3,3.2-5.9l2.4-12.2H396.3z"/>
	<path d="M403.2,716.7c0,0.2,0,0.5,0,0.9c0,2.3,0.7,4,2,5.2c1.3,1.2,3.2,1.8,5.8,1.8c1.5,0,2.9-0.3,4.2-0.8c1.3-0.5,2.4-1.2,3.2-2.1
		l1.4,2.2c-1.1,1.1-2.4,1.9-4,2.5s-3.3,0.9-5.1,0.9c-3.3,0-5.8-0.9-7.7-2.6c-1.9-1.7-2.8-4.1-2.8-7.1c0-2.5,0.5-4.8,1.6-6.8
		c1.1-2,2.6-3.6,4.5-4.8c1.9-1.2,4-1.7,6.4-1.7c3,0,5.4,0.9,7.2,2.6c1.8,1.7,2.7,4,2.7,7c0,0.8-0.1,1.7-0.3,2.8H403.2z M406.7,709
		c-1.6,1.3-2.7,3.2-3.3,5.5h16.1c0-0.2,0-0.5,0-0.8c0-2.1-0.6-3.8-1.9-4.9s-3-1.7-5.2-1.7C410.3,707,408.3,707.7,406.7,709z"/>
	<path d="M459,706.4c1.4,1.3,2.1,3.1,2.1,5.4c0,0.8-0.1,1.7-0.3,2.6l-2.6,12.9h-3.1l2.6-12.9c0.1-0.8,0.2-1.5,0.2-2.1
		c0-1.6-0.5-2.9-1.5-3.8c-1-0.9-2.4-1.3-4.4-1.3c-2.4,0-4.4,0.7-6,2c-1.6,1.3-2.6,3.3-3.2,5.9l-2.4,12.1h-3.1l4.5-22.6h2.9l-0.7,3.6
		c2.1-2.5,5.1-3.8,8.9-3.8C455.6,704.4,457.6,705.1,459,706.4z"/>
	<path d="M469.6,716.7c0,0.2,0,0.5,0,0.9c0,2.3,0.7,4,2,5.2c1.3,1.2,3.2,1.8,5.8,1.8c1.5,0,2.9-0.3,4.2-0.8c1.3-0.5,2.4-1.2,3.2-2.1
		l1.4,2.2c-1.1,1.1-2.4,1.9-4,2.5s-3.3,0.9-5.1,0.9c-3.3,0-5.8-0.9-7.7-2.6c-1.9-1.7-2.8-4.1-2.8-7.1c0-2.5,0.5-4.8,1.6-6.8
		c1.1-2,2.6-3.6,4.5-4.8c1.9-1.2,4-1.7,6.4-1.7c3,0,5.4,0.9,7.2,2.6c1.8,1.7,2.7,4,2.7,7c0,0.8-0.1,1.7-0.3,2.8H469.6z M473.2,709
		c-1.6,1.3-2.7,3.2-3.3,5.5H486c0-0.2,0-0.5,0-0.8c0-2.1-0.6-3.8-1.9-4.9s-3-1.7-5.2-1.7C476.7,707,474.8,707.7,473.2,709z"/>
	<path d="M497.4,726.2c-1.6-0.8-2.8-1.9-3.6-3.4c-0.8-1.4-1.3-3.1-1.3-5.1c0-2.6,0.6-4.8,1.7-6.9c1.1-2,2.7-3.6,4.7-4.8
		c2-1.2,4.3-1.7,6.8-1.7c2.1,0,3.9,0.4,5.4,1.1c1.5,0.8,2.7,1.9,3.5,3.4l-2.6,1.5c-1.3-2.2-3.5-3.4-6.6-3.4c-1.9,0-3.5,0.5-5.1,1.4
		c-1.5,0.9-2.7,2.2-3.5,3.8c-0.8,1.6-1.3,3.4-1.3,5.5c0,2.2,0.7,3.9,2,5.2c1.3,1.2,3.2,1.8,5.6,1.8c1.5,0,2.8-0.3,4.1-0.8
		c1.2-0.6,2.3-1.4,3.1-2.4l2.2,1.7c-1,1.3-2.3,2.4-4,3.2c-1.7,0.8-3.5,1.1-5.4,1.1C500.8,727.4,499,727,497.4,726.2z"/>
	<path d="M519.4,716.7c0,0.2,0,0.5,0,0.9c0,2.3,0.7,4,2,5.2c1.3,1.2,3.2,1.8,5.8,1.8c1.5,0,2.9-0.3,4.2-0.8c1.3-0.5,2.4-1.2,3.2-2.1
		l1.4,2.2c-1.1,1.1-2.4,1.9-4,2.5s-3.3,0.9-5.1,0.9c-3.3,0-5.8-0.9-7.7-2.6c-1.9-1.7-2.8-4.1-2.8-7.1c0-2.5,0.5-4.8,1.6-6.8
		c1.1-2,2.6-3.6,4.5-4.8c1.9-1.2,4-1.7,6.4-1.7c3,0,5.4,0.9,7.2,2.6c1.8,1.7,2.7,4,2.7,7c0,0.8-0.1,1.7-0.3,2.8H519.4z M523,709
		c-1.6,1.3-2.7,3.2-3.3,5.5h16.1c0-0.2,0-0.5,0-0.8c0-2.1-0.6-3.8-1.9-4.9s-3-1.7-5.2-1.7C526.5,707,524.6,707.7,523,709z"/>
	<path d="M543.9,726.6c-1.6-0.5-2.9-1.2-3.8-2l1.5-2.4c0.9,0.7,2,1.3,3.4,1.8c1.4,0.5,2.9,0.7,4.4,0.7c2.2,0,3.8-0.4,5-1.1
		c1.2-0.7,1.7-1.7,1.7-3c0-0.7-0.2-1.3-0.7-1.7c-0.5-0.4-1.1-0.8-1.7-1c-0.7-0.2-1.7-0.5-3-0.8c-1.6-0.3-2.9-0.7-3.8-1
		s-1.8-0.9-2.5-1.6c-0.7-0.7-1-1.8-1-3.1c0-2.1,0.9-3.9,2.7-5.1c1.8-1.3,4.2-1.9,7.1-1.9c1.5,0,2.9,0.2,4.3,0.6
		c1.4,0.4,2.5,0.9,3.4,1.5l-1.3,2.5c-0.9-0.6-1.9-1.1-3-1.4c-1.2-0.3-2.4-0.5-3.6-0.5c-2.1,0-3.7,0.4-4.8,1.1
		c-1.1,0.7-1.7,1.7-1.7,3c0,0.7,0.2,1.3,0.7,1.8c0.5,0.5,1.1,0.8,1.8,1c0.7,0.2,1.7,0.5,3,0.7c1.5,0.3,2.8,0.7,3.8,1
		c1,0.3,1.8,0.9,2.5,1.6c0.7,0.7,1,1.7,1,3c0,2.2-0.9,3.9-2.7,5.2c-1.8,1.2-4.3,1.9-7.3,1.9C547.3,727.4,545.6,727.2,543.9,726.6z"
		/>
	<path d="M568,704.6h3.1l-4.5,22.6h-3.1L568,704.6z M569.4,699c-0.4-0.4-0.6-0.9-0.6-1.4c0-0.7,0.2-1.2,0.7-1.7s1-0.7,1.7-0.7
		c0.6,0,1.1,0.2,1.5,0.6c0.4,0.4,0.6,0.8,0.6,1.4c0,0.7-0.2,1.3-0.7,1.7c-0.5,0.5-1,0.7-1.7,0.7C570.3,699.6,569.8,699.4,569.4,699z
		"/>
	<path d="M580,720.4c-0.1,0.7-0.2,1.2-0.2,1.4c0,2,1.1,3,3.3,3c1.3,0,2.5-0.4,3.5-1.2l0.7,2.3c-1.3,1-3,1.5-5,1.5
		c-1.7,0-3-0.5-4-1.4c-1-0.9-1.5-2.2-1.5-3.8c0-0.6,0.1-1.2,0.2-1.8l2.6-13.3h-4l0.5-2.6h4l1-4.9h3.1l-1,4.9h6.9l-0.5,2.6h-6.9
		L580,720.4z"/>
	<path d="M594.6,716.7c0,0.2,0,0.5,0,0.9c0,2.3,0.7,4,2,5.2c1.3,1.2,3.2,1.8,5.8,1.8c1.5,0,2.9-0.3,4.2-0.8s2.4-1.2,3.2-2.1l1.4,2.2
		c-1.1,1.1-2.4,1.9-4,2.5s-3.3,0.9-5.1,0.9c-3.3,0-5.8-0.9-7.7-2.6c-1.9-1.7-2.8-4.1-2.8-7.1c0-2.5,0.5-4.8,1.6-6.8
		c1.1-2,2.6-3.6,4.5-4.8c1.9-1.2,4-1.7,6.4-1.7c3,0,5.4,0.9,7.2,2.6c1.8,1.7,2.7,4,2.7,7c0,0.8-0.1,1.7-0.3,2.8H594.6z M598.2,709
		c-1.6,1.3-2.7,3.2-3.3,5.5H611c0-0.2,0-0.5,0-0.8c0-2.1-0.6-3.8-1.9-4.9s-3-1.7-5.2-1.7C601.7,707,599.8,707.7,598.2,709z"/>
	<path d="M654.2,704.6l-4.5,22.6h-2.9l0.7-3.6c-1.1,1.2-2.4,2.1-3.9,2.8c-1.5,0.7-3.1,1-4.9,1c-1.9,0-3.6-0.4-5.1-1.2
		c-1.5-0.8-2.7-1.9-3.5-3.3c-0.8-1.4-1.2-3.1-1.2-5.1c0-2.6,0.6-4.8,1.7-6.9c1.1-2,2.6-3.6,4.6-4.8c1.9-1.2,4.1-1.7,6.5-1.7
		c2.1,0,4,0.4,5.4,1.3s2.5,2.1,3.2,3.6l0.9-4.7H654.2z M644.3,723.3c1.5-0.9,2.7-2.2,3.5-3.8c0.8-1.6,1.3-3.4,1.3-5.4
		c0-2.2-0.7-3.9-2-5.2c-1.3-1.2-3.1-1.9-5.5-1.9c-1.9,0-3.5,0.5-5,1.4c-1.5,0.9-2.7,2.2-3.5,3.8c-0.8,1.6-1.3,3.4-1.3,5.4
		c0,2.2,0.7,3.9,2,5.2c1.3,1.2,3.1,1.8,5.5,1.8C641.1,724.7,642.8,724.2,644.3,723.3z"/>
	<path d="M681.7,704.6l-16.5,25.5c-1.4,2.1-2.7,3.6-3.9,4.4c-1.2,0.8-2.6,1.2-4.3,1.2c-1.1,0-2.1-0.2-3.1-0.5
		c-1-0.4-1.7-0.9-2.3-1.5l1.6-2.2c1,1.1,2.4,1.6,4,1.6c1,0,1.9-0.3,2.7-0.8c0.8-0.5,1.6-1.5,2.5-2.8l1.6-2.4l-5.6-22.5h3.1l4.7,19.3
		l12.3-19.3H681.7z"/>
	<path d="M706.4,704.6l-4.5,22.6h-2.9l0.7-3.6c-2.1,2.6-5,3.8-8.7,3.8c-2.5,0-4.5-0.7-5.9-2s-2.1-3.1-2.1-5.4c0-0.8,0.1-1.6,0.3-2.5
		l2.6-12.9h3.1l-2.6,12.9c-0.1,0.8-0.2,1.5-0.2,2c0,1.7,0.5,2.9,1.4,3.8c1,0.9,2.4,1.3,4.3,1.3c2.4,0,4.4-0.7,6-2
		c1.6-1.3,2.6-3.3,3.2-5.9l2.4-12.2H706.4z"/>
	<path d="M737.4,695.3l-6.4,31.9h-2.9l0.7-3.6c-1.1,1.2-2.4,2.1-3.9,2.8c-1.5,0.7-3.1,1-4.9,1c-1.9,0-3.6-0.4-5.1-1.2
		c-1.5-0.8-2.7-1.9-3.5-3.3s-1.2-3.1-1.2-5.1c0-2.6,0.6-4.8,1.7-6.9c1.1-2,2.6-3.6,4.6-4.8c1.9-1.2,4.1-1.7,6.5-1.7
		c2.1,0,3.9,0.4,5.4,1.3c1.5,0.8,2.5,2.1,3.2,3.6l2.8-14H737.4z M725.7,723.3c1.5-0.9,2.7-2.2,3.5-3.8c0.8-1.6,1.3-3.4,1.3-5.4
		c0-2.2-0.7-3.9-2-5.2c-1.3-1.2-3.1-1.9-5.5-1.9c-1.9,0-3.5,0.5-5,1.4c-1.5,0.9-2.7,2.2-3.5,3.8c-0.8,1.6-1.3,3.4-1.3,5.4
		c0,2.2,0.7,3.9,2,5.2c1.3,1.2,3.1,1.8,5.5,1.8C722.5,724.7,724.2,724.2,725.7,723.3z"/>
	<path d="M764.7,704.6l-4.5,22.6h-2.9l0.7-3.6c-1.1,1.2-2.4,2.1-3.9,2.8c-1.5,0.7-3.1,1-4.9,1c-1.9,0-3.6-0.4-5.1-1.2
		c-1.5-0.8-2.7-1.9-3.5-3.3s-1.2-3.1-1.2-5.1c0-2.6,0.6-4.8,1.7-6.9c1.1-2,2.6-3.6,4.6-4.8c1.9-1.2,4.1-1.7,6.5-1.7
		c2.1,0,4,0.4,5.4,1.3s2.5,2.1,3.2,3.6l0.9-4.7H764.7z M754.9,723.3c1.5-0.9,2.7-2.2,3.5-3.8c0.8-1.6,1.3-3.4,1.3-5.4
		c0-2.2-0.7-3.9-2-5.2c-1.3-1.2-3.1-1.9-5.5-1.9c-1.9,0-3.5,0.5-5,1.4c-1.5,0.9-2.7,2.2-3.5,3.8c-0.8,1.6-1.3,3.4-1.3,5.4
		c0,2.2,0.7,3.9,2,5.2c1.3,1.2,3.1,1.8,5.5,1.8C751.7,724.7,753.4,724.2,754.9,723.3z"/>
	<path d="M800.6,705.6c1.5,0.8,2.7,1.9,3.5,3.3c0.8,1.4,1.2,3.1,1.2,5.1c0,2.6-0.6,4.9-1.7,6.9c-1.1,2-2.6,3.7-4.6,4.8
		c-2,1.2-4.1,1.7-6.6,1.7c-2.2,0-4-0.4-5.4-1.3c-1.5-0.8-2.5-2.1-3.2-3.7l-2.6,13.1h-3.1l6.1-31h2.9l-0.7,3.6
		c1.1-1.2,2.4-2.2,3.9-2.8c1.5-0.6,3.1-1,4.9-1C797.4,704.4,799.1,704.8,800.6,705.6z M797.5,723.3c1.5-0.9,2.6-2.2,3.5-3.8
		c0.8-1.6,1.3-3.4,1.3-5.5c0-2.2-0.7-3.9-2-5.2c-1.3-1.2-3.1-1.9-5.5-1.9c-1.9,0-3.5,0.5-5,1.4c-1.5,0.9-2.6,2.2-3.5,3.8
		c-0.8,1.6-1.3,3.4-1.3,5.5c0,2.2,0.7,3.9,2,5.2c1.3,1.2,3.1,1.8,5.5,1.8C794.3,724.7,796,724.2,797.5,723.3z"/>
	<path d="M834.3,704.6l-4.5,22.6h-2.9l0.7-3.6c-1.1,1.2-2.4,2.1-3.9,2.8c-1.5,0.7-3.1,1-4.9,1c-1.9,0-3.6-0.4-5.1-1.2
		c-1.5-0.8-2.7-1.9-3.5-3.3s-1.2-3.1-1.2-5.1c0-2.6,0.6-4.8,1.7-6.9c1.1-2,2.6-3.6,4.6-4.8c1.9-1.2,4.1-1.7,6.5-1.7
		c2.1,0,4,0.4,5.4,1.3s2.5,2.1,3.2,3.6l0.9-4.7H834.3z M824.4,723.3c1.5-0.9,2.7-2.2,3.5-3.8c0.8-1.6,1.3-3.4,1.3-5.4
		c0-2.2-0.7-3.9-2-5.2c-1.3-1.2-3.1-1.9-5.5-1.9c-1.9,0-3.5,0.5-5,1.4c-1.5,0.9-2.7,2.2-3.5,3.8c-0.8,1.6-1.3,3.4-1.3,5.4
		c0,2.2,0.7,3.9,2,5.2c1.3,1.2,3.1,1.8,5.5,1.8C821.3,724.7,822.9,724.2,824.4,723.3z"/>
	<path d="M848.7,705.5c1.5-0.7,3.4-1.1,5.5-1.1l-0.6,3l-0.9,0c-2.4,0-4.4,0.7-6,2.1c-1.6,1.4-2.6,3.5-3.2,6.3l-2.3,11.5h-3.1
		l4.5-22.6h2.9l-0.8,4.1C845.9,707.2,847.2,706.2,848.7,705.5z"/>
	<path d="M880.1,704.6l-4.5,22.6h-2.9l0.7-3.6c-1.1,1.2-2.4,2.1-3.9,2.8c-1.5,0.7-3.1,1-4.9,1c-1.9,0-3.6-0.4-5.1-1.2
		c-1.5-0.8-2.7-1.9-3.5-3.3s-1.2-3.1-1.2-5.1c0-2.6,0.6-4.8,1.7-6.9c1.1-2,2.6-3.6,4.6-4.8c1.9-1.2,4.1-1.7,6.5-1.7
		c2.1,0,4,0.4,5.4,1.3s2.5,2.1,3.2,3.6l0.9-4.7H880.1z M870.3,723.3c1.5-0.9,2.7-2.2,3.5-3.8c0.8-1.6,1.3-3.4,1.3-5.4
		c0-2.2-0.7-3.9-2-5.2c-1.3-1.2-3.1-1.9-5.5-1.9c-1.9,0-3.5,0.5-5,1.4c-1.5,0.9-2.7,2.2-3.5,3.8c-0.8,1.6-1.3,3.4-1.3,5.4
		c0,2.2,0.7,3.9,2,5.2c1.3,1.2,3.1,1.8,5.5,1.8C867.1,724.7,868.8,724.2,870.3,723.3z"/>
	<path d="M922.4,695.3l-6.4,31.9h-2.9l0.7-3.6c-1.1,1.2-2.4,2.1-3.9,2.8c-1.5,0.7-3.1,1-4.9,1c-1.9,0-3.6-0.4-5.1-1.2
		c-1.5-0.8-2.7-1.9-3.5-3.3s-1.2-3.1-1.2-5.1c0-2.6,0.6-4.8,1.7-6.9c1.1-2,2.6-3.6,4.6-4.8c1.9-1.2,4.1-1.7,6.5-1.7
		c2.1,0,3.9,0.4,5.4,1.3c1.5,0.8,2.5,2.1,3.2,3.6l2.8-14H922.4z M910.7,723.3c1.5-0.9,2.7-2.2,3.5-3.8c0.8-1.6,1.3-3.4,1.3-5.4
		c0-2.2-0.7-3.9-2-5.2c-1.3-1.2-3.1-1.9-5.5-1.9c-1.9,0-3.5,0.5-5,1.4c-1.5,0.9-2.7,2.2-3.5,3.8c-0.8,1.6-1.3,3.4-1.3,5.4
		c0,2.2,0.7,3.9,2,5.2c1.3,1.2,3.1,1.8,5.5,1.8C907.5,724.7,909.2,724.2,910.7,723.3z"/>
	<path d="M927.4,716.7c0,0.2,0,0.5,0,0.9c0,2.3,0.7,4,2,5.2c1.3,1.2,3.2,1.8,5.8,1.8c1.5,0,2.9-0.3,4.2-0.8s2.4-1.2,3.2-2.1l1.4,2.2
		c-1.1,1.1-2.4,1.9-4,2.5s-3.3,0.9-5.1,0.9c-3.3,0-5.8-0.9-7.7-2.6c-1.9-1.7-2.8-4.1-2.8-7.1c0-2.5,0.5-4.8,1.6-6.8
		c1.1-2,2.6-3.6,4.5-4.8c1.9-1.2,4-1.7,6.4-1.7c3,0,5.4,0.9,7.2,2.6c1.8,1.7,2.7,4,2.7,7c0,0.8-0.1,1.7-0.3,2.8H927.4z M930.9,709
		c-1.6,1.3-2.7,3.2-3.3,5.5h16.1c0-0.2,0-0.5,0-0.8c0-2.1-0.6-3.8-1.9-4.9s-3-1.7-5.2-1.7C934.5,707,932.5,707.7,930.9,709z"/>
	<path d="M951.9,726.6c-1.6-0.5-2.9-1.2-3.8-2l1.5-2.4c0.9,0.7,2,1.3,3.4,1.8s2.9,0.7,4.4,0.7c2.1,0,3.8-0.4,5-1.1
		c1.2-0.7,1.7-1.7,1.7-3c0-0.7-0.2-1.3-0.7-1.7s-1.1-0.8-1.7-1c-0.7-0.2-1.7-0.5-3-0.8c-1.6-0.3-2.9-0.7-3.8-1
		c-1-0.3-1.8-0.9-2.5-1.6c-0.7-0.7-1-1.8-1-3.1c0-2.1,0.9-3.9,2.7-5.1c1.8-1.3,4.2-1.9,7.1-1.9c1.5,0,2.9,0.2,4.3,0.6
		c1.4,0.4,2.5,0.9,3.4,1.5l-1.3,2.5c-0.9-0.6-1.9-1.1-3-1.4c-1.2-0.3-2.4-0.5-3.6-0.5c-2.1,0-3.7,0.4-4.8,1.1
		c-1.1,0.7-1.7,1.7-1.7,3c0,0.7,0.2,1.3,0.7,1.8c0.5,0.5,1.1,0.8,1.8,1c0.7,0.2,1.7,0.5,3,0.7c1.5,0.3,2.8,0.7,3.8,1
		c1,0.3,1.8,0.9,2.5,1.6c0.7,0.7,1,1.7,1,3c0,2.2-0.9,3.9-2.7,5.2c-1.8,1.2-4.3,1.9-7.3,1.9C955.3,727.4,953.6,727.2,951.9,726.6z"
		/>
</g>
<g class="st6">
	<path d="M974.6,714.2h11.3l-0.5,2.7h-11.3L974.6,714.2z"/>
</g>
<g class="st6">
	<path d="M100.3,777.8c-1.6-0.8-2.8-1.9-3.6-3.4c-0.8-1.4-1.3-3.1-1.3-5.1c0-2.6,0.6-4.8,1.7-6.9c1.1-2,2.7-3.6,4.7-4.8
		c2-1.2,4.3-1.7,6.8-1.7c2.1,0,3.9,0.4,5.4,1.1c1.5,0.8,2.7,1.9,3.5,3.4l-2.6,1.5c-1.3-2.2-3.5-3.4-6.6-3.4c-1.9,0-3.5,0.5-5.1,1.4
		c-1.5,0.9-2.7,2.2-3.5,3.8c-0.8,1.6-1.3,3.4-1.3,5.5c0,2.2,0.7,3.9,2,5.2c1.3,1.2,3.2,1.8,5.6,1.8c1.5,0,2.8-0.3,4.1-0.8
		c1.2-0.6,2.3-1.4,3.1-2.4l2.2,1.7c-1,1.3-2.3,2.4-4,3.2c-1.7,0.8-3.5,1.1-5.4,1.1C103.7,779,101.9,778.6,100.3,777.8z"/>
	<path d="M144.6,756.2l-4.5,22.6h-2.9l0.7-3.6c-1.1,1.2-2.4,2.1-3.9,2.8c-1.5,0.7-3.1,1-4.9,1c-1.9,0-3.6-0.4-5.1-1.2
		c-1.5-0.8-2.7-1.9-3.5-3.3c-0.8-1.4-1.2-3.1-1.2-5.1c0-2.6,0.6-4.8,1.7-6.9c1.1-2,2.6-3.6,4.6-4.8c1.9-1.2,4.1-1.7,6.5-1.7
		c2.1,0,4,0.4,5.4,1.3s2.5,2.1,3.2,3.6l0.9-4.7H144.6z M134.8,774.9c1.5-0.9,2.7-2.2,3.5-3.8c0.8-1.6,1.3-3.4,1.3-5.4
		c0-2.2-0.7-3.9-2-5.2c-1.3-1.2-3.1-1.9-5.5-1.9c-1.9,0-3.5,0.5-5,1.4c-1.5,0.9-2.7,2.2-3.5,3.8c-0.8,1.6-1.3,3.4-1.3,5.4
		c0,2.2,0.7,3.9,2,5.2c1.3,1.2,3.1,1.8,5.5,1.8C131.6,776.3,133.3,775.8,134.8,774.9z"/>
	<path d="M159,757.1c1.5-0.7,3.4-1.1,5.5-1.1l-0.6,3l-0.9,0c-2.4,0-4.4,0.7-6,2.1c-1.6,1.4-2.6,3.5-3.2,6.3l-2.3,11.5h-3.1l4.5-22.6
		h2.9l-0.8,4.1C156.2,758.8,157.5,757.8,159,757.1z"/>
	<path d="M190.7,756.2l-4,19.9c-0.8,4-2.2,6.8-4.4,8.6c-2.1,1.8-5.1,2.7-8.8,2.7c-2.1,0-4-0.3-5.7-0.9c-1.7-0.6-3.1-1.4-4.3-2.5
		l1.8-2.3c0.9,0.9,2.1,1.7,3.6,2.2c1.5,0.5,3.1,0.8,4.9,0.8c2.8,0,5-0.7,6.6-2c1.6-1.3,2.6-3.4,3.2-6.1l0.5-2.5
		c-1.1,1.2-2.4,2.2-3.9,2.9c-1.5,0.7-3.2,1-5.1,1c-3,0-5.4-0.8-7.2-2.5c-1.8-1.6-2.7-3.9-2.7-6.7c0-2.4,0.6-4.6,1.7-6.5
		s2.6-3.5,4.6-4.6c2-1.1,4.2-1.7,6.6-1.7c2.1,0,4,0.4,5.5,1.3c1.5,0.9,2.6,2.2,3.3,3.8l0.9-5H190.7z M180.8,773.9
		c1.5-0.9,2.7-2,3.5-3.6c0.8-1.5,1.3-3.2,1.3-5.1c0-2.1-0.7-3.7-2-4.8c-1.3-1.2-3.2-1.7-5.5-1.7c-1.9,0-3.6,0.4-5.1,1.3
		c-1.5,0.9-2.7,2-3.5,3.6c-0.8,1.5-1.3,3.2-1.3,5.1c0,2.1,0.7,3.7,2,4.8c1.3,1.2,3.2,1.7,5.5,1.7
		C177.6,775.2,179.3,774.8,180.8,773.9z"/>
	<path d="M219.9,756.2l-4.5,22.6h-2.9l0.7-3.6c-1.1,1.2-2.4,2.1-3.9,2.8c-1.5,0.7-3.1,1-4.9,1c-1.9,0-3.6-0.4-5.1-1.2
		c-1.5-0.8-2.7-1.9-3.5-3.3c-0.8-1.4-1.2-3.1-1.2-5.1c0-2.6,0.6-4.8,1.7-6.9c1.1-2,2.6-3.6,4.6-4.8c1.9-1.2,4.1-1.7,6.5-1.7
		c2.1,0,4,0.4,5.4,1.3s2.5,2.1,3.2,3.6l0.9-4.7H219.9z M210.1,774.9c1.5-0.9,2.7-2.2,3.5-3.8c0.8-1.6,1.3-3.4,1.3-5.4
		c0-2.2-0.7-3.9-2-5.2c-1.3-1.2-3.1-1.9-5.5-1.9c-1.9,0-3.5,0.5-5,1.4c-1.5,0.9-2.7,2.2-3.5,3.8c-0.8,1.6-1.3,3.4-1.3,5.4
		c0,2.2,0.7,3.9,2,5.2c1.3,1.2,3.1,1.8,5.5,1.8C206.9,776.3,208.6,775.8,210.1,774.9z"/>
	<path d="M234.4,757.1c1.5-0.7,3.4-1.1,5.5-1.1l-0.6,3l-0.9,0c-2.4,0-4.4,0.7-6,2.1c-1.6,1.4-2.6,3.5-3.2,6.3l-2.3,11.5h-3.1
		l4.5-22.6h2.9l-0.8,4.1C231.6,758.8,232.8,757.8,234.4,757.1z"/>
	<path d="M242.4,778.2c-1.6-0.5-2.9-1.2-3.8-2l1.5-2.4c0.9,0.7,2,1.3,3.4,1.8c1.4,0.5,2.9,0.7,4.4,0.7c2.1,0,3.8-0.4,5-1.1
		c1.2-0.7,1.7-1.7,1.7-3c0-0.7-0.2-1.3-0.7-1.7s-1.1-0.8-1.7-1c-0.7-0.2-1.7-0.5-3-0.8c-1.6-0.3-2.9-0.7-3.8-1s-1.8-0.9-2.5-1.6
		s-1-1.8-1-3.1c0-2.1,0.9-3.9,2.7-5.1c1.8-1.3,4.2-1.9,7.1-1.9c1.5,0,2.9,0.2,4.3,0.6c1.4,0.4,2.5,0.9,3.4,1.5l-1.3,2.5
		c-0.9-0.6-1.9-1.1-3-1.4c-1.2-0.3-2.4-0.5-3.6-0.5c-2.1,0-3.7,0.4-4.8,1.1c-1.1,0.7-1.7,1.7-1.7,3c0,0.7,0.2,1.3,0.7,1.8
		c0.5,0.5,1.1,0.8,1.8,1c0.7,0.2,1.7,0.5,3,0.7c1.5,0.3,2.8,0.7,3.8,1c1,0.3,1.8,0.9,2.5,1.6s1,1.7,1,3c0,2.2-0.9,3.9-2.7,5.2
		c-1.8,1.2-4.3,1.9-7.3,1.9C245.8,779,244.1,778.8,242.4,778.2z"/>
	<path d="M264.9,768.3c0,0.2,0,0.5,0,0.9c0,2.3,0.7,4,2,5.2c1.3,1.2,3.2,1.8,5.8,1.8c1.5,0,2.9-0.3,4.2-0.8c1.3-0.5,2.4-1.2,3.2-2.1
		l1.4,2.2c-1.1,1.1-2.4,1.9-4,2.5s-3.3,0.9-5.1,0.9c-3.3,0-5.8-0.9-7.7-2.6c-1.9-1.7-2.8-4.1-2.8-7.1c0-2.5,0.5-4.8,1.6-6.8
		c1.1-2,2.6-3.6,4.5-4.8c1.9-1.2,4-1.7,6.4-1.7c3,0,5.4,0.9,7.2,2.6c1.8,1.7,2.7,4,2.7,7c0,0.8-0.1,1.7-0.3,2.8H264.9z M268.4,760.6
		c-1.6,1.3-2.7,3.2-3.3,5.5h16.1c0-0.2,0-0.5,0-0.8c0-2.1-0.6-3.8-1.9-4.9s-3-1.7-5.2-1.7C272,758.6,270.1,759.3,268.4,760.6z"/>
	<path d="M302.1,768.3c0,0.2,0,0.5,0,0.9c0,2.3,0.7,4,2,5.2c1.3,1.2,3.2,1.8,5.8,1.8c1.5,0,2.9-0.3,4.2-0.8c1.3-0.5,2.4-1.2,3.2-2.1
		l1.4,2.2c-1.1,1.1-2.4,1.9-4,2.5s-3.3,0.9-5.1,0.9c-3.3,0-5.8-0.9-7.7-2.6c-1.9-1.7-2.8-4.1-2.8-7.1c0-2.5,0.5-4.8,1.6-6.8
		c1.1-2,2.6-3.6,4.5-4.8c1.9-1.2,4-1.7,6.4-1.7c3,0,5.4,0.9,7.2,2.6c1.8,1.7,2.7,4,2.7,7c0,0.8-0.1,1.7-0.3,2.8H302.1z M305.7,760.6
		c-1.6,1.3-2.7,3.2-3.3,5.5h16.1c0-0.2,0-0.5,0-0.8c0-2.1-0.6-3.8-1.9-4.9s-3-1.7-5.2-1.7C309.2,758.6,307.3,759.3,305.7,760.6z"/>
	<path d="M346.7,758c1.4,1.3,2.1,3.1,2.1,5.4c0,0.8-0.1,1.7-0.3,2.6l-2.6,12.9H343l2.6-12.9c0.1-0.8,0.2-1.5,0.2-2.1
		c0-1.6-0.5-2.9-1.5-3.8c-1-0.9-2.4-1.3-4.4-1.3c-2.4,0-4.4,0.7-6,2c-1.6,1.3-2.6,3.3-3.2,5.9l-2.4,12.1h-3.1l4.5-22.6h2.9l-0.7,3.6
		c2.1-2.5,5.1-3.8,8.9-3.8C343.3,756,345.3,756.7,346.7,758z"/>
	<path d="M390.5,756.2l-4.5,22.6h-2.9l0.7-3.6c-2.1,2.6-5,3.8-8.7,3.8c-2.5,0-4.5-0.7-5.9-2s-2.1-3.1-2.1-5.4c0-0.8,0.1-1.6,0.3-2.5
		l2.6-12.9h3.1l-2.6,12.9c-0.1,0.8-0.2,1.5-0.2,2c0,1.7,0.5,2.9,1.4,3.8c1,0.9,2.4,1.3,4.3,1.3c2.4,0,4.4-0.7,6-2
		c1.6-1.3,2.6-3.3,3.2-5.9l2.4-12.2H390.5z"/>
	<path d="M416,758c1.4,1.3,2.1,3.1,2.1,5.4c0,0.8-0.1,1.7-0.3,2.6l-2.6,12.9h-3.1l2.6-12.9c0.1-0.8,0.2-1.5,0.2-2.1
		c0-1.6-0.5-2.9-1.5-3.8c-1-0.9-2.4-1.3-4.4-1.3c-2.4,0-4.4,0.7-6,2c-1.6,1.3-2.6,3.3-3.2,5.9l-2.4,12.1h-3.1l4.5-22.6h2.9l-0.7,3.6
		c2.1-2.5,5.1-3.8,8.9-3.8C412.6,756,414.6,756.7,416,758z"/>
	<path d="M473,757.9c1.4,1.3,2.1,3.1,2.1,5.4c0,0.7-0.1,1.5-0.3,2.7l-2.6,12.9h-3.1l2.6-12.9c0.1-0.7,0.2-1.4,0.2-2.1
		c0-1.6-0.5-2.8-1.4-3.7c-0.9-0.9-2.3-1.3-4.2-1.3c-2.3,0-4.2,0.6-5.7,1.9c-1.5,1.3-2.5,3.2-3.1,5.7l-2.5,12.5h-3.1l2.6-12.9
		c0.1-0.8,0.2-1.5,0.2-2.1c0-1.6-0.5-2.9-1.4-3.8c-0.9-0.9-2.3-1.3-4.2-1.3c-2.3,0-4.2,0.7-5.8,2c-1.5,1.3-2.6,3.3-3.1,5.9
		l-2.4,12.1h-3.1l4.5-22.6h2.9l-0.7,3.6c2.1-2.5,4.9-3.8,8.6-3.8c1.9,0,3.5,0.4,4.8,1.2c1.3,0.8,2.2,1.9,2.6,3.4
		c1.1-1.5,2.5-2.6,4.1-3.4c1.6-0.8,3.4-1.1,5.4-1.1C469.7,756,471.6,756.6,473,757.9z"/>
	<path d="M485.3,777.8c-1.5-0.8-2.7-1.9-3.6-3.4c-0.8-1.4-1.3-3.1-1.3-5.1c0-2.6,0.6-4.8,1.7-6.9c1.1-2,2.7-3.6,4.7-4.8
		c2-1.2,4.2-1.7,6.7-1.7c3.2,0,5.7,0.9,7.5,2.6c1.8,1.7,2.8,4,2.8,7c0,2.6-0.6,4.9-1.7,6.9c-1.1,2-2.7,3.7-4.7,4.8
		c-2,1.2-4.2,1.7-6.7,1.7C488.6,779,486.8,778.6,485.3,777.8z M496,774.9c1.5-0.9,2.7-2.2,3.5-3.8c0.8-1.6,1.3-3.4,1.3-5.4
		c0-2.2-0.7-3.9-2-5.2c-1.3-1.2-3.1-1.9-5.5-1.9c-1.9,0-3.5,0.5-5,1.4c-1.5,0.9-2.7,2.2-3.5,3.8c-0.8,1.6-1.3,3.4-1.3,5.4
		c0,2.2,0.7,3.9,2,5.2c1.3,1.2,3.1,1.8,5.5,1.8C492.8,776.3,494.5,775.8,496,774.9z"/>
	<path d="M545.7,757.9c1.4,1.3,2.1,3.1,2.1,5.4c0,0.7-0.1,1.5-0.3,2.7l-2.6,12.9h-3.1l2.6-12.9c0.1-0.7,0.2-1.4,0.2-2.1
		c0-1.6-0.5-2.8-1.4-3.7c-0.9-0.9-2.3-1.3-4.2-1.3c-2.3,0-4.2,0.6-5.7,1.9c-1.5,1.3-2.5,3.2-3.1,5.7l-2.5,12.5h-3.1l2.6-12.9
		c0.1-0.8,0.2-1.5,0.2-2.1c0-1.6-0.5-2.9-1.4-3.8c-0.9-0.9-2.3-1.3-4.2-1.3c-2.3,0-4.2,0.7-5.8,2c-1.5,1.3-2.6,3.3-3.1,5.9
		l-2.4,12.1h-3.1l4.5-22.6h2.9l-0.7,3.6c2.1-2.5,4.9-3.8,8.6-3.8c1.9,0,3.5,0.4,4.8,1.2c1.3,0.8,2.2,1.9,2.6,3.4
		c1.1-1.5,2.5-2.6,4.1-3.4c1.6-0.8,3.4-1.1,5.4-1.1C542.3,756,544.3,756.6,545.7,757.9z"/>
	<path d="M556.2,768.3c0,0.2,0,0.5,0,0.9c0,2.3,0.7,4,2,5.2s3.2,1.8,5.8,1.8c1.5,0,2.9-0.3,4.2-0.8c1.3-0.5,2.4-1.2,3.2-2.1l1.4,2.2
		c-1.1,1.1-2.4,1.9-4,2.5s-3.3,0.9-5.1,0.9c-3.3,0-5.8-0.9-7.7-2.6c-1.9-1.7-2.8-4.1-2.8-7.1c0-2.5,0.5-4.8,1.6-6.8
		c1.1-2,2.6-3.6,4.5-4.8s4-1.7,6.4-1.7c3,0,5.4,0.9,7.2,2.6c1.8,1.7,2.7,4,2.7,7c0,0.8-0.1,1.7-0.3,2.8H556.2z M559.7,760.6
		c-1.6,1.3-2.7,3.2-3.3,5.5h16.1c0-0.2,0-0.5,0-0.8c0-2.1-0.6-3.8-1.9-4.9s-3-1.7-5.2-1.7C563.3,758.6,561.3,759.3,559.7,760.6z"/>
	<path d="M600.8,758c1.4,1.3,2.1,3.1,2.1,5.4c0,0.8-0.1,1.7-0.3,2.6l-2.6,12.9H597l2.6-12.9c0.1-0.8,0.2-1.5,0.2-2.1
		c0-1.6-0.5-2.9-1.5-3.8c-1-0.9-2.4-1.3-4.4-1.3c-2.4,0-4.4,0.7-6,2c-1.6,1.3-2.6,3.3-3.2,5.9l-2.4,12.1h-3.1l4.5-22.6h2.9l-0.7,3.6
		c2.2-2.5,5.1-3.8,8.9-3.8C597.4,756,599.4,756.7,600.8,758z"/>
	<path d="M613.3,772c-0.1,0.7-0.2,1.2-0.2,1.4c0,2,1.1,3,3.3,3c1.3,0,2.5-0.4,3.5-1.2l0.7,2.3c-1.3,1-3,1.5-5,1.5
		c-1.7,0-3-0.5-4-1.4c-1-0.9-1.5-2.2-1.5-3.8c0-0.6,0.1-1.2,0.2-1.8l2.6-13.3h-4l0.5-2.6h4l1-4.9h3.1l-1,4.9h6.9l-0.5,2.6h-6.9
		L613.3,772z"/>
	<path d="M629.7,777.8c-1.5-0.8-2.7-1.9-3.6-3.4c-0.8-1.4-1.3-3.1-1.3-5.1c0-2.6,0.6-4.8,1.7-6.9c1.1-2,2.7-3.6,4.7-4.8
		s4.2-1.7,6.7-1.7c3.2,0,5.7,0.9,7.5,2.6c1.8,1.7,2.8,4,2.8,7c0,2.6-0.6,4.9-1.7,6.9c-1.1,2-2.7,3.7-4.7,4.8s-4.2,1.7-6.7,1.7
		C633,779,631.2,778.6,629.7,777.8z M640.4,774.9c1.5-0.9,2.7-2.2,3.5-3.8c0.8-1.6,1.3-3.4,1.3-5.4c0-2.2-0.7-3.9-2-5.2
		c-1.3-1.2-3.1-1.9-5.5-1.9c-1.9,0-3.5,0.5-5,1.4c-1.5,0.9-2.7,2.2-3.5,3.8c-0.8,1.6-1.3,3.4-1.3,5.4c0,2.2,0.7,3.9,2,5.2
		s3.1,1.8,5.5,1.8C637.2,776.3,638.9,775.8,640.4,774.9z"/>
	<path d="M690.3,746.9l-6.4,31.9H681l0.7-3.6c-1.1,1.2-2.4,2.1-3.9,2.8c-1.5,0.7-3.1,1-4.9,1c-1.9,0-3.6-0.4-5.1-1.2
		c-1.5-0.8-2.7-1.9-3.5-3.3s-1.2-3.1-1.2-5.1c0-2.6,0.6-4.8,1.7-6.9c1.1-2,2.6-3.6,4.6-4.8c1.9-1.2,4.1-1.7,6.5-1.7
		c2.1,0,3.9,0.4,5.4,1.3c1.5,0.8,2.5,2.1,3.2,3.6l2.8-14H690.3z M678.6,774.9c1.5-0.9,2.7-2.2,3.5-3.8c0.8-1.6,1.3-3.4,1.3-5.4
		c0-2.2-0.7-3.9-2-5.2c-1.3-1.2-3.1-1.9-5.5-1.9c-1.9,0-3.5,0.5-5,1.4c-1.5,0.9-2.7,2.2-3.5,3.8c-0.8,1.6-1.3,3.4-1.3,5.4
		c0,2.2,0.7,3.9,2,5.2c1.3,1.2,3.1,1.8,5.5,1.8C675.4,776.3,677.1,775.8,678.6,774.9z"/>
	<path d="M695.3,768.3c0,0.2,0,0.5,0,0.9c0,2.3,0.7,4,2,5.2c1.3,1.2,3.2,1.8,5.8,1.8c1.5,0,2.9-0.3,4.2-0.8s2.4-1.2,3.2-2.1l1.4,2.2
		c-1.1,1.1-2.4,1.9-4,2.5s-3.3,0.9-5.1,0.9c-3.3,0-5.8-0.9-7.7-2.6c-1.9-1.7-2.8-4.1-2.8-7.1c0-2.5,0.5-4.8,1.6-6.8
		c1.1-2,2.6-3.6,4.5-4.8c1.9-1.2,4-1.7,6.4-1.7c3,0,5.4,0.9,7.2,2.6c1.8,1.7,2.7,4,2.7,7c0,0.8-0.1,1.7-0.3,2.8H695.3z M698.8,760.6
		c-1.6,1.3-2.7,3.2-3.3,5.5h16.1c0-0.2,0-0.5,0-0.8c0-2.1-0.6-3.8-1.9-4.9s-3-1.7-5.2-1.7C702.4,758.6,700.4,759.3,698.8,760.6z"/>
	<path d="M723.3,772c-0.1,0.7-0.2,1.2-0.2,1.4c0,2,1.1,3,3.3,3c1.3,0,2.5-0.4,3.5-1.2l0.7,2.3c-1.3,1-3,1.5-5,1.5
		c-1.7,0-3-0.5-4-1.4c-1-0.9-1.5-2.2-1.5-3.8c0-0.6,0.1-1.2,0.2-1.8l2.6-13.3h-4l0.5-2.6h4l1-4.9h3.1l-1,4.9h6.9l-0.5,2.6h-6.9
		L723.3,772z"/>
	<path d="M737.9,768.3c0,0.2,0,0.5,0,0.9c0,2.3,0.7,4,2,5.2c1.3,1.2,3.2,1.8,5.8,1.8c1.5,0,2.9-0.3,4.2-0.8s2.4-1.2,3.2-2.1l1.4,2.2
		c-1.1,1.1-2.4,1.9-4,2.5s-3.3,0.9-5.1,0.9c-3.3,0-5.8-0.9-7.7-2.6c-1.9-1.7-2.8-4.1-2.8-7.1c0-2.5,0.5-4.8,1.6-6.8
		c1.1-2,2.6-3.6,4.5-4.8c1.9-1.2,4-1.7,6.4-1.7c3,0,5.4,0.9,7.2,2.6c1.8,1.7,2.7,4,2.7,7c0,0.8-0.1,1.7-0.3,2.8H737.9z M741.4,760.6
		c-1.6,1.3-2.7,3.2-3.3,5.5h16.1c0-0.2,0-0.5,0-0.8c0-2.1-0.6-3.8-1.9-4.9s-3-1.7-5.2-1.7C745,758.6,743,759.3,741.4,760.6z"/>
	<path d="M771.4,757.1c1.5-0.7,3.4-1.1,5.5-1.1l-0.6,3l-0.9,0c-2.4,0-4.4,0.7-6,2.1c-1.6,1.4-2.6,3.5-3.2,6.3l-2.3,11.5H761
		l4.5-22.6h2.9l-0.8,4.1C768.6,758.8,769.9,757.8,771.4,757.1z"/>
	<path d="M816,757.9c1.4,1.3,2.1,3.1,2.1,5.4c0,0.7-0.1,1.5-0.3,2.7l-2.6,12.9h-3.1l2.6-12.9c0.1-0.7,0.2-1.4,0.2-2.1
		c0-1.6-0.5-2.8-1.4-3.7c-0.9-0.9-2.3-1.3-4.2-1.3c-2.3,0-4.2,0.6-5.7,1.9c-1.5,1.3-2.5,3.2-3.1,5.7l-2.5,12.5H795l2.6-12.9
		c0.1-0.8,0.2-1.5,0.2-2.1c0-1.6-0.5-2.9-1.4-3.8c-0.9-0.9-2.3-1.3-4.2-1.3c-2.3,0-4.2,0.7-5.8,2c-1.5,1.3-2.6,3.3-3.1,5.9
		l-2.4,12.1h-3.1l4.5-22.6h2.9l-0.7,3.6c2.1-2.5,4.9-3.8,8.6-3.8c1.9,0,3.5,0.4,4.8,1.2c1.3,0.8,2.2,1.9,2.6,3.4
		c1.1-1.5,2.5-2.6,4.1-3.4s3.4-1.1,5.4-1.1C812.6,756,814.6,756.6,816,757.9z"/>
	<path d="M828,756.2h3.1l-4.5,22.6h-3.1L828,756.2z M829.4,750.6c-0.4-0.4-0.6-0.9-0.6-1.4c0-0.7,0.2-1.2,0.7-1.7
		c0.4-0.4,1-0.7,1.7-0.7c0.6,0,1.1,0.2,1.5,0.6c0.4,0.4,0.6,0.8,0.6,1.4c0,0.7-0.2,1.3-0.7,1.7c-0.5,0.5-1,0.7-1.7,0.7
		C830.2,751.2,829.7,751,829.4,750.6z"/>
	<path d="M856.6,758c1.4,1.3,2.1,3.1,2.1,5.4c0,0.8-0.1,1.7-0.3,2.6l-2.6,12.9h-3.1l2.6-12.9c0.1-0.8,0.2-1.5,0.2-2.1
		c0-1.6-0.5-2.9-1.5-3.8c-1-0.9-2.4-1.3-4.4-1.3c-2.4,0-4.4,0.7-6,2c-1.6,1.3-2.6,3.3-3.2,5.9l-2.4,12.1h-3.1l4.5-22.6h2.9l-0.7,3.6
		c2.2-2.5,5.1-3.8,8.9-3.8C853.2,756,855.2,756.7,856.6,758z"/>
	<path d="M889.4,756.2l-4.5,22.6H882l0.7-3.6c-1.1,1.2-2.4,2.1-3.9,2.8c-1.5,0.7-3.1,1-4.9,1c-1.9,0-3.6-0.4-5.1-1.2
		c-1.5-0.8-2.7-1.9-3.5-3.3s-1.2-3.1-1.2-5.1c0-2.6,0.6-4.8,1.7-6.9c1.1-2,2.6-3.6,4.6-4.8c1.9-1.2,4.1-1.7,6.5-1.7
		c2.1,0,4,0.4,5.4,1.3s2.5,2.1,3.2,3.6l0.9-4.7H889.4z M879.6,774.9c1.5-0.9,2.7-2.2,3.5-3.8c0.8-1.6,1.3-3.4,1.3-5.4
		c0-2.2-0.7-3.9-2-5.2c-1.3-1.2-3.1-1.9-5.5-1.9c-1.9,0-3.5,0.5-5,1.4c-1.5,0.9-2.7,2.2-3.5,3.8c-0.8,1.6-1.3,3.4-1.3,5.4
		c0,2.2,0.7,3.9,2,5.2c1.3,1.2,3.1,1.8,5.5,1.8C876.4,776.3,878.1,775.8,879.6,774.9z"/>
	<path d="M920.4,746.9l-6.4,31.9h-2.9l0.7-3.6c-1.1,1.2-2.4,2.1-3.9,2.8c-1.5,0.7-3.1,1-4.9,1c-1.9,0-3.6-0.4-5.1-1.2
		c-1.5-0.8-2.7-1.9-3.5-3.3s-1.2-3.1-1.2-5.1c0-2.6,0.6-4.8,1.7-6.9c1.1-2,2.6-3.6,4.6-4.8c1.9-1.2,4.1-1.7,6.5-1.7
		c2.1,0,3.9,0.4,5.4,1.3c1.5,0.8,2.5,2.1,3.2,3.6l2.8-14H920.4z M908.8,774.9c1.5-0.9,2.7-2.2,3.5-3.8c0.8-1.6,1.3-3.4,1.3-5.4
		c0-2.2-0.7-3.9-2-5.2c-1.3-1.2-3.1-1.9-5.5-1.9c-1.9,0-3.5,0.5-5,1.4c-1.5,0.9-2.7,2.2-3.5,3.8c-0.8,1.6-1.3,3.4-1.3,5.4
		c0,2.2,0.7,3.9,2,5.2c1.3,1.2,3.1,1.8,5.5,1.8C905.6,776.3,907.3,775.8,908.8,774.9z"/>
	<path d="M927.2,777.8c-1.5-0.8-2.7-1.9-3.6-3.4s-1.3-3.1-1.3-5.1c0-2.6,0.6-4.8,1.7-6.9c1.1-2,2.7-3.6,4.7-4.8
		c2-1.2,4.2-1.7,6.7-1.7c3.2,0,5.7,0.9,7.5,2.6c1.8,1.7,2.8,4,2.8,7c0,2.6-0.6,4.9-1.7,6.9c-1.1,2-2.7,3.7-4.7,4.8
		c-2,1.2-4.2,1.7-6.7,1.7C930.6,779,928.8,778.6,927.2,777.8z M937.9,774.9c1.5-0.9,2.7-2.2,3.5-3.8c0.8-1.6,1.3-3.4,1.3-5.4
		c0-2.2-0.7-3.9-2-5.2c-1.3-1.2-3.1-1.9-5.5-1.9c-1.9,0-3.5,0.5-5,1.4c-1.5,0.9-2.7,2.2-3.5,3.8c-0.8,1.6-1.3,3.4-1.3,5.4
		c0,2.2,0.7,3.9,2,5.2c1.3,1.2,3.1,1.8,5.5,1.8C934.7,776.3,936.4,775.8,937.9,774.9z"/>
	<path d="M948,778.4c-0.4-0.4-0.6-1-0.6-1.6c0-0.7,0.2-1.3,0.7-1.7c0.5-0.5,1-0.7,1.7-0.7c0.6,0,1.2,0.2,1.6,0.6
		c0.4,0.4,0.6,1,0.6,1.6c0,0.7-0.2,1.3-0.7,1.7c-0.5,0.5-1,0.7-1.7,0.7C948.9,779,948.4,778.8,948,778.4z"/>
</g>
<g class="st7">
	<path d="M124.3,568c2.3,3.9,3.5,8.5,3.5,13.8c0,7.9-2.5,14.2-7.5,19s-11.5,7.1-19.4,7.1s-14.3-2.4-19.4-7.1c-5-4.8-7.5-11.1-7.5-19
		c0-3.5,0.5-7.1,1.4-10.6s3.1-8.9,6.5-16.1l14.3-30.4h28.5l-10.2,34.4C118.7,561.2,122,564.1,124.3,568z M183.4,568
		c2.3,3.9,3.5,8.5,3.5,13.8c0,7.9-2.5,14.2-7.5,19s-11.5,7.1-19.4,7.1s-14.3-2.4-19.4-7.1c-5-4.8-7.5-11.1-7.5-19
		c0-3.5,0.5-7.1,1.4-10.6s3.1-8.9,6.5-16.1l14.3-30.4h28.5l-10.2,34.4C177.8,561.2,181.1,564.1,183.4,568z"/>
</g>
<g>
	<rect x="506.9" y="324.8" width="200.3" height="9"/>
</g>
<g>
	<path d="M526.8,135.5v18.7h32.7v13.1h-32.7v25.8h-16.4v-70.7h53.4v13.1L526.8,135.5L526.8,135.5z"/>
	<path d="M595.6,139.9c3.2-1.3,6.9-2,11.1-2v14.5c-1.8-0.1-2.9-0.2-3.5-0.2c-4.5,0-8,1.3-10.6,3.8s-3.8,6.3-3.8,11.4v25.7H573v-54.3
		h15v7.2C589.8,143.3,592.4,141.3,595.6,139.9z"/>
	<path d="M657,143.9c4.5,4,6.8,10,6.8,18.1v31H649v-6.8c-3,5.1-8.5,7.6-16.6,7.6c-4.2,0-7.8-0.7-10.9-2.1c-3.1-1.4-5.4-3.4-7-5.9
		s-2.4-5.3-2.4-8.5c0-5.1,1.9-9,5.7-11.9s9.7-4.3,17.6-4.3H648c0-3.4-1-6.1-3.1-7.9c-2.1-1.9-5.2-2.8-9.4-2.8
		c-2.9,0-5.7,0.5-8.5,1.4s-5.2,2.1-7.1,3.7l-5.7-11c3-2.1,6.5-3.7,10.7-4.8c4.1-1.1,8.4-1.7,12.8-1.7
		C646.1,137.9,652.5,139.9,657,143.9z M643.6,181.4c2.1-1.2,3.6-3.1,4.4-5.5v-5.6h-10.8c-6.5,0-9.7,2.1-9.7,6.4c0,2,0.8,3.6,2.4,4.8
		c1.6,1.2,3.8,1.8,6.5,1.8C639.1,183.3,641.5,182.6,643.6,181.4z"/>
	<path d="M727.4,144c4.1,4,6.2,10,6.2,18v31.1h-15.8v-28.7c0-4.3-0.9-7.5-2.8-9.6c-1.9-2.1-4.6-3.2-8.2-3.2c-4,0-7.1,1.2-9.5,3.7
		s-3.5,6.1-3.5,11v26.9H678v-54.3h15v6.4c2.1-2.3,4.7-4.1,7.8-5.3s6.5-1.9,10.2-1.9C717.8,137.9,723.2,139.9,727.4,144z"/>
	<path d="M759.1,190.3c-4.6-2.4-8.2-5.7-10.8-9.9s-3.9-9.1-3.9-14.4c0-5.4,1.3-10.2,3.9-14.4c2.6-4.2,6.2-7.6,10.8-9.9
		c4.6-2.4,9.8-3.6,15.6-3.6c5.7,0,10.7,1.2,15,3.6c4.3,2.4,7.4,5.8,9.3,10.3l-12.2,6.6c-2.8-5-6.9-7.5-12.2-7.5
		c-4.1,0-7.5,1.3-10.2,4s-4,6.4-4,11s1.3,8.3,4,11s6.1,4,10.2,4c5.4,0,9.5-2.5,12.2-7.5l12.2,6.7c-2,4.3-5.1,7.7-9.3,10.1
		c-4.3,2.4-9.3,3.6-15,3.6C768.9,193.9,763.7,192.7,759.1,190.3z"/>
	<path d="M808.9,128.6c-1.8-1.7-2.7-3.8-2.7-6.3s0.9-4.6,2.7-6.3c1.8-1.7,4.2-2.5,7.1-2.5c2.9,0,5.3,0.8,7.1,2.4s2.7,3.6,2.7,6.1
		c0,2.6-0.9,4.8-2.7,6.5s-4.2,2.6-7.1,2.6C813.1,131.1,810.7,130.3,808.9,128.6z M808.1,138.7h15.8V193h-15.8V138.7z"/>
	<path d="M843.6,192.2c-4.3-1.1-7.7-2.5-10.3-4.2l5.3-11.3c2.4,1.5,5.4,2.8,8.8,3.8c3.4,1,6.8,1.5,10.1,1.5c6.7,0,10-1.6,10-4.9
		c0-1.5-0.9-2.7-2.7-3.3c-1.8-0.7-4.6-1.2-8.4-1.7c-4.4-0.7-8.1-1.4-11-2.3c-2.9-0.9-5.4-2.4-7.5-4.6c-2.1-2.2-3.2-5.4-3.2-9.5
		c0-3.4,1-6.5,3-9.1c2-2.7,4.9-4.7,8.7-6.2s8.3-2.2,13.5-2.2c3.8,0,7.7,0.4,11.5,1.3c3.8,0.8,7,2,9.4,3.5l-5.3,11.2
		c-4.8-2.7-10-4-15.7-4c-3.4,0-5.9,0.5-7.6,1.4c-1.7,0.9-2.5,2.2-2.5,3.6c0,1.7,0.9,2.9,2.7,3.5c1.8,0.7,4.7,1.3,8.7,1.9
		c4.4,0.7,8.1,1.5,10.9,2.4c2.8,0.8,5.3,2.4,7.4,4.6c2.1,2.2,3.1,5.3,3.1,9.3c0,3.4-1,6.4-3,9s-5,4.7-8.8,6.1
		c-3.9,1.4-8.5,2.2-13.8,2.2C852.3,193.9,847.9,193.3,843.6,192.2z"/>
	<path d="M902.8,190.3c-4.6-2.4-8.2-5.7-10.8-9.9s-3.9-9.1-3.9-14.4c0-5.4,1.3-10.2,3.9-14.4c2.6-4.2,6.2-7.6,10.8-9.9
		c4.6-2.4,9.8-3.6,15.6-3.6c5.7,0,10.7,1.2,15,3.6c4.3,2.4,7.4,5.8,9.3,10.3l-12.2,6.6c-2.8-5-6.9-7.5-12.2-7.5
		c-4.1,0-7.5,1.3-10.2,4s-4,6.4-4,11s1.3,8.3,4,11s6.1,4,10.2,4c5.4,0,9.5-2.5,12.2-7.5l12.2,6.7c-2,4.3-5.1,7.7-9.3,10.1
		c-4.3,2.4-9.3,3.6-15,3.6C912.6,193.9,907.4,192.7,902.8,190.3z"/>
	<path d="M961.6,190.3c-4.5-2.4-8.1-5.7-10.7-9.9c-2.6-4.2-3.8-9.1-3.8-14.4c0-5.4,1.3-10.2,3.8-14.4c2.6-4.2,6.1-7.6,10.7-9.9
		c4.5-2.4,9.7-3.6,15.4-3.6s10.8,1.2,15.4,3.6c4.5,2.4,8,5.7,10.6,9.9s3.8,9.1,3.8,14.4c0,5.4-1.3,10.2-3.8,14.4
		c-2.6,4.2-6.1,7.6-10.6,9.9c-4.5,2.4-9.6,3.6-15.4,3.6C971.3,193.9,966.1,192.7,961.6,190.3z M986.9,176.8c2.6-2.7,3.9-6.4,3.9-11
		s-1.3-8.2-3.9-11c-2.6-2.7-5.9-4.1-9.9-4.1s-7.4,1.4-10,4.1s-3.9,6.4-3.9,11s1.3,8.2,3.9,11s6,4.1,10,4.1S984.3,179.6,986.9,176.8z
		"/>
</g>
<g>
	<path d="M530.4,275.7v6.1h-24.3V277l12.4-11.7c1.3-1.3,2.2-2.3,2.7-3.2c0.5-0.9,0.7-1.8,0.7-2.7c0-1.3-0.4-2.3-1.3-3s-2.2-1-3.8-1
		c-1.4,0-2.7,0.3-3.8,0.8c-1.1,0.5-2.1,1.3-2.9,2.4l-5.4-3.5c1.3-1.9,3-3.3,5.2-4.4s4.7-1.6,7.6-1.6c2.4,0,4.5,0.4,6.3,1.2
		s3.2,1.9,4.2,3.3c1,1.4,1.5,3.1,1.5,5c0,1.7-0.4,3.4-1.1,4.9c-0.7,1.5-2.2,3.3-4.3,5.2l-7.4,7L530.4,275.7L530.4,275.7z"/>
	<path d="M562.6,275h-5.2v6.8H550V275h-17.3v-5l15.2-20.4h7.8L541.6,269h8.6v-6h7v6h5.2v6H562.6z"/>
	<path d="M598.1,259.4c2.1,1.8,3.1,4.6,3.1,8.3v14.1h-6.7v-3.1c-1.3,2.3-3.9,3.5-7.5,3.5c-1.9,0-3.5-0.3-4.9-1s-2.5-1.5-3.2-2.7
		c-0.7-1.1-1.1-2.4-1.1-3.9c0-2.3,0.9-4.1,2.6-5.4c1.7-1.3,4.4-2,8-2h5.7c0-1.6-0.5-2.8-1.4-3.6c-1-0.8-2.4-1.3-4.3-1.3
		c-1.3,0-2.6,0.2-3.9,0.6c-1.3,0.4-2.4,1-3.2,1.7l-2.6-5c1.3-1,3-1.7,4.9-2.2s3.8-0.8,5.8-0.8C593.1,256.6,596.1,257.5,598.1,259.4z
		 M592,276.4c1-0.6,1.6-1.4,2-2.5v-2.5h-4.9c-2.9,0-4.4,1-4.4,2.9c0,0.9,0.4,1.6,1.1,2.2c0.7,0.5,1.7,0.8,3,0.8
		C590,277.3,591,277,592,276.4z"/>
	<path d="M630.1,259.4c1.9,1.8,2.8,4.6,2.8,8.2v14.2h-7.2v-13.1c0-2-0.4-3.4-1.3-4.4c-0.9-1-2.1-1.4-3.7-1.4c-1.8,0-3.3,0.6-4.3,1.7
		c-1.1,1.1-1.6,2.8-1.6,5v12.2h-7.2V257h6.9v2.9c1-1,2.1-1.8,3.5-2.4s3-0.9,4.6-0.9C625.8,256.6,628.3,257.5,630.1,259.4z
		 M621.6,253.5c-0.6-0.3-1.3-0.8-2.1-1.3c-0.5-0.4-0.9-0.6-1.2-0.8s-0.6-0.3-0.9-0.3c-0.6,0-1.2,0.2-1.6,0.7
		c-0.4,0.4-0.6,1.1-0.6,1.9h-3.6c0.1-2.1,0.6-3.7,1.5-4.9c1-1.2,2.2-1.8,3.8-1.8c0.8,0,1.5,0.2,2.1,0.5s1.3,0.8,2.1,1.4
		c0.5,0.4,0.9,0.6,1.2,0.8s0.6,0.3,0.9,0.3c0.6,0,1.1-0.2,1.5-0.7c0.4-0.4,0.6-1.1,0.7-1.8h3.6c-0.1,2-0.6,3.6-1.5,4.8
		c-1,1.2-2.2,1.8-3.8,1.8C623,254,622.3,253.8,621.6,253.5z"/>
	<path d="M644.5,280.5c-2.1-1.1-3.7-2.6-4.9-4.5s-1.7-4.1-1.7-6.6s0.6-4.6,1.7-6.6c1.2-1.9,2.8-3.4,4.9-4.5c2.1-1.1,4.4-1.6,7-1.6
		s4.9,0.5,7,1.6s3.7,2.6,4.8,4.5c1.2,1.9,1.7,4.1,1.7,6.6s-0.6,4.6-1.7,6.6c-1.2,1.9-2.8,3.4-4.8,4.5c-2.1,1.1-4.4,1.6-7,1.6
		S646.6,281.6,644.5,280.5z M656,274.4c1.2-1.2,1.8-2.9,1.8-5s-0.6-3.7-1.8-5c-1.2-1.2-2.7-1.9-4.5-1.9s-3.4,0.6-4.6,1.9
		c-1.2,1.2-1.8,2.9-1.8,5s0.6,3.7,1.8,5c1.2,1.2,2.7,1.9,4.6,1.9S654.9,275.6,656,274.4z"/>
	<path d="M672.2,281.3c-2-0.5-3.5-1.1-4.7-1.9l2.4-5.2c1.1,0.7,2.4,1.3,4,1.7c1.6,0.4,3.1,0.7,4.6,0.7c3,0,4.6-0.8,4.6-2.3
		c0-0.7-0.4-1.2-1.2-1.5s-2.1-0.6-3.8-0.8c-2-0.3-3.7-0.7-5-1.1s-2.5-1.1-3.4-2.1c-1-1-1.4-2.5-1.4-4.3c0-1.6,0.5-3,1.4-4.2
		s2.2-2.2,4-2.8c1.7-0.7,3.8-1,6.1-1c1.7,0,3.5,0.2,5.2,0.6s3.2,0.9,4.3,1.6l-2.4,5.1c-2.2-1.2-4.6-1.8-7.1-1.8
		c-1.5,0-2.7,0.2-3.4,0.6c-0.8,0.4-1.2,1-1.2,1.7c0,0.8,0.4,1.3,1.2,1.6c0.8,0.3,2.1,0.6,4,0.9c2,0.3,3.7,0.7,5,1.1s2.4,1.1,3.4,2.1
		c0.9,1,1.4,2.4,1.4,4.2c0,1.5-0.5,2.9-1.4,4.1s-2.3,2.1-4,2.8c-1.8,0.7-3.9,1-6.3,1C676.1,282.1,674.1,281.9,672.2,281.3z"/>
</g>
<g>
	<g>
		<g>
			<g>
				<g>
					<path class="st8" d="M582.1,1019.2h-84.3c-24.7,0-46.7-21.1-46.7-46.7s21.1-46.7,46.7-46.7h84.3c25.6,0,46.7,21.1,46.7,46.7
						S606.9,1019.2,582.1,1019.2z M497.9,934c-21.1,0-38.5,17.4-38.5,38.5s17.4,38.5,38.5,38.5h84.3c21.1,0,38.5-17.4,38.5-38.5
						S603.2,934,582.1,934H497.9z"/>
				</g>
			</g>
			
				<ellipse transform="matrix(0.7071 -0.7071 0.7071 0.7071 -541.5667 637.5656)" class="st8" cx="498.8" cy="972.5" rx="28.4" ry="28.4"/>
			<circle class="st9" cx="581.2" cy="972.5" r="28.4"/>
		</g>
	</g>
</g>
</svg>
